G04*
G04 #@! TF.GenerationSoftware,Altium Limited,Altium Designer,20.1.8 (145)*
G04*
G04 Layer_Color=255*
%FSLAX25Y25*%
%MOIN*%
G70*
G04*
G04 #@! TF.SameCoordinates,44B5AA11-E380-4430-9A95-22E2941CD606*
G04*
G04*
G04 #@! TF.FilePolarity,Positive*
G04*
G01*
G75*
%ADD21R,0.04016X0.07165*%
%ADD22R,0.07165X0.04016*%
%ADD25O,0.09252X0.02559*%
%ADD26R,0.09252X0.02559*%
%ADD27R,0.02756X0.05118*%
%ADD68C,0.07874*%
%ADD69R,0.07874X0.07874*%
%ADD70C,0.05512*%
%ADD71C,0.15748*%
%ADD72C,0.10118*%
%ADD73C,0.06299*%
%ADD74R,0.07874X0.07874*%
%ADD75C,0.06000*%
%ADD76R,0.04449X0.04449*%
%ADD77C,0.04449*%
%ADD78R,0.07874X0.06299*%
%ADD79O,0.07874X0.06299*%
%ADD80R,0.04449X0.04449*%
%ADD81C,0.05307*%
%ADD82C,0.00100*%
%ADD83C,0.10630*%
%ADD86R,0.05118X0.02756*%
D21*
X283976Y323500D02*
D03*
X295000D02*
D03*
X397476Y307500D02*
D03*
X408500D02*
D03*
X473012Y307000D02*
D03*
X461988D02*
D03*
X320866Y26772D02*
D03*
X309842D02*
D03*
X360236Y27953D02*
D03*
X349213D02*
D03*
X401575D02*
D03*
X390551D02*
D03*
X442913Y27559D02*
D03*
X431890D02*
D03*
X483071Y26772D02*
D03*
X472047D02*
D03*
X121653Y22441D02*
D03*
X110630D02*
D03*
X163779Y22047D02*
D03*
X152756D02*
D03*
X204724D02*
D03*
X193701D02*
D03*
X244882Y24803D02*
D03*
X233858D02*
D03*
X70472Y471260D02*
D03*
X81496D02*
D03*
X108268Y473228D02*
D03*
X119291D02*
D03*
X153150Y472835D02*
D03*
X164173D02*
D03*
X194095Y472047D02*
D03*
X205118D02*
D03*
X233071Y470866D02*
D03*
X244094D02*
D03*
X351988Y325000D02*
D03*
X363012D02*
D03*
D22*
X28346Y171653D02*
D03*
Y182677D02*
D03*
X26378Y130315D02*
D03*
Y141339D02*
D03*
X25984Y90551D02*
D03*
Y101575D02*
D03*
X25197Y49606D02*
D03*
Y60630D02*
D03*
X512992Y138976D02*
D03*
Y127953D02*
D03*
X496453Y177299D02*
D03*
Y188323D02*
D03*
X196850Y221654D02*
D03*
Y232677D02*
D03*
X462598Y222835D02*
D03*
Y233858D02*
D03*
X492520Y220472D02*
D03*
Y231496D02*
D03*
X310236Y233071D02*
D03*
Y222047D02*
D03*
X265748Y233071D02*
D03*
Y222047D02*
D03*
X288189Y233071D02*
D03*
Y222047D02*
D03*
D25*
X454000Y297500D02*
D03*
Y287500D02*
D03*
Y277500D02*
D03*
X418173Y307500D02*
D03*
Y297500D02*
D03*
Y287500D02*
D03*
Y277500D02*
D03*
X340327Y305000D02*
D03*
Y295000D02*
D03*
Y285000D02*
D03*
X304500Y315000D02*
D03*
Y305000D02*
D03*
Y295000D02*
D03*
Y285000D02*
D03*
D26*
X454000Y307500D02*
D03*
X340327Y315000D02*
D03*
D27*
X71850Y480709D02*
D03*
X79331D02*
D03*
X109646Y482283D02*
D03*
X117126D02*
D03*
X154921Y482677D02*
D03*
X162402D02*
D03*
X191831Y482382D02*
D03*
X199311D02*
D03*
X234449Y482283D02*
D03*
X241929D02*
D03*
D68*
X8500Y181882D02*
D03*
Y171941D02*
D03*
X8520Y191902D02*
D03*
Y161902D02*
D03*
X38520Y191902D02*
D03*
Y181902D02*
D03*
Y171902D02*
D03*
X577953Y69685D02*
D03*
Y89370D02*
D03*
X481890Y38484D02*
D03*
X471890D02*
D03*
X461890D02*
D03*
X491890Y8484D02*
D03*
X461890D02*
D03*
X481850Y8465D02*
D03*
X471910D02*
D03*
X431890D02*
D03*
X441831D02*
D03*
X421870Y8484D02*
D03*
X451870D02*
D03*
X421870Y38484D02*
D03*
X431870D02*
D03*
X441870D02*
D03*
X401181Y38583D02*
D03*
X391181D02*
D03*
X381181D02*
D03*
X411181Y8583D02*
D03*
X381181D02*
D03*
X401142Y8563D02*
D03*
X391201D02*
D03*
X350650D02*
D03*
X360591D02*
D03*
X340630Y8583D02*
D03*
X370630D02*
D03*
X340630Y38583D02*
D03*
X350630D02*
D03*
X360630D02*
D03*
X320079D02*
D03*
X310079D02*
D03*
X300079D02*
D03*
X330079Y8583D02*
D03*
X300079D02*
D03*
X320039Y8563D02*
D03*
X310098D02*
D03*
X111909D02*
D03*
X121850D02*
D03*
X101890Y8583D02*
D03*
X131890D02*
D03*
X101890Y38583D02*
D03*
X111890D02*
D03*
X121890D02*
D03*
X162598D02*
D03*
X152598D02*
D03*
X142598D02*
D03*
X172598Y8583D02*
D03*
X142598D02*
D03*
X162559Y8563D02*
D03*
X152618D02*
D03*
X193327D02*
D03*
X203268D02*
D03*
X183307Y8583D02*
D03*
X213307D02*
D03*
X183307Y38583D02*
D03*
X193307D02*
D03*
X203307D02*
D03*
X244094D02*
D03*
X234095D02*
D03*
X224095D02*
D03*
X254095Y8583D02*
D03*
X224095D02*
D03*
X244055Y8563D02*
D03*
X234114D02*
D03*
X243441Y491500D02*
D03*
X233500D02*
D03*
X253461Y491480D02*
D03*
X223461D02*
D03*
X253461Y461480D02*
D03*
X243461D02*
D03*
X233461D02*
D03*
X112520D02*
D03*
X122520D02*
D03*
X132520D02*
D03*
X102520Y491480D02*
D03*
X132520D02*
D03*
X112559Y491500D02*
D03*
X122500D02*
D03*
X162480Y491520D02*
D03*
X152539D02*
D03*
X172500Y491500D02*
D03*
X142500D02*
D03*
X172500Y461500D02*
D03*
X162500D02*
D03*
X152500D02*
D03*
X72020Y461480D02*
D03*
X82020D02*
D03*
X92020D02*
D03*
X62020Y491480D02*
D03*
X92020D02*
D03*
X72059Y491500D02*
D03*
X82000D02*
D03*
X203000D02*
D03*
X193059D02*
D03*
X213020Y491480D02*
D03*
X183020D02*
D03*
X213020Y461480D02*
D03*
X203020D02*
D03*
X193020D02*
D03*
X8555Y100787D02*
D03*
Y90847D02*
D03*
X8575Y110807D02*
D03*
Y80807D02*
D03*
X38575Y110807D02*
D03*
Y100807D02*
D03*
Y90807D02*
D03*
X38500Y131441D02*
D03*
Y141441D02*
D03*
Y151441D02*
D03*
X8500Y121441D02*
D03*
Y151441D02*
D03*
X8480Y131480D02*
D03*
Y141421D02*
D03*
X8555Y59941D02*
D03*
Y50000D02*
D03*
X8575Y69961D02*
D03*
Y39961D02*
D03*
X38575Y69961D02*
D03*
Y59961D02*
D03*
Y49961D02*
D03*
D69*
X38520Y161902D02*
D03*
X38575Y80807D02*
D03*
X38500Y121441D02*
D03*
X38575Y39961D02*
D03*
D70*
X421079Y464492D02*
D03*
X413047D02*
D03*
X405016D02*
D03*
X396984D02*
D03*
X417063Y471500D02*
D03*
X409031D02*
D03*
X401000D02*
D03*
X392969D02*
D03*
X333000Y464500D02*
D03*
X324969D02*
D03*
X316937D02*
D03*
X308906D02*
D03*
X328984Y471508D02*
D03*
X320953D02*
D03*
X312921D02*
D03*
X304890D02*
D03*
X570992Y379453D02*
D03*
Y387484D02*
D03*
Y395516D02*
D03*
Y403547D02*
D03*
X578000Y383469D02*
D03*
Y391500D02*
D03*
Y399532D02*
D03*
Y407563D02*
D03*
X516079Y470992D02*
D03*
X508047D02*
D03*
X500016D02*
D03*
X491984D02*
D03*
X512063Y478000D02*
D03*
X504032D02*
D03*
X496000D02*
D03*
X487968D02*
D03*
X529134Y129528D02*
D03*
Y139370D02*
D03*
Y149213D02*
D03*
D71*
X432063Y481500D02*
D03*
X382063D02*
D03*
X343984Y481508D02*
D03*
X293984D02*
D03*
X588000Y368468D02*
D03*
Y418469D02*
D03*
X527063Y488000D02*
D03*
X477063D02*
D03*
D72*
X439071Y467996D02*
D03*
X375055D02*
D03*
X350992Y468004D02*
D03*
X286976D02*
D03*
X574496Y361461D02*
D03*
Y425476D02*
D03*
X534071Y474496D02*
D03*
X470055D02*
D03*
X93071Y348661D02*
D03*
X140551Y394882D02*
D03*
X139764Y348425D02*
D03*
X36614Y394882D02*
D03*
X96850Y298425D02*
D03*
X35433D02*
D03*
X36063Y347008D02*
D03*
X91339Y394882D02*
D03*
D73*
X417717Y387402D02*
D03*
Y377402D02*
D03*
X397795Y286221D02*
D03*
X387795D02*
D03*
X154488Y186221D02*
D03*
X144488D02*
D03*
X215512Y192520D02*
D03*
X205512D02*
D03*
X207874Y280315D02*
D03*
X197874D02*
D03*
X249606Y153150D02*
D03*
X239606D02*
D03*
X481653Y283465D02*
D03*
X471654D02*
D03*
X365000Y295000D02*
D03*
X355000D02*
D03*
X207087Y259055D02*
D03*
X197087D02*
D03*
X241339Y299370D02*
D03*
Y289370D02*
D03*
X292126Y301181D02*
D03*
X282126D02*
D03*
X359291Y403543D02*
D03*
X369291D02*
D03*
X242362Y405118D02*
D03*
X252362D02*
D03*
X329528Y341339D02*
D03*
X339528D02*
D03*
X271260Y386221D02*
D03*
X281260D02*
D03*
X104173Y189370D02*
D03*
X114173D02*
D03*
X72284Y188583D02*
D03*
X82284D02*
D03*
X308110Y169685D02*
D03*
X318110D02*
D03*
D74*
X491890Y38484D02*
D03*
X451870D02*
D03*
X411181Y38583D02*
D03*
X370630D02*
D03*
X330079D02*
D03*
X131890D02*
D03*
X172598D02*
D03*
X213307D02*
D03*
X254095D02*
D03*
X223461Y461480D02*
D03*
X102520D02*
D03*
X142500Y461500D02*
D03*
X62020Y461480D02*
D03*
X183020D02*
D03*
D75*
X578346Y146063D02*
D03*
X578740Y128740D02*
D03*
X18087Y17400D02*
D03*
Y482400D02*
D03*
X583087D02*
D03*
X580587Y17400D02*
D03*
D76*
X209409Y114449D02*
D03*
D77*
X199409D02*
D03*
X189409D02*
D03*
X179409D02*
D03*
X169409D02*
D03*
X159409D02*
D03*
X149409D02*
D03*
X139409D02*
D03*
Y83189D02*
D03*
X149409D02*
D03*
X159409D02*
D03*
X169409D02*
D03*
X179409D02*
D03*
X189409D02*
D03*
X199409D02*
D03*
X209409D02*
D03*
X422165Y137205D02*
D03*
Y127205D02*
D03*
Y117205D02*
D03*
Y107205D02*
D03*
Y97205D02*
D03*
Y87205D02*
D03*
Y77205D02*
D03*
X453425D02*
D03*
Y87205D02*
D03*
Y97205D02*
D03*
Y107205D02*
D03*
Y117205D02*
D03*
Y127205D02*
D03*
Y137205D02*
D03*
Y147205D02*
D03*
X367205Y87598D02*
D03*
Y97598D02*
D03*
Y107598D02*
D03*
Y117598D02*
D03*
Y127598D02*
D03*
Y137598D02*
D03*
Y147598D02*
D03*
X335945D02*
D03*
Y137598D02*
D03*
Y127598D02*
D03*
Y117598D02*
D03*
Y107598D02*
D03*
Y97598D02*
D03*
Y87598D02*
D03*
Y77598D02*
D03*
D78*
X573551Y224449D02*
D03*
D79*
Y234449D02*
D03*
Y244449D02*
D03*
Y254449D02*
D03*
D80*
X422165Y147205D02*
D03*
X367205Y77598D02*
D03*
D81*
X337804Y228193D02*
D03*
X109063D02*
D03*
D82*
X502835Y234098D02*
D03*
X399685Y228193D02*
D03*
X328552Y234098D02*
D03*
X118315Y228193D02*
D03*
D83*
X83071Y338661D02*
D03*
X103071D02*
D03*
Y358661D02*
D03*
X83071D02*
D03*
X130551Y384882D02*
D03*
X150551D02*
D03*
Y404882D02*
D03*
X130551D02*
D03*
X129764Y338425D02*
D03*
X149764D02*
D03*
Y358425D02*
D03*
X129764D02*
D03*
X26614Y384882D02*
D03*
X46614D02*
D03*
Y404882D02*
D03*
X26614D02*
D03*
X86850Y288425D02*
D03*
X106850D02*
D03*
Y308425D02*
D03*
X86850D02*
D03*
X25433Y288425D02*
D03*
X45433D02*
D03*
Y308425D02*
D03*
X25433D02*
D03*
X26063Y337008D02*
D03*
X46063D02*
D03*
Y357008D02*
D03*
X26063D02*
D03*
X81339Y384882D02*
D03*
X101339D02*
D03*
Y404882D02*
D03*
X81339D02*
D03*
D86*
X17717Y139173D02*
D03*
Y131693D02*
D03*
X467323Y292323D02*
D03*
Y299803D02*
D03*
X18898Y174606D02*
D03*
Y182087D02*
D03*
X18110Y92913D02*
D03*
Y100394D02*
D03*
X17323Y51378D02*
D03*
Y58858D02*
D03*
M02*
