G04*
G04 #@! TF.GenerationSoftware,Altium Limited,Altium Designer,20.1.8 (145)*
G04*
G04 Layer_Color=8421504*
%FSLAX25Y25*%
%MOIN*%
G70*
G04*
G04 #@! TF.SameCoordinates,44B5AA11-E380-4430-9A95-22E2941CD606*
G04*
G04*
G04 #@! TF.FilePolarity,Positive*
G04*
G01*
G75*
%ADD20R,0.07480X0.10984*%
%ADD21R,0.04016X0.07165*%
%ADD22R,0.07165X0.04016*%
%ADD23O,0.07087X0.02362*%
%ADD24R,0.07087X0.02362*%
%ADD25O,0.09252X0.02559*%
%ADD26R,0.09252X0.02559*%
%ADD27R,0.02756X0.05118*%
%ADD28R,0.03150X0.03150*%
%ADD29R,0.09843X0.07874*%
%ADD30R,0.09055X0.01968*%
%ADD31O,0.05709X0.02362*%
%ADD32R,0.01968X0.10724*%
%ADD33R,0.01969X0.10724*%
D20*
X546951Y192500D02*
D03*
X566049D02*
D03*
D21*
X317717Y77559D02*
D03*
X328740D02*
D03*
X221260Y74410D02*
D03*
X210236D02*
D03*
X248031Y386614D02*
D03*
X237008D02*
D03*
X361512Y315000D02*
D03*
X350488D02*
D03*
X284000Y315500D02*
D03*
X295024D02*
D03*
X471260Y136614D02*
D03*
X460236D02*
D03*
X526965Y194811D02*
D03*
X515941D02*
D03*
X525965Y181311D02*
D03*
X514941D02*
D03*
X467441Y183811D02*
D03*
X478465D02*
D03*
X381102Y386221D02*
D03*
X392126D02*
D03*
X462488Y316000D02*
D03*
X473512D02*
D03*
X478965Y195311D02*
D03*
X467941D02*
D03*
X408524Y314500D02*
D03*
X397500D02*
D03*
X459842Y151969D02*
D03*
X470866D02*
D03*
X202756Y325197D02*
D03*
X213779D02*
D03*
X373228Y87008D02*
D03*
X384252D02*
D03*
D22*
X143307Y61811D02*
D03*
Y72835D02*
D03*
X178347Y197638D02*
D03*
Y186614D02*
D03*
X584646Y224016D02*
D03*
Y235039D02*
D03*
X585039Y254724D02*
D03*
Y243701D02*
D03*
X248819Y185827D02*
D03*
Y196850D02*
D03*
D23*
X403634Y359000D02*
D03*
Y364000D02*
D03*
Y369000D02*
D03*
Y374000D02*
D03*
X374500Y359000D02*
D03*
Y364000D02*
D03*
Y369000D02*
D03*
X206134Y165500D02*
D03*
Y170500D02*
D03*
Y175500D02*
D03*
Y180500D02*
D03*
X177000Y165500D02*
D03*
Y170500D02*
D03*
Y175500D02*
D03*
X251000D02*
D03*
Y170500D02*
D03*
Y165500D02*
D03*
X280134Y180500D02*
D03*
Y175500D02*
D03*
Y170500D02*
D03*
Y165500D02*
D03*
X236000Y372000D02*
D03*
Y367000D02*
D03*
Y362000D02*
D03*
X265134Y377000D02*
D03*
Y372000D02*
D03*
Y367000D02*
D03*
Y362000D02*
D03*
X197866Y310000D02*
D03*
Y305000D02*
D03*
Y300000D02*
D03*
X227000Y315000D02*
D03*
Y310000D02*
D03*
Y305000D02*
D03*
Y300000D02*
D03*
D24*
X374500Y374000D02*
D03*
X177000Y180500D02*
D03*
X251000D02*
D03*
X236000Y377000D02*
D03*
X197866Y315000D02*
D03*
D25*
X453827Y277500D02*
D03*
Y287500D02*
D03*
Y297500D02*
D03*
Y307500D02*
D03*
X418000Y277500D02*
D03*
Y287500D02*
D03*
Y297500D02*
D03*
X339827Y285000D02*
D03*
Y295000D02*
D03*
Y305000D02*
D03*
Y315000D02*
D03*
X304000Y285000D02*
D03*
Y295000D02*
D03*
Y305000D02*
D03*
D26*
X418000Y307500D02*
D03*
X304000Y315000D02*
D03*
D27*
X479980Y297000D02*
D03*
X472500D02*
D03*
X362240Y305000D02*
D03*
X354760D02*
D03*
X497835Y163779D02*
D03*
X505315D02*
D03*
X303346Y342913D02*
D03*
X310827D02*
D03*
D28*
X481004Y165748D02*
D03*
X487500D02*
D03*
D29*
X590551Y154724D02*
D03*
X565354D02*
D03*
Y120079D02*
D03*
X590551D02*
D03*
D30*
X564961Y131102D02*
D03*
Y134252D02*
D03*
Y137402D02*
D03*
Y140551D02*
D03*
Y143701D02*
D03*
D31*
X506910Y178811D02*
D03*
Y183811D02*
D03*
Y188811D02*
D03*
Y193811D02*
D03*
X485453Y178811D02*
D03*
Y183811D02*
D03*
Y188811D02*
D03*
Y193811D02*
D03*
D32*
X496929Y237886D02*
D03*
Y218500D02*
D03*
X493780Y237886D02*
D03*
Y218500D02*
D03*
X490630Y237886D02*
D03*
Y218500D02*
D03*
X487480Y237886D02*
D03*
Y218500D02*
D03*
X484331Y237886D02*
D03*
Y218500D02*
D03*
X481181Y237886D02*
D03*
Y218500D02*
D03*
X478031Y237886D02*
D03*
Y218500D02*
D03*
X474882Y237886D02*
D03*
Y218500D02*
D03*
X471732Y237886D02*
D03*
Y218500D02*
D03*
X468583Y237886D02*
D03*
Y218500D02*
D03*
X465433D02*
D03*
X462284Y237886D02*
D03*
Y218500D02*
D03*
X459134Y237886D02*
D03*
Y218500D02*
D03*
X455984Y237886D02*
D03*
Y218500D02*
D03*
X452835Y237886D02*
D03*
Y218500D02*
D03*
X449685Y237886D02*
D03*
Y218500D02*
D03*
X446535Y237886D02*
D03*
Y218500D02*
D03*
X443386Y237886D02*
D03*
Y218500D02*
D03*
X440236Y237886D02*
D03*
Y218500D02*
D03*
X437087Y237886D02*
D03*
Y218500D02*
D03*
X433937Y237886D02*
D03*
Y218500D02*
D03*
X430787Y237886D02*
D03*
Y218500D02*
D03*
X427638Y237886D02*
D03*
Y218500D02*
D03*
X424488Y237886D02*
D03*
Y218500D02*
D03*
X421339Y237886D02*
D03*
Y218500D02*
D03*
X418189Y237886D02*
D03*
Y218500D02*
D03*
X415039Y237886D02*
D03*
Y218500D02*
D03*
X411890Y237886D02*
D03*
Y218500D02*
D03*
X408740Y237886D02*
D03*
Y218500D02*
D03*
X405590Y237886D02*
D03*
X405590Y218500D02*
D03*
X322646Y237886D02*
D03*
Y218500D02*
D03*
X319496Y237886D02*
D03*
Y218500D02*
D03*
X316347Y237886D02*
D03*
Y218500D02*
D03*
X313197Y237886D02*
D03*
Y218500D02*
D03*
X310047Y237886D02*
D03*
Y218500D02*
D03*
X306898Y237886D02*
D03*
Y218500D02*
D03*
X303748Y237886D02*
D03*
Y218500D02*
D03*
X300598Y237886D02*
D03*
Y218500D02*
D03*
X297449Y237886D02*
D03*
Y218500D02*
D03*
X294299Y237886D02*
D03*
Y218500D02*
D03*
X291150Y237886D02*
D03*
Y218500D02*
D03*
X288000Y237886D02*
D03*
Y218500D02*
D03*
X284850Y237886D02*
D03*
Y218500D02*
D03*
X281701Y237886D02*
D03*
Y218500D02*
D03*
X278551Y237886D02*
D03*
Y218500D02*
D03*
X275402Y237886D02*
D03*
Y218500D02*
D03*
X272252Y237886D02*
D03*
Y218500D02*
D03*
X269102Y237886D02*
D03*
Y218500D02*
D03*
X265953Y237886D02*
D03*
X262803D02*
D03*
Y218500D02*
D03*
X259653Y237886D02*
D03*
Y218500D02*
D03*
X256504Y237886D02*
D03*
Y218500D02*
D03*
X253354Y237886D02*
D03*
Y218500D02*
D03*
X250205Y237886D02*
D03*
X247055D02*
D03*
Y218500D02*
D03*
X243905Y237886D02*
D03*
Y218500D02*
D03*
X240756Y237886D02*
D03*
Y218500D02*
D03*
X237606Y237886D02*
D03*
Y218500D02*
D03*
X234457Y237886D02*
D03*
Y218500D02*
D03*
X231307Y237886D02*
D03*
Y218500D02*
D03*
X228157Y237886D02*
D03*
Y218500D02*
D03*
X225008Y237886D02*
D03*
Y218500D02*
D03*
X209260Y237886D02*
D03*
Y218500D02*
D03*
X206110Y237886D02*
D03*
Y218500D02*
D03*
X202961Y237886D02*
D03*
Y218500D02*
D03*
X199811Y237886D02*
D03*
Y218500D02*
D03*
X196661Y237886D02*
D03*
Y218500D02*
D03*
X193512Y237886D02*
D03*
Y218500D02*
D03*
X190362Y237886D02*
D03*
Y218500D02*
D03*
X187213Y237886D02*
D03*
Y218500D02*
D03*
X184063Y237886D02*
D03*
Y218500D02*
D03*
X180913Y237886D02*
D03*
Y218500D02*
D03*
X177764Y237886D02*
D03*
Y218500D02*
D03*
X174614Y237886D02*
D03*
Y218500D02*
D03*
X171465Y237886D02*
D03*
Y218500D02*
D03*
X168315Y237886D02*
D03*
Y218500D02*
D03*
X165165Y237886D02*
D03*
Y218500D02*
D03*
X162016Y237886D02*
D03*
Y218500D02*
D03*
X158866Y237886D02*
D03*
Y218500D02*
D03*
X155717Y237886D02*
D03*
Y218500D02*
D03*
X152567Y237886D02*
D03*
Y218500D02*
D03*
X149417Y237886D02*
D03*
Y218500D02*
D03*
X146268Y237886D02*
D03*
Y218500D02*
D03*
X143118Y237886D02*
D03*
Y218500D02*
D03*
X139969Y237886D02*
D03*
X139969Y218500D02*
D03*
X136819Y237886D02*
D03*
Y218500D02*
D03*
X133669Y237886D02*
D03*
X133669Y218500D02*
D03*
X130520Y237886D02*
D03*
Y218500D02*
D03*
X127370Y237886D02*
D03*
Y218500D02*
D03*
X124221Y237886D02*
D03*
Y218500D02*
D03*
D33*
X465433Y237886D02*
D03*
X265953Y218500D02*
D03*
X250205D02*
D03*
M02*
