G04*
G04 #@! TF.GenerationSoftware,Altium Limited,Altium Designer,20.1.8 (145)*
G04*
G04 Layer_Color=16711935*
%FSLAX25Y25*%
%MOIN*%
G70*
G04*
G04 #@! TF.SameCoordinates,44B5AA11-E380-4430-9A95-22E2941CD606*
G04*
G04*
G04 #@! TF.FilePolarity,Positive*
G04*
G01*
G75*
%ADD11C,0.00787*%
%ADD18C,0.00394*%
%ADD19R,0.02362X0.06299*%
D11*
X18701Y141732D02*
X21260D01*
Y132923D02*
Y141732D01*
X14173D02*
X18701D01*
X14173Y129134D02*
Y141732D01*
Y129134D02*
X21260D01*
Y132923D01*
X470866Y289764D02*
Y293553D01*
X463779Y289764D02*
X470866D01*
X463779D02*
Y302362D01*
X468307D01*
X470866Y293553D02*
Y302362D01*
X468307D02*
X470866D01*
X478750Y293457D02*
X482539D01*
Y300543D01*
X469941D02*
X482539D01*
X469941Y296016D02*
Y300543D01*
Y293457D02*
X478750D01*
X469941D02*
Y296016D01*
X361010Y301457D02*
X364799D01*
Y308543D01*
X352201D02*
X364799D01*
X352201Y304016D02*
Y308543D01*
Y301457D02*
X361010D01*
X352201D02*
Y304016D01*
X69291Y477165D02*
X73081D01*
X69291D02*
Y484252D01*
X81890D01*
Y479724D02*
Y484252D01*
X73081Y477165D02*
X81890D01*
Y479724D01*
X107087Y478740D02*
X110876D01*
X107087D02*
Y485827D01*
X119685D01*
Y481299D02*
Y485827D01*
X110876Y478740D02*
X119685D01*
Y481299D01*
X152362Y479134D02*
X156152D01*
X152362D02*
Y486221D01*
X164961D01*
Y481693D02*
Y486221D01*
X156152Y479134D02*
X164961D01*
Y481693D01*
X189272Y478839D02*
X193061D01*
X189272D02*
Y485925D01*
X201870D01*
Y481398D02*
Y485925D01*
X193061Y478839D02*
X201870D01*
Y481398D01*
X231890Y478740D02*
X235679D01*
X231890D02*
Y485827D01*
X244488D01*
Y481299D02*
Y485827D01*
X235679Y478740D02*
X244488D01*
Y481299D01*
X22441Y172047D02*
Y175837D01*
X15354Y172047D02*
X22441D01*
X15354D02*
Y184646D01*
X19882D01*
X22441Y175837D02*
Y184646D01*
X19882D02*
X22441D01*
X21654Y90354D02*
Y94144D01*
X14567Y90354D02*
X21654D01*
X14567D02*
Y102953D01*
X19094D01*
X21654Y94144D02*
Y102953D01*
X19094D02*
X21654D01*
X20866Y48819D02*
Y52608D01*
X13780Y48819D02*
X20866D01*
X13780D02*
Y61417D01*
X18307D01*
X20866Y52608D02*
Y61417D01*
X18307D02*
X20866D01*
X478346Y162598D02*
Y163386D01*
Y166535D02*
Y168898D01*
Y163386D02*
Y166535D01*
Y168898D02*
X492126D01*
Y162598D02*
Y168898D01*
X478346Y162598D02*
X492126D01*
X495276Y167323D02*
X499065D01*
X495276Y160236D02*
Y167323D01*
Y160236D02*
X507874D01*
Y164764D01*
X499065Y167323D02*
X507874D01*
Y164764D02*
Y167323D01*
X300787Y339370D02*
Y341929D01*
Y339370D02*
X309596D01*
X300787Y341929D02*
Y346457D01*
X313386D01*
Y339370D02*
Y346457D01*
X309596Y339370D02*
X313386D01*
D18*
X19291Y140551D02*
X16536D01*
Y139174D01*
X16996Y138715D01*
X17914D01*
X18373Y139174D01*
Y140551D01*
Y139633D02*
X19291Y138715D01*
Y137796D02*
Y136878D01*
Y137337D01*
X16536D01*
X16996Y137796D01*
Y135500D02*
X16536Y135041D01*
Y134123D01*
X16996Y133664D01*
X17455D01*
X17914Y134123D01*
Y134582D01*
Y134123D01*
X18373Y133664D01*
X18832D01*
X19291Y134123D01*
Y135041D01*
X18832Y135500D01*
X468898Y301181D02*
X466143D01*
Y299804D01*
X466602Y299344D01*
X467520D01*
X467979Y299804D01*
Y301181D01*
Y300263D02*
X468898Y299344D01*
Y298426D02*
Y297508D01*
Y297967D01*
X466143D01*
X466602Y298426D01*
X471122Y295425D02*
Y298180D01*
X472500D01*
X472959Y297721D01*
Y296803D01*
X472500Y296343D01*
X471122D01*
X472040D02*
X472959Y295425D01*
X473877Y297721D02*
X474336Y298180D01*
X475255D01*
X475714Y297721D01*
Y297262D01*
X475255Y296803D01*
X474795D01*
X475255D01*
X475714Y296343D01*
Y295884D01*
X475255Y295425D01*
X474336D01*
X473877Y295884D01*
X353382Y303425D02*
Y306180D01*
X354759D01*
X355219Y305721D01*
Y304803D01*
X354759Y304344D01*
X353382D01*
X354300D02*
X355219Y303425D01*
X356137Y303884D02*
X356596Y303425D01*
X357514D01*
X357974Y303884D01*
Y305721D01*
X357514Y306180D01*
X356596D01*
X356137Y305721D01*
Y305262D01*
X356596Y304803D01*
X357974D01*
X80709Y479134D02*
Y481889D01*
X79331D01*
X78872Y481430D01*
Y480511D01*
X79331Y480052D01*
X80709D01*
X79790D02*
X78872Y479134D01*
X77954Y481889D02*
X76117D01*
Y481430D01*
X77954Y479593D01*
Y479134D01*
X118504Y480709D02*
Y483464D01*
X117126D01*
X116667Y483005D01*
Y482086D01*
X117126Y481627D01*
X118504D01*
X117586D02*
X116667Y480709D01*
X113912Y483464D02*
X115749D01*
Y482086D01*
X114831Y482545D01*
X114371D01*
X113912Y482086D01*
Y481168D01*
X114371Y480709D01*
X115290D01*
X115749Y481168D01*
X163779Y481102D02*
Y483857D01*
X162402D01*
X161943Y483398D01*
Y482480D01*
X162402Y482021D01*
X163779D01*
X162861D02*
X161943Y481102D01*
X159188Y483857D02*
X160106Y483398D01*
X161024Y482480D01*
Y481562D01*
X160565Y481102D01*
X159647D01*
X159188Y481562D01*
Y482021D01*
X159647Y482480D01*
X161024D01*
X200689Y480807D02*
Y483562D01*
X199311D01*
X198852Y483103D01*
Y482185D01*
X199311Y481725D01*
X200689D01*
X199771D02*
X198852Y480807D01*
X197934D02*
X197016D01*
X197475D01*
Y483562D01*
X197934Y483103D01*
X195638D02*
X195179Y483562D01*
X194261D01*
X193801Y483103D01*
Y481266D01*
X194261Y480807D01*
X195179D01*
X195638Y481266D01*
Y483103D01*
X243307Y480709D02*
Y483464D01*
X241930D01*
X241470Y483005D01*
Y482086D01*
X241930Y481627D01*
X243307D01*
X242389D02*
X241470Y480709D01*
X239175D02*
Y483464D01*
X240552Y482086D01*
X238715D01*
X20472Y183465D02*
X17717D01*
Y182087D01*
X18177Y181628D01*
X19095D01*
X19554Y182087D01*
Y183465D01*
Y182546D02*
X20472Y181628D01*
Y180710D02*
Y179791D01*
Y180250D01*
X17717D01*
X18177Y180710D01*
X20472Y178414D02*
Y177495D01*
Y177954D01*
X17717D01*
X18177Y178414D01*
X19685Y101772D02*
X16930D01*
Y100394D01*
X17389Y99935D01*
X18307D01*
X18767Y100394D01*
Y101772D01*
Y100853D02*
X19685Y99935D01*
Y99017D02*
Y98098D01*
Y98558D01*
X16930D01*
X17389Y99017D01*
X19685Y94884D02*
Y96721D01*
X17848Y94884D01*
X17389D01*
X16930Y95343D01*
Y96262D01*
X17389Y96721D01*
X18898Y60236D02*
X16143D01*
Y58859D01*
X16602Y58399D01*
X17520D01*
X17979Y58859D01*
Y60236D01*
Y59318D02*
X18898Y58399D01*
Y57481D02*
Y56563D01*
Y57022D01*
X16143D01*
X16602Y57481D01*
X18898Y53808D02*
X16143D01*
X17520Y55185D01*
Y53349D01*
X488583Y164568D02*
Y167323D01*
X487205D01*
X486746Y166864D01*
Y165027D01*
X487205Y164568D01*
X488583D01*
X485828Y167323D02*
X484909D01*
X485368D01*
Y164568D01*
X485828Y165027D01*
X506693Y165354D02*
Y162599D01*
X505315D01*
X504856Y163058D01*
Y163977D01*
X505315Y164436D01*
X506693D01*
X505775D02*
X504856Y165354D01*
X502101D02*
X503938D01*
X502101Y163518D01*
Y163058D01*
X502560Y162599D01*
X503479D01*
X503938Y163058D01*
X301969Y341339D02*
Y344094D01*
X303346D01*
X303805Y343634D01*
Y342716D01*
X303346Y342257D01*
X301969D01*
X302887D02*
X303805Y341339D01*
X304724Y343634D02*
X305183Y344094D01*
X306101D01*
X306560Y343634D01*
Y343175D01*
X306101Y342716D01*
X306560Y342257D01*
Y341798D01*
X306101Y341339D01*
X305183D01*
X304724Y341798D01*
Y342257D01*
X305183Y342716D01*
X304724Y343175D01*
Y343634D01*
X305183Y342716D02*
X306101D01*
D19*
X490945Y165748D02*
D03*
M02*
