G04*
G04 #@! TF.GenerationSoftware,Altium Limited,Altium Designer,20.1.8 (145)*
G04*
G04 Layer_Physical_Order=4*
G04 Layer_Color=16711680*
%FSLAX25Y25*%
%MOIN*%
G70*
G04*
G04 #@! TF.SameCoordinates,44B5AA11-E380-4430-9A95-22E2941CD606*
G04*
G04*
G04 #@! TF.FilePolarity,Positive*
G04*
G01*
G75*
%ADD13C,0.01968*%
%ADD21R,0.04016X0.07165*%
%ADD22R,0.07165X0.04016*%
%ADD25O,0.09252X0.02559*%
%ADD26R,0.09252X0.02559*%
%ADD27R,0.02756X0.05118*%
%ADD66C,0.03937*%
%ADD67C,0.07874*%
%ADD68C,0.07874*%
%ADD69R,0.07874X0.07874*%
%ADD70C,0.05512*%
%ADD71C,0.15748*%
%ADD72C,0.10118*%
%ADD73C,0.06299*%
%ADD74R,0.07874X0.07874*%
%ADD75C,0.06000*%
%ADD76R,0.04449X0.04449*%
%ADD77C,0.04449*%
%ADD78R,0.07874X0.06299*%
%ADD79O,0.07874X0.06299*%
%ADD80R,0.04449X0.04449*%
%ADD81C,0.05307*%
%ADD82C,0.00100*%
%ADD83C,0.10630*%
%ADD84C,0.03937*%
%ADD85C,0.05000*%
%ADD86R,0.05118X0.02756*%
D13*
X171866Y222595D02*
Y256874D01*
X170472Y258268D02*
X171866Y256874D01*
X102520Y461480D02*
X141500Y422500D01*
X306000D01*
X17913Y100591D02*
X18110Y100394D01*
X17913Y100591D02*
Y104921D01*
X17717Y105118D02*
X17913Y104921D01*
X17717Y139173D02*
Y144488D01*
Y125591D02*
Y131693D01*
Y125591D02*
X21866Y121441D01*
X38500D01*
X25984Y141732D02*
X26378Y141339D01*
X25984Y141732D02*
Y147244D01*
X199311Y482382D02*
X199508Y482579D01*
X203642D01*
X203839Y482776D01*
X496850Y170866D02*
Y176116D01*
X496849Y176117D02*
X496850Y176116D01*
X496849Y176117D02*
X496850Y176118D01*
X496849Y176119D02*
X496850Y176118D01*
X496849Y176119D02*
X496850Y176120D01*
X496062Y176909D02*
X496850Y176120D01*
X496062Y176909D02*
X496453Y177299D01*
X198425Y232677D02*
X203543Y227559D01*
X196850Y232677D02*
X198425D01*
X310047Y233260D02*
X310236Y233071D01*
X310047Y233260D02*
Y245278D01*
X288189Y233071D02*
Y246063D01*
X344117Y254547D02*
X347262Y257693D01*
X270000Y254547D02*
X344117D01*
X264173Y233071D02*
X265748D01*
X260082Y228980D02*
X264173Y233071D01*
X257720Y228980D02*
X260082D01*
X257343Y228603D02*
X257720Y228980D01*
X309842Y26772D02*
X309961Y26890D01*
Y38465D02*
X310079Y38583D01*
X349213Y27953D02*
X349921Y28661D01*
Y37874D02*
X350630Y38583D01*
X390551Y27953D02*
X390866Y28268D01*
Y38268D02*
X391181Y38583D01*
X431880Y27569D02*
X431890Y27559D01*
X431870Y38484D02*
X431880Y38474D01*
X471969Y26850D02*
X472047Y26772D01*
X471890Y38484D02*
X471969Y38405D01*
X461024Y233858D02*
X462598D01*
X456282Y229117D02*
X461024Y233858D01*
X454314Y229117D02*
X456282D01*
X453937Y228740D02*
X454314Y229117D01*
X491496Y230472D02*
X492520Y231496D01*
X487698Y230472D02*
X491496D01*
X486753Y229528D02*
X487698Y230472D01*
X486221Y229528D02*
X486753D01*
X340157Y310629D02*
Y314830D01*
X340622Y315295D01*
X363012Y325000D02*
X363475Y325463D01*
Y329504D01*
X363851Y329881D01*
X454035Y307500D02*
X461488D01*
X454000D02*
X454035D01*
X454331Y307205D01*
Y302362D02*
Y307205D01*
X447390Y400890D02*
X484000Y437500D01*
X434543Y291453D02*
X447390Y304300D01*
Y400890D01*
X426087Y287500D02*
X430039Y291453D01*
X427000Y297500D02*
Y394500D01*
X430039Y291453D02*
X434543D01*
X427000Y394500D02*
X477500Y445000D01*
X478045Y305955D02*
X478517Y305483D01*
X474035Y305955D02*
X478045D01*
X343969Y315295D02*
X346374Y317701D01*
X340622Y315295D02*
X343969D01*
X348201Y317701D02*
X352000Y321500D01*
X346374Y317701D02*
X348201D01*
X473012Y306979D02*
Y307000D01*
Y306979D02*
X474035Y305955D01*
X288189Y222047D02*
X288402Y221835D01*
Y210630D02*
Y221835D01*
X196514Y210961D02*
Y221318D01*
X196850Y221654D01*
X362874Y253740D02*
X370276D01*
X371260Y254724D01*
X388583Y249213D02*
X388976Y249606D01*
X388583Y140787D02*
Y249213D01*
Y140787D02*
X422165Y107205D01*
X393335Y254724D02*
X394488Y253571D01*
Y215769D02*
X398758Y211499D01*
X394488Y215769D02*
Y253571D01*
X371260Y254724D02*
X393335D01*
X187626Y203145D02*
X203385Y187386D01*
X187626Y203145D02*
Y206836D01*
X171866Y222595D02*
X187626Y206836D01*
X203385Y187386D02*
X215370D01*
X457086Y280586D02*
Y282283D01*
X454000Y277500D02*
X457086Y280586D01*
X310236Y206693D02*
Y222047D01*
X462205Y222441D02*
X462598Y222835D01*
X462205Y210236D02*
Y222441D01*
X304331Y315169D02*
Y320079D01*
Y315169D02*
X304500Y315000D01*
X265748Y222047D02*
X265953Y221843D01*
Y211107D02*
Y221843D01*
X215370Y187386D02*
X229724Y173031D01*
X242610Y258319D02*
X244291Y260000D01*
X246000D01*
X242610Y257830D02*
Y258319D01*
X238342Y260312D02*
X246860Y268829D01*
Y270860D01*
X255000Y279000D02*
Y307500D01*
X246860Y270860D02*
X255000Y279000D01*
X329528Y312453D02*
Y341339D01*
Y312453D02*
X336980Y305000D01*
X340327D01*
X314250D02*
X324000D01*
X460741Y188736D02*
X477091D01*
X418173Y307500D02*
Y314504D01*
X418110Y314567D02*
X418173Y314504D01*
X325030Y295608D02*
X325813Y296391D01*
X420847Y257693D02*
X450654Y287500D01*
X347262Y257693D02*
X420847D01*
X414653Y261500D02*
X450654Y297500D01*
X267533Y261500D02*
X414653D01*
X266047Y262453D02*
X266580D01*
X267533Y261500D01*
X398758Y190875D02*
X426374Y163258D01*
Y144256D02*
Y163258D01*
X398758Y190875D02*
Y211499D01*
X426374Y144256D02*
X453425Y117205D01*
X450654Y297500D02*
X454000D01*
X450654Y287500D02*
X454000D01*
X418173Y272860D02*
Y277500D01*
X419000Y271500D02*
Y272033D01*
X414987Y277500D02*
X418173D01*
X414714Y277227D02*
X414987Y277500D01*
X418173Y272860D02*
X419000Y272033D01*
X349827Y275500D02*
X354500D01*
X312205Y272047D02*
X318110Y266142D01*
X312205Y272047D02*
X318226D01*
X258047D02*
X312205D01*
X322075Y295608D02*
X325030D01*
X321467Y295000D02*
X322075Y295608D01*
X393000Y307500D02*
X397476D01*
X255000Y279000D02*
X255953Y279953D01*
X246000Y260000D02*
X258047Y272047D01*
X340327Y285000D02*
X349827Y275500D01*
X255953Y279953D02*
X321933D01*
X336980Y295000D01*
X318226Y272047D02*
X334442Y288264D01*
X304500Y305000D02*
X314250D01*
X300000Y453000D02*
X314250Y438750D01*
Y305000D02*
Y438750D01*
X340327Y305000D02*
X343509D01*
X346937Y293648D02*
Y297612D01*
X343509Y305000D02*
X343781Y304727D01*
X341553Y288264D02*
X346937Y293648D01*
X343781Y300768D02*
Y304727D01*
X334442Y288264D02*
X341553D01*
X343781Y300768D02*
X346937Y297612D01*
X336980Y295000D02*
X340327D01*
X304500D02*
X321467D01*
X301153Y315000D02*
X304500D01*
X296024Y320130D02*
X301153Y315000D01*
X296024Y320130D02*
Y322476D01*
X295000Y323500D02*
X296024Y322476D01*
X426087Y287500D02*
X434000D01*
X418173D02*
X426087D01*
X427000Y297500D02*
X433467D01*
X418173D02*
X427000D01*
X433967Y297000D02*
X434500D01*
X433467Y297500D02*
X433967Y297000D01*
X461488Y307500D02*
X461988Y307000D01*
X408500Y307500D02*
X418173D01*
X496453Y177299D02*
X497453Y176299D01*
D21*
X283976Y323500D02*
D03*
X295000D02*
D03*
X397476Y307500D02*
D03*
X408500D02*
D03*
X473012Y307000D02*
D03*
X461988D02*
D03*
X320866Y26772D02*
D03*
X309842D02*
D03*
X360236Y27953D02*
D03*
X349213D02*
D03*
X401575D02*
D03*
X390551D02*
D03*
X442913Y27559D02*
D03*
X431890D02*
D03*
X483071Y26772D02*
D03*
X472047D02*
D03*
X121653Y22441D02*
D03*
X110630D02*
D03*
X163779Y22047D02*
D03*
X152756D02*
D03*
X204724D02*
D03*
X193701D02*
D03*
X244882Y24803D02*
D03*
X233858D02*
D03*
X70472Y471260D02*
D03*
X81496D02*
D03*
X108268Y473228D02*
D03*
X119291D02*
D03*
X153150Y472835D02*
D03*
X164173D02*
D03*
X194095Y472047D02*
D03*
X205118D02*
D03*
X233071Y470866D02*
D03*
X244094D02*
D03*
X351988Y325000D02*
D03*
X363012D02*
D03*
D22*
X28346Y171653D02*
D03*
Y182677D02*
D03*
X26378Y130315D02*
D03*
Y141339D02*
D03*
X25984Y90551D02*
D03*
Y101575D02*
D03*
X25197Y49606D02*
D03*
Y60630D02*
D03*
X512992Y138976D02*
D03*
Y127953D02*
D03*
X496453Y177299D02*
D03*
Y188323D02*
D03*
X196850Y221654D02*
D03*
Y232677D02*
D03*
X462598Y222835D02*
D03*
Y233858D02*
D03*
X492520Y220472D02*
D03*
Y231496D02*
D03*
X310236Y233071D02*
D03*
Y222047D02*
D03*
X265748Y233071D02*
D03*
Y222047D02*
D03*
X288189Y233071D02*
D03*
Y222047D02*
D03*
D25*
X454000Y297500D02*
D03*
Y287500D02*
D03*
Y277500D02*
D03*
X418173Y307500D02*
D03*
Y297500D02*
D03*
Y287500D02*
D03*
Y277500D02*
D03*
X340327Y305000D02*
D03*
Y295000D02*
D03*
Y285000D02*
D03*
X304500Y315000D02*
D03*
Y305000D02*
D03*
Y295000D02*
D03*
Y285000D02*
D03*
D26*
X454000Y307500D02*
D03*
X340327Y315000D02*
D03*
D27*
X71850Y480709D02*
D03*
X79331D02*
D03*
X109646Y482283D02*
D03*
X117126D02*
D03*
X154921Y482677D02*
D03*
X162402D02*
D03*
X191831Y482382D02*
D03*
X199311D02*
D03*
X234449Y482283D02*
D03*
X241929D02*
D03*
D66*
X96850Y187008D02*
X169409Y114449D01*
X96850Y187008D02*
Y298425D01*
X163961Y141157D02*
X174602Y130516D01*
X163961Y141157D02*
Y175378D01*
X174602Y100594D02*
Y130516D01*
X181102Y137795D02*
X214567Y171260D01*
X181102Y132677D02*
Y137795D01*
X163961Y175378D02*
X164173Y175591D01*
X91339Y394882D02*
X92126Y394094D01*
X110630D01*
X116929Y311811D02*
Y387795D01*
X110630Y394094D02*
X116929Y387795D01*
Y311811D02*
X170472Y258268D01*
X62020Y461480D02*
X109500Y414000D01*
X307000D01*
X139764Y316378D02*
Y348425D01*
Y316378D02*
X197087Y259055D01*
X66535Y480315D02*
X71457D01*
X71850Y480709D01*
X62020Y475799D02*
X66535Y480315D01*
X62020Y461480D02*
Y475799D01*
X81496Y471260D02*
X87008D01*
X17323Y58858D02*
Y64567D01*
X80118Y479921D02*
X85433D01*
X79331Y480709D02*
X80118Y479921D01*
X117717Y481496D02*
X122835D01*
X117126Y482087D02*
X117717Y481496D01*
X119685Y472835D02*
X124016D01*
X119291Y473228D02*
X119685Y472835D01*
X244094Y470866D02*
X248819D01*
X242323Y483071D02*
X247638D01*
X241732Y482480D02*
X242323Y483071D01*
X206693Y472047D02*
X211024D01*
X205906Y472835D02*
X206693Y472047D01*
X183020Y461480D02*
Y473571D01*
X191831Y482382D01*
Y482382D01*
X164961Y472047D02*
X169685D01*
X164173Y472835D02*
X164961Y472047D01*
X162598Y483071D02*
X167323D01*
X162402Y483268D02*
X162598Y483071D01*
X477504Y188323D02*
X496453D01*
X324016Y89528D02*
X335945Y77598D01*
X215748Y89528D02*
X324016D01*
X335945Y77598D02*
X358558D01*
X512992Y127953D02*
X527133D01*
X528708Y129528D01*
X529134D01*
X512992Y138976D02*
Y144488D01*
X401934Y28890D02*
X403150Y27675D01*
X232677Y470866D02*
Y472047D01*
X24016Y129921D02*
X35915D01*
X32283Y90591D02*
X38358D01*
X32677Y49252D02*
X37866D01*
X28346Y171653D02*
X28386Y171693D01*
X38311D01*
X38520Y171902D01*
X38520Y161902D02*
X38520Y161902D01*
X28310Y161902D02*
X38520D01*
X19488Y170723D02*
X28310Y161902D01*
X282921Y323622D02*
X283858D01*
X282799Y323500D02*
X282921Y323622D01*
X282799Y323500D02*
X283976D01*
X110630Y22441D02*
Y36257D01*
X111890Y37517D01*
Y38583D01*
X152717Y22087D02*
X152756Y22047D01*
X152717Y22087D02*
Y38465D01*
X152598Y38583D02*
X152717Y38465D01*
X193661Y22087D02*
X193701Y22047D01*
X193661Y22087D02*
Y38228D01*
X193307Y38583D02*
X193661Y38228D01*
X233858Y24803D02*
X233898Y24843D01*
Y38386D01*
X234095Y38583D01*
X309961Y26890D02*
Y38465D01*
X349921Y28661D02*
Y37874D01*
X390866Y28268D02*
Y38268D01*
X431880Y27569D02*
Y38474D01*
X471969Y26850D02*
Y38405D01*
X241732Y482480D02*
X241929Y482283D01*
X205118Y472047D02*
X205906Y472835D01*
X162402Y482677D02*
Y483268D01*
X117126Y482087D02*
Y482283D01*
X32244Y49567D02*
X32677Y50000D01*
X25197Y49606D02*
X25236Y49567D01*
X32244D01*
X448826Y60233D02*
X451968D01*
Y67402D01*
X446520Y57926D02*
X448826Y60233D01*
X351988Y325000D02*
Y326575D01*
X361634Y336221D01*
X368110D01*
X377559Y326772D01*
X408661D01*
X461988Y307000D02*
Y308575D01*
X468017Y314604D01*
X476378D01*
X508303Y282679D01*
Y217626D02*
Y282679D01*
X496453Y188323D02*
Y205776D01*
X508303Y217626D01*
X209409Y83189D02*
X215748Y89528D01*
X454564Y52989D02*
X462992Y61417D01*
Y137638D01*
X358558Y77598D02*
X383167Y52989D01*
X454564D01*
X453425Y147205D02*
X462992Y137638D01*
X453425Y147205D02*
X470490Y164269D01*
Y168127D01*
X470866Y168504D01*
X106271Y480090D02*
X109646Y483465D01*
X102520Y461480D02*
Y477269D01*
X105341Y480090D01*
X106271D01*
X229724Y173031D02*
X231720D01*
X232283Y173594D01*
X248819Y220324D02*
Y252791D01*
X454000Y287500D02*
X462500D01*
X467323Y292323D01*
X248819Y220324D02*
X310693Y158450D01*
X332437D01*
X341138Y133665D02*
Y149749D01*
X332437Y158450D02*
X341138Y149749D01*
X492520Y209842D02*
Y220472D01*
X221654Y164961D02*
X229724Y173031D01*
X174602Y100594D02*
X175197Y100000D01*
X339528Y341339D02*
X345276D01*
X464772Y174598D02*
X470866Y168504D01*
X463591Y174598D02*
X464772D01*
X457874Y180315D02*
X463591Y174598D01*
X477091Y188736D02*
X477504Y188323D01*
X457874Y185869D02*
X460741Y188736D01*
X457874Y180315D02*
Y185869D01*
X462028Y305098D02*
X467323Y299803D01*
X462028Y305098D02*
Y306961D01*
X461988Y307000D02*
X462028Y306961D01*
X18898Y174606D02*
X19488Y174016D01*
Y170723D02*
Y174016D01*
X18110Y92913D02*
X18701Y92323D01*
Y88046D02*
Y92323D01*
Y88046D02*
X21172Y85575D01*
X33807D01*
X38575Y80807D01*
X17323Y51378D02*
X17913Y50787D01*
Y47101D02*
Y50787D01*
Y47101D02*
X25054Y39961D01*
X38575D01*
X223461Y461480D02*
X223488Y461508D01*
Y471323D01*
X234449Y482283D01*
X25984Y90551D02*
X26024Y90591D01*
X32244D02*
X32283Y90551D01*
X26024Y90591D02*
X32244D01*
X194095Y472047D02*
Y473622D01*
Y463621D02*
Y472047D01*
X27165Y171653D02*
X28346D01*
X232677Y470866D02*
X232716Y470827D01*
Y462224D02*
Y470827D01*
X70118Y468819D02*
X71266Y467671D01*
X108268Y473228D02*
Y474803D01*
Y469252D02*
Y473228D01*
X154921Y483465D02*
Y483465D01*
X154331Y482874D02*
X154921Y483465D01*
X151038Y482874D02*
X154331D01*
X142500Y474336D02*
X151038Y482874D01*
X142500Y461500D02*
Y474336D01*
X37866Y49252D02*
X38575Y49961D01*
X38358Y90591D02*
X38575Y90807D01*
X35915Y129921D02*
X37435Y131441D01*
X38500D01*
X71266Y462234D02*
Y467671D01*
Y462234D02*
X72020Y461480D01*
X108268Y469252D02*
X111766Y465753D01*
Y462234D02*
Y465753D01*
Y462234D02*
X112520Y461480D01*
X153110Y475157D02*
X153150Y475197D01*
X153110Y462110D02*
Y475157D01*
X152500Y461500D02*
X153110Y462110D01*
X193020Y462546D02*
X194095Y463621D01*
X193020Y461480D02*
Y462546D01*
X232716Y462224D02*
X233461Y461480D01*
X360236Y27953D02*
X360276Y27992D01*
Y38228D01*
X360630Y38583D01*
X403150Y27559D02*
Y27675D01*
X401934Y28890D02*
Y37829D01*
X401181Y38583D02*
X401934Y37829D01*
X401575Y27953D02*
X402756D01*
X403150Y27559D01*
X442874Y27598D02*
X442913Y27559D01*
X442874Y27598D02*
Y36415D01*
X441870Y37419D02*
X442874Y36415D01*
X441870Y37419D02*
Y38484D01*
X483049Y26794D02*
X483071Y26772D01*
X483049Y26794D02*
Y36260D01*
X481890Y37419D02*
X483049Y36260D01*
X481890Y37419D02*
Y38484D01*
X320827Y26811D02*
X320866Y26772D01*
X320827Y26811D02*
Y37835D01*
X320079Y38583D02*
X320827Y37835D01*
X244843Y24843D02*
X244882Y24803D01*
X244843Y24843D02*
Y37835D01*
X244094Y38583D02*
X244843Y37835D01*
X121653Y22441D02*
X121693Y22480D01*
Y38386D01*
X121890Y38583D01*
X163779Y22047D02*
Y36336D01*
X162598Y37517D02*
X163779Y36336D01*
X162598Y37517D02*
Y38583D01*
X204724Y22047D02*
Y36100D01*
X203307Y37517D02*
X204724Y36100D01*
X203307Y37517D02*
Y38583D01*
X341138Y133665D02*
X367205Y107598D01*
X422165Y97205D02*
X451968Y67402D01*
X221654Y125591D02*
Y164961D01*
X320953Y471508D02*
Y483953D01*
X321500Y484500D01*
X316937Y464500D02*
Y464926D01*
X320651Y468641D01*
X296000Y285000D02*
X304500D01*
D67*
X26378Y61811D02*
Y66535D01*
X25197Y60630D02*
X26378Y61811D01*
X27165Y102756D02*
Y107480D01*
X25984Y101575D02*
X27165Y102756D01*
X28346Y182677D02*
Y187795D01*
X18504Y182283D02*
Y187008D01*
Y182283D02*
X18701Y182087D01*
X18898D01*
D68*
X8500Y181882D02*
D03*
Y171941D02*
D03*
X8520Y191902D02*
D03*
Y161902D02*
D03*
X38520Y191902D02*
D03*
Y181902D02*
D03*
Y171902D02*
D03*
X577953Y69685D02*
D03*
Y89370D02*
D03*
X481890Y38484D02*
D03*
X471890D02*
D03*
X461890D02*
D03*
X491890Y8484D02*
D03*
X461890D02*
D03*
X481850Y8465D02*
D03*
X471910D02*
D03*
X431890D02*
D03*
X441831D02*
D03*
X421870Y8484D02*
D03*
X451870D02*
D03*
X421870Y38484D02*
D03*
X431870D02*
D03*
X441870D02*
D03*
X401181Y38583D02*
D03*
X391181D02*
D03*
X381181D02*
D03*
X411181Y8583D02*
D03*
X381181D02*
D03*
X401142Y8563D02*
D03*
X391201D02*
D03*
X350650D02*
D03*
X360591D02*
D03*
X340630Y8583D02*
D03*
X370630D02*
D03*
X340630Y38583D02*
D03*
X350630D02*
D03*
X360630D02*
D03*
X320079D02*
D03*
X310079D02*
D03*
X300079D02*
D03*
X330079Y8583D02*
D03*
X300079D02*
D03*
X320039Y8563D02*
D03*
X310098D02*
D03*
X111909D02*
D03*
X121850D02*
D03*
X101890Y8583D02*
D03*
X131890D02*
D03*
X101890Y38583D02*
D03*
X111890D02*
D03*
X121890D02*
D03*
X162598D02*
D03*
X152598D02*
D03*
X142598D02*
D03*
X172598Y8583D02*
D03*
X142598D02*
D03*
X162559Y8563D02*
D03*
X152618D02*
D03*
X193327D02*
D03*
X203268D02*
D03*
X183307Y8583D02*
D03*
X213307D02*
D03*
X183307Y38583D02*
D03*
X193307D02*
D03*
X203307D02*
D03*
X244094D02*
D03*
X234095D02*
D03*
X224095D02*
D03*
X254095Y8583D02*
D03*
X224095D02*
D03*
X244055Y8563D02*
D03*
X234114D02*
D03*
X243441Y491500D02*
D03*
X233500D02*
D03*
X253461Y491480D02*
D03*
X223461D02*
D03*
X253461Y461480D02*
D03*
X243461D02*
D03*
X233461D02*
D03*
X112520D02*
D03*
X122520D02*
D03*
X132520D02*
D03*
X102520Y491480D02*
D03*
X132520D02*
D03*
X112559Y491500D02*
D03*
X122500D02*
D03*
X162480Y491520D02*
D03*
X152539D02*
D03*
X172500Y491500D02*
D03*
X142500D02*
D03*
X172500Y461500D02*
D03*
X162500D02*
D03*
X152500D02*
D03*
X72020Y461480D02*
D03*
X82020D02*
D03*
X92020D02*
D03*
X62020Y491480D02*
D03*
X92020D02*
D03*
X72059Y491500D02*
D03*
X82000D02*
D03*
X203000D02*
D03*
X193059D02*
D03*
X213020Y491480D02*
D03*
X183020D02*
D03*
X213020Y461480D02*
D03*
X203020D02*
D03*
X193020D02*
D03*
X8555Y100787D02*
D03*
Y90847D02*
D03*
X8575Y110807D02*
D03*
Y80807D02*
D03*
X38575Y110807D02*
D03*
Y100807D02*
D03*
Y90807D02*
D03*
X38500Y131441D02*
D03*
Y141441D02*
D03*
Y151441D02*
D03*
X8500Y121441D02*
D03*
Y151441D02*
D03*
X8480Y131480D02*
D03*
Y141421D02*
D03*
X8555Y59941D02*
D03*
Y50000D02*
D03*
X8575Y69961D02*
D03*
Y39961D02*
D03*
X38575Y69961D02*
D03*
Y59961D02*
D03*
Y49961D02*
D03*
D69*
X38520Y161902D02*
D03*
X38575Y80807D02*
D03*
X38500Y121441D02*
D03*
X38575Y39961D02*
D03*
D70*
X421079Y464492D02*
D03*
X413047D02*
D03*
X405016D02*
D03*
X396984D02*
D03*
X417063Y471500D02*
D03*
X409031D02*
D03*
X401000D02*
D03*
X392969D02*
D03*
X333000Y464500D02*
D03*
X324969D02*
D03*
X316937D02*
D03*
X308906D02*
D03*
X328984Y471508D02*
D03*
X320953D02*
D03*
X312921D02*
D03*
X304890D02*
D03*
X570992Y379453D02*
D03*
Y387484D02*
D03*
Y395516D02*
D03*
Y403547D02*
D03*
X578000Y383469D02*
D03*
Y391500D02*
D03*
Y399532D02*
D03*
Y407563D02*
D03*
X516079Y470992D02*
D03*
X508047D02*
D03*
X500016D02*
D03*
X491984D02*
D03*
X512063Y478000D02*
D03*
X504032D02*
D03*
X496000D02*
D03*
X487968D02*
D03*
X529134Y129528D02*
D03*
Y139370D02*
D03*
Y149213D02*
D03*
D71*
X432063Y481500D02*
D03*
X382063D02*
D03*
X343984Y481508D02*
D03*
X293984D02*
D03*
X588000Y368468D02*
D03*
Y418469D02*
D03*
X527063Y488000D02*
D03*
X477063D02*
D03*
D72*
X439071Y467996D02*
D03*
X375055D02*
D03*
X350992Y468004D02*
D03*
X286976D02*
D03*
X574496Y361461D02*
D03*
Y425476D02*
D03*
X534071Y474496D02*
D03*
X470055D02*
D03*
X93071Y348661D02*
D03*
X140551Y394882D02*
D03*
X139764Y348425D02*
D03*
X36614Y394882D02*
D03*
X96850Y298425D02*
D03*
X35433D02*
D03*
X36063Y347008D02*
D03*
X91339Y394882D02*
D03*
D73*
X417717Y387402D02*
D03*
Y377402D02*
D03*
X397795Y286221D02*
D03*
X387795D02*
D03*
X154488Y186221D02*
D03*
X144488D02*
D03*
X215512Y192520D02*
D03*
X205512D02*
D03*
X207874Y280315D02*
D03*
X197874D02*
D03*
X249606Y153150D02*
D03*
X239606D02*
D03*
X481653Y283465D02*
D03*
X471654D02*
D03*
X365000Y295000D02*
D03*
X355000D02*
D03*
X207087Y259055D02*
D03*
X197087D02*
D03*
X241339Y299370D02*
D03*
Y289370D02*
D03*
X292126Y301181D02*
D03*
X282126D02*
D03*
X359291Y403543D02*
D03*
X369291D02*
D03*
X242362Y405118D02*
D03*
X252362D02*
D03*
X329528Y341339D02*
D03*
X339528D02*
D03*
X271260Y386221D02*
D03*
X281260D02*
D03*
X104173Y189370D02*
D03*
X114173D02*
D03*
X72284Y188583D02*
D03*
X82284D02*
D03*
X308110Y169685D02*
D03*
X318110D02*
D03*
D74*
X491890Y38484D02*
D03*
X451870D02*
D03*
X411181Y38583D02*
D03*
X370630D02*
D03*
X330079D02*
D03*
X131890D02*
D03*
X172598D02*
D03*
X213307D02*
D03*
X254095D02*
D03*
X223461Y461480D02*
D03*
X102520D02*
D03*
X142500Y461500D02*
D03*
X62020Y461480D02*
D03*
X183020D02*
D03*
D75*
X578346Y146063D02*
D03*
X578740Y128740D02*
D03*
X18087Y17400D02*
D03*
Y482400D02*
D03*
X583087D02*
D03*
X580587Y17400D02*
D03*
D76*
X209409Y114449D02*
D03*
D77*
X199409D02*
D03*
X189409D02*
D03*
X179409D02*
D03*
X169409D02*
D03*
X159409D02*
D03*
X149409D02*
D03*
X139409D02*
D03*
Y83189D02*
D03*
X149409D02*
D03*
X159409D02*
D03*
X169409D02*
D03*
X179409D02*
D03*
X189409D02*
D03*
X199409D02*
D03*
X209409D02*
D03*
X422165Y137205D02*
D03*
Y127205D02*
D03*
Y117205D02*
D03*
Y107205D02*
D03*
Y97205D02*
D03*
Y87205D02*
D03*
Y77205D02*
D03*
X453425D02*
D03*
Y87205D02*
D03*
Y97205D02*
D03*
Y107205D02*
D03*
Y117205D02*
D03*
Y127205D02*
D03*
Y137205D02*
D03*
Y147205D02*
D03*
X367205Y87598D02*
D03*
Y97598D02*
D03*
Y107598D02*
D03*
Y117598D02*
D03*
Y127598D02*
D03*
Y137598D02*
D03*
Y147598D02*
D03*
X335945D02*
D03*
Y137598D02*
D03*
Y127598D02*
D03*
Y117598D02*
D03*
Y107598D02*
D03*
Y97598D02*
D03*
Y87598D02*
D03*
Y77598D02*
D03*
D78*
X573551Y224449D02*
D03*
D79*
Y234449D02*
D03*
Y244449D02*
D03*
Y254449D02*
D03*
D80*
X422165Y147205D02*
D03*
X367205Y77598D02*
D03*
D81*
X337804Y228193D02*
D03*
X109063D02*
D03*
D82*
X502835Y234098D02*
D03*
X399685Y228193D02*
D03*
X328552Y234098D02*
D03*
X118315Y228193D02*
D03*
D83*
X83071Y338661D02*
D03*
X103071D02*
D03*
Y358661D02*
D03*
X83071D02*
D03*
X130551Y384882D02*
D03*
X150551D02*
D03*
Y404882D02*
D03*
X130551D02*
D03*
X129764Y338425D02*
D03*
X149764D02*
D03*
Y358425D02*
D03*
X129764D02*
D03*
X26614Y384882D02*
D03*
X46614D02*
D03*
Y404882D02*
D03*
X26614D02*
D03*
X86850Y288425D02*
D03*
X106850D02*
D03*
Y308425D02*
D03*
X86850D02*
D03*
X25433Y288425D02*
D03*
X45433D02*
D03*
Y308425D02*
D03*
X25433D02*
D03*
X26063Y337008D02*
D03*
X46063D02*
D03*
Y357008D02*
D03*
X26063D02*
D03*
X81339Y384882D02*
D03*
X101339D02*
D03*
Y404882D02*
D03*
X81339D02*
D03*
D84*
X558268Y146850D02*
D03*
X571260Y147244D02*
D03*
X194095Y318898D02*
D03*
X181102Y132677D02*
D03*
X237606Y211107D02*
D03*
X87008Y471260D02*
D03*
X17323Y64567D02*
D03*
X26378Y66535D02*
D03*
X17717Y105118D02*
D03*
X27165Y107480D02*
D03*
X17717Y144488D02*
D03*
X25984Y147244D02*
D03*
X28346Y187795D02*
D03*
X18504Y187008D02*
D03*
X85433Y479921D02*
D03*
X122835Y481496D02*
D03*
X124016Y472835D02*
D03*
X248819Y470866D02*
D03*
X247638Y483071D02*
D03*
X211024Y472047D02*
D03*
X203839Y482776D02*
D03*
X169685Y472047D02*
D03*
X167323Y483071D02*
D03*
X538189Y187795D02*
D03*
X531453Y194311D02*
D03*
X515993Y201820D02*
D03*
X496850Y170866D02*
D03*
X512992Y144488D02*
D03*
X594488Y244094D02*
D03*
X592520Y234646D02*
D03*
X203543Y227559D02*
D03*
X462247Y245317D02*
D03*
X257343Y228603D02*
D03*
X266756Y246063D02*
D03*
X310047Y245278D02*
D03*
X283858Y323622D02*
D03*
X284252Y314961D02*
D03*
X478346Y175591D02*
D03*
X196457Y246063D02*
D03*
X202362Y170079D02*
D03*
X453937Y228740D02*
D03*
X486221Y229528D02*
D03*
X497316Y244765D02*
D03*
X573622Y216929D02*
D03*
X530953Y181311D02*
D03*
X507480Y200394D02*
D03*
X172850Y180709D02*
D03*
X173228Y186614D02*
D03*
X206693Y183071D02*
D03*
X245669Y180709D02*
D03*
X279506Y182655D02*
D03*
X285827Y170472D02*
D03*
X288189Y246063D02*
D03*
X407874Y363779D02*
D03*
X403543Y376772D02*
D03*
X374016D02*
D03*
X377953Y385433D02*
D03*
X269685Y367323D02*
D03*
X265354Y379134D02*
D03*
X231890Y377165D02*
D03*
X232283Y387402D02*
D03*
X198031Y324803D02*
D03*
X231496Y314961D02*
D03*
X32677Y50000D02*
D03*
X446520Y57926D02*
D03*
X475591Y136614D02*
D03*
X340157Y310629D02*
D03*
X295276Y314961D02*
D03*
X324000Y305000D02*
D03*
X363851Y329881D02*
D03*
X365000Y315000D02*
D03*
X408661Y326772D02*
D03*
X409055Y315354D02*
D03*
X454331Y302362D02*
D03*
X477262Y319818D02*
D03*
X478517Y305483D02*
D03*
X312992Y77165D02*
D03*
X224016Y73622D02*
D03*
X474016Y151969D02*
D03*
X346457Y321654D02*
D03*
X389370Y87008D02*
D03*
X372835Y147638D02*
D03*
X398031Y316717D02*
D03*
X123013Y43523D02*
D03*
X146315Y57874D02*
D03*
X214567Y171260D02*
D03*
X232283Y173594D02*
D03*
X215748Y199213D02*
D03*
X288402Y210630D02*
D03*
X230500Y362000D02*
D03*
X192000Y300000D02*
D03*
X180812Y245382D02*
D03*
X196514Y210961D02*
D03*
X248819Y252791D02*
D03*
X270000Y254547D02*
D03*
X362874Y253740D02*
D03*
X388976Y249606D02*
D03*
X427638Y211107D02*
D03*
X136912Y245374D02*
D03*
X133669Y211107D02*
D03*
X160128Y246203D02*
D03*
X152567Y211107D02*
D03*
X177764D02*
D03*
X457086Y282283D02*
D03*
X413779Y283070D02*
D03*
X310236Y206693D02*
D03*
X462205Y210236D02*
D03*
X304331Y320079D02*
D03*
X265953Y211107D02*
D03*
X324410Y170079D02*
D03*
X492520Y209842D02*
D03*
X178347Y75197D02*
D03*
X175197Y100000D02*
D03*
X164173Y175591D02*
D03*
X177953Y201969D02*
D03*
X172850Y165500D02*
D03*
X255118Y153543D02*
D03*
X214173Y259055D02*
D03*
X242610Y257830D02*
D03*
X238342Y260312D02*
D03*
X296457Y301181D02*
D03*
X281496Y379921D02*
D03*
X410630Y387008D02*
D03*
X345276Y341339D02*
D03*
X403543Y286221D02*
D03*
X375984Y403150D02*
D03*
X241732Y306299D02*
D03*
X508661Y163779D02*
D03*
X470866Y168504D02*
D03*
X248425Y200394D02*
D03*
X244094Y44488D02*
D03*
X203150Y43701D02*
D03*
X218504Y324803D02*
D03*
X577559Y98032D02*
D03*
X418110Y314567D02*
D03*
X453543Y311748D02*
D03*
X562205Y254331D02*
D03*
X574000Y433000D02*
D03*
X395669Y385827D02*
D03*
X252362D02*
D03*
X481890Y44094D02*
D03*
X441732D02*
D03*
X401181Y44882D02*
D03*
X360236Y45669D02*
D03*
X320472D02*
D03*
X32283Y90551D02*
D03*
X46850Y172047D02*
D03*
X325813Y296391D02*
D03*
X419000Y271500D02*
D03*
X354500Y275500D02*
D03*
X352500Y285000D02*
D03*
X318110Y266142D02*
D03*
X266047Y262453D02*
D03*
X162598Y43701D02*
D03*
X221654Y125591D02*
D03*
X393000Y307500D02*
D03*
X307000Y414000D02*
D03*
X306000Y422500D02*
D03*
X369500Y359000D02*
D03*
X255000Y307500D02*
D03*
X245000Y165500D02*
D03*
X298000Y276000D02*
D03*
X278500Y467500D02*
D03*
X405500Y458500D02*
D03*
X447000Y468000D02*
D03*
X367500D02*
D03*
X359000Y468500D02*
D03*
X321500Y484500D02*
D03*
X300000Y453000D02*
D03*
X296000Y285000D02*
D03*
X484000Y437500D02*
D03*
X477500Y445000D02*
D03*
X543500Y474500D02*
D03*
X500000Y463500D02*
D03*
X563500Y395500D02*
D03*
X575000Y352500D02*
D03*
X434500Y297000D02*
D03*
X434000Y287500D02*
D03*
X484953Y188811D02*
D03*
D85*
X467323Y184252D02*
D03*
X463453Y194811D02*
D03*
X460500Y474500D02*
D03*
D86*
X17717Y139173D02*
D03*
Y131693D02*
D03*
X467323Y292323D02*
D03*
Y299803D02*
D03*
X18898Y174606D02*
D03*
Y182087D02*
D03*
X18110Y92913D02*
D03*
Y100394D02*
D03*
X17323Y51378D02*
D03*
Y58858D02*
D03*
M02*
