G04*
G04 #@! TF.GenerationSoftware,Altium Limited,Altium Designer,20.1.8 (145)*
G04*
G04 Layer_Physical_Order=2*
G04 Layer_Color=36540*
%FSLAX25Y25*%
%MOIN*%
G70*
G04*
G04 #@! TF.SameCoordinates,44B5AA11-E380-4430-9A95-22E2941CD606*
G04*
G04*
G04 #@! TF.FilePolarity,Positive*
G04*
G01*
G75*
%ADD13C,0.01968*%
%ADD66C,0.03937*%
%ADD68C,0.07874*%
%ADD70C,0.05512*%
%ADD76R,0.04449X0.04449*%
%ADD77C,0.04449*%
%ADD80R,0.04449X0.04449*%
%ADD84C,0.03937*%
G36*
X267323Y492520D02*
X266692Y491889D01*
X266611Y491808D01*
X266231Y491747D01*
X266156Y491744D01*
X266125Y491749D01*
X265576Y492298D01*
X262992Y494882D01*
X265231Y492323D01*
X265676Y491815D01*
Y491815D01*
X265748Y491732D01*
X266142Y491732D01*
X266535Y491339D01*
X268504Y489370D01*
Y414567D01*
X303701D01*
X304031Y414191D01*
X304006Y414000D01*
X304108Y413225D01*
X304407Y412503D01*
X304883Y411883D01*
X305503Y411407D01*
X306225Y411108D01*
X307000Y411006D01*
X307775Y411108D01*
X308497Y411407D01*
X309117Y411883D01*
X309593Y412503D01*
X309892Y413225D01*
X309994Y414000D01*
X309969Y414191D01*
X310299Y414567D01*
X415354D01*
X472047Y357874D01*
Y334646D01*
X267717D01*
X264567Y337795D01*
X264173Y337402D01*
Y281890D01*
X295669Y250394D01*
X385582D01*
X386020Y249894D01*
X385982Y249606D01*
X386084Y248831D01*
X386383Y248109D01*
X386859Y247489D01*
X387479Y247013D01*
X388201Y246714D01*
X388976Y246612D01*
X389751Y246714D01*
X390473Y247013D01*
X391093Y247489D01*
X391569Y248109D01*
X391868Y248831D01*
X391970Y249606D01*
X391933Y249894D01*
X392371Y250394D01*
X551181D01*
X564173Y237402D01*
X566142Y239370D01*
X595276D01*
Y236752D01*
X594776Y236582D01*
X594637Y236763D01*
X594017Y237239D01*
X593295Y237538D01*
X593020Y237574D01*
Y234646D01*
Y231717D01*
X593295Y231754D01*
X594017Y232053D01*
X594637Y232528D01*
X594776Y232709D01*
X595276Y232540D01*
Y53543D01*
X558661Y16929D01*
X556693Y18898D01*
X27335D01*
X27302Y19233D01*
X26767Y20995D01*
X25899Y22619D01*
X24731Y24043D01*
X23307Y25212D01*
X21682Y26080D01*
X19920Y26614D01*
X18087Y26795D01*
X16254Y26614D01*
X14492Y26080D01*
X12867Y25212D01*
X11444Y24043D01*
X10275Y22619D01*
X9407Y20995D01*
X8872Y19233D01*
X8839Y18898D01*
X5512D01*
Y35523D01*
X5960Y35744D01*
X6085Y35648D01*
X7286Y35151D01*
X8575Y34981D01*
X9864Y35151D01*
X11065Y35648D01*
X12096Y36439D01*
X12887Y37471D01*
X13385Y38672D01*
X13554Y39961D01*
X13385Y41249D01*
X12887Y42450D01*
X12096Y43482D01*
X11065Y44273D01*
X9967Y44728D01*
X9966Y44732D01*
X9950Y45151D01*
X9970Y45242D01*
X11045Y45687D01*
X12076Y46479D01*
X12868Y47510D01*
X13365Y48711D01*
X13535Y50000D01*
X13365Y51289D01*
X12868Y52490D01*
X12076Y53521D01*
X11045Y54312D01*
X10110Y54700D01*
Y55241D01*
X11045Y55629D01*
X12076Y56420D01*
X12868Y57451D01*
X13365Y58652D01*
X13535Y59941D01*
X13365Y61230D01*
X12868Y62431D01*
X12076Y63462D01*
X11045Y64253D01*
X9994Y64689D01*
X10014Y65213D01*
X11065Y65648D01*
X12096Y66439D01*
X12887Y67471D01*
X13385Y68672D01*
X13554Y69961D01*
X13385Y71250D01*
X12887Y72450D01*
X12096Y73482D01*
X11065Y74273D01*
X9864Y74771D01*
X8575Y74940D01*
X7286Y74771D01*
X6085Y74273D01*
X5960Y74177D01*
X5512Y74398D01*
Y76369D01*
X5960Y76590D01*
X6085Y76495D01*
X7286Y75997D01*
X8575Y75827D01*
X9864Y75997D01*
X11065Y76495D01*
X12096Y77286D01*
X12887Y78317D01*
X13385Y79518D01*
X13554Y80807D01*
X13385Y82096D01*
X12887Y83297D01*
X12096Y84328D01*
X11065Y85120D01*
X9967Y85574D01*
X9966Y85578D01*
X9950Y85997D01*
X9970Y86089D01*
X11045Y86534D01*
X12076Y87325D01*
X12868Y88357D01*
X13365Y89558D01*
X13535Y90847D01*
X13365Y92135D01*
X12868Y93336D01*
X12076Y94368D01*
X11045Y95159D01*
X10110Y95546D01*
Y96087D01*
X11045Y96475D01*
X12076Y97266D01*
X12868Y98298D01*
X13365Y99499D01*
X13535Y100787D01*
X13365Y102076D01*
X12868Y103277D01*
X12076Y104308D01*
X11045Y105100D01*
X9994Y105535D01*
X10014Y106059D01*
X11065Y106495D01*
X12096Y107286D01*
X12887Y108317D01*
X13385Y109518D01*
X13554Y110807D01*
X13385Y112096D01*
X12887Y113297D01*
X12096Y114328D01*
X11065Y115120D01*
X9864Y115617D01*
X8575Y115787D01*
X7286Y115617D01*
X6085Y115120D01*
X5960Y115024D01*
X5512Y115245D01*
Y116946D01*
X5960Y117167D01*
X6010Y117129D01*
X7211Y116631D01*
X8500Y116461D01*
X9789Y116631D01*
X10990Y117129D01*
X12021Y117920D01*
X12812Y118951D01*
X13310Y120152D01*
X13480Y121441D01*
X13310Y122730D01*
X12812Y123931D01*
X12021Y124962D01*
X10990Y125753D01*
X9892Y126208D01*
X9891Y126212D01*
X9875Y126631D01*
X9895Y126723D01*
X10970Y127168D01*
X12001Y127959D01*
X12793Y128990D01*
X13290Y130192D01*
X13460Y131480D01*
X13290Y132769D01*
X12793Y133970D01*
X12001Y135001D01*
X10970Y135793D01*
X10035Y136180D01*
Y136721D01*
X10970Y137109D01*
X12001Y137900D01*
X12793Y138932D01*
X13290Y140132D01*
X13460Y141421D01*
X13290Y142710D01*
X12793Y143911D01*
X12001Y144942D01*
X10970Y145734D01*
X9919Y146169D01*
X9939Y146693D01*
X10990Y147128D01*
X12021Y147920D01*
X12812Y148951D01*
X13310Y150152D01*
X13480Y151441D01*
X13310Y152730D01*
X12812Y153931D01*
X12021Y154962D01*
X10990Y155753D01*
X9789Y156251D01*
X8500Y156421D01*
X7211Y156251D01*
X6010Y155753D01*
X5960Y155715D01*
X5512Y155936D01*
Y157421D01*
X5960Y157643D01*
X6030Y157589D01*
X7231Y157092D01*
X8520Y156922D01*
X9809Y157092D01*
X11010Y157589D01*
X12041Y158380D01*
X12832Y159412D01*
X13330Y160613D01*
X13499Y161902D01*
X13330Y163190D01*
X12832Y164391D01*
X12041Y165423D01*
X11010Y166214D01*
X9912Y166669D01*
X9911Y166673D01*
X9894Y167092D01*
X9915Y167183D01*
X10990Y167629D01*
X12021Y168420D01*
X12812Y169451D01*
X13310Y170652D01*
X13480Y171941D01*
X13310Y173230D01*
X12812Y174431D01*
X12021Y175462D01*
X10990Y176253D01*
X10054Y176641D01*
Y177182D01*
X10990Y177569D01*
X12021Y178361D01*
X12812Y179392D01*
X13310Y180593D01*
X13480Y181882D01*
X13310Y183171D01*
X12812Y184372D01*
X12021Y185403D01*
X10990Y186194D01*
X9939Y186630D01*
X9958Y187154D01*
X11010Y187589D01*
X12041Y188381D01*
X12832Y189412D01*
X13330Y190613D01*
X13499Y191902D01*
X13330Y193190D01*
X12832Y194391D01*
X12041Y195423D01*
X11010Y196214D01*
X9809Y196712D01*
X8520Y196881D01*
X7231Y196712D01*
X6030Y196214D01*
X5960Y196161D01*
X5512Y196382D01*
Y483071D01*
X9304Y486863D01*
X9710Y486562D01*
X9407Y485995D01*
X8872Y484233D01*
X8692Y482400D01*
X8872Y480567D01*
X9407Y478804D01*
X10275Y477180D01*
X11444Y475756D01*
X12867Y474588D01*
X14492Y473720D01*
X16254Y473185D01*
X18087Y473004D01*
X19920Y473185D01*
X21682Y473720D01*
X23307Y474588D01*
X24731Y475756D01*
X25899Y477180D01*
X26767Y478804D01*
X27302Y480567D01*
X27482Y482400D01*
X27302Y484233D01*
X26767Y485995D01*
X25899Y487619D01*
X24731Y489043D01*
X23307Y490212D01*
X21682Y491080D01*
X19920Y491614D01*
X18087Y491795D01*
X16254Y491614D01*
X14492Y491080D01*
X13925Y490777D01*
X13624Y491183D01*
X18504Y496063D01*
X59061D01*
X59230Y495563D01*
X58499Y495001D01*
X57707Y493970D01*
X57210Y492769D01*
X57040Y491480D01*
X57210Y490192D01*
X57707Y488990D01*
X58499Y487959D01*
X59530Y487168D01*
X60731Y486670D01*
X62020Y486501D01*
X63309Y486670D01*
X64509Y487168D01*
X65541Y487959D01*
X66332Y488990D01*
X66787Y490088D01*
X66791Y490089D01*
X67210Y490106D01*
X67301Y490085D01*
X67747Y489010D01*
X68538Y487979D01*
X69569Y487187D01*
X70770Y486690D01*
X72059Y486520D01*
X73348Y486690D01*
X74549Y487187D01*
X75580Y487979D01*
X76372Y489010D01*
X76759Y489946D01*
X77300D01*
X77688Y489010D01*
X78479Y487979D01*
X79510Y487187D01*
X80711Y486690D01*
X82000Y486520D01*
X83289Y486690D01*
X84490Y487187D01*
X85521Y487979D01*
X86313Y489010D01*
X86748Y490061D01*
X87272Y490041D01*
X87707Y488990D01*
X88499Y487959D01*
X89530Y487168D01*
X90731Y486670D01*
X92020Y486501D01*
X93309Y486670D01*
X94510Y487168D01*
X95541Y487959D01*
X96332Y488990D01*
X96830Y490192D01*
X96999Y491480D01*
X96830Y492769D01*
X96332Y493970D01*
X95541Y495001D01*
X94809Y495563D01*
X94979Y496063D01*
X99561D01*
X99730Y495563D01*
X98999Y495001D01*
X98207Y493970D01*
X97710Y492769D01*
X97540Y491480D01*
X97710Y490192D01*
X98207Y488990D01*
X98999Y487959D01*
X100030Y487168D01*
X101231Y486670D01*
X102520Y486501D01*
X103808Y486670D01*
X105009Y487168D01*
X106041Y487959D01*
X106832Y488990D01*
X107287Y490088D01*
X107291Y490089D01*
X107710Y490106D01*
X107801Y490085D01*
X108247Y489010D01*
X109038Y487979D01*
X110069Y487187D01*
X111270Y486690D01*
X112559Y486520D01*
X113848Y486690D01*
X115049Y487187D01*
X116080Y487979D01*
X116872Y489010D01*
X117259Y489946D01*
X117800D01*
X118187Y489010D01*
X118979Y487979D01*
X120010Y487187D01*
X121211Y486690D01*
X122500Y486520D01*
X123789Y486690D01*
X124990Y487187D01*
X126021Y487979D01*
X126813Y489010D01*
X127248Y490061D01*
X127772Y490041D01*
X128207Y488990D01*
X128999Y487959D01*
X130030Y487168D01*
X131231Y486670D01*
X132520Y486501D01*
X133809Y486670D01*
X135010Y487168D01*
X136041Y487959D01*
X136832Y488990D01*
X137243Y489983D01*
X137785D01*
X138188Y489010D01*
X138979Y487979D01*
X140010Y487187D01*
X141211Y486690D01*
X142500Y486520D01*
X143789Y486690D01*
X144990Y487187D01*
X146021Y487979D01*
X146812Y489010D01*
X147267Y490108D01*
X147271Y490109D01*
X147690Y490125D01*
X147782Y490104D01*
X148227Y489030D01*
X149018Y487999D01*
X150050Y487207D01*
X151251Y486710D01*
X152539Y486540D01*
X153828Y486710D01*
X155029Y487207D01*
X156061Y487999D01*
X156852Y489030D01*
X157239Y489965D01*
X157780D01*
X158168Y489030D01*
X158959Y487999D01*
X159991Y487207D01*
X161191Y486710D01*
X162480Y486540D01*
X163769Y486710D01*
X164970Y487207D01*
X166001Y487999D01*
X166793Y489030D01*
X167228Y490081D01*
X167752Y490061D01*
X168187Y489010D01*
X168979Y487979D01*
X170010Y487187D01*
X171211Y486690D01*
X172500Y486520D01*
X173789Y486690D01*
X174990Y487187D01*
X176021Y487979D01*
X176813Y489010D01*
X177310Y490211D01*
X177480Y491500D01*
X177310Y492789D01*
X176813Y493990D01*
X176021Y495021D01*
X175315Y495563D01*
X175485Y496063D01*
X180061D01*
X180230Y495563D01*
X179499Y495001D01*
X178707Y493970D01*
X178210Y492769D01*
X178040Y491480D01*
X178210Y490192D01*
X178707Y488990D01*
X179499Y487959D01*
X180530Y487168D01*
X181731Y486670D01*
X183020Y486501D01*
X184309Y486670D01*
X185510Y487168D01*
X186541Y487959D01*
X187332Y488990D01*
X187787Y490088D01*
X187791Y490089D01*
X188210Y490106D01*
X188302Y490085D01*
X188747Y489010D01*
X189538Y487979D01*
X190569Y487187D01*
X191770Y486690D01*
X193059Y486520D01*
X194348Y486690D01*
X195549Y487187D01*
X196580Y487979D01*
X197371Y489010D01*
X197759Y489946D01*
X198300D01*
X198688Y489010D01*
X199479Y487979D01*
X200510Y487187D01*
X201711Y486690D01*
X203000Y486520D01*
X204289Y486690D01*
X205490Y487187D01*
X206521Y487979D01*
X207312Y489010D01*
X207748Y490061D01*
X208272Y490041D01*
X208707Y488990D01*
X209499Y487959D01*
X210530Y487168D01*
X211731Y486670D01*
X213020Y486501D01*
X214309Y486670D01*
X215510Y487168D01*
X216541Y487959D01*
X217332Y488990D01*
X217830Y490192D01*
X217988Y491395D01*
X218492D01*
X218651Y490192D01*
X219148Y488990D01*
X219939Y487959D01*
X220971Y487168D01*
X222172Y486670D01*
X223461Y486501D01*
X224749Y486670D01*
X225950Y487168D01*
X226982Y487959D01*
X227773Y488990D01*
X228228Y490088D01*
X228232Y490089D01*
X228651Y490106D01*
X228742Y490085D01*
X229187Y489010D01*
X229979Y487979D01*
X231010Y487187D01*
X232211Y486690D01*
X233500Y486520D01*
X234789Y486690D01*
X235990Y487187D01*
X237021Y487979D01*
X237812Y489010D01*
X238200Y489946D01*
X238741D01*
X239128Y489010D01*
X239920Y487979D01*
X240951Y487187D01*
X242152Y486690D01*
X243441Y486520D01*
X244730Y486690D01*
X245931Y487187D01*
X246962Y487979D01*
X247753Y489010D01*
X248189Y490061D01*
X248713Y490041D01*
X249148Y488990D01*
X249939Y487959D01*
X250971Y487168D01*
X252172Y486670D01*
X253461Y486501D01*
X254749Y486670D01*
X255950Y487168D01*
X256982Y487959D01*
X257773Y488990D01*
X258271Y490192D01*
X258440Y491480D01*
X258271Y492769D01*
X257773Y493970D01*
X256982Y495001D01*
X256250Y495563D01*
X256420Y496063D01*
X263779D01*
X267323Y492520D01*
D02*
G37*
%LPC*%
G36*
X248138Y485999D02*
Y483571D01*
X250566D01*
X250530Y483846D01*
X250231Y484568D01*
X249755Y485188D01*
X249135Y485664D01*
X248413Y485963D01*
X248138Y485999D01*
D02*
G37*
G36*
X247138D02*
X246863Y485963D01*
X246141Y485664D01*
X245521Y485188D01*
X245045Y484568D01*
X244746Y483846D01*
X244709Y483571D01*
X247138D01*
Y485999D01*
D02*
G37*
G36*
X167823D02*
Y483571D01*
X170251D01*
X170215Y483846D01*
X169916Y484568D01*
X169440Y485188D01*
X168820Y485664D01*
X168098Y485963D01*
X167823Y485999D01*
D02*
G37*
G36*
X166823D02*
X166548Y485963D01*
X165826Y485664D01*
X165206Y485188D01*
X164730Y484568D01*
X164431Y483846D01*
X164394Y483571D01*
X166823D01*
Y485999D01*
D02*
G37*
G36*
X204339Y485704D02*
Y483276D01*
X206767D01*
X206731Y483551D01*
X206432Y484273D01*
X205956Y484893D01*
X205336Y485369D01*
X204613Y485668D01*
X204339Y485704D01*
D02*
G37*
G36*
X203339D02*
X203064Y485668D01*
X202342Y485369D01*
X201721Y484893D01*
X201246Y484273D01*
X200946Y483551D01*
X200910Y483276D01*
X203339D01*
Y485704D01*
D02*
G37*
G36*
X123335Y484424D02*
Y481996D01*
X125763D01*
X125727Y482271D01*
X125428Y482993D01*
X124952Y483613D01*
X124332Y484089D01*
X123610Y484388D01*
X123335Y484424D01*
D02*
G37*
G36*
X122335D02*
X122060Y484388D01*
X121338Y484089D01*
X120718Y483613D01*
X120242Y482993D01*
X119943Y482271D01*
X119906Y481996D01*
X122335D01*
Y484424D01*
D02*
G37*
G36*
X85933Y482850D02*
Y480421D01*
X88361D01*
X88325Y480696D01*
X88026Y481418D01*
X87550Y482038D01*
X86930Y482514D01*
X86208Y482813D01*
X85933Y482850D01*
D02*
G37*
G36*
X84933D02*
X84658Y482813D01*
X83936Y482514D01*
X83316Y482038D01*
X82840Y481418D01*
X82541Y480696D01*
X82505Y480421D01*
X84933D01*
Y482850D01*
D02*
G37*
G36*
X250566Y482571D02*
X248138D01*
Y480143D01*
X248413Y480179D01*
X249135Y480478D01*
X249755Y480954D01*
X250231Y481574D01*
X250530Y482296D01*
X250566Y482571D01*
D02*
G37*
G36*
X247138D02*
X244709D01*
X244746Y482296D01*
X245045Y481574D01*
X245521Y480954D01*
X246141Y480478D01*
X246863Y480179D01*
X247138Y480143D01*
Y482571D01*
D02*
G37*
G36*
X170251D02*
X167823D01*
Y480143D01*
X168098Y480179D01*
X168820Y480478D01*
X169440Y480954D01*
X169916Y481574D01*
X170215Y482296D01*
X170251Y482571D01*
D02*
G37*
G36*
X166823D02*
X164394D01*
X164431Y482296D01*
X164730Y481574D01*
X165206Y480954D01*
X165826Y480478D01*
X166548Y480179D01*
X166823Y480143D01*
Y482571D01*
D02*
G37*
G36*
X206767Y482276D02*
X204339D01*
Y479847D01*
X204613Y479883D01*
X205336Y480183D01*
X205956Y480658D01*
X206432Y481279D01*
X206731Y482001D01*
X206767Y482276D01*
D02*
G37*
G36*
X203339D02*
X200910D01*
X200946Y482001D01*
X201246Y481279D01*
X201721Y480658D01*
X202342Y480183D01*
X203064Y479883D01*
X203339Y479847D01*
Y482276D01*
D02*
G37*
G36*
X125763Y480996D02*
X123335D01*
Y478568D01*
X123610Y478604D01*
X124332Y478903D01*
X124952Y479379D01*
X125428Y479999D01*
X125727Y480721D01*
X125763Y480996D01*
D02*
G37*
G36*
X122335D02*
X119906D01*
X119943Y480721D01*
X120242Y479999D01*
X120718Y479379D01*
X121338Y478903D01*
X122060Y478604D01*
X122335Y478568D01*
Y480996D01*
D02*
G37*
G36*
X88361Y479421D02*
X85933D01*
Y476993D01*
X86208Y477029D01*
X86930Y477328D01*
X87550Y477804D01*
X88026Y478424D01*
X88325Y479146D01*
X88361Y479421D01*
D02*
G37*
G36*
X84933D02*
X82505D01*
X82541Y479146D01*
X82840Y478424D01*
X83316Y477804D01*
X83936Y477328D01*
X84658Y477029D01*
X84933Y476993D01*
Y479421D01*
D02*
G37*
G36*
X124516Y475763D02*
Y473335D01*
X126944D01*
X126908Y473610D01*
X126609Y474332D01*
X126133Y474952D01*
X125513Y475428D01*
X124791Y475727D01*
X124516Y475763D01*
D02*
G37*
G36*
X123516D02*
X123241Y475727D01*
X122519Y475428D01*
X121899Y474952D01*
X121423Y474332D01*
X121124Y473610D01*
X121087Y473335D01*
X123516D01*
Y475763D01*
D02*
G37*
G36*
X211524Y474975D02*
Y472547D01*
X213952D01*
X213916Y472822D01*
X213617Y473544D01*
X213141Y474164D01*
X212521Y474640D01*
X211799Y474939D01*
X211524Y474975D01*
D02*
G37*
G36*
X210524D02*
X210249Y474939D01*
X209527Y474640D01*
X208907Y474164D01*
X208431Y473544D01*
X208132Y472822D01*
X208095Y472547D01*
X210524D01*
Y474975D01*
D02*
G37*
G36*
X170185D02*
Y472547D01*
X172613D01*
X172577Y472822D01*
X172278Y473544D01*
X171802Y474164D01*
X171182Y474640D01*
X170460Y474939D01*
X170185Y474975D01*
D02*
G37*
G36*
X169185D02*
X168910Y474939D01*
X168188Y474640D01*
X167568Y474164D01*
X167092Y473544D01*
X166793Y472822D01*
X166757Y472547D01*
X169185D01*
Y474975D01*
D02*
G37*
G36*
X87508Y474188D02*
Y471760D01*
X89936D01*
X89900Y472035D01*
X89601Y472757D01*
X89125Y473377D01*
X88505Y473853D01*
X87783Y474152D01*
X87508Y474188D01*
D02*
G37*
G36*
X86508D02*
X86233Y474152D01*
X85511Y473853D01*
X84891Y473377D01*
X84415Y472757D01*
X84116Y472035D01*
X84080Y471760D01*
X86508D01*
Y474188D01*
D02*
G37*
G36*
X249319Y473794D02*
Y471366D01*
X251747D01*
X251711Y471641D01*
X251412Y472363D01*
X250936Y472983D01*
X250316Y473459D01*
X249594Y473758D01*
X249319Y473794D01*
D02*
G37*
G36*
X248319D02*
X248044Y473758D01*
X247322Y473459D01*
X246702Y472983D01*
X246226Y472363D01*
X245927Y471641D01*
X245891Y471366D01*
X248319D01*
Y473794D01*
D02*
G37*
G36*
X126944Y472335D02*
X124516D01*
Y469906D01*
X124791Y469943D01*
X125513Y470242D01*
X126133Y470717D01*
X126609Y471338D01*
X126908Y472060D01*
X126944Y472335D01*
D02*
G37*
G36*
X123516D02*
X121087D01*
X121124Y472060D01*
X121423Y471338D01*
X121899Y470717D01*
X122519Y470242D01*
X123241Y469943D01*
X123516Y469906D01*
Y472335D01*
D02*
G37*
G36*
X213952Y471547D02*
X211524D01*
Y469119D01*
X211799Y469155D01*
X212521Y469454D01*
X213141Y469930D01*
X213617Y470550D01*
X213916Y471272D01*
X213952Y471547D01*
D02*
G37*
G36*
X210524D02*
X208095D01*
X208132Y471272D01*
X208431Y470550D01*
X208907Y469930D01*
X209527Y469454D01*
X210249Y469155D01*
X210524Y469119D01*
Y471547D01*
D02*
G37*
G36*
X172613D02*
X170185D01*
Y469119D01*
X170460Y469155D01*
X171182Y469454D01*
X171802Y469930D01*
X172278Y470550D01*
X172577Y471272D01*
X172613Y471547D01*
D02*
G37*
G36*
X169185D02*
X166757D01*
X166793Y471272D01*
X167092Y470550D01*
X167568Y469930D01*
X168188Y469454D01*
X168910Y469155D01*
X169185Y469119D01*
Y471547D01*
D02*
G37*
G36*
X89936Y470760D02*
X87508D01*
Y468331D01*
X87783Y468368D01*
X88505Y468667D01*
X89125Y469143D01*
X89601Y469763D01*
X89900Y470485D01*
X89936Y470760D01*
D02*
G37*
G36*
X86508D02*
X84080D01*
X84116Y470485D01*
X84415Y469763D01*
X84891Y469143D01*
X85511Y468667D01*
X86233Y468368D01*
X86508Y468331D01*
Y470760D01*
D02*
G37*
G36*
X251747Y470366D02*
X249319D01*
Y467938D01*
X249594Y467974D01*
X250316Y468273D01*
X250936Y468749D01*
X251412Y469369D01*
X251711Y470091D01*
X251747Y470366D01*
D02*
G37*
G36*
X248319D02*
X245891D01*
X245927Y470091D01*
X246226Y469369D01*
X246702Y468749D01*
X247322Y468273D01*
X248044Y467974D01*
X248319Y467938D01*
Y470366D01*
D02*
G37*
G36*
X172500Y466480D02*
X171211Y466310D01*
X170010Y465812D01*
X168979Y465021D01*
X168187Y463990D01*
X167771Y462983D01*
X167229D01*
X166813Y463990D01*
X166021Y465021D01*
X164990Y465812D01*
X163789Y466310D01*
X162500Y466480D01*
X161211Y466310D01*
X160010Y465812D01*
X158979Y465021D01*
X158187Y463990D01*
X157771Y462983D01*
X157229D01*
X156813Y463990D01*
X156021Y465021D01*
X154990Y465812D01*
X153789Y466310D01*
X152500Y466480D01*
X151211Y466310D01*
X150010Y465812D01*
X148979Y465021D01*
X148187Y463990D01*
X147937Y463385D01*
X147437Y463484D01*
Y466437D01*
X137563D01*
Y463512D01*
X137063Y463413D01*
X136832Y463970D01*
X136041Y465001D01*
X135010Y465793D01*
X133809Y466290D01*
X132520Y466460D01*
X131231Y466290D01*
X130030Y465793D01*
X128999Y465001D01*
X128207Y463970D01*
X127790Y462964D01*
X127249D01*
X126832Y463970D01*
X126041Y465001D01*
X125010Y465793D01*
X123809Y466290D01*
X122520Y466460D01*
X121231Y466290D01*
X120030Y465793D01*
X118999Y465001D01*
X118207Y463970D01*
X117790Y462964D01*
X117249D01*
X116832Y463970D01*
X116041Y465001D01*
X115009Y465793D01*
X113809Y466290D01*
X112520Y466460D01*
X111231Y466290D01*
X110030Y465793D01*
X108999Y465001D01*
X108207Y463970D01*
X107957Y463365D01*
X107457Y463465D01*
Y466417D01*
X97583D01*
Y456543D01*
X107457D01*
Y459496D01*
X107957Y459595D01*
X108207Y458990D01*
X108999Y457959D01*
X110030Y457168D01*
X111231Y456670D01*
X112520Y456501D01*
X113809Y456670D01*
X115009Y457168D01*
X116041Y457959D01*
X116832Y458990D01*
X117249Y459997D01*
X117790D01*
X118207Y458990D01*
X118999Y457959D01*
X120030Y457168D01*
X121231Y456670D01*
X122520Y456501D01*
X123809Y456670D01*
X125010Y457168D01*
X126041Y457959D01*
X126832Y458990D01*
X127249Y459997D01*
X127790D01*
X128207Y458990D01*
X128999Y457959D01*
X130030Y457168D01*
X131231Y456670D01*
X132520Y456501D01*
X133809Y456670D01*
X135010Y457168D01*
X136041Y457959D01*
X136832Y458990D01*
X137063Y459548D01*
X137563Y459448D01*
Y456563D01*
X147437D01*
Y459515D01*
X147937Y459615D01*
X148187Y459010D01*
X148979Y457979D01*
X150010Y457188D01*
X151211Y456690D01*
X152500Y456520D01*
X153789Y456690D01*
X154990Y457188D01*
X156021Y457979D01*
X156813Y459010D01*
X157229Y460017D01*
X157771D01*
X158187Y459010D01*
X158979Y457979D01*
X160010Y457188D01*
X161211Y456690D01*
X162500Y456520D01*
X163789Y456690D01*
X164990Y457188D01*
X166021Y457979D01*
X166813Y459010D01*
X167229Y460017D01*
X167771D01*
X168187Y459010D01*
X168979Y457979D01*
X170010Y457188D01*
X171211Y456690D01*
X172500Y456520D01*
X173789Y456690D01*
X174990Y457188D01*
X176021Y457979D01*
X176813Y459010D01*
X177310Y460211D01*
X177480Y461500D01*
X177310Y462789D01*
X176813Y463990D01*
X176021Y465021D01*
X174990Y465812D01*
X173789Y466310D01*
X172500Y466480D01*
D02*
G37*
G36*
X253461Y466460D02*
X252172Y466290D01*
X250971Y465793D01*
X249939Y465001D01*
X249148Y463970D01*
X248731Y462964D01*
X248190D01*
X247773Y463970D01*
X246982Y465001D01*
X245950Y465793D01*
X244749Y466290D01*
X243461Y466460D01*
X242172Y466290D01*
X240971Y465793D01*
X239939Y465001D01*
X239148Y463970D01*
X238731Y462964D01*
X238190D01*
X237773Y463970D01*
X236982Y465001D01*
X235950Y465793D01*
X234749Y466290D01*
X233461Y466460D01*
X232172Y466290D01*
X230971Y465793D01*
X229940Y465001D01*
X229148Y463970D01*
X228898Y463365D01*
X228398Y463465D01*
Y466417D01*
X218524D01*
Y456543D01*
X228398D01*
Y459496D01*
X228898Y459595D01*
X229148Y458990D01*
X229940Y457959D01*
X230971Y457168D01*
X232172Y456670D01*
X233461Y456501D01*
X234749Y456670D01*
X235950Y457168D01*
X236982Y457959D01*
X237773Y458990D01*
X238190Y459997D01*
X238731D01*
X239148Y458990D01*
X239939Y457959D01*
X240971Y457168D01*
X242172Y456670D01*
X243461Y456501D01*
X244749Y456670D01*
X245950Y457168D01*
X246982Y457959D01*
X247773Y458990D01*
X248190Y459997D01*
X248731D01*
X249148Y458990D01*
X249939Y457959D01*
X250971Y457168D01*
X252172Y456670D01*
X253461Y456501D01*
X254749Y456670D01*
X255950Y457168D01*
X256982Y457959D01*
X257773Y458990D01*
X258271Y460191D01*
X258440Y461480D01*
X258271Y462769D01*
X257773Y463970D01*
X256982Y465001D01*
X255950Y465793D01*
X254749Y466290D01*
X253461Y466460D01*
D02*
G37*
G36*
X213020D02*
X211731Y466290D01*
X210530Y465793D01*
X209499Y465001D01*
X208707Y463970D01*
X208290Y462964D01*
X207749D01*
X207332Y463970D01*
X206541Y465001D01*
X205509Y465793D01*
X204309Y466290D01*
X203020Y466460D01*
X201731Y466290D01*
X200530Y465793D01*
X199499Y465001D01*
X198707Y463970D01*
X198290Y462964D01*
X197749D01*
X197332Y463970D01*
X196541Y465001D01*
X195510Y465793D01*
X194308Y466290D01*
X193020Y466460D01*
X191731Y466290D01*
X190530Y465793D01*
X189499Y465001D01*
X188707Y463970D01*
X188457Y463365D01*
X187957Y463465D01*
Y466417D01*
X178083D01*
Y456543D01*
X187957D01*
Y459496D01*
X188457Y459595D01*
X188707Y458990D01*
X189499Y457959D01*
X190530Y457168D01*
X191731Y456670D01*
X193020Y456501D01*
X194308Y456670D01*
X195510Y457168D01*
X196541Y457959D01*
X197332Y458990D01*
X197749Y459997D01*
X198290D01*
X198707Y458990D01*
X199499Y457959D01*
X200530Y457168D01*
X201731Y456670D01*
X203020Y456501D01*
X204309Y456670D01*
X205509Y457168D01*
X206541Y457959D01*
X207332Y458990D01*
X207749Y459997D01*
X208290D01*
X208707Y458990D01*
X209499Y457959D01*
X210530Y457168D01*
X211731Y456670D01*
X213020Y456501D01*
X214309Y456670D01*
X215510Y457168D01*
X216541Y457959D01*
X217332Y458990D01*
X217830Y460191D01*
X217999Y461480D01*
X217830Y462769D01*
X217332Y463970D01*
X216541Y465001D01*
X215510Y465793D01*
X214309Y466290D01*
X213020Y466460D01*
D02*
G37*
G36*
X92020D02*
X90731Y466290D01*
X89530Y465793D01*
X88499Y465001D01*
X87707Y463970D01*
X87290Y462964D01*
X86749D01*
X86332Y463970D01*
X85541Y465001D01*
X84509Y465793D01*
X83309Y466290D01*
X82020Y466460D01*
X80731Y466290D01*
X79530Y465793D01*
X78499Y465001D01*
X77707Y463970D01*
X77290Y462964D01*
X76749D01*
X76332Y463970D01*
X75541Y465001D01*
X74510Y465793D01*
X73308Y466290D01*
X72020Y466460D01*
X70731Y466290D01*
X69530Y465793D01*
X68499Y465001D01*
X67707Y463970D01*
X67457Y463365D01*
X66957Y463465D01*
Y466417D01*
X57083D01*
Y456543D01*
X66957D01*
Y459496D01*
X67457Y459595D01*
X67707Y458990D01*
X68499Y457959D01*
X69530Y457168D01*
X70731Y456670D01*
X72020Y456501D01*
X73308Y456670D01*
X74510Y457168D01*
X75541Y457959D01*
X76332Y458990D01*
X76749Y459997D01*
X77290D01*
X77707Y458990D01*
X78499Y457959D01*
X79530Y457168D01*
X80731Y456670D01*
X82020Y456501D01*
X83309Y456670D01*
X84509Y457168D01*
X85541Y457959D01*
X86332Y458990D01*
X86749Y459997D01*
X87290D01*
X87707Y458990D01*
X88499Y457959D01*
X89530Y457168D01*
X90731Y456670D01*
X92020Y456501D01*
X93309Y456670D01*
X94510Y457168D01*
X95541Y457959D01*
X96332Y458990D01*
X96830Y460191D01*
X96999Y461480D01*
X96830Y462769D01*
X96332Y463970D01*
X95541Y465001D01*
X94510Y465793D01*
X93309Y466290D01*
X92020Y466460D01*
D02*
G37*
G36*
X252362Y409304D02*
X251279Y409161D01*
X250270Y408743D01*
X249403Y408078D01*
X248738Y407211D01*
X248319Y406201D01*
X248177Y405118D01*
X248319Y404035D01*
X248738Y403025D01*
X249403Y402159D01*
X250270Y401493D01*
X251279Y401075D01*
X252362Y400933D01*
X253446Y401075D01*
X254455Y401493D01*
X255322Y402159D01*
X255987Y403025D01*
X256405Y404035D01*
X256548Y405118D01*
X256405Y406201D01*
X255987Y407211D01*
X255322Y408078D01*
X254455Y408743D01*
X253446Y409161D01*
X252362Y409304D01*
D02*
G37*
G36*
X242362D02*
X241279Y409161D01*
X240269Y408743D01*
X239403Y408078D01*
X238738Y407211D01*
X238319Y406201D01*
X238177Y405118D01*
X238319Y404035D01*
X238738Y403025D01*
X239403Y402159D01*
X240269Y401493D01*
X241279Y401075D01*
X242362Y400933D01*
X243445Y401075D01*
X244455Y401493D01*
X245322Y402159D01*
X245987Y403025D01*
X246405Y404035D01*
X246548Y405118D01*
X246405Y406201D01*
X245987Y407211D01*
X245322Y408078D01*
X244455Y408743D01*
X243445Y409161D01*
X242362Y409304D01*
D02*
G37*
G36*
X369291Y407729D02*
X368208Y407586D01*
X367199Y407168D01*
X366332Y406503D01*
X365667Y405636D01*
X365248Y404627D01*
X365106Y403543D01*
X365248Y402460D01*
X365667Y401451D01*
X366332Y400584D01*
X367199Y399919D01*
X368208Y399500D01*
X369291Y399358D01*
X370375Y399500D01*
X371384Y399919D01*
X372251Y400584D01*
X372916Y401451D01*
X372947Y401526D01*
X373488Y401526D01*
X373867Y401032D01*
X374487Y400557D01*
X375209Y400257D01*
X375984Y400155D01*
X376759Y400257D01*
X377481Y400557D01*
X378101Y401032D01*
X378577Y401653D01*
X378876Y402375D01*
X378978Y403150D01*
X378876Y403925D01*
X378577Y404647D01*
X378101Y405267D01*
X377481Y405743D01*
X376759Y406042D01*
X375984Y406144D01*
X375209Y406042D01*
X374487Y405743D01*
X373867Y405267D01*
X373700Y405049D01*
X373128Y405125D01*
X372916Y405636D01*
X372251Y406503D01*
X371384Y407168D01*
X370375Y407586D01*
X369291Y407729D01*
D02*
G37*
G36*
X359291D02*
X358208Y407586D01*
X357199Y407168D01*
X356332Y406503D01*
X355667Y405636D01*
X355248Y404627D01*
X355106Y403543D01*
X355248Y402460D01*
X355667Y401451D01*
X356332Y400584D01*
X357199Y399919D01*
X358208Y399500D01*
X359291Y399358D01*
X360375Y399500D01*
X361384Y399919D01*
X362251Y400584D01*
X362916Y401451D01*
X363334Y402460D01*
X363477Y403543D01*
X363334Y404627D01*
X362916Y405636D01*
X362251Y406503D01*
X361384Y407168D01*
X360375Y407586D01*
X359291Y407729D01*
D02*
G37*
G36*
X150551Y411227D02*
X149313Y411105D01*
X148123Y410744D01*
X147026Y410158D01*
X146064Y409369D01*
X145275Y408407D01*
X144689Y407310D01*
X144328Y406120D01*
X144206Y404882D01*
X144328Y403644D01*
X144689Y402454D01*
X145275Y401357D01*
X146064Y400395D01*
X147026Y399606D01*
X148123Y399019D01*
X149313Y398658D01*
X150551Y398536D01*
X151789Y398658D01*
X152980Y399019D01*
X154077Y399606D01*
X155038Y400395D01*
X155827Y401357D01*
X156414Y402454D01*
X156775Y403644D01*
X156897Y404882D01*
X156775Y406120D01*
X156414Y407310D01*
X155827Y408407D01*
X155038Y409369D01*
X154077Y410158D01*
X152980Y410744D01*
X151789Y411105D01*
X150551Y411227D01*
D02*
G37*
G36*
X130551D02*
X129313Y411105D01*
X128123Y410744D01*
X127026Y410158D01*
X126064Y409369D01*
X125275Y408407D01*
X124689Y407310D01*
X124328Y406120D01*
X124206Y404882D01*
X124328Y403644D01*
X124689Y402454D01*
X125275Y401357D01*
X126064Y400395D01*
X127026Y399606D01*
X128123Y399019D01*
X129313Y398658D01*
X130551Y398536D01*
X131789Y398658D01*
X132980Y399019D01*
X134077Y399606D01*
X135038Y400395D01*
X135827Y401357D01*
X136414Y402454D01*
X136775Y403644D01*
X136897Y404882D01*
X136775Y406120D01*
X136414Y407310D01*
X135827Y408407D01*
X135038Y409369D01*
X134077Y410158D01*
X132980Y410744D01*
X131789Y411105D01*
X130551Y411227D01*
D02*
G37*
G36*
X101339D02*
X100101Y411105D01*
X98910Y410744D01*
X97813Y410158D01*
X96852Y409369D01*
X96062Y408407D01*
X95476Y407310D01*
X95115Y406120D01*
X94993Y404882D01*
X95115Y403644D01*
X95476Y402454D01*
X96062Y401357D01*
X96852Y400395D01*
X97813Y399606D01*
X98910Y399019D01*
X100101Y398658D01*
X101339Y398536D01*
X102576Y398658D01*
X103767Y399019D01*
X104864Y399606D01*
X105825Y400395D01*
X106615Y401357D01*
X107201Y402454D01*
X107562Y403644D01*
X107684Y404882D01*
X107562Y406120D01*
X107201Y407310D01*
X106615Y408407D01*
X105825Y409369D01*
X104864Y410158D01*
X103767Y410744D01*
X102576Y411105D01*
X101339Y411227D01*
D02*
G37*
G36*
X81339D02*
X80101Y411105D01*
X78910Y410744D01*
X77813Y410158D01*
X76852Y409369D01*
X76063Y408407D01*
X75476Y407310D01*
X75115Y406120D01*
X74993Y404882D01*
X75115Y403644D01*
X75476Y402454D01*
X76063Y401357D01*
X76852Y400395D01*
X77813Y399606D01*
X78910Y399019D01*
X80101Y398658D01*
X81339Y398536D01*
X82577Y398658D01*
X83767Y399019D01*
X84864Y399606D01*
X85826Y400395D01*
X86615Y401357D01*
X87201Y402454D01*
X87562Y403644D01*
X87684Y404882D01*
X87562Y406120D01*
X87201Y407310D01*
X86615Y408407D01*
X85826Y409369D01*
X84864Y410158D01*
X83767Y410744D01*
X82577Y411105D01*
X81339Y411227D01*
D02*
G37*
G36*
X46614D02*
X45376Y411105D01*
X44186Y410744D01*
X43089Y410158D01*
X42127Y409369D01*
X41338Y408407D01*
X40752Y407310D01*
X40391Y406120D01*
X40269Y404882D01*
X40391Y403644D01*
X40752Y402454D01*
X41338Y401357D01*
X42127Y400395D01*
X43089Y399606D01*
X44186Y399019D01*
X45376Y398658D01*
X46614Y398536D01*
X47852Y398658D01*
X49042Y399019D01*
X50140Y399606D01*
X51101Y400395D01*
X51890Y401357D01*
X52477Y402454D01*
X52838Y403644D01*
X52960Y404882D01*
X52838Y406120D01*
X52477Y407310D01*
X51890Y408407D01*
X51101Y409369D01*
X50140Y410158D01*
X49042Y410744D01*
X47852Y411105D01*
X46614Y411227D01*
D02*
G37*
G36*
X26614D02*
X25376Y411105D01*
X24186Y410744D01*
X23089Y410158D01*
X22127Y409369D01*
X21338Y408407D01*
X20752Y407310D01*
X20391Y406120D01*
X20269Y404882D01*
X20391Y403644D01*
X20752Y402454D01*
X21338Y401357D01*
X22127Y400395D01*
X23089Y399606D01*
X24186Y399019D01*
X25376Y398658D01*
X26614Y398536D01*
X27852Y398658D01*
X29043Y399019D01*
X30140Y399606D01*
X31101Y400395D01*
X31890Y401357D01*
X32477Y402454D01*
X32838Y403644D01*
X32960Y404882D01*
X32838Y406120D01*
X32477Y407310D01*
X31890Y408407D01*
X31101Y409369D01*
X30140Y410158D01*
X29043Y410744D01*
X27852Y411105D01*
X26614Y411227D01*
D02*
G37*
G36*
X140551Y400970D02*
X139363Y400853D01*
X138221Y400507D01*
X137169Y399944D01*
X136246Y399187D01*
X135489Y398264D01*
X134926Y397212D01*
X134580Y396070D01*
X134463Y394882D01*
X134580Y393694D01*
X134926Y392552D01*
X135489Y391499D01*
X136246Y390577D01*
X137169Y389820D01*
X138221Y389257D01*
X139363Y388911D01*
X140551Y388793D01*
X141739Y388911D01*
X142881Y389257D01*
X143934Y389820D01*
X144856Y390577D01*
X145614Y391499D01*
X146176Y392552D01*
X146523Y393694D01*
X146640Y394882D01*
X146523Y396070D01*
X146176Y397212D01*
X145614Y398264D01*
X144856Y399187D01*
X143934Y399944D01*
X142881Y400507D01*
X141739Y400853D01*
X140551Y400970D01*
D02*
G37*
G36*
X91339D02*
X90151Y400853D01*
X89009Y400507D01*
X87956Y399944D01*
X87033Y399187D01*
X86276Y398264D01*
X85714Y397212D01*
X85367Y396070D01*
X85250Y394882D01*
X85367Y393694D01*
X85714Y392552D01*
X86276Y391499D01*
X87033Y390577D01*
X87956Y389820D01*
X89009Y389257D01*
X90151Y388911D01*
X91339Y388793D01*
X92526Y388911D01*
X93669Y389257D01*
X94721Y389820D01*
X95644Y390577D01*
X96401Y391499D01*
X96964Y392552D01*
X97310Y393694D01*
X97427Y394882D01*
X97310Y396070D01*
X96964Y397212D01*
X96401Y398264D01*
X95644Y399187D01*
X94721Y399944D01*
X93669Y400507D01*
X92526Y400853D01*
X91339Y400970D01*
D02*
G37*
G36*
X36614D02*
X35426Y400853D01*
X34284Y400507D01*
X33232Y399944D01*
X32309Y399187D01*
X31552Y398264D01*
X30989Y397212D01*
X30643Y396070D01*
X30526Y394882D01*
X30643Y393694D01*
X30989Y392552D01*
X31552Y391499D01*
X32309Y390577D01*
X33232Y389820D01*
X34284Y389257D01*
X35426Y388911D01*
X36614Y388793D01*
X37802Y388911D01*
X38944Y389257D01*
X39997Y389820D01*
X40919Y390577D01*
X41677Y391499D01*
X42239Y392552D01*
X42586Y393694D01*
X42702Y394882D01*
X42586Y396070D01*
X42239Y397212D01*
X41677Y398264D01*
X40919Y399187D01*
X39997Y399944D01*
X38944Y400507D01*
X37802Y400853D01*
X36614Y400970D01*
D02*
G37*
G36*
X417717Y391587D02*
X416633Y391444D01*
X415624Y391026D01*
X414757Y390361D01*
X414092Y389494D01*
X413723Y388604D01*
X413358Y388532D01*
X413182Y388558D01*
X412747Y389125D01*
X412127Y389601D01*
X411405Y389900D01*
X410630Y390002D01*
X409855Y389900D01*
X409133Y389601D01*
X408513Y389125D01*
X408037Y388505D01*
X407738Y387783D01*
X407636Y387008D01*
X407738Y386233D01*
X408037Y385511D01*
X408513Y384891D01*
X409133Y384415D01*
X409855Y384116D01*
X410630Y384014D01*
X411405Y384116D01*
X412127Y384415D01*
X412747Y384891D01*
X413223Y385511D01*
X413345Y385806D01*
X413886D01*
X414092Y385309D01*
X414757Y384442D01*
X415624Y383777D01*
X416633Y383359D01*
X417717Y383216D01*
X418800Y383359D01*
X419809Y383777D01*
X420676Y384442D01*
X421341Y385309D01*
X421759Y386318D01*
X421902Y387402D01*
X421759Y388485D01*
X421341Y389494D01*
X420676Y390361D01*
X419809Y391026D01*
X418800Y391444D01*
X417717Y391587D01*
D02*
G37*
G36*
X232784Y390330D02*
Y387902D01*
X235212D01*
X235176Y388176D01*
X234876Y388899D01*
X234401Y389519D01*
X233781Y389995D01*
X233058Y390294D01*
X232784Y390330D01*
D02*
G37*
G36*
X231784D02*
X231508Y390294D01*
X230786Y389995D01*
X230166Y389519D01*
X229691Y388899D01*
X229391Y388176D01*
X229355Y387902D01*
X231784D01*
Y390330D01*
D02*
G37*
G36*
X378453Y388361D02*
Y385933D01*
X380881D01*
X380845Y386208D01*
X380546Y386930D01*
X380070Y387550D01*
X379450Y388026D01*
X378728Y388325D01*
X378453Y388361D01*
D02*
G37*
G36*
X377453D02*
X377178Y388325D01*
X376456Y388026D01*
X375836Y387550D01*
X375360Y386930D01*
X375061Y386208D01*
X375025Y385933D01*
X377453D01*
Y388361D01*
D02*
G37*
G36*
X235212Y386902D02*
X232784D01*
Y384473D01*
X233058Y384509D01*
X233781Y384809D01*
X234401Y385284D01*
X234876Y385905D01*
X235176Y386627D01*
X235212Y386902D01*
D02*
G37*
G36*
X231784D02*
X229355D01*
X229391Y386627D01*
X229691Y385905D01*
X230166Y385284D01*
X230786Y384809D01*
X231508Y384509D01*
X231784Y384473D01*
Y386902D01*
D02*
G37*
G36*
X395669Y388821D02*
X394894Y388719D01*
X394172Y388420D01*
X393552Y387944D01*
X393076Y387324D01*
X392777Y386602D01*
X392675Y385827D01*
X392777Y385052D01*
X393076Y384330D01*
X393552Y383710D01*
X394172Y383234D01*
X394894Y382935D01*
X395669Y382833D01*
X396444Y382935D01*
X397166Y383234D01*
X397786Y383710D01*
X398262Y384330D01*
X398561Y385052D01*
X398663Y385827D01*
X398561Y386602D01*
X398262Y387324D01*
X397786Y387944D01*
X397166Y388420D01*
X396444Y388719D01*
X395669Y388821D01*
D02*
G37*
G36*
X252362D02*
X251587Y388719D01*
X250865Y388420D01*
X250245Y387944D01*
X249769Y387324D01*
X249470Y386602D01*
X249368Y385827D01*
X249470Y385052D01*
X249769Y384330D01*
X250245Y383710D01*
X250865Y383234D01*
X251587Y382935D01*
X252362Y382833D01*
X253137Y382935D01*
X253859Y383234D01*
X254479Y383710D01*
X254955Y384330D01*
X255254Y385052D01*
X255356Y385827D01*
X255254Y386602D01*
X254955Y387324D01*
X254479Y387944D01*
X253859Y388420D01*
X253137Y388719D01*
X252362Y388821D01*
D02*
G37*
G36*
X380881Y384933D02*
X378453D01*
Y382505D01*
X378728Y382541D01*
X379450Y382840D01*
X380070Y383316D01*
X380546Y383936D01*
X380845Y384658D01*
X380881Y384933D01*
D02*
G37*
G36*
X377453D02*
X375025D01*
X375061Y384658D01*
X375360Y383936D01*
X375836Y383316D01*
X376456Y382840D01*
X377178Y382541D01*
X377453Y382505D01*
Y384933D01*
D02*
G37*
G36*
X271260Y390406D02*
X270177Y390263D01*
X269167Y389845D01*
X268300Y389180D01*
X267635Y388313D01*
X267217Y387304D01*
X267074Y386221D01*
X267217Y385137D01*
X267635Y384128D01*
X268300Y383261D01*
X269167Y382596D01*
X270177Y382178D01*
X271260Y382035D01*
X272343Y382178D01*
X273353Y382596D01*
X274219Y383261D01*
X274885Y384128D01*
X275303Y385137D01*
X275445Y386221D01*
X275303Y387304D01*
X274885Y388313D01*
X274219Y389180D01*
X273353Y389845D01*
X272343Y390263D01*
X271260Y390406D01*
D02*
G37*
G36*
X265854Y382062D02*
Y379634D01*
X268283D01*
X268246Y379909D01*
X267947Y380631D01*
X267472Y381251D01*
X266851Y381727D01*
X266129Y382026D01*
X265854Y382062D01*
D02*
G37*
G36*
X264854D02*
X264579Y382026D01*
X263857Y381727D01*
X263237Y381251D01*
X262761Y380631D01*
X262462Y379909D01*
X262426Y379634D01*
X264854D01*
Y382062D01*
D02*
G37*
G36*
X150551Y391227D02*
X149313Y391106D01*
X148123Y390744D01*
X147026Y390158D01*
X146064Y389369D01*
X145275Y388407D01*
X144689Y387310D01*
X144328Y386120D01*
X144206Y384882D01*
X144328Y383644D01*
X144689Y382454D01*
X145275Y381357D01*
X146064Y380395D01*
X147026Y379606D01*
X148123Y379019D01*
X149313Y378658D01*
X150551Y378536D01*
X151789Y378658D01*
X152980Y379019D01*
X154077Y379606D01*
X155038Y380395D01*
X155827Y381357D01*
X156414Y382454D01*
X156775Y383644D01*
X156897Y384882D01*
X156775Y386120D01*
X156414Y387310D01*
X155827Y388407D01*
X155038Y389369D01*
X154077Y390158D01*
X152980Y390744D01*
X151789Y391106D01*
X150551Y391227D01*
D02*
G37*
G36*
X130551D02*
X129313Y391106D01*
X128123Y390744D01*
X127026Y390158D01*
X126064Y389369D01*
X125275Y388407D01*
X124689Y387310D01*
X124328Y386120D01*
X124206Y384882D01*
X124328Y383644D01*
X124689Y382454D01*
X125275Y381357D01*
X126064Y380395D01*
X127026Y379606D01*
X128123Y379019D01*
X129313Y378658D01*
X130551Y378536D01*
X131789Y378658D01*
X132980Y379019D01*
X134077Y379606D01*
X135038Y380395D01*
X135827Y381357D01*
X136414Y382454D01*
X136775Y383644D01*
X136897Y384882D01*
X136775Y386120D01*
X136414Y387310D01*
X135827Y388407D01*
X135038Y389369D01*
X134077Y390158D01*
X132980Y390744D01*
X131789Y391106D01*
X130551Y391227D01*
D02*
G37*
G36*
X101339D02*
X100101Y391106D01*
X98910Y390744D01*
X97813Y390158D01*
X96852Y389369D01*
X96062Y388407D01*
X95476Y387310D01*
X95115Y386120D01*
X94993Y384882D01*
X95115Y383644D01*
X95476Y382454D01*
X96062Y381357D01*
X96852Y380395D01*
X97813Y379606D01*
X98910Y379019D01*
X100101Y378658D01*
X101339Y378536D01*
X102576Y378658D01*
X103767Y379019D01*
X104864Y379606D01*
X105825Y380395D01*
X106615Y381357D01*
X107201Y382454D01*
X107562Y383644D01*
X107684Y384882D01*
X107562Y386120D01*
X107201Y387310D01*
X106615Y388407D01*
X105825Y389369D01*
X104864Y390158D01*
X103767Y390744D01*
X102576Y391106D01*
X101339Y391227D01*
D02*
G37*
G36*
X81339D02*
X80101Y391106D01*
X78910Y390744D01*
X77813Y390158D01*
X76852Y389369D01*
X76063Y388407D01*
X75476Y387310D01*
X75115Y386120D01*
X74993Y384882D01*
X75115Y383644D01*
X75476Y382454D01*
X76063Y381357D01*
X76852Y380395D01*
X77813Y379606D01*
X78910Y379019D01*
X80101Y378658D01*
X81339Y378536D01*
X82577Y378658D01*
X83767Y379019D01*
X84864Y379606D01*
X85826Y380395D01*
X86615Y381357D01*
X87201Y382454D01*
X87562Y383644D01*
X87684Y384882D01*
X87562Y386120D01*
X87201Y387310D01*
X86615Y388407D01*
X85826Y389369D01*
X84864Y390158D01*
X83767Y390744D01*
X82577Y391106D01*
X81339Y391227D01*
D02*
G37*
G36*
X46614D02*
X45376Y391106D01*
X44186Y390744D01*
X43089Y390158D01*
X42127Y389369D01*
X41338Y388407D01*
X40752Y387310D01*
X40391Y386120D01*
X40269Y384882D01*
X40391Y383644D01*
X40752Y382454D01*
X41338Y381357D01*
X42127Y380395D01*
X43089Y379606D01*
X44186Y379019D01*
X45376Y378658D01*
X46614Y378536D01*
X47852Y378658D01*
X49042Y379019D01*
X50140Y379606D01*
X51101Y380395D01*
X51890Y381357D01*
X52477Y382454D01*
X52838Y383644D01*
X52960Y384882D01*
X52838Y386120D01*
X52477Y387310D01*
X51890Y388407D01*
X51101Y389369D01*
X50140Y390158D01*
X49042Y390744D01*
X47852Y391106D01*
X46614Y391227D01*
D02*
G37*
G36*
X26614D02*
X25376Y391106D01*
X24186Y390744D01*
X23089Y390158D01*
X22127Y389369D01*
X21338Y388407D01*
X20752Y387310D01*
X20391Y386120D01*
X20269Y384882D01*
X20391Y383644D01*
X20752Y382454D01*
X21338Y381357D01*
X22127Y380395D01*
X23089Y379606D01*
X24186Y379019D01*
X25376Y378658D01*
X26614Y378536D01*
X27852Y378658D01*
X29043Y379019D01*
X30140Y379606D01*
X31101Y380395D01*
X31890Y381357D01*
X32477Y382454D01*
X32838Y383644D01*
X32960Y384882D01*
X32838Y386120D01*
X32477Y387310D01*
X31890Y388407D01*
X31101Y389369D01*
X30140Y390158D01*
X29043Y390744D01*
X27852Y391106D01*
X26614Y391227D01*
D02*
G37*
G36*
X232390Y380094D02*
Y377665D01*
X234818D01*
X234782Y377940D01*
X234483Y378662D01*
X234007Y379282D01*
X233387Y379758D01*
X232665Y380058D01*
X232390Y380094D01*
D02*
G37*
G36*
X231390D02*
X231115Y380058D01*
X230393Y379758D01*
X229773Y379282D01*
X229297Y378662D01*
X228998Y377940D01*
X228961Y377665D01*
X231390D01*
Y380094D01*
D02*
G37*
G36*
X404043Y379700D02*
Y377272D01*
X406472D01*
X406435Y377547D01*
X406136Y378269D01*
X405660Y378889D01*
X405040Y379365D01*
X404318Y379664D01*
X404043Y379700D01*
D02*
G37*
G36*
X403043D02*
X402768Y379664D01*
X402046Y379365D01*
X401426Y378889D01*
X400950Y378269D01*
X400651Y377547D01*
X400615Y377272D01*
X403043D01*
Y379700D01*
D02*
G37*
G36*
X374516D02*
Y377272D01*
X376944D01*
X376908Y377547D01*
X376609Y378269D01*
X376133Y378889D01*
X375513Y379365D01*
X374791Y379664D01*
X374516Y379700D01*
D02*
G37*
G36*
X373516D02*
X373241Y379664D01*
X372519Y379365D01*
X371899Y378889D01*
X371423Y378269D01*
X371124Y377547D01*
X371087Y377272D01*
X373516D01*
Y379700D01*
D02*
G37*
G36*
X281260Y390406D02*
X280177Y390263D01*
X279167Y389845D01*
X278300Y389180D01*
X277635Y388313D01*
X277217Y387304D01*
X277074Y386221D01*
X277217Y385137D01*
X277635Y384128D01*
X278300Y383261D01*
X279167Y382596D01*
X279314Y382535D01*
X279322Y382477D01*
X279337Y381984D01*
X278903Y381418D01*
X278604Y380696D01*
X278502Y379921D01*
X278604Y379146D01*
X278903Y378424D01*
X279379Y377804D01*
X279999Y377328D01*
X280721Y377029D01*
X281496Y376927D01*
X282271Y377029D01*
X282993Y377328D01*
X283613Y377804D01*
X284089Y378424D01*
X284388Y379146D01*
X284490Y379921D01*
X284388Y380696D01*
X284089Y381418D01*
X283613Y382038D01*
X283469Y382149D01*
X283530Y382732D01*
X284219Y383261D01*
X284885Y384128D01*
X285303Y385137D01*
X285445Y386221D01*
X285303Y387304D01*
X284885Y388313D01*
X284219Y389180D01*
X283352Y389845D01*
X282343Y390263D01*
X281260Y390406D01*
D02*
G37*
G36*
X268283Y378634D02*
X265854D01*
Y376206D01*
X266129Y376242D01*
X266851Y376541D01*
X267472Y377017D01*
X267947Y377637D01*
X268246Y378359D01*
X268283Y378634D01*
D02*
G37*
G36*
X264854D02*
X262426D01*
X262462Y378359D01*
X262761Y377637D01*
X263237Y377017D01*
X263857Y376541D01*
X264579Y376242D01*
X264854Y376206D01*
Y378634D01*
D02*
G37*
G36*
X234818Y376665D02*
X232390D01*
Y374237D01*
X232665Y374273D01*
X233387Y374572D01*
X234007Y375048D01*
X234483Y375668D01*
X234782Y376390D01*
X234818Y376665D01*
D02*
G37*
G36*
X231390D02*
X228961D01*
X228998Y376390D01*
X229297Y375668D01*
X229773Y375048D01*
X230393Y374572D01*
X231115Y374273D01*
X231390Y374237D01*
Y376665D01*
D02*
G37*
G36*
X406472Y376272D02*
X404043D01*
Y373843D01*
X404318Y373880D01*
X405040Y374179D01*
X405660Y374655D01*
X406136Y375275D01*
X406435Y375997D01*
X406472Y376272D01*
D02*
G37*
G36*
X403043D02*
X400615D01*
X400651Y375997D01*
X400950Y375275D01*
X401426Y374655D01*
X402046Y374179D01*
X402768Y373880D01*
X403043Y373843D01*
Y376272D01*
D02*
G37*
G36*
X376944D02*
X374516D01*
Y373843D01*
X374791Y373880D01*
X375513Y374179D01*
X376133Y374655D01*
X376609Y375275D01*
X376908Y375997D01*
X376944Y376272D01*
D02*
G37*
G36*
X373516D02*
X371087D01*
X371124Y375997D01*
X371423Y375275D01*
X371899Y374655D01*
X372519Y374179D01*
X373241Y373880D01*
X373516Y373843D01*
Y376272D01*
D02*
G37*
G36*
X417717Y381587D02*
X416633Y381444D01*
X415624Y381026D01*
X414757Y380361D01*
X414092Y379494D01*
X413674Y378485D01*
X413531Y377402D01*
X413674Y376318D01*
X414092Y375309D01*
X414757Y374442D01*
X415624Y373777D01*
X416633Y373359D01*
X417717Y373216D01*
X418800Y373359D01*
X419809Y373777D01*
X420676Y374442D01*
X421341Y375309D01*
X421759Y376318D01*
X421902Y377402D01*
X421759Y378485D01*
X421341Y379494D01*
X420676Y380361D01*
X419809Y381026D01*
X418800Y381444D01*
X417717Y381587D01*
D02*
G37*
G36*
X270185Y370251D02*
Y367823D01*
X272613D01*
X272577Y368098D01*
X272278Y368820D01*
X271802Y369440D01*
X271182Y369916D01*
X270460Y370215D01*
X270185Y370251D01*
D02*
G37*
G36*
X269185D02*
X268910Y370215D01*
X268188Y369916D01*
X267568Y369440D01*
X267092Y368820D01*
X266793Y368098D01*
X266757Y367823D01*
X269185D01*
Y370251D01*
D02*
G37*
G36*
X272613Y366823D02*
X270185D01*
Y364394D01*
X270460Y364431D01*
X271182Y364730D01*
X271802Y365206D01*
X272278Y365826D01*
X272577Y366548D01*
X272613Y366823D01*
D02*
G37*
G36*
X269185D02*
X266757D01*
X266793Y366548D01*
X267092Y365826D01*
X267568Y365206D01*
X268188Y364730D01*
X268910Y364431D01*
X269185Y364394D01*
Y366823D01*
D02*
G37*
G36*
X408374Y366708D02*
Y364280D01*
X410802D01*
X410766Y364555D01*
X410467Y365277D01*
X409991Y365897D01*
X409371Y366372D01*
X408649Y366672D01*
X408374Y366708D01*
D02*
G37*
G36*
X407374D02*
X407099Y366672D01*
X406377Y366372D01*
X405757Y365897D01*
X405281Y365277D01*
X404982Y364555D01*
X404946Y364280D01*
X407374D01*
Y366708D01*
D02*
G37*
G36*
X410802Y363280D02*
X408374D01*
Y360851D01*
X408649Y360887D01*
X409371Y361187D01*
X409991Y361662D01*
X410467Y362282D01*
X410766Y363005D01*
X410802Y363280D01*
D02*
G37*
G36*
X407374D02*
X404946D01*
X404982Y363005D01*
X405281Y362282D01*
X405757Y361662D01*
X406377Y361187D01*
X407099Y360887D01*
X407374Y360851D01*
Y363280D01*
D02*
G37*
G36*
X230500Y364994D02*
X229725Y364892D01*
X229003Y364593D01*
X228383Y364117D01*
X227907Y363497D01*
X227608Y362775D01*
X227506Y362000D01*
X227608Y361225D01*
X227907Y360503D01*
X228383Y359883D01*
X229003Y359407D01*
X229725Y359108D01*
X230500Y359006D01*
X231275Y359108D01*
X231997Y359407D01*
X232617Y359883D01*
X233093Y360503D01*
X233392Y361225D01*
X233494Y362000D01*
X233392Y362775D01*
X233093Y363497D01*
X232617Y364117D01*
X231997Y364593D01*
X231275Y364892D01*
X230500Y364994D01*
D02*
G37*
G36*
X369500Y361994D02*
X368725Y361892D01*
X368003Y361593D01*
X367383Y361117D01*
X366907Y360497D01*
X366608Y359775D01*
X366506Y359000D01*
X366608Y358225D01*
X366907Y357503D01*
X367383Y356883D01*
X368003Y356407D01*
X368725Y356108D01*
X369500Y356006D01*
X370275Y356108D01*
X370997Y356407D01*
X371617Y356883D01*
X372093Y357503D01*
X372392Y358225D01*
X372494Y359000D01*
X372392Y359775D01*
X372093Y360497D01*
X371617Y361117D01*
X370997Y361593D01*
X370275Y361892D01*
X369500Y361994D01*
D02*
G37*
G36*
X103071Y365007D02*
X101833Y364885D01*
X100643Y364524D01*
X99546Y363937D01*
X98584Y363148D01*
X97795Y362187D01*
X97208Y361090D01*
X96847Y359899D01*
X96725Y358661D01*
X96847Y357423D01*
X97208Y356233D01*
X97795Y355136D01*
X98584Y354174D01*
X99546Y353385D01*
X100643Y352799D01*
X101833Y352438D01*
X103071Y352316D01*
X104309Y352438D01*
X105499Y352799D01*
X106596Y353385D01*
X107558Y354174D01*
X108347Y355136D01*
X108933Y356233D01*
X109294Y357423D01*
X109416Y358661D01*
X109294Y359899D01*
X108933Y361090D01*
X108347Y362187D01*
X107558Y363148D01*
X106596Y363937D01*
X105499Y364524D01*
X104309Y364885D01*
X103071Y365007D01*
D02*
G37*
G36*
X83071D02*
X81833Y364885D01*
X80642Y364524D01*
X79545Y363937D01*
X78584Y363148D01*
X77795Y362187D01*
X77208Y361090D01*
X76847Y359899D01*
X76725Y358661D01*
X76847Y357423D01*
X77208Y356233D01*
X77795Y355136D01*
X78584Y354174D01*
X79545Y353385D01*
X80642Y352799D01*
X81833Y352438D01*
X83071Y352316D01*
X84309Y352438D01*
X85499Y352799D01*
X86596Y353385D01*
X87558Y354174D01*
X88347Y355136D01*
X88933Y356233D01*
X89294Y357423D01*
X89416Y358661D01*
X89294Y359899D01*
X88933Y361090D01*
X88347Y362187D01*
X87558Y363148D01*
X86596Y363937D01*
X85499Y364524D01*
X84309Y364885D01*
X83071Y365007D01*
D02*
G37*
G36*
X149764Y364771D02*
X148526Y364649D01*
X147335Y364288D01*
X146238Y363701D01*
X145277Y362912D01*
X144488Y361951D01*
X143901Y360854D01*
X143540Y359663D01*
X143418Y358425D01*
X143540Y357187D01*
X143901Y355997D01*
X144488Y354900D01*
X145277Y353938D01*
X146238Y353149D01*
X147335Y352563D01*
X148526Y352202D01*
X149764Y352080D01*
X151002Y352202D01*
X152192Y352563D01*
X153289Y353149D01*
X154251Y353938D01*
X155040Y354900D01*
X155626Y355997D01*
X155987Y357187D01*
X156109Y358425D01*
X155987Y359663D01*
X155626Y360854D01*
X155040Y361951D01*
X154251Y362912D01*
X153289Y363701D01*
X152192Y364288D01*
X151002Y364649D01*
X149764Y364771D01*
D02*
G37*
G36*
X129764D02*
X128526Y364649D01*
X127335Y364288D01*
X126238Y363701D01*
X125277Y362912D01*
X124488Y361951D01*
X123901Y360854D01*
X123540Y359663D01*
X123418Y358425D01*
X123540Y357187D01*
X123901Y355997D01*
X124488Y354900D01*
X125277Y353938D01*
X126238Y353149D01*
X127335Y352563D01*
X128526Y352202D01*
X129764Y352080D01*
X131002Y352202D01*
X132192Y352563D01*
X133289Y353149D01*
X134251Y353938D01*
X135040Y354900D01*
X135626Y355997D01*
X135987Y357187D01*
X136109Y358425D01*
X135987Y359663D01*
X135626Y360854D01*
X135040Y361951D01*
X134251Y362912D01*
X133289Y363701D01*
X132192Y364288D01*
X131002Y364649D01*
X129764Y364771D01*
D02*
G37*
G36*
X46063Y363353D02*
X44825Y363231D01*
X43635Y362870D01*
X42538Y362284D01*
X41576Y361495D01*
X40787Y360533D01*
X40200Y359436D01*
X39839Y358246D01*
X39718Y357008D01*
X39839Y355770D01*
X40200Y354579D01*
X40787Y353483D01*
X41576Y352521D01*
X42538Y351732D01*
X43635Y351145D01*
X44825Y350784D01*
X46063Y350662D01*
X47301Y350784D01*
X48491Y351145D01*
X49588Y351732D01*
X50550Y352521D01*
X51339Y353483D01*
X51925Y354579D01*
X52287Y355770D01*
X52408Y357008D01*
X52287Y358246D01*
X51925Y359436D01*
X51339Y360533D01*
X50550Y361495D01*
X49588Y362284D01*
X48491Y362870D01*
X47301Y363231D01*
X46063Y363353D01*
D02*
G37*
G36*
X26063D02*
X24825Y363231D01*
X23635Y362870D01*
X22538Y362284D01*
X21576Y361495D01*
X20787Y360533D01*
X20200Y359436D01*
X19839Y358246D01*
X19717Y357008D01*
X19839Y355770D01*
X20200Y354579D01*
X20787Y353483D01*
X21576Y352521D01*
X22538Y351732D01*
X23635Y351145D01*
X24825Y350784D01*
X26063Y350662D01*
X27301Y350784D01*
X28491Y351145D01*
X29588Y351732D01*
X30550Y352521D01*
X31339Y353483D01*
X31925Y354579D01*
X32287Y355770D01*
X32408Y357008D01*
X32287Y358246D01*
X31925Y359436D01*
X31339Y360533D01*
X30550Y361495D01*
X29588Y362284D01*
X28491Y362870D01*
X27301Y363231D01*
X26063Y363353D01*
D02*
G37*
G36*
X93071Y354750D02*
X91883Y354633D01*
X90741Y354286D01*
X89688Y353724D01*
X88766Y352967D01*
X88009Y352044D01*
X87446Y350991D01*
X87099Y349849D01*
X86983Y348661D01*
X87099Y347474D01*
X87446Y346332D01*
X88009Y345279D01*
X88766Y344356D01*
X89688Y343599D01*
X90741Y343037D01*
X91883Y342690D01*
X93071Y342573D01*
X94259Y342690D01*
X95401Y343037D01*
X96453Y343599D01*
X97376Y344356D01*
X98133Y345279D01*
X98696Y346332D01*
X99042Y347474D01*
X99159Y348661D01*
X99042Y349849D01*
X98696Y350991D01*
X98133Y352044D01*
X97376Y352967D01*
X96453Y353724D01*
X95401Y354286D01*
X94259Y354633D01*
X93071Y354750D01*
D02*
G37*
G36*
X139764Y354514D02*
X138576Y354397D01*
X137434Y354050D01*
X136381Y353487D01*
X135459Y352730D01*
X134702Y351808D01*
X134139Y350755D01*
X133792Y349613D01*
X133675Y348425D01*
X133792Y347237D01*
X134139Y346095D01*
X134702Y345043D01*
X135459Y344120D01*
X136381Y343363D01*
X137434Y342800D01*
X138576Y342454D01*
X139764Y342337D01*
X140952Y342454D01*
X142094Y342800D01*
X143146Y343363D01*
X144069Y344120D01*
X144826Y345043D01*
X145389Y346095D01*
X145735Y347237D01*
X145852Y348425D01*
X145735Y349613D01*
X145389Y350755D01*
X144826Y351808D01*
X144069Y352730D01*
X143146Y353487D01*
X142094Y354050D01*
X140952Y354397D01*
X139764Y354514D01*
D02*
G37*
G36*
X36063Y353096D02*
X34875Y352979D01*
X33733Y352633D01*
X32680Y352070D01*
X31758Y351313D01*
X31001Y350390D01*
X30438Y349338D01*
X30092Y348196D01*
X29975Y347008D01*
X30092Y345820D01*
X30438Y344678D01*
X31001Y343625D01*
X31758Y342703D01*
X32680Y341946D01*
X33733Y341383D01*
X34875Y341037D01*
X36063Y340919D01*
X37251Y341037D01*
X38393Y341383D01*
X39445Y341946D01*
X40368Y342703D01*
X41125Y343625D01*
X41688Y344678D01*
X42034Y345820D01*
X42151Y347008D01*
X42034Y348196D01*
X41688Y349338D01*
X41125Y350390D01*
X40368Y351313D01*
X39445Y352070D01*
X38393Y352633D01*
X37251Y352979D01*
X36063Y353096D01*
D02*
G37*
G36*
X339528Y345524D02*
X338444Y345381D01*
X337435Y344963D01*
X336568Y344298D01*
X335903Y343431D01*
X335485Y342422D01*
X335342Y341339D01*
X335485Y340255D01*
X335903Y339246D01*
X336568Y338379D01*
X337435Y337714D01*
X338444Y337296D01*
X339528Y337153D01*
X340611Y337296D01*
X341620Y337714D01*
X342487Y338379D01*
X342843Y338843D01*
X343539Y338929D01*
X343778Y338746D01*
X344501Y338446D01*
X345276Y338345D01*
X346051Y338446D01*
X346773Y338746D01*
X347393Y339221D01*
X347869Y339842D01*
X348168Y340564D01*
X348270Y341339D01*
X348168Y342113D01*
X347869Y342836D01*
X347393Y343456D01*
X346773Y343932D01*
X346051Y344231D01*
X345276Y344333D01*
X344501Y344231D01*
X343778Y343932D01*
X343539Y343748D01*
X342843Y343834D01*
X342487Y344298D01*
X341620Y344963D01*
X340611Y345381D01*
X339528Y345524D01*
D02*
G37*
G36*
X329528D02*
X328444Y345381D01*
X327435Y344963D01*
X326568Y344298D01*
X325903Y343431D01*
X325485Y342422D01*
X325342Y341339D01*
X325485Y340255D01*
X325903Y339246D01*
X326568Y338379D01*
X327435Y337714D01*
X328444Y337296D01*
X329528Y337153D01*
X330611Y337296D01*
X331620Y337714D01*
X332487Y338379D01*
X333152Y339246D01*
X333570Y340255D01*
X333713Y341339D01*
X333570Y342422D01*
X333152Y343431D01*
X332487Y344298D01*
X331620Y344963D01*
X330611Y345381D01*
X329528Y345524D01*
D02*
G37*
G36*
X103071Y345007D02*
X101833Y344885D01*
X100643Y344524D01*
X99546Y343937D01*
X98584Y343148D01*
X97795Y342187D01*
X97208Y341090D01*
X96847Y339899D01*
X96725Y338661D01*
X96847Y337423D01*
X97208Y336233D01*
X97795Y335136D01*
X98584Y334174D01*
X99546Y333385D01*
X100643Y332799D01*
X101833Y332438D01*
X103071Y332316D01*
X104309Y332438D01*
X105499Y332799D01*
X106596Y333385D01*
X107558Y334174D01*
X108347Y335136D01*
X108933Y336233D01*
X109294Y337423D01*
X109416Y338661D01*
X109294Y339899D01*
X108933Y341090D01*
X108347Y342187D01*
X107558Y343148D01*
X106596Y343937D01*
X105499Y344524D01*
X104309Y344885D01*
X103071Y345007D01*
D02*
G37*
G36*
X83071D02*
X81833Y344885D01*
X80642Y344524D01*
X79545Y343937D01*
X78584Y343148D01*
X77795Y342187D01*
X77208Y341090D01*
X76847Y339899D01*
X76725Y338661D01*
X76847Y337423D01*
X77208Y336233D01*
X77795Y335136D01*
X78584Y334174D01*
X79545Y333385D01*
X80642Y332799D01*
X81833Y332438D01*
X83071Y332316D01*
X84309Y332438D01*
X85499Y332799D01*
X86596Y333385D01*
X87558Y334174D01*
X88347Y335136D01*
X88933Y336233D01*
X89294Y337423D01*
X89416Y338661D01*
X89294Y339899D01*
X88933Y341090D01*
X88347Y342187D01*
X87558Y343148D01*
X86596Y343937D01*
X85499Y344524D01*
X84309Y344885D01*
X83071Y345007D01*
D02*
G37*
G36*
X149764Y344771D02*
X148526Y344649D01*
X147335Y344288D01*
X146238Y343701D01*
X145277Y342912D01*
X144488Y341951D01*
X143901Y340854D01*
X143540Y339663D01*
X143418Y338425D01*
X143540Y337187D01*
X143901Y335997D01*
X144488Y334900D01*
X145277Y333938D01*
X146238Y333149D01*
X147335Y332563D01*
X148526Y332202D01*
X149764Y332080D01*
X151002Y332202D01*
X152192Y332563D01*
X153289Y333149D01*
X154251Y333938D01*
X155040Y334900D01*
X155626Y335997D01*
X155987Y337187D01*
X156109Y338425D01*
X155987Y339663D01*
X155626Y340854D01*
X155040Y341951D01*
X154251Y342912D01*
X153289Y343701D01*
X152192Y344288D01*
X151002Y344649D01*
X149764Y344771D01*
D02*
G37*
G36*
X129764D02*
X128526Y344649D01*
X127335Y344288D01*
X126238Y343701D01*
X125277Y342912D01*
X124488Y341951D01*
X123901Y340854D01*
X123540Y339663D01*
X123418Y338425D01*
X123540Y337187D01*
X123901Y335997D01*
X124488Y334900D01*
X125277Y333938D01*
X126238Y333149D01*
X127335Y332563D01*
X128526Y332202D01*
X129764Y332080D01*
X131002Y332202D01*
X132192Y332563D01*
X133289Y333149D01*
X134251Y333938D01*
X135040Y334900D01*
X135626Y335997D01*
X135987Y337187D01*
X136109Y338425D01*
X135987Y339663D01*
X135626Y340854D01*
X135040Y341951D01*
X134251Y342912D01*
X133289Y343701D01*
X132192Y344288D01*
X131002Y344649D01*
X129764Y344771D01*
D02*
G37*
G36*
X46063Y343353D02*
X44825Y343232D01*
X43635Y342870D01*
X42538Y342284D01*
X41576Y341495D01*
X40787Y340533D01*
X40200Y339436D01*
X39839Y338246D01*
X39718Y337008D01*
X39839Y335770D01*
X40200Y334579D01*
X40787Y333483D01*
X41576Y332521D01*
X42538Y331732D01*
X43635Y331145D01*
X44825Y330784D01*
X46063Y330662D01*
X47301Y330784D01*
X48491Y331145D01*
X49588Y331732D01*
X50550Y332521D01*
X51339Y333483D01*
X51925Y334579D01*
X52287Y335770D01*
X52408Y337008D01*
X52287Y338246D01*
X51925Y339436D01*
X51339Y340533D01*
X50550Y341495D01*
X49588Y342284D01*
X48491Y342870D01*
X47301Y343232D01*
X46063Y343353D01*
D02*
G37*
G36*
X26063D02*
X24825Y343232D01*
X23635Y342870D01*
X22538Y342284D01*
X21576Y341495D01*
X20787Y340533D01*
X20200Y339436D01*
X19839Y338246D01*
X19717Y337008D01*
X19839Y335770D01*
X20200Y334579D01*
X20787Y333483D01*
X21576Y332521D01*
X22538Y331732D01*
X23635Y331145D01*
X24825Y330784D01*
X26063Y330662D01*
X27301Y330784D01*
X28491Y331145D01*
X29588Y331732D01*
X30550Y332521D01*
X31339Y333483D01*
X31925Y334579D01*
X32287Y335770D01*
X32408Y337008D01*
X32287Y338246D01*
X31925Y339436D01*
X31339Y340533D01*
X30550Y341495D01*
X29588Y342284D01*
X28491Y342870D01*
X27301Y343232D01*
X26063Y343353D01*
D02*
G37*
G36*
X198531Y327731D02*
Y325303D01*
X200960D01*
X200924Y325578D01*
X200624Y326300D01*
X200149Y326920D01*
X199529Y327396D01*
X198806Y327695D01*
X198531Y327731D01*
D02*
G37*
G36*
X197531D02*
X197257Y327695D01*
X196534Y327396D01*
X195914Y326920D01*
X195439Y326300D01*
X195139Y325578D01*
X195103Y325303D01*
X197531D01*
Y327731D01*
D02*
G37*
G36*
X200960Y324303D02*
X198531D01*
Y321875D01*
X198806Y321911D01*
X199529Y322210D01*
X200149Y322686D01*
X200624Y323306D01*
X200924Y324028D01*
X200960Y324303D01*
D02*
G37*
G36*
X197531D02*
X195103D01*
X195139Y324028D01*
X195439Y323306D01*
X195914Y322686D01*
X196534Y322210D01*
X197257Y321911D01*
X197531Y321875D01*
Y324303D01*
D02*
G37*
G36*
X218504Y327797D02*
X217729Y327695D01*
X217007Y327396D01*
X216387Y326920D01*
X215911Y326300D01*
X215612Y325578D01*
X215510Y324803D01*
X215612Y324028D01*
X215911Y323306D01*
X216387Y322686D01*
X217007Y322210D01*
X217729Y321911D01*
X218504Y321809D01*
X219279Y321911D01*
X220001Y322210D01*
X220621Y322686D01*
X221097Y323306D01*
X221396Y324028D01*
X221498Y324803D01*
X221396Y325578D01*
X221097Y326300D01*
X220621Y326920D01*
X220001Y327396D01*
X219279Y327695D01*
X218504Y327797D01*
D02*
G37*
G36*
X194595Y321826D02*
Y319398D01*
X197023D01*
X196987Y319673D01*
X196687Y320395D01*
X196212Y321015D01*
X195592Y321491D01*
X194869Y321790D01*
X194595Y321826D01*
D02*
G37*
G36*
X193595D02*
X193320Y321790D01*
X192597Y321491D01*
X191977Y321015D01*
X191501Y320395D01*
X191202Y319673D01*
X191166Y319398D01*
X193595D01*
Y321826D01*
D02*
G37*
G36*
X197023Y318398D02*
X194595D01*
Y315969D01*
X194869Y316005D01*
X195592Y316305D01*
X196212Y316780D01*
X196687Y317401D01*
X196987Y318123D01*
X197023Y318398D01*
D02*
G37*
G36*
X193595D02*
X191166D01*
X191202Y318123D01*
X191501Y317401D01*
X191977Y316780D01*
X192597Y316305D01*
X193320Y316005D01*
X193595Y315969D01*
Y318398D01*
D02*
G37*
G36*
X231996Y317889D02*
Y315461D01*
X234424D01*
X234388Y315736D01*
X234089Y316458D01*
X233613Y317078D01*
X232993Y317554D01*
X232271Y317853D01*
X231996Y317889D01*
D02*
G37*
G36*
X230996D02*
X230721Y317853D01*
X229999Y317554D01*
X229379Y317078D01*
X228903Y316458D01*
X228604Y315736D01*
X228568Y315461D01*
X230996D01*
Y317889D01*
D02*
G37*
G36*
X234424Y314461D02*
X231996D01*
Y312032D01*
X232271Y312069D01*
X232993Y312368D01*
X233613Y312843D01*
X234089Y313464D01*
X234388Y314186D01*
X234424Y314461D01*
D02*
G37*
G36*
X230996D02*
X228568D01*
X228604Y314186D01*
X228903Y313464D01*
X229379Y312843D01*
X229999Y312368D01*
X230721Y312069D01*
X230996Y312032D01*
Y314461D01*
D02*
G37*
G36*
X255000Y310494D02*
X254225Y310392D01*
X253503Y310093D01*
X252883Y309617D01*
X252407Y308997D01*
X252108Y308275D01*
X252006Y307500D01*
X252108Y306725D01*
X252407Y306003D01*
X252883Y305383D01*
X253503Y304907D01*
X254225Y304608D01*
X255000Y304506D01*
X255775Y304608D01*
X256497Y304907D01*
X257117Y305383D01*
X257593Y306003D01*
X257892Y306725D01*
X257994Y307500D01*
X257892Y308275D01*
X257593Y308997D01*
X257117Y309617D01*
X256497Y310093D01*
X255775Y310392D01*
X255000Y310494D01*
D02*
G37*
G36*
X106850Y314771D02*
X105612Y314649D01*
X104422Y314288D01*
X103325Y313701D01*
X102363Y312912D01*
X101574Y311951D01*
X100988Y310854D01*
X100627Y309663D01*
X100505Y308425D01*
X100627Y307187D01*
X100988Y305997D01*
X101574Y304900D01*
X102363Y303938D01*
X103325Y303149D01*
X104422Y302563D01*
X105612Y302202D01*
X106850Y302080D01*
X108088Y302202D01*
X109279Y302563D01*
X110376Y303149D01*
X111337Y303938D01*
X112127Y304900D01*
X112713Y305997D01*
X113074Y307187D01*
X113196Y308425D01*
X113074Y309663D01*
X112713Y310854D01*
X112127Y311951D01*
X111337Y312912D01*
X110376Y313701D01*
X109279Y314288D01*
X108088Y314649D01*
X106850Y314771D01*
D02*
G37*
G36*
X86850D02*
X85612Y314649D01*
X84422Y314288D01*
X83325Y313701D01*
X82363Y312912D01*
X81574Y311951D01*
X80988Y310854D01*
X80627Y309663D01*
X80505Y308425D01*
X80627Y307187D01*
X80988Y305997D01*
X81574Y304900D01*
X82363Y303938D01*
X83325Y303149D01*
X84422Y302563D01*
X85612Y302202D01*
X86850Y302080D01*
X88088Y302202D01*
X89279Y302563D01*
X90376Y303149D01*
X91337Y303938D01*
X92127Y304900D01*
X92713Y305997D01*
X93074Y307187D01*
X93196Y308425D01*
X93074Y309663D01*
X92713Y310854D01*
X92127Y311951D01*
X91337Y312912D01*
X90376Y313701D01*
X89279Y314288D01*
X88088Y314649D01*
X86850Y314771D01*
D02*
G37*
G36*
X45433D02*
X44195Y314649D01*
X43005Y314288D01*
X41908Y313701D01*
X40946Y312912D01*
X40157Y311951D01*
X39571Y310854D01*
X39209Y309663D01*
X39088Y308425D01*
X39209Y307187D01*
X39571Y305997D01*
X40157Y304900D01*
X40946Y303938D01*
X41908Y303149D01*
X43005Y302563D01*
X44195Y302202D01*
X45433Y302080D01*
X46671Y302202D01*
X47861Y302563D01*
X48958Y303149D01*
X49920Y303938D01*
X50709Y304900D01*
X51296Y305997D01*
X51657Y307187D01*
X51779Y308425D01*
X51657Y309663D01*
X51296Y310854D01*
X50709Y311951D01*
X49920Y312912D01*
X48958Y313701D01*
X47861Y314288D01*
X46671Y314649D01*
X45433Y314771D01*
D02*
G37*
G36*
X25433D02*
X24195Y314649D01*
X23005Y314288D01*
X21908Y313701D01*
X20946Y312912D01*
X20157Y311951D01*
X19571Y310854D01*
X19209Y309663D01*
X19087Y308425D01*
X19209Y307187D01*
X19571Y305997D01*
X20157Y304900D01*
X20946Y303938D01*
X21908Y303149D01*
X23005Y302563D01*
X24195Y302202D01*
X25433Y302080D01*
X26671Y302202D01*
X27861Y302563D01*
X28958Y303149D01*
X29920Y303938D01*
X30709Y304900D01*
X31296Y305997D01*
X31657Y307187D01*
X31779Y308425D01*
X31657Y309663D01*
X31296Y310854D01*
X30709Y311951D01*
X29920Y312912D01*
X28958Y313701D01*
X27861Y314288D01*
X26671Y314649D01*
X25433Y314771D01*
D02*
G37*
G36*
X192000Y302994D02*
X191225Y302892D01*
X190503Y302593D01*
X189883Y302117D01*
X189407Y301497D01*
X189108Y300775D01*
X189006Y300000D01*
X189108Y299225D01*
X189407Y298503D01*
X189883Y297883D01*
X190503Y297407D01*
X191225Y297108D01*
X192000Y297006D01*
X192775Y297108D01*
X193497Y297407D01*
X194117Y297883D01*
X194593Y298503D01*
X194892Y299225D01*
X194994Y300000D01*
X194892Y300775D01*
X194593Y301497D01*
X194117Y302117D01*
X193497Y302593D01*
X192775Y302892D01*
X192000Y302994D01*
D02*
G37*
G36*
X241732Y309293D02*
X240957Y309191D01*
X240235Y308892D01*
X239615Y308416D01*
X239139Y307796D01*
X238840Y307074D01*
X238738Y306299D01*
X238840Y305524D01*
X239139Y304802D01*
X239615Y304182D01*
X240033Y303862D01*
X239976Y303297D01*
X239246Y302995D01*
X238379Y302330D01*
X237714Y301463D01*
X237296Y300453D01*
X237153Y299370D01*
X237296Y298287D01*
X237714Y297277D01*
X238379Y296411D01*
X239246Y295745D01*
X240255Y295327D01*
X241339Y295185D01*
X242422Y295327D01*
X243431Y295745D01*
X244298Y296411D01*
X244963Y297277D01*
X245381Y298287D01*
X245524Y299370D01*
X245381Y300453D01*
X244963Y301463D01*
X244298Y302330D01*
X243431Y302995D01*
X243125Y303122D01*
Y303663D01*
X243229Y303706D01*
X243849Y304182D01*
X244325Y304802D01*
X244624Y305524D01*
X244726Y306299D01*
X244624Y307074D01*
X244325Y307796D01*
X243849Y308416D01*
X243229Y308892D01*
X242507Y309191D01*
X241732Y309293D01*
D02*
G37*
G36*
X96850Y304514D02*
X95663Y304397D01*
X94520Y304050D01*
X93468Y303487D01*
X92545Y302730D01*
X91788Y301808D01*
X91225Y300755D01*
X90879Y299613D01*
X90762Y298425D01*
X90879Y297237D01*
X91225Y296095D01*
X91788Y295043D01*
X92545Y294120D01*
X93468Y293363D01*
X94520Y292800D01*
X95663Y292454D01*
X96850Y292337D01*
X98038Y292454D01*
X99180Y292800D01*
X100233Y293363D01*
X101155Y294120D01*
X101913Y295043D01*
X102475Y296095D01*
X102822Y297237D01*
X102939Y298425D01*
X102822Y299613D01*
X102475Y300755D01*
X101913Y301808D01*
X101155Y302730D01*
X100233Y303487D01*
X99180Y304050D01*
X98038Y304397D01*
X96850Y304514D01*
D02*
G37*
G36*
X35433D02*
X34245Y304397D01*
X33103Y304050D01*
X32050Y303487D01*
X31128Y302730D01*
X30371Y301808D01*
X29808Y300755D01*
X29462Y299613D01*
X29345Y298425D01*
X29462Y297237D01*
X29808Y296095D01*
X30371Y295043D01*
X31128Y294120D01*
X32050Y293363D01*
X33103Y292800D01*
X34245Y292454D01*
X35433Y292337D01*
X36621Y292454D01*
X37763Y292800D01*
X38816Y293363D01*
X39738Y294120D01*
X40495Y295043D01*
X41058Y296095D01*
X41405Y297237D01*
X41521Y298425D01*
X41405Y299613D01*
X41058Y300755D01*
X40495Y301808D01*
X39738Y302730D01*
X38816Y303487D01*
X37763Y304050D01*
X36621Y304397D01*
X35433Y304514D01*
D02*
G37*
G36*
X241339Y293555D02*
X240255Y293413D01*
X239246Y292995D01*
X238379Y292330D01*
X237714Y291463D01*
X237296Y290453D01*
X237153Y289370D01*
X237296Y288287D01*
X237714Y287277D01*
X238379Y286411D01*
X239246Y285745D01*
X240255Y285327D01*
X241339Y285185D01*
X242422Y285327D01*
X243431Y285745D01*
X244298Y286411D01*
X244963Y287277D01*
X245381Y288287D01*
X245524Y289370D01*
X245381Y290453D01*
X244963Y291463D01*
X244298Y292330D01*
X243431Y292995D01*
X242422Y293413D01*
X241339Y293555D01*
D02*
G37*
G36*
X106850Y294771D02*
X105612Y294649D01*
X104422Y294288D01*
X103325Y293701D01*
X102363Y292912D01*
X101574Y291951D01*
X100988Y290854D01*
X100627Y289663D01*
X100505Y288425D01*
X100627Y287187D01*
X100988Y285997D01*
X101574Y284900D01*
X102363Y283938D01*
X103325Y283149D01*
X104422Y282563D01*
X105612Y282202D01*
X106850Y282080D01*
X108088Y282202D01*
X109279Y282563D01*
X110376Y283149D01*
X111337Y283938D01*
X112127Y284900D01*
X112713Y285997D01*
X113074Y287187D01*
X113196Y288425D01*
X113074Y289663D01*
X112713Y290854D01*
X112127Y291951D01*
X111337Y292912D01*
X110376Y293701D01*
X109279Y294288D01*
X108088Y294649D01*
X106850Y294771D01*
D02*
G37*
G36*
X86850D02*
X85612Y294649D01*
X84422Y294288D01*
X83325Y293701D01*
X82363Y292912D01*
X81574Y291951D01*
X80988Y290854D01*
X80627Y289663D01*
X80505Y288425D01*
X80627Y287187D01*
X80988Y285997D01*
X81574Y284900D01*
X82363Y283938D01*
X83325Y283149D01*
X84422Y282563D01*
X85612Y282202D01*
X86850Y282080D01*
X88088Y282202D01*
X89279Y282563D01*
X90376Y283149D01*
X91337Y283938D01*
X92127Y284900D01*
X92713Y285997D01*
X93074Y287187D01*
X93196Y288425D01*
X93074Y289663D01*
X92713Y290854D01*
X92127Y291951D01*
X91337Y292912D01*
X90376Y293701D01*
X89279Y294288D01*
X88088Y294649D01*
X86850Y294771D01*
D02*
G37*
G36*
X45433D02*
X44195Y294649D01*
X43005Y294288D01*
X41908Y293701D01*
X40946Y292912D01*
X40157Y291951D01*
X39571Y290854D01*
X39209Y289663D01*
X39088Y288425D01*
X39209Y287187D01*
X39571Y285997D01*
X40157Y284900D01*
X40946Y283938D01*
X41908Y283149D01*
X43005Y282563D01*
X44195Y282202D01*
X45433Y282080D01*
X46671Y282202D01*
X47861Y282563D01*
X48958Y283149D01*
X49920Y283938D01*
X50709Y284900D01*
X51296Y285997D01*
X51657Y287187D01*
X51779Y288425D01*
X51657Y289663D01*
X51296Y290854D01*
X50709Y291951D01*
X49920Y292912D01*
X48958Y293701D01*
X47861Y294288D01*
X46671Y294649D01*
X45433Y294771D01*
D02*
G37*
G36*
X25433D02*
X24195Y294649D01*
X23005Y294288D01*
X21908Y293701D01*
X20946Y292912D01*
X20157Y291951D01*
X19571Y290854D01*
X19209Y289663D01*
X19087Y288425D01*
X19209Y287187D01*
X19571Y285997D01*
X20157Y284900D01*
X20946Y283938D01*
X21908Y283149D01*
X23005Y282563D01*
X24195Y282202D01*
X25433Y282080D01*
X26671Y282202D01*
X27861Y282563D01*
X28958Y283149D01*
X29920Y283938D01*
X30709Y284900D01*
X31296Y285997D01*
X31657Y287187D01*
X31779Y288425D01*
X31657Y289663D01*
X31296Y290854D01*
X30709Y291951D01*
X29920Y292912D01*
X28958Y293701D01*
X27861Y294288D01*
X26671Y294649D01*
X25433Y294771D01*
D02*
G37*
G36*
X207874Y284500D02*
X206791Y284358D01*
X205781Y283940D01*
X204914Y283275D01*
X204249Y282408D01*
X203831Y281398D01*
X203689Y280315D01*
X203831Y279232D01*
X204249Y278222D01*
X204914Y277355D01*
X205781Y276690D01*
X206791Y276272D01*
X207874Y276130D01*
X208957Y276272D01*
X209967Y276690D01*
X210834Y277355D01*
X211499Y278222D01*
X211917Y279232D01*
X212059Y280315D01*
X211917Y281398D01*
X211499Y282408D01*
X210834Y283275D01*
X209967Y283940D01*
X208957Y284358D01*
X207874Y284500D01*
D02*
G37*
G36*
X197874D02*
X196791Y284358D01*
X195781Y283940D01*
X194914Y283275D01*
X194249Y282408D01*
X193831Y281398D01*
X193689Y280315D01*
X193831Y279232D01*
X194249Y278222D01*
X194914Y277355D01*
X195781Y276690D01*
X196791Y276272D01*
X197874Y276130D01*
X198957Y276272D01*
X199967Y276690D01*
X200834Y277355D01*
X201499Y278222D01*
X201917Y279232D01*
X202059Y280315D01*
X201917Y281398D01*
X201499Y282408D01*
X200834Y283275D01*
X199967Y283940D01*
X198957Y284358D01*
X197874Y284500D01*
D02*
G37*
G36*
X266047Y265447D02*
X265272Y265345D01*
X264550Y265046D01*
X263930Y264570D01*
X263454Y263950D01*
X263155Y263228D01*
X263053Y262453D01*
X263155Y261678D01*
X263454Y260956D01*
X263930Y260336D01*
X264550Y259860D01*
X265272Y259561D01*
X266047Y259459D01*
X266822Y259561D01*
X267544Y259860D01*
X268164Y260336D01*
X268640Y260956D01*
X268939Y261678D01*
X269041Y262453D01*
X268939Y263228D01*
X268640Y263950D01*
X268164Y264570D01*
X267544Y265046D01*
X266822Y265345D01*
X266047Y265447D01*
D02*
G37*
G36*
X207087Y263241D02*
X206003Y263098D01*
X204994Y262680D01*
X204127Y262015D01*
X203462Y261148D01*
X203044Y260138D01*
X202901Y259055D01*
X203044Y257972D01*
X203462Y256962D01*
X204127Y256096D01*
X204994Y255431D01*
X206003Y255012D01*
X207087Y254870D01*
X208170Y255012D01*
X209179Y255431D01*
X210046Y256096D01*
X210711Y256962D01*
X210999Y257656D01*
X211540D01*
X211580Y257558D01*
X212056Y256938D01*
X212676Y256462D01*
X213398Y256163D01*
X214173Y256061D01*
X214948Y256163D01*
X215670Y256462D01*
X216290Y256938D01*
X216766Y257558D01*
X217065Y258280D01*
X217167Y259055D01*
X217065Y259830D01*
X216766Y260552D01*
X216290Y261172D01*
X215670Y261648D01*
X214948Y261947D01*
X214173Y262049D01*
X213398Y261947D01*
X212676Y261648D01*
X212056Y261172D01*
X211580Y260552D01*
X211540Y260454D01*
X210999D01*
X210711Y261148D01*
X210046Y262015D01*
X209179Y262680D01*
X208170Y263098D01*
X207087Y263241D01*
D02*
G37*
G36*
X197087D02*
X196003Y263098D01*
X194994Y262680D01*
X194127Y262015D01*
X193462Y261148D01*
X193044Y260138D01*
X192901Y259055D01*
X193044Y257972D01*
X193462Y256962D01*
X194127Y256096D01*
X194994Y255431D01*
X196003Y255012D01*
X197087Y254870D01*
X198170Y255012D01*
X199179Y255431D01*
X200046Y256096D01*
X200711Y256962D01*
X201129Y257972D01*
X201272Y259055D01*
X201129Y260138D01*
X200711Y261148D01*
X200046Y262015D01*
X199179Y262680D01*
X198170Y263098D01*
X197087Y263241D01*
D02*
G37*
G36*
X238342Y263306D02*
X237568Y263204D01*
X236845Y262905D01*
X236225Y262429D01*
X235750Y261809D01*
X235450Y261087D01*
X235348Y260312D01*
X235450Y259537D01*
X235750Y258815D01*
X236225Y258194D01*
X236845Y257719D01*
X237568Y257419D01*
X238342Y257317D01*
X239118Y257419D01*
X239262Y257479D01*
X239695Y257229D01*
X239718Y257055D01*
X240017Y256333D01*
X240493Y255713D01*
X241113Y255237D01*
X241835Y254938D01*
X242610Y254836D01*
X243385Y254938D01*
X244108Y255237D01*
X244728Y255713D01*
X245203Y256333D01*
X245502Y257055D01*
X245604Y257830D01*
X245502Y258605D01*
X245203Y259327D01*
X244728Y259947D01*
X244108Y260423D01*
X243385Y260722D01*
X242610Y260824D01*
X241835Y260722D01*
X241691Y260662D01*
X241258Y260912D01*
X241235Y261087D01*
X240935Y261809D01*
X240460Y262429D01*
X239840Y262905D01*
X239118Y263204D01*
X238342Y263306D01*
D02*
G37*
G36*
X270000Y257541D02*
X269225Y257439D01*
X268503Y257140D01*
X267883Y256664D01*
X267407Y256044D01*
X267108Y255322D01*
X267006Y254547D01*
X267108Y253772D01*
X267407Y253050D01*
X267883Y252430D01*
X268503Y251954D01*
X269225Y251655D01*
X270000Y251553D01*
X270775Y251655D01*
X271497Y251954D01*
X272117Y252430D01*
X272593Y253050D01*
X272892Y253772D01*
X272994Y254547D01*
X272892Y255322D01*
X272593Y256044D01*
X272117Y256664D01*
X271497Y257140D01*
X270775Y257439D01*
X270000Y257541D01*
D02*
G37*
G36*
X248819Y255785D02*
X248044Y255683D01*
X247322Y255384D01*
X246702Y254908D01*
X246226Y254288D01*
X245927Y253566D01*
X245825Y252791D01*
X245927Y252016D01*
X246226Y251294D01*
X246702Y250674D01*
X247322Y250198D01*
X248044Y249899D01*
X248819Y249797D01*
X249594Y249899D01*
X250316Y250198D01*
X250936Y250674D01*
X251412Y251294D01*
X251711Y252016D01*
X251813Y252791D01*
X251711Y253566D01*
X251412Y254288D01*
X250936Y254908D01*
X250316Y255384D01*
X249594Y255683D01*
X248819Y255785D01*
D02*
G37*
G36*
X288689Y248991D02*
Y246563D01*
X291117D01*
X291081Y246838D01*
X290782Y247560D01*
X290306Y248180D01*
X289686Y248656D01*
X288964Y248955D01*
X288689Y248991D01*
D02*
G37*
G36*
X287689D02*
X287414Y248955D01*
X286692Y248656D01*
X286072Y248180D01*
X285596Y247560D01*
X285297Y246838D01*
X285261Y246563D01*
X287689D01*
Y248991D01*
D02*
G37*
G36*
X267256D02*
Y246563D01*
X269684D01*
X269648Y246838D01*
X269349Y247560D01*
X268873Y248180D01*
X268253Y248656D01*
X267531Y248955D01*
X267256Y248991D01*
D02*
G37*
G36*
X266256D02*
X265981Y248955D01*
X265259Y248656D01*
X264639Y248180D01*
X264163Y247560D01*
X263864Y246838D01*
X263828Y246563D01*
X266256D01*
Y248991D01*
D02*
G37*
G36*
X196957D02*
Y246563D01*
X199385D01*
X199349Y246838D01*
X199050Y247560D01*
X198574Y248180D01*
X197954Y248656D01*
X197232Y248955D01*
X196957Y248991D01*
D02*
G37*
G36*
X195957D02*
X195682Y248955D01*
X194960Y248656D01*
X194340Y248180D01*
X193864Y247560D01*
X193565Y246838D01*
X193528Y246563D01*
X195957D01*
Y248991D01*
D02*
G37*
G36*
X462747Y248245D02*
Y245817D01*
X465175D01*
X465139Y246092D01*
X464840Y246814D01*
X464364Y247434D01*
X463744Y247910D01*
X463022Y248209D01*
X462747Y248245D01*
D02*
G37*
G36*
X461747D02*
X461472Y248209D01*
X460750Y247910D01*
X460130Y247434D01*
X459654Y246814D01*
X459355Y246092D01*
X459319Y245817D01*
X461747D01*
Y248245D01*
D02*
G37*
G36*
X310547Y248207D02*
Y245778D01*
X312976D01*
X312939Y246053D01*
X312640Y246776D01*
X312164Y247396D01*
X311544Y247871D01*
X310822Y248170D01*
X310547Y248207D01*
D02*
G37*
G36*
X309547D02*
X309272Y248170D01*
X308550Y247871D01*
X307930Y247396D01*
X307454Y246776D01*
X307155Y246053D01*
X307119Y245778D01*
X309547D01*
Y248207D01*
D02*
G37*
G36*
X497816Y247693D02*
Y245265D01*
X500244D01*
X500208Y245540D01*
X499908Y246262D01*
X499433Y246882D01*
X498813Y247358D01*
X498090Y247657D01*
X497816Y247693D01*
D02*
G37*
G36*
X496815D02*
X496540Y247657D01*
X495818Y247358D01*
X495198Y246882D01*
X494723Y246262D01*
X494423Y245540D01*
X494387Y245265D01*
X496815D01*
Y247693D01*
D02*
G37*
G36*
X160128Y249197D02*
X159353Y249095D01*
X158631Y248796D01*
X158011Y248321D01*
X157535Y247700D01*
X157236Y246978D01*
X157134Y246203D01*
X157236Y245428D01*
X157535Y244706D01*
X158011Y244086D01*
X158631Y243610D01*
X159353Y243311D01*
X160128Y243209D01*
X160903Y243311D01*
X161625Y243610D01*
X162245Y244086D01*
X162721Y244706D01*
X163020Y245428D01*
X163122Y246203D01*
X163020Y246978D01*
X162721Y247700D01*
X162245Y248321D01*
X161625Y248796D01*
X160903Y249095D01*
X160128Y249197D01*
D02*
G37*
G36*
X291117Y245563D02*
X288689D01*
Y243135D01*
X288964Y243171D01*
X289686Y243470D01*
X290306Y243946D01*
X290782Y244566D01*
X291081Y245288D01*
X291117Y245563D01*
D02*
G37*
G36*
X287689D02*
X285261D01*
X285297Y245288D01*
X285596Y244566D01*
X286072Y243946D01*
X286692Y243470D01*
X287414Y243171D01*
X287689Y243135D01*
Y245563D01*
D02*
G37*
G36*
X269684D02*
X267256D01*
Y243135D01*
X267531Y243171D01*
X268253Y243470D01*
X268873Y243946D01*
X269349Y244566D01*
X269648Y245288D01*
X269684Y245563D01*
D02*
G37*
G36*
X266256D02*
X263828D01*
X263864Y245288D01*
X264163Y244566D01*
X264639Y243946D01*
X265259Y243470D01*
X265981Y243171D01*
X266256Y243135D01*
Y245563D01*
D02*
G37*
G36*
X199385D02*
X196957D01*
Y243135D01*
X197232Y243171D01*
X197954Y243470D01*
X198574Y243946D01*
X199050Y244566D01*
X199349Y245288D01*
X199385Y245563D01*
D02*
G37*
G36*
X195957D02*
X193528D01*
X193565Y245288D01*
X193864Y244566D01*
X194340Y243946D01*
X194960Y243470D01*
X195682Y243171D01*
X195957Y243135D01*
Y245563D01*
D02*
G37*
G36*
X465175Y244817D02*
X462747D01*
Y242388D01*
X463022Y242425D01*
X463744Y242724D01*
X464364Y243199D01*
X464840Y243820D01*
X465139Y244542D01*
X465175Y244817D01*
D02*
G37*
G36*
X461747D02*
X459319D01*
X459355Y244542D01*
X459654Y243820D01*
X460130Y243199D01*
X460750Y242724D01*
X461472Y242425D01*
X461747Y242388D01*
Y244817D01*
D02*
G37*
G36*
X180812Y248376D02*
X180036Y248274D01*
X179314Y247975D01*
X178694Y247499D01*
X178218Y246879D01*
X177919Y246157D01*
X177817Y245382D01*
X177919Y244607D01*
X178218Y243885D01*
X178694Y243265D01*
X179314Y242789D01*
X180036Y242490D01*
X180812Y242388D01*
X181586Y242490D01*
X182308Y242789D01*
X182929Y243265D01*
X183404Y243885D01*
X183704Y244607D01*
X183806Y245382D01*
X183704Y246157D01*
X183404Y246879D01*
X182929Y247499D01*
X182308Y247975D01*
X181586Y248274D01*
X180812Y248376D01*
D02*
G37*
G36*
X136912Y248368D02*
X136137Y248266D01*
X135415Y247967D01*
X134795Y247491D01*
X134319Y246871D01*
X134020Y246149D01*
X133918Y245374D01*
X134020Y244599D01*
X134319Y243877D01*
X134795Y243257D01*
X135415Y242781D01*
X136137Y242482D01*
X136912Y242380D01*
X137687Y242482D01*
X138409Y242781D01*
X139029Y243257D01*
X139505Y243877D01*
X139804Y244599D01*
X139906Y245374D01*
X139804Y246149D01*
X139505Y246871D01*
X139029Y247491D01*
X138409Y247967D01*
X137687Y248266D01*
X136912Y248368D01*
D02*
G37*
G36*
X312976Y244778D02*
X310547D01*
Y242350D01*
X310822Y242386D01*
X311544Y242685D01*
X312164Y243161D01*
X312640Y243781D01*
X312939Y244503D01*
X312976Y244778D01*
D02*
G37*
G36*
X309547D02*
X307119D01*
X307155Y244503D01*
X307454Y243781D01*
X307930Y243161D01*
X308550Y242685D01*
X309272Y242386D01*
X309547Y242350D01*
Y244778D01*
D02*
G37*
G36*
X500244Y244265D02*
X497816D01*
Y241836D01*
X498090Y241873D01*
X498813Y242172D01*
X499433Y242648D01*
X499908Y243268D01*
X500208Y243990D01*
X500244Y244265D01*
D02*
G37*
G36*
X496815D02*
X494387D01*
X494423Y243990D01*
X494723Y243268D01*
X495198Y242648D01*
X495818Y242172D01*
X496540Y241873D01*
X496815Y241836D01*
Y244265D01*
D02*
G37*
G36*
X592020Y237574D02*
X591745Y237538D01*
X591023Y237239D01*
X590403Y236763D01*
X589927Y236143D01*
X589628Y235421D01*
X589591Y235146D01*
X592020D01*
Y237574D01*
D02*
G37*
G36*
Y234146D02*
X589591D01*
X589628Y233871D01*
X589927Y233149D01*
X590403Y232528D01*
X591023Y232053D01*
X591745Y231754D01*
X592020Y231717D01*
Y234146D01*
D02*
G37*
G36*
X502835Y237629D02*
X501921Y237508D01*
X501069Y237156D01*
X500338Y236595D01*
X499777Y235863D01*
X499425Y235012D01*
X499304Y234098D01*
X499425Y233185D01*
X499777Y232333D01*
X500338Y231602D01*
X501069Y231041D01*
X501921Y230689D01*
X502835Y230568D01*
X503748Y230689D01*
X504600Y231041D01*
X505331Y231602D01*
X505892Y232333D01*
X506245Y233185D01*
X506365Y234098D01*
X506245Y235012D01*
X505892Y235863D01*
X505331Y236595D01*
X504600Y237156D01*
X503748Y237508D01*
X502835Y237629D01*
D02*
G37*
G36*
X328552Y237628D02*
X327638Y237508D01*
X326786Y237155D01*
X326055Y236594D01*
X325494Y235863D01*
X325142Y235012D01*
X325021Y234098D01*
X325142Y233184D01*
X325494Y232333D01*
X326055Y231602D01*
X326786Y231041D01*
X327638Y230688D01*
X328552Y230568D01*
X329465Y230688D01*
X330317Y231041D01*
X331048Y231602D01*
X331609Y232333D01*
X331961Y233184D01*
X332082Y234098D01*
X331961Y235012D01*
X331609Y235863D01*
X331048Y236594D01*
X330317Y237155D01*
X329465Y237508D01*
X328552Y237628D01*
D02*
G37*
G36*
X574339Y238634D02*
X572764D01*
X571680Y238492D01*
X570671Y238073D01*
X569804Y237408D01*
X569139Y236542D01*
X568721Y235532D01*
X568578Y234449D01*
X568721Y233366D01*
X569139Y232356D01*
X569804Y231489D01*
X570671Y230824D01*
X571680Y230406D01*
X572764Y230263D01*
X574339D01*
X575422Y230406D01*
X576431Y230824D01*
X577298Y231489D01*
X577963Y232356D01*
X578381Y233366D01*
X578524Y234449D01*
X578381Y235532D01*
X577963Y236542D01*
X577298Y237408D01*
X576431Y238073D01*
X575422Y238492D01*
X574339Y238634D01*
D02*
G37*
G36*
X486721Y232456D02*
Y230028D01*
X489149D01*
X489113Y230303D01*
X488813Y231025D01*
X488338Y231645D01*
X487717Y232120D01*
X486995Y232420D01*
X486721Y232456D01*
D02*
G37*
G36*
X485720D02*
X485445Y232420D01*
X484723Y232120D01*
X484103Y231645D01*
X483628Y231025D01*
X483328Y230303D01*
X483292Y230028D01*
X485720D01*
Y232456D01*
D02*
G37*
G36*
X454437Y231668D02*
Y229240D01*
X456865D01*
X456829Y229515D01*
X456530Y230237D01*
X456054Y230857D01*
X455434Y231333D01*
X454712Y231632D01*
X454437Y231668D01*
D02*
G37*
G36*
X453437D02*
X453162Y231632D01*
X452440Y231333D01*
X451820Y230857D01*
X451344Y230237D01*
X451045Y229515D01*
X451009Y229240D01*
X453437D01*
Y231668D01*
D02*
G37*
G36*
X257843Y231532D02*
Y229103D01*
X260272D01*
X260235Y229378D01*
X259936Y230100D01*
X259460Y230720D01*
X258840Y231196D01*
X258118Y231495D01*
X257843Y231532D01*
D02*
G37*
G36*
X256843D02*
X256568Y231495D01*
X255846Y231196D01*
X255226Y230720D01*
X254750Y230100D01*
X254451Y229378D01*
X254415Y229103D01*
X256843D01*
Y231532D01*
D02*
G37*
G36*
X204043Y230487D02*
Y228059D01*
X206472D01*
X206435Y228334D01*
X206136Y229056D01*
X205661Y229676D01*
X205040Y230152D01*
X204318Y230451D01*
X204043Y230487D01*
D02*
G37*
G36*
X203043D02*
X202768Y230451D01*
X202046Y230152D01*
X201426Y229676D01*
X200950Y229056D01*
X200651Y228334D01*
X200615Y228059D01*
X203043D01*
Y230487D01*
D02*
G37*
G36*
X489149Y229028D02*
X486721D01*
Y226599D01*
X486995Y226636D01*
X487717Y226935D01*
X488338Y227410D01*
X488813Y228030D01*
X489113Y228753D01*
X489149Y229028D01*
D02*
G37*
G36*
X485720D02*
X483292D01*
X483328Y228753D01*
X483628Y228030D01*
X484103Y227410D01*
X484723Y226935D01*
X485445Y226636D01*
X485720Y226599D01*
Y229028D01*
D02*
G37*
G36*
X456865Y228240D02*
X454437D01*
Y225812D01*
X454712Y225848D01*
X455434Y226147D01*
X456054Y226623D01*
X456530Y227243D01*
X456829Y227965D01*
X456865Y228240D01*
D02*
G37*
G36*
X453437D02*
X451009D01*
X451045Y227965D01*
X451344Y227243D01*
X451820Y226623D01*
X452440Y226147D01*
X453162Y225848D01*
X453437Y225812D01*
Y228240D01*
D02*
G37*
G36*
X260272Y228103D02*
X257843D01*
Y225675D01*
X258118Y225711D01*
X258840Y226010D01*
X259460Y226486D01*
X259936Y227106D01*
X260235Y227828D01*
X260272Y228103D01*
D02*
G37*
G36*
X256843D02*
X254415D01*
X254451Y227828D01*
X254750Y227106D01*
X255226Y226486D01*
X255846Y226010D01*
X256568Y225711D01*
X256843Y225675D01*
Y228103D01*
D02*
G37*
G36*
X399685Y231723D02*
X398771Y231603D01*
X397920Y231250D01*
X397189Y230689D01*
X396628Y229958D01*
X396275Y229107D01*
X396155Y228193D01*
X396275Y227279D01*
X396628Y226428D01*
X397189Y225697D01*
X397920Y225136D01*
X398771Y224783D01*
X399685Y224663D01*
X400599Y224783D01*
X401450Y225136D01*
X402181Y225697D01*
X402742Y226428D01*
X403095Y227279D01*
X403215Y228193D01*
X403095Y229107D01*
X402742Y229958D01*
X402181Y230689D01*
X401450Y231250D01*
X400599Y231603D01*
X399685Y231723D01*
D02*
G37*
G36*
X118315D02*
X117401Y231603D01*
X116550Y231250D01*
X115819Y230689D01*
X115258Y229958D01*
X114905Y229107D01*
X114785Y228193D01*
X114905Y227279D01*
X115258Y226428D01*
X115819Y225697D01*
X116550Y225136D01*
X117401Y224783D01*
X118315Y224663D01*
X119229Y224783D01*
X120080Y225136D01*
X120811Y225697D01*
X121372Y226428D01*
X121725Y227279D01*
X121845Y228193D01*
X121725Y229107D01*
X121372Y229958D01*
X120811Y230689D01*
X120080Y231250D01*
X119229Y231603D01*
X118315Y231723D01*
D02*
G37*
G36*
X206472Y227059D02*
X204043D01*
Y224631D01*
X204318Y224667D01*
X205040Y224966D01*
X205661Y225442D01*
X206136Y226062D01*
X206435Y226784D01*
X206472Y227059D01*
D02*
G37*
G36*
X203043D02*
X200615D01*
X200651Y226784D01*
X200950Y226062D01*
X201426Y225442D01*
X202046Y224966D01*
X202768Y224667D01*
X203043Y224631D01*
Y227059D01*
D02*
G37*
G36*
X337804Y231878D02*
X336850Y231752D01*
X335961Y231384D01*
X335198Y230799D01*
X334612Y230035D01*
X334244Y229147D01*
X334118Y228193D01*
X334244Y227239D01*
X334612Y226350D01*
X335198Y225587D01*
X335961Y225002D01*
X336850Y224634D01*
X337804Y224508D01*
X338757Y224634D01*
X339646Y225002D01*
X340409Y225587D01*
X340995Y226350D01*
X341363Y227239D01*
X341489Y228193D01*
X341363Y229147D01*
X340995Y230035D01*
X340409Y230799D01*
X339646Y231384D01*
X338757Y231752D01*
X337804Y231878D01*
D02*
G37*
G36*
X109063D02*
X108110Y231752D01*
X107221Y231384D01*
X106458Y230799D01*
X105872Y230035D01*
X105504Y229147D01*
X105378Y228193D01*
X105504Y227239D01*
X105872Y226350D01*
X106458Y225587D01*
X107221Y225002D01*
X108110Y224634D01*
X109063Y224508D01*
X110017Y224634D01*
X110906Y225002D01*
X111669Y225587D01*
X112255Y226350D01*
X112623Y227239D01*
X112749Y228193D01*
X112623Y229147D01*
X112255Y230035D01*
X111669Y230799D01*
X110906Y231384D01*
X110017Y231752D01*
X109063Y231878D01*
D02*
G37*
G36*
X578488Y228598D02*
X568614D01*
Y220299D01*
X572751D01*
X572847Y219821D01*
X572125Y219522D01*
X571505Y219046D01*
X571029Y218426D01*
X570730Y217704D01*
X570628Y216929D01*
X570730Y216154D01*
X571029Y215432D01*
X571505Y214812D01*
X572125Y214336D01*
X572847Y214037D01*
X573622Y213935D01*
X574397Y214037D01*
X575119Y214336D01*
X575739Y214812D01*
X576215Y215432D01*
X576514Y216154D01*
X576616Y216929D01*
X576514Y217704D01*
X576215Y218426D01*
X575739Y219046D01*
X575119Y219522D01*
X574397Y219821D01*
X574493Y220299D01*
X578488D01*
Y228598D01*
D02*
G37*
G36*
X427638Y214102D02*
X426863Y214000D01*
X426141Y213700D01*
X425521Y213225D01*
X425045Y212604D01*
X424746Y211882D01*
X424644Y211107D01*
X424746Y210332D01*
X425045Y209610D01*
X425521Y208990D01*
X426141Y208514D01*
X426863Y208215D01*
X427638Y208113D01*
X428413Y208215D01*
X429135Y208514D01*
X429755Y208990D01*
X430231Y209610D01*
X430530Y210332D01*
X430632Y211107D01*
X430530Y211882D01*
X430231Y212604D01*
X429755Y213225D01*
X429135Y213700D01*
X428413Y214000D01*
X427638Y214102D01*
D02*
G37*
G36*
X265953D02*
X265178Y214000D01*
X264456Y213700D01*
X263836Y213225D01*
X263360Y212604D01*
X263061Y211882D01*
X262959Y211107D01*
X263061Y210332D01*
X263360Y209610D01*
X263836Y208990D01*
X264456Y208514D01*
X265178Y208215D01*
X265953Y208113D01*
X266728Y208215D01*
X267450Y208514D01*
X268070Y208990D01*
X268546Y209610D01*
X268845Y210332D01*
X268947Y211107D01*
X268845Y211882D01*
X268546Y212604D01*
X268070Y213225D01*
X267450Y213700D01*
X266728Y214000D01*
X265953Y214102D01*
D02*
G37*
G36*
X237606D02*
X236831Y214000D01*
X236109Y213700D01*
X235489Y213225D01*
X235013Y212604D01*
X234714Y211882D01*
X234612Y211107D01*
X234714Y210332D01*
X235013Y209610D01*
X235489Y208990D01*
X236109Y208514D01*
X236831Y208215D01*
X237606Y208113D01*
X238381Y208215D01*
X239103Y208514D01*
X239723Y208990D01*
X240199Y209610D01*
X240498Y210332D01*
X240600Y211107D01*
X240498Y211882D01*
X240199Y212604D01*
X239723Y213225D01*
X239103Y213700D01*
X238381Y214000D01*
X237606Y214102D01*
D02*
G37*
G36*
X177764D02*
X176989Y214000D01*
X176267Y213700D01*
X175647Y213225D01*
X175171Y212604D01*
X174872Y211882D01*
X174770Y211107D01*
X174872Y210332D01*
X175171Y209610D01*
X175647Y208990D01*
X176267Y208514D01*
X176989Y208215D01*
X177764Y208113D01*
X178539Y208215D01*
X179261Y208514D01*
X179881Y208990D01*
X180357Y209610D01*
X180656Y210332D01*
X180758Y211107D01*
X180656Y211882D01*
X180357Y212604D01*
X179881Y213225D01*
X179261Y213700D01*
X178539Y214000D01*
X177764Y214102D01*
D02*
G37*
G36*
X152567D02*
X151792Y214000D01*
X151070Y213700D01*
X150450Y213225D01*
X149974Y212604D01*
X149675Y211882D01*
X149573Y211107D01*
X149675Y210332D01*
X149974Y209610D01*
X150450Y208990D01*
X151070Y208514D01*
X151792Y208215D01*
X152567Y208113D01*
X153342Y208215D01*
X154064Y208514D01*
X154684Y208990D01*
X155160Y209610D01*
X155459Y210332D01*
X155561Y211107D01*
X155459Y211882D01*
X155160Y212604D01*
X154684Y213225D01*
X154064Y213700D01*
X153342Y214000D01*
X152567Y214102D01*
D02*
G37*
G36*
X133669D02*
X132894Y214000D01*
X132172Y213700D01*
X131552Y213225D01*
X131076Y212604D01*
X130777Y211882D01*
X130675Y211107D01*
X130777Y210332D01*
X131076Y209610D01*
X131552Y208990D01*
X132172Y208514D01*
X132894Y208215D01*
X133669Y208113D01*
X134444Y208215D01*
X135166Y208514D01*
X135786Y208990D01*
X136262Y209610D01*
X136561Y210332D01*
X136663Y211107D01*
X136561Y211882D01*
X136262Y212604D01*
X135786Y213225D01*
X135166Y213700D01*
X134444Y214000D01*
X133669Y214102D01*
D02*
G37*
G36*
X196514Y213955D02*
X195739Y213853D01*
X195017Y213554D01*
X194397Y213078D01*
X193921Y212458D01*
X193622Y211736D01*
X193520Y210961D01*
X193622Y210186D01*
X193921Y209464D01*
X194397Y208844D01*
X195017Y208368D01*
X195739Y208069D01*
X196514Y207967D01*
X197289Y208069D01*
X198012Y208368D01*
X198632Y208844D01*
X199108Y209464D01*
X199407Y210186D01*
X199509Y210961D01*
X199407Y211736D01*
X199108Y212458D01*
X198632Y213078D01*
X198012Y213554D01*
X197289Y213853D01*
X196514Y213955D01*
D02*
G37*
G36*
X288402Y213624D02*
X287627Y213522D01*
X286905Y213223D01*
X286284Y212747D01*
X285809Y212127D01*
X285509Y211405D01*
X285407Y210630D01*
X285509Y209855D01*
X285809Y209133D01*
X286284Y208513D01*
X286905Y208037D01*
X287627Y207738D01*
X288402Y207636D01*
X289177Y207738D01*
X289899Y208037D01*
X290519Y208513D01*
X290995Y209133D01*
X291294Y209855D01*
X291396Y210630D01*
X291294Y211405D01*
X290995Y212127D01*
X290519Y212747D01*
X289899Y213223D01*
X289177Y213522D01*
X288402Y213624D01*
D02*
G37*
G36*
X462205Y213230D02*
X461430Y213128D01*
X460708Y212829D01*
X460088Y212353D01*
X459612Y211733D01*
X459313Y211011D01*
X459211Y210236D01*
X459313Y209461D01*
X459612Y208739D01*
X460088Y208119D01*
X460708Y207643D01*
X461430Y207344D01*
X462205Y207242D01*
X462980Y207344D01*
X463702Y207643D01*
X464322Y208119D01*
X464798Y208739D01*
X465097Y209461D01*
X465199Y210236D01*
X465097Y211011D01*
X464798Y211733D01*
X464322Y212353D01*
X463702Y212829D01*
X462980Y213128D01*
X462205Y213230D01*
D02*
G37*
G36*
X492520Y212837D02*
X491745Y212735D01*
X491023Y212436D01*
X490403Y211960D01*
X489927Y211340D01*
X489628Y210617D01*
X489526Y209842D01*
X489628Y209068D01*
X489927Y208346D01*
X490403Y207725D01*
X491023Y207249D01*
X491745Y206950D01*
X492520Y206848D01*
X493295Y206950D01*
X494017Y207249D01*
X494637Y207725D01*
X495113Y208346D01*
X495412Y209068D01*
X495514Y209842D01*
X495412Y210617D01*
X495113Y211340D01*
X494637Y211960D01*
X494017Y212436D01*
X493295Y212735D01*
X492520Y212837D01*
D02*
G37*
G36*
X310236Y209687D02*
X309461Y209585D01*
X308739Y209286D01*
X308119Y208810D01*
X307643Y208190D01*
X307344Y207468D01*
X307242Y206693D01*
X307344Y205918D01*
X307643Y205196D01*
X308119Y204576D01*
X308739Y204100D01*
X309461Y203801D01*
X310236Y203699D01*
X311011Y203801D01*
X311733Y204100D01*
X312353Y204576D01*
X312829Y205196D01*
X313128Y205918D01*
X313230Y206693D01*
X313128Y207468D01*
X312829Y208190D01*
X312353Y208810D01*
X311733Y209286D01*
X311011Y209585D01*
X310236Y209687D01*
D02*
G37*
G36*
X516493Y204748D02*
Y202320D01*
X518921D01*
X518885Y202595D01*
X518586Y203317D01*
X518110Y203937D01*
X517490Y204413D01*
X516768Y204712D01*
X516493Y204748D01*
D02*
G37*
G36*
X515493D02*
X515218Y204712D01*
X514496Y204413D01*
X513876Y203937D01*
X513400Y203317D01*
X513101Y202595D01*
X513065Y202320D01*
X515493D01*
Y204748D01*
D02*
G37*
G36*
X507980Y203322D02*
Y200894D01*
X510409D01*
X510372Y201169D01*
X510073Y201891D01*
X509597Y202511D01*
X508977Y202987D01*
X508255Y203286D01*
X507980Y203322D01*
D02*
G37*
G36*
X506980D02*
X506705Y203286D01*
X505983Y202987D01*
X505363Y202511D01*
X504887Y201891D01*
X504588Y201169D01*
X504552Y200894D01*
X506980D01*
Y203322D01*
D02*
G37*
G36*
X177953Y204963D02*
X177178Y204861D01*
X176456Y204561D01*
X175836Y204086D01*
X175360Y203466D01*
X175061Y202743D01*
X174959Y201969D01*
X175061Y201194D01*
X175360Y200471D01*
X175836Y199851D01*
X176456Y199375D01*
X177178Y199076D01*
X177953Y198974D01*
X178728Y199076D01*
X179450Y199375D01*
X180070Y199851D01*
X180546Y200471D01*
X180845Y201194D01*
X180947Y201969D01*
X180845Y202743D01*
X180546Y203466D01*
X180070Y204086D01*
X179450Y204561D01*
X178728Y204861D01*
X177953Y204963D01*
D02*
G37*
G36*
X518921Y201320D02*
X516493D01*
Y198892D01*
X516768Y198928D01*
X517490Y199227D01*
X518110Y199703D01*
X518586Y200323D01*
X518885Y201045D01*
X518921Y201320D01*
D02*
G37*
G36*
X515493D02*
X513065D01*
X513101Y201045D01*
X513400Y200323D01*
X513876Y199703D01*
X514496Y199227D01*
X515218Y198928D01*
X515493Y198892D01*
Y201320D01*
D02*
G37*
G36*
X510409Y199894D02*
X507980D01*
Y197465D01*
X508255Y197502D01*
X508977Y197801D01*
X509597Y198276D01*
X510073Y198897D01*
X510372Y199619D01*
X510409Y199894D01*
D02*
G37*
G36*
X506980D02*
X504552D01*
X504588Y199619D01*
X504887Y198897D01*
X505363Y198276D01*
X505983Y197801D01*
X506705Y197502D01*
X506980Y197465D01*
Y199894D01*
D02*
G37*
G36*
X248425Y203388D02*
X247650Y203286D01*
X246928Y202987D01*
X246308Y202511D01*
X245832Y201891D01*
X245533Y201169D01*
X245431Y200394D01*
X245533Y199619D01*
X245832Y198897D01*
X246308Y198276D01*
X246928Y197801D01*
X247650Y197502D01*
X248425Y197400D01*
X249200Y197502D01*
X249922Y197801D01*
X250542Y198276D01*
X251018Y198897D01*
X251317Y199619D01*
X251419Y200394D01*
X251317Y201169D01*
X251018Y201891D01*
X250542Y202511D01*
X249922Y202987D01*
X249200Y203286D01*
X248425Y203388D01*
D02*
G37*
G36*
X531453Y197305D02*
X530678Y197203D01*
X529956Y196904D01*
X529336Y196428D01*
X528860Y195808D01*
X528561Y195086D01*
X528459Y194311D01*
X528561Y193536D01*
X528860Y192814D01*
X529336Y192194D01*
X529956Y191718D01*
X530678Y191419D01*
X531453Y191317D01*
X532228Y191419D01*
X532950Y191718D01*
X533570Y192194D01*
X534046Y192814D01*
X534345Y193536D01*
X534447Y194311D01*
X534345Y195086D01*
X534046Y195808D01*
X533570Y196428D01*
X532950Y196904D01*
X532228Y197203D01*
X531453Y197305D01*
D02*
G37*
G36*
X463453Y198341D02*
X462539Y198221D01*
X461688Y197868D01*
X460956Y197307D01*
X460395Y196576D01*
X460043Y195725D01*
X459923Y194811D01*
X460043Y193897D01*
X460395Y193046D01*
X460956Y192315D01*
X461688Y191754D01*
X462539Y191401D01*
X463453Y191281D01*
X464366Y191401D01*
X465218Y191754D01*
X465949Y192315D01*
X466510Y193046D01*
X466863Y193897D01*
X466983Y194811D01*
X466863Y195725D01*
X466510Y196576D01*
X465949Y197307D01*
X465218Y197868D01*
X464366Y198221D01*
X463453Y198341D01*
D02*
G37*
G36*
X215748Y202207D02*
X214973Y202105D01*
X214251Y201806D01*
X213631Y201330D01*
X213155Y200710D01*
X212856Y199987D01*
X212754Y199213D01*
X212856Y198438D01*
X213155Y197715D01*
X213631Y197095D01*
X213903Y196886D01*
X213828Y196314D01*
X213419Y196144D01*
X212552Y195479D01*
X211887Y194612D01*
X211469Y193603D01*
X211326Y192520D01*
X211469Y191436D01*
X211887Y190427D01*
X212552Y189560D01*
X213419Y188895D01*
X214428Y188477D01*
X215512Y188334D01*
X216595Y188477D01*
X217604Y188895D01*
X218471Y189560D01*
X219137Y190427D01*
X219555Y191436D01*
X219697Y192520D01*
X219555Y193603D01*
X219137Y194612D01*
X218471Y195479D01*
X217604Y196144D01*
X217468Y196201D01*
X217427Y196759D01*
X217865Y197095D01*
X218341Y197715D01*
X218640Y198438D01*
X218742Y199213D01*
X218640Y199987D01*
X218341Y200710D01*
X217865Y201330D01*
X217245Y201806D01*
X216523Y202105D01*
X215748Y202207D01*
D02*
G37*
G36*
X205512Y196705D02*
X204429Y196563D01*
X203419Y196144D01*
X202552Y195479D01*
X201887Y194612D01*
X201469Y193603D01*
X201326Y192520D01*
X201469Y191436D01*
X201887Y190427D01*
X202552Y189560D01*
X203419Y188895D01*
X204429Y188477D01*
X205512Y188334D01*
X206595Y188477D01*
X207605Y188895D01*
X208471Y189560D01*
X209137Y190427D01*
X209555Y191436D01*
X209697Y192520D01*
X209555Y193603D01*
X209137Y194612D01*
X208471Y195479D01*
X207605Y196144D01*
X206595Y196563D01*
X205512Y196705D01*
D02*
G37*
G36*
X538689Y190724D02*
Y188295D01*
X541117D01*
X541081Y188570D01*
X540782Y189292D01*
X540306Y189912D01*
X539686Y190388D01*
X538964Y190687D01*
X538689Y190724D01*
D02*
G37*
G36*
X537689D02*
X537414Y190687D01*
X536692Y190388D01*
X536072Y189912D01*
X535596Y189292D01*
X535297Y188570D01*
X535261Y188295D01*
X537689D01*
Y190724D01*
D02*
G37*
G36*
X28846D02*
Y188295D01*
X31275D01*
X31239Y188570D01*
X30939Y189292D01*
X30464Y189912D01*
X29844Y190388D01*
X29121Y190687D01*
X28846Y190724D01*
D02*
G37*
G36*
X27847D02*
X27571Y190687D01*
X26849Y190388D01*
X26229Y189912D01*
X25754Y189292D01*
X25454Y188570D01*
X25418Y188295D01*
X27847D01*
Y190724D01*
D02*
G37*
G36*
X19004Y189936D02*
Y187508D01*
X21432D01*
X21396Y187783D01*
X21097Y188505D01*
X20621Y189125D01*
X20001Y189601D01*
X19279Y189900D01*
X19004Y189936D01*
D02*
G37*
G36*
X18004D02*
X17729Y189900D01*
X17007Y189601D01*
X16387Y189125D01*
X15911Y188505D01*
X15612Y187783D01*
X15576Y187508D01*
X18004D01*
Y189936D01*
D02*
G37*
G36*
X173728Y189542D02*
Y187114D01*
X176157D01*
X176120Y187389D01*
X175821Y188111D01*
X175346Y188731D01*
X174725Y189207D01*
X174003Y189506D01*
X173728Y189542D01*
D02*
G37*
G36*
X172728D02*
X172453Y189506D01*
X171731Y189207D01*
X171111Y188731D01*
X170635Y188111D01*
X170336Y187389D01*
X170300Y187114D01*
X172728D01*
Y189542D01*
D02*
G37*
G36*
X484953Y191805D02*
X484178Y191703D01*
X483456Y191404D01*
X482836Y190928D01*
X482360Y190308D01*
X482061Y189586D01*
X481959Y188811D01*
X482061Y188036D01*
X482360Y187314D01*
X482836Y186694D01*
X483456Y186218D01*
X484178Y185919D01*
X484953Y185817D01*
X485728Y185919D01*
X486450Y186218D01*
X487070Y186694D01*
X487546Y187314D01*
X487845Y188036D01*
X487947Y188811D01*
X487845Y189586D01*
X487546Y190308D01*
X487070Y190928D01*
X486450Y191404D01*
X485728Y191703D01*
X484953Y191805D01*
D02*
G37*
G36*
X114173Y193555D02*
X113090Y193413D01*
X112081Y192995D01*
X111214Y192330D01*
X110549Y191463D01*
X110130Y190453D01*
X109988Y189370D01*
X110130Y188287D01*
X110549Y187277D01*
X111214Y186410D01*
X112081Y185745D01*
X113090Y185327D01*
X114173Y185185D01*
X115257Y185327D01*
X116266Y185745D01*
X117133Y186410D01*
X117798Y187277D01*
X118216Y188287D01*
X118359Y189370D01*
X118216Y190453D01*
X117798Y191463D01*
X117133Y192330D01*
X116266Y192995D01*
X115257Y193413D01*
X114173Y193555D01*
D02*
G37*
G36*
X104173D02*
X103090Y193413D01*
X102081Y192995D01*
X101214Y192330D01*
X100549Y191463D01*
X100130Y190453D01*
X99988Y189370D01*
X100130Y188287D01*
X100549Y187277D01*
X101214Y186410D01*
X102081Y185745D01*
X103090Y185327D01*
X104173Y185185D01*
X105256Y185327D01*
X106266Y185745D01*
X107133Y186410D01*
X107798Y187277D01*
X108216Y188287D01*
X108359Y189370D01*
X108216Y190453D01*
X107798Y191463D01*
X107133Y192330D01*
X106266Y192995D01*
X105256Y193413D01*
X104173Y193555D01*
D02*
G37*
G36*
X31275Y187295D02*
X28846D01*
Y184867D01*
X29121Y184903D01*
X29844Y185202D01*
X30464Y185678D01*
X30939Y186298D01*
X31239Y187020D01*
X31275Y187295D01*
D02*
G37*
G36*
X27847D02*
X25418D01*
X25454Y187020D01*
X25754Y186298D01*
X26229Y185678D01*
X26849Y185202D01*
X27571Y184903D01*
X27847Y184867D01*
Y187295D01*
D02*
G37*
G36*
X541117D02*
X538689D01*
Y184867D01*
X538964Y184903D01*
X539686Y185202D01*
X540306Y185678D01*
X540782Y186298D01*
X541081Y187020D01*
X541117Y187295D01*
D02*
G37*
G36*
X537689D02*
X535261D01*
X535297Y187020D01*
X535596Y186298D01*
X536072Y185678D01*
X536692Y185202D01*
X537414Y184903D01*
X537689Y184867D01*
Y187295D01*
D02*
G37*
G36*
X82284Y192768D02*
X81200Y192625D01*
X80191Y192207D01*
X79324Y191542D01*
X78659Y190675D01*
X78241Y189666D01*
X78098Y188583D01*
X78241Y187499D01*
X78659Y186490D01*
X79324Y185623D01*
X80191Y184958D01*
X81200Y184540D01*
X82284Y184397D01*
X83367Y184540D01*
X84376Y184958D01*
X85243Y185623D01*
X85908Y186490D01*
X86326Y187499D01*
X86469Y188583D01*
X86326Y189666D01*
X85908Y190675D01*
X85243Y191542D01*
X84376Y192207D01*
X83367Y192625D01*
X82284Y192768D01*
D02*
G37*
G36*
X72284D02*
X71200Y192625D01*
X70191Y192207D01*
X69324Y191542D01*
X68659Y190675D01*
X68241Y189666D01*
X68098Y188583D01*
X68241Y187499D01*
X68659Y186490D01*
X69324Y185623D01*
X70191Y184958D01*
X71200Y184540D01*
X72284Y184397D01*
X73367Y184540D01*
X74376Y184958D01*
X75243Y185623D01*
X75908Y186490D01*
X76326Y187499D01*
X76469Y188583D01*
X76326Y189666D01*
X75908Y190675D01*
X75243Y191542D01*
X74376Y192207D01*
X73367Y192625D01*
X72284Y192768D01*
D02*
G37*
G36*
X21432Y186508D02*
X19004D01*
Y184080D01*
X19279Y184116D01*
X20001Y184415D01*
X20621Y184891D01*
X21097Y185511D01*
X21396Y186233D01*
X21432Y186508D01*
D02*
G37*
G36*
X18004D02*
X15576D01*
X15612Y186233D01*
X15911Y185511D01*
X16387Y184891D01*
X17007Y184415D01*
X17729Y184116D01*
X18004Y184080D01*
Y186508D01*
D02*
G37*
G36*
X207193Y185999D02*
Y183571D01*
X209621D01*
X209585Y183846D01*
X209286Y184568D01*
X208810Y185188D01*
X208190Y185664D01*
X207468Y185963D01*
X207193Y185999D01*
D02*
G37*
G36*
X206193D02*
X205918Y185963D01*
X205196Y185664D01*
X204576Y185188D01*
X204100Y184568D01*
X203801Y183846D01*
X203765Y183571D01*
X206193D01*
Y185999D01*
D02*
G37*
G36*
X280006Y185584D02*
Y183155D01*
X282434D01*
X282398Y183430D01*
X282099Y184152D01*
X281623Y184773D01*
X281003Y185248D01*
X280281Y185547D01*
X280006Y185584D01*
D02*
G37*
G36*
X279006D02*
X278731Y185547D01*
X278009Y185248D01*
X277389Y184773D01*
X276913Y184152D01*
X276614Y183430D01*
X276577Y183155D01*
X279006D01*
Y185584D01*
D02*
G37*
G36*
X154488Y190406D02*
X153405Y190263D01*
X152395Y189845D01*
X151529Y189180D01*
X150864Y188313D01*
X150445Y187304D01*
X150303Y186221D01*
X150445Y185137D01*
X150864Y184128D01*
X151529Y183261D01*
X152395Y182596D01*
X153405Y182178D01*
X154488Y182035D01*
X155571Y182178D01*
X156581Y182596D01*
X157448Y183261D01*
X158113Y184128D01*
X158531Y185137D01*
X158674Y186221D01*
X158531Y187304D01*
X158113Y188313D01*
X157448Y189180D01*
X156581Y189845D01*
X155571Y190263D01*
X154488Y190406D01*
D02*
G37*
G36*
X144488D02*
X143405Y190263D01*
X142395Y189845D01*
X141529Y189180D01*
X140864Y188313D01*
X140445Y187304D01*
X140303Y186221D01*
X140445Y185137D01*
X140864Y184128D01*
X141529Y183261D01*
X142395Y182596D01*
X143405Y182178D01*
X144488Y182035D01*
X145571Y182178D01*
X146581Y182596D01*
X147448Y183261D01*
X148113Y184128D01*
X148531Y185137D01*
X148674Y186221D01*
X148531Y187304D01*
X148113Y188313D01*
X147448Y189180D01*
X146581Y189845D01*
X145571Y190263D01*
X144488Y190406D01*
D02*
G37*
G36*
X246169Y183637D02*
Y181209D01*
X248598D01*
X248561Y181484D01*
X248262Y182206D01*
X247786Y182826D01*
X247166Y183302D01*
X246444Y183601D01*
X246169Y183637D01*
D02*
G37*
G36*
X245169D02*
X244894Y183601D01*
X244172Y183302D01*
X243552Y182826D01*
X243076Y182206D01*
X242777Y181484D01*
X242741Y181209D01*
X245169D01*
Y183637D01*
D02*
G37*
G36*
X176157Y186114D02*
X170300D01*
X170336Y185839D01*
X170635Y185117D01*
X171111Y184497D01*
X171731Y184021D01*
X171758Y184010D01*
Y183469D01*
X171353Y183302D01*
X170733Y182826D01*
X170257Y182206D01*
X169958Y181484D01*
X169922Y181209D01*
X175779D01*
X175742Y181484D01*
X175443Y182206D01*
X174968Y182826D01*
X174347Y183302D01*
X174321Y183312D01*
Y183854D01*
X174725Y184021D01*
X175346Y184497D01*
X175821Y185117D01*
X176120Y185839D01*
X176157Y186114D01*
D02*
G37*
G36*
X467323Y187782D02*
X466409Y187662D01*
X465558Y187309D01*
X464827Y186748D01*
X464266Y186017D01*
X463913Y185166D01*
X463793Y184252D01*
X463913Y183338D01*
X464266Y182487D01*
X464827Y181756D01*
X465558Y181195D01*
X466409Y180842D01*
X467323Y180722D01*
X468236Y180842D01*
X469088Y181195D01*
X469819Y181756D01*
X470380Y182487D01*
X470733Y183338D01*
X470853Y184252D01*
X470733Y185166D01*
X470380Y186017D01*
X469819Y186748D01*
X469088Y187309D01*
X468236Y187662D01*
X467323Y187782D01*
D02*
G37*
G36*
X209621Y182571D02*
X207193D01*
Y180143D01*
X207468Y180179D01*
X208190Y180478D01*
X208810Y180954D01*
X209286Y181574D01*
X209585Y182296D01*
X209621Y182571D01*
D02*
G37*
G36*
X206193D02*
X203765D01*
X203801Y182296D01*
X204100Y181574D01*
X204576Y180954D01*
X205196Y180478D01*
X205918Y180179D01*
X206193Y180143D01*
Y182571D01*
D02*
G37*
G36*
X282434Y182155D02*
X280006D01*
Y179727D01*
X280281Y179763D01*
X281003Y180062D01*
X281623Y180538D01*
X282099Y181158D01*
X282398Y181880D01*
X282434Y182155D01*
D02*
G37*
G36*
X279006D02*
X276577D01*
X276614Y181880D01*
X276913Y181158D01*
X277389Y180538D01*
X278009Y180062D01*
X278731Y179763D01*
X279006Y179727D01*
Y182155D01*
D02*
G37*
G36*
X530953Y184305D02*
X530178Y184203D01*
X529456Y183904D01*
X528836Y183428D01*
X528360Y182808D01*
X528061Y182086D01*
X527959Y181311D01*
X528061Y180536D01*
X528360Y179814D01*
X528836Y179194D01*
X529456Y178718D01*
X530178Y178419D01*
X530953Y178317D01*
X531728Y178419D01*
X532450Y178718D01*
X533070Y179194D01*
X533546Y179814D01*
X533845Y180536D01*
X533947Y181311D01*
X533845Y182086D01*
X533546Y182808D01*
X533070Y183428D01*
X532450Y183904D01*
X531728Y184203D01*
X530953Y184305D01*
D02*
G37*
G36*
X248598Y180209D02*
X246169D01*
Y177780D01*
X246444Y177817D01*
X247166Y178116D01*
X247786Y178592D01*
X248262Y179212D01*
X248561Y179934D01*
X248598Y180209D01*
D02*
G37*
G36*
X245169D02*
X242741D01*
X242777Y179934D01*
X243076Y179212D01*
X243552Y178592D01*
X244172Y178116D01*
X244894Y177817D01*
X245169Y177780D01*
Y180209D01*
D02*
G37*
G36*
X175779D02*
X173350D01*
Y177780D01*
X173625Y177817D01*
X174347Y178116D01*
X174968Y178592D01*
X175443Y179212D01*
X175742Y179934D01*
X175779Y180209D01*
D02*
G37*
G36*
X172350D02*
X169922D01*
X169958Y179934D01*
X170257Y179212D01*
X170733Y178592D01*
X171353Y178116D01*
X172075Y177817D01*
X172350Y177780D01*
Y180209D01*
D02*
G37*
G36*
X478346Y178585D02*
X477571Y178483D01*
X476849Y178183D01*
X476229Y177708D01*
X475753Y177088D01*
X475454Y176365D01*
X475352Y175591D01*
X475454Y174816D01*
X475753Y174093D01*
X476229Y173473D01*
X476849Y172998D01*
X477571Y172698D01*
X478346Y172596D01*
X479121Y172698D01*
X479844Y172998D01*
X480464Y173473D01*
X480939Y174093D01*
X481239Y174816D01*
X481341Y175591D01*
X481239Y176365D01*
X480939Y177088D01*
X480464Y177708D01*
X479844Y178183D01*
X479121Y178483D01*
X478346Y178585D01*
D02*
G37*
G36*
X164173D02*
X163398Y178483D01*
X162676Y178183D01*
X162056Y177708D01*
X161580Y177088D01*
X161281Y176365D01*
X161179Y175591D01*
X161281Y174816D01*
X161580Y174093D01*
X162056Y173473D01*
X162676Y172998D01*
X163398Y172698D01*
X164173Y172596D01*
X164948Y172698D01*
X165670Y172998D01*
X166290Y173473D01*
X166766Y174093D01*
X167065Y174816D01*
X167167Y175591D01*
X167065Y176365D01*
X166766Y177088D01*
X166290Y177708D01*
X165670Y178183D01*
X164948Y178483D01*
X164173Y178585D01*
D02*
G37*
G36*
X286327Y173401D02*
Y170972D01*
X288755D01*
X288719Y171247D01*
X288420Y171969D01*
X287944Y172590D01*
X287324Y173065D01*
X286602Y173364D01*
X286327Y173401D01*
D02*
G37*
G36*
X285327D02*
X285052Y173364D01*
X284330Y173065D01*
X283710Y172590D01*
X283234Y171969D01*
X282935Y171247D01*
X282898Y170972D01*
X285327D01*
Y173401D01*
D02*
G37*
G36*
X232283Y176589D02*
X231508Y176487D01*
X230786Y176188D01*
X230166Y175712D01*
X229691Y175092D01*
X229391Y174369D01*
X229289Y173594D01*
X229391Y172819D01*
X229691Y172097D01*
X230166Y171477D01*
X230786Y171002D01*
X231508Y170702D01*
X232283Y170600D01*
X233058Y170702D01*
X233781Y171002D01*
X234401Y171477D01*
X234876Y172097D01*
X235176Y172819D01*
X235278Y173594D01*
X235176Y174369D01*
X234876Y175092D01*
X234401Y175712D01*
X233781Y176188D01*
X233058Y176487D01*
X232283Y176589D01*
D02*
G37*
G36*
X202862Y173007D02*
Y170579D01*
X205291D01*
X205254Y170854D01*
X204955Y171576D01*
X204479Y172196D01*
X203859Y172672D01*
X203137Y172971D01*
X202862Y173007D01*
D02*
G37*
G36*
X201862D02*
X201587Y172971D01*
X200865Y172672D01*
X200245Y172196D01*
X199769Y171576D01*
X199470Y170854D01*
X199434Y170579D01*
X201862D01*
Y173007D01*
D02*
G37*
G36*
X38520Y196881D02*
X37231Y196712D01*
X36030Y196214D01*
X34999Y195423D01*
X34207Y194391D01*
X33710Y193190D01*
X33540Y191902D01*
X33710Y190613D01*
X34207Y189412D01*
X34999Y188381D01*
X36030Y187589D01*
X37036Y187172D01*
Y186631D01*
X36030Y186214D01*
X34999Y185423D01*
X34207Y184391D01*
X33710Y183190D01*
X33540Y181902D01*
X33710Y180613D01*
X34207Y179412D01*
X34999Y178381D01*
X36030Y177589D01*
X37036Y177172D01*
Y176631D01*
X36030Y176214D01*
X34999Y175423D01*
X34207Y174391D01*
X33710Y173190D01*
X33540Y171902D01*
X33710Y170613D01*
X34207Y169412D01*
X34999Y168380D01*
X36030Y167589D01*
X36635Y167339D01*
X36535Y166839D01*
X33583D01*
Y156965D01*
X43457D01*
Y166839D01*
X40504D01*
X40405Y167339D01*
X41010Y167589D01*
X42041Y168380D01*
X42832Y169412D01*
X43330Y170613D01*
X43435Y171415D01*
X43940D01*
X43958Y171272D01*
X44257Y170550D01*
X44733Y169930D01*
X45353Y169454D01*
X46075Y169155D01*
X46850Y169053D01*
X47625Y169155D01*
X48347Y169454D01*
X48967Y169930D01*
X49443Y170550D01*
X49742Y171272D01*
X49845Y172047D01*
X49742Y172822D01*
X49443Y173544D01*
X48967Y174164D01*
X48347Y174640D01*
X47625Y174939D01*
X46850Y175041D01*
X46075Y174939D01*
X45353Y174640D01*
X44733Y174164D01*
X44257Y173544D01*
X43958Y172822D01*
X43920Y172534D01*
X43416D01*
X43330Y173190D01*
X42832Y174391D01*
X42041Y175423D01*
X41010Y176214D01*
X40003Y176631D01*
Y177172D01*
X41010Y177589D01*
X42041Y178381D01*
X42832Y179412D01*
X43330Y180613D01*
X43499Y181902D01*
X43330Y183190D01*
X42832Y184391D01*
X42041Y185423D01*
X41010Y186214D01*
X40003Y186631D01*
Y187172D01*
X41010Y187589D01*
X42041Y188381D01*
X42832Y189412D01*
X43330Y190613D01*
X43499Y191902D01*
X43330Y193190D01*
X42832Y194391D01*
X42041Y195423D01*
X41010Y196214D01*
X39808Y196712D01*
X38520Y196881D01*
D02*
G37*
G36*
X214567Y174254D02*
X213792Y174152D01*
X213070Y173853D01*
X212450Y173377D01*
X211974Y172757D01*
X211675Y172035D01*
X211573Y171260D01*
X211675Y170485D01*
X211974Y169763D01*
X212450Y169143D01*
X213070Y168667D01*
X213792Y168368D01*
X214567Y168266D01*
X215342Y168368D01*
X216064Y168667D01*
X216684Y169143D01*
X217160Y169763D01*
X217459Y170485D01*
X217561Y171260D01*
X217459Y172035D01*
X217160Y172757D01*
X216684Y173377D01*
X216064Y173853D01*
X215342Y174152D01*
X214567Y174254D01*
D02*
G37*
G36*
X496850Y173860D02*
X496075Y173758D01*
X495353Y173459D01*
X494733Y172983D01*
X494257Y172363D01*
X493958Y171641D01*
X493856Y170866D01*
X493958Y170091D01*
X494257Y169369D01*
X494733Y168749D01*
X495353Y168273D01*
X496075Y167974D01*
X496850Y167872D01*
X497625Y167974D01*
X498348Y168273D01*
X498968Y168749D01*
X499443Y169369D01*
X499743Y170091D01*
X499845Y170866D01*
X499743Y171641D01*
X499443Y172363D01*
X498968Y172983D01*
X498348Y173459D01*
X497625Y173758D01*
X496850Y173860D01*
D02*
G37*
G36*
X288755Y169972D02*
X286327D01*
Y167544D01*
X286602Y167580D01*
X287324Y167879D01*
X287944Y168355D01*
X288420Y168975D01*
X288719Y169697D01*
X288755Y169972D01*
D02*
G37*
G36*
X285327D02*
X282898D01*
X282935Y169697D01*
X283234Y168975D01*
X283710Y168355D01*
X284330Y167879D01*
X285052Y167580D01*
X285327Y167544D01*
Y169972D01*
D02*
G37*
G36*
X205291Y169579D02*
X202862D01*
Y167150D01*
X203137Y167187D01*
X203859Y167486D01*
X204479Y167962D01*
X204955Y168582D01*
X205254Y169304D01*
X205291Y169579D01*
D02*
G37*
G36*
X201862D02*
X199434D01*
X199470Y169304D01*
X199769Y168582D01*
X200245Y167962D01*
X200865Y167486D01*
X201587Y167187D01*
X201862Y167150D01*
Y169579D01*
D02*
G37*
G36*
X318110Y173871D02*
X317027Y173728D01*
X316018Y173310D01*
X315151Y172645D01*
X314486Y171778D01*
X314067Y170768D01*
X313925Y169685D01*
X314067Y168602D01*
X314486Y167592D01*
X315151Y166726D01*
X316018Y166060D01*
X317027Y165642D01*
X318110Y165500D01*
X319194Y165642D01*
X320203Y166060D01*
X321070Y166726D01*
X321735Y167592D01*
X321834Y167832D01*
X322396Y167882D01*
X322912Y167486D01*
X323635Y167187D01*
X324410Y167085D01*
X325184Y167187D01*
X325906Y167486D01*
X326527Y167962D01*
X327002Y168582D01*
X327302Y169304D01*
X327404Y170079D01*
X327302Y170854D01*
X327002Y171576D01*
X326527Y172196D01*
X325906Y172672D01*
X325184Y172971D01*
X324410Y173073D01*
X323635Y172971D01*
X322912Y172672D01*
X322292Y172196D01*
X322151Y172011D01*
X321538Y172034D01*
X321070Y172645D01*
X320203Y173310D01*
X319194Y173728D01*
X318110Y173871D01*
D02*
G37*
G36*
X470866Y171498D02*
X470091Y171396D01*
X469369Y171097D01*
X468749Y170621D01*
X468273Y170001D01*
X467974Y169279D01*
X467872Y168504D01*
X467974Y167729D01*
X468273Y167007D01*
X468749Y166387D01*
X469369Y165911D01*
X470091Y165612D01*
X470866Y165510D01*
X471641Y165612D01*
X472363Y165911D01*
X472983Y166387D01*
X473459Y167007D01*
X473758Y167729D01*
X473860Y168504D01*
X473758Y169279D01*
X473459Y170001D01*
X472983Y170621D01*
X472363Y171097D01*
X471641Y171396D01*
X470866Y171498D01*
D02*
G37*
G36*
X308110Y173871D02*
X307027Y173728D01*
X306017Y173310D01*
X305151Y172645D01*
X304486Y171778D01*
X304067Y170768D01*
X303925Y169685D01*
X304067Y168602D01*
X304486Y167592D01*
X305151Y166726D01*
X306017Y166060D01*
X307027Y165642D01*
X308110Y165500D01*
X309193Y165642D01*
X310203Y166060D01*
X311070Y166726D01*
X311735Y167592D01*
X312153Y168602D01*
X312296Y169685D01*
X312153Y170768D01*
X311735Y171778D01*
X311070Y172645D01*
X310203Y173310D01*
X309193Y173728D01*
X308110Y173871D01*
D02*
G37*
G36*
X245000Y168494D02*
X244225Y168392D01*
X243503Y168093D01*
X242883Y167617D01*
X242407Y166997D01*
X242108Y166275D01*
X242006Y165500D01*
X242108Y164725D01*
X242407Y164003D01*
X242883Y163383D01*
X243503Y162907D01*
X244225Y162608D01*
X245000Y162506D01*
X245775Y162608D01*
X246497Y162907D01*
X247117Y163383D01*
X247593Y164003D01*
X247892Y164725D01*
X247994Y165500D01*
X247892Y166275D01*
X247593Y166997D01*
X247117Y167617D01*
X246497Y168093D01*
X245775Y168392D01*
X245000Y168494D01*
D02*
G37*
G36*
X172850D02*
X172075Y168392D01*
X171353Y168093D01*
X170733Y167617D01*
X170257Y166997D01*
X169958Y166275D01*
X169856Y165500D01*
X169958Y164725D01*
X170257Y164003D01*
X170733Y163383D01*
X171353Y162907D01*
X172075Y162608D01*
X172850Y162506D01*
X173625Y162608D01*
X174347Y162907D01*
X174968Y163383D01*
X175443Y164003D01*
X175742Y164725D01*
X175845Y165500D01*
X175742Y166275D01*
X175443Y166997D01*
X174968Y167617D01*
X174347Y168093D01*
X173625Y168392D01*
X172850Y168494D01*
D02*
G37*
G36*
X508661Y166774D02*
X507887Y166672D01*
X507164Y166373D01*
X506544Y165897D01*
X506068Y165277D01*
X505769Y164555D01*
X505667Y163779D01*
X505769Y163005D01*
X506068Y162283D01*
X506544Y161662D01*
X507164Y161187D01*
X507887Y160887D01*
X508661Y160785D01*
X509436Y160887D01*
X510158Y161187D01*
X510779Y161662D01*
X511254Y162283D01*
X511553Y163005D01*
X511656Y163779D01*
X511553Y164555D01*
X511254Y165277D01*
X510779Y165897D01*
X510158Y166373D01*
X509436Y166672D01*
X508661Y166774D01*
D02*
G37*
G36*
X249606Y157335D02*
X248523Y157192D01*
X247514Y156774D01*
X246647Y156109D01*
X245982Y155242D01*
X245564Y154233D01*
X245421Y153150D01*
X245564Y152066D01*
X245982Y151057D01*
X246647Y150190D01*
X247514Y149525D01*
X248523Y149107D01*
X249606Y148964D01*
X250690Y149107D01*
X251699Y149525D01*
X252566Y150190D01*
X253231Y151057D01*
X253712Y150912D01*
X254343Y150651D01*
X255118Y150549D01*
X255893Y150651D01*
X256615Y150950D01*
X257235Y151426D01*
X257711Y152046D01*
X258010Y152768D01*
X258112Y153543D01*
X258010Y154318D01*
X257711Y155040D01*
X257235Y155660D01*
X256615Y156136D01*
X255893Y156435D01*
X255118Y156537D01*
X254343Y156435D01*
X253621Y156136D01*
X253001Y155660D01*
X252910D01*
X252566Y156109D01*
X251699Y156774D01*
X250690Y157192D01*
X249606Y157335D01*
D02*
G37*
G36*
X474016Y154963D02*
X473241Y154861D01*
X472519Y154561D01*
X471899Y154086D01*
X471423Y153466D01*
X471124Y152743D01*
X471022Y151969D01*
X471124Y151194D01*
X471423Y150471D01*
X471899Y149851D01*
X472519Y149375D01*
X473241Y149076D01*
X474016Y148974D01*
X474791Y149076D01*
X475513Y149375D01*
X476133Y149851D01*
X476609Y150471D01*
X476908Y151194D01*
X477010Y151969D01*
X476908Y152743D01*
X476609Y153466D01*
X476133Y154086D01*
X475513Y154561D01*
X474791Y154861D01*
X474016Y154963D01*
D02*
G37*
G36*
X239606Y157335D02*
X238523Y157192D01*
X237514Y156774D01*
X236647Y156109D01*
X235982Y155242D01*
X235563Y154233D01*
X235421Y153150D01*
X235563Y152066D01*
X235982Y151057D01*
X236647Y150190D01*
X237514Y149525D01*
X238523Y149107D01*
X239606Y148964D01*
X240690Y149107D01*
X241699Y149525D01*
X242566Y150190D01*
X243231Y151057D01*
X243649Y152066D01*
X243792Y153150D01*
X243649Y154233D01*
X243231Y155242D01*
X242566Y156109D01*
X241699Y156774D01*
X240690Y157192D01*
X239606Y157335D01*
D02*
G37*
G36*
X26484Y150172D02*
Y147744D01*
X28912D01*
X28876Y148019D01*
X28577Y148741D01*
X28101Y149361D01*
X27481Y149837D01*
X26759Y150136D01*
X26484Y150172D01*
D02*
G37*
G36*
X25484D02*
X25209Y150136D01*
X24487Y149837D01*
X23867Y149361D01*
X23391Y148741D01*
X23092Y148019D01*
X23056Y147744D01*
X25484D01*
Y150172D01*
D02*
G37*
G36*
X425390Y150429D02*
X422665D01*
Y147705D01*
X425390D01*
Y150429D01*
D02*
G37*
G36*
X421665D02*
X418941D01*
Y147705D01*
X421665D01*
Y150429D01*
D02*
G37*
G36*
X529134Y153001D02*
X528153Y152872D01*
X527240Y152493D01*
X526455Y151891D01*
X525853Y151107D01*
X525475Y150193D01*
X525346Y149213D01*
X525475Y148232D01*
X525853Y147318D01*
X526455Y146534D01*
X527240Y145932D01*
X528153Y145553D01*
X529134Y145424D01*
X530114Y145553D01*
X531028Y145932D01*
X531813Y146534D01*
X532415Y147318D01*
X532793Y148232D01*
X532922Y149213D01*
X532793Y150193D01*
X532415Y151107D01*
X531813Y151891D01*
X531028Y152493D01*
X530114Y152872D01*
X529134Y153001D01*
D02*
G37*
G36*
X18216Y147416D02*
Y144988D01*
X20645D01*
X20609Y145263D01*
X20310Y145985D01*
X19834Y146605D01*
X19214Y147081D01*
X18492Y147380D01*
X18216Y147416D01*
D02*
G37*
G36*
X17217D02*
X16942Y147380D01*
X16219Y147081D01*
X15599Y146605D01*
X15124Y145985D01*
X14824Y145263D01*
X14788Y144988D01*
X17217D01*
Y147416D01*
D02*
G37*
G36*
X367205Y150851D02*
X366363Y150740D01*
X365579Y150415D01*
X364905Y149898D01*
X364388Y149224D01*
X364063Y148440D01*
X363952Y147598D01*
X364063Y146757D01*
X364388Y145972D01*
X364905Y145299D01*
X365579Y144782D01*
X366363Y144457D01*
X367205Y144346D01*
X368046Y144457D01*
X368831Y144782D01*
X369504Y145299D01*
X369881Y145790D01*
X370403Y145842D01*
X370495Y145810D01*
X370718Y145521D01*
X371338Y145045D01*
X372060Y144746D01*
X372835Y144644D01*
X373610Y144746D01*
X374332Y145045D01*
X374952Y145521D01*
X375428Y146141D01*
X375727Y146863D01*
X375829Y147638D01*
X375727Y148413D01*
X375428Y149135D01*
X374952Y149755D01*
X374332Y150231D01*
X373610Y150530D01*
X372835Y150632D01*
X372060Y150530D01*
X371338Y150231D01*
X370718Y149755D01*
X370468Y149431D01*
X370422Y149409D01*
X369851Y149447D01*
X369504Y149898D01*
X368831Y150415D01*
X368046Y150740D01*
X367205Y150851D01*
D02*
G37*
G36*
X335945D02*
X335103Y150740D01*
X334319Y150415D01*
X333645Y149898D01*
X333128Y149224D01*
X332804Y148440D01*
X332693Y147598D01*
X332804Y146757D01*
X333128Y145972D01*
X333645Y145299D01*
X334319Y144782D01*
X335103Y144457D01*
X335945Y144346D01*
X336787Y144457D01*
X337571Y144782D01*
X338245Y145299D01*
X338761Y145972D01*
X339086Y146757D01*
X339197Y147598D01*
X339086Y148440D01*
X338761Y149224D01*
X338245Y149898D01*
X337571Y150415D01*
X336787Y150740D01*
X335945Y150851D01*
D02*
G37*
G36*
X28912Y146744D02*
X26484D01*
Y144316D01*
X26759Y144352D01*
X27481Y144651D01*
X28101Y145127D01*
X28577Y145747D01*
X28876Y146469D01*
X28912Y146744D01*
D02*
G37*
G36*
X25484D02*
X23056D01*
X23092Y146469D01*
X23391Y145747D01*
X23867Y145127D01*
X24487Y144651D01*
X25209Y144352D01*
X25484Y144316D01*
Y146744D01*
D02*
G37*
G36*
X425390Y146705D02*
X422665D01*
Y143980D01*
X425390D01*
Y146705D01*
D02*
G37*
G36*
X421665D02*
X418941D01*
Y143980D01*
X421665D01*
Y146705D01*
D02*
G37*
G36*
X453425Y150457D02*
X452584Y150346D01*
X451799Y150021D01*
X451125Y149504D01*
X450609Y148831D01*
X450284Y148047D01*
X450173Y147205D01*
X450284Y146363D01*
X450609Y145579D01*
X451125Y144905D01*
X451799Y144388D01*
X452584Y144063D01*
X453425Y143953D01*
X454267Y144063D01*
X455051Y144388D01*
X455725Y144905D01*
X456242Y145579D01*
X456567Y146363D01*
X456677Y147205D01*
X456567Y148047D01*
X456242Y148831D01*
X455725Y149504D01*
X455051Y150021D01*
X454267Y150346D01*
X453425Y150457D01*
D02*
G37*
G36*
X558268Y149845D02*
X557493Y149742D01*
X556771Y149443D01*
X556151Y148968D01*
X555675Y148347D01*
X555376Y147625D01*
X555274Y146850D01*
X555376Y146075D01*
X555675Y145353D01*
X556151Y144733D01*
X556771Y144257D01*
X557493Y143958D01*
X558268Y143856D01*
X559043Y143958D01*
X559765Y144257D01*
X560385Y144733D01*
X560861Y145353D01*
X561160Y146075D01*
X561262Y146850D01*
X561160Y147625D01*
X560861Y148347D01*
X560385Y148968D01*
X559765Y149443D01*
X559043Y149742D01*
X558268Y149845D01*
D02*
G37*
G36*
X571260Y150238D02*
X570485Y150136D01*
X569763Y149837D01*
X569143Y149361D01*
X568667Y148741D01*
X568368Y148019D01*
X568266Y147244D01*
X568368Y146469D01*
X568667Y145747D01*
X569143Y145127D01*
X569763Y144651D01*
X570485Y144352D01*
X571260Y144250D01*
X572035Y144352D01*
X572757Y144651D01*
X573377Y145127D01*
X573850Y145743D01*
X573866Y145745D01*
X574363Y145673D01*
X574449Y145019D01*
X574853Y144046D01*
X575494Y143210D01*
X576329Y142569D01*
X577302Y142166D01*
X578346Y142028D01*
X579391Y142166D01*
X580364Y142569D01*
X581199Y143210D01*
X581841Y144046D01*
X582243Y145019D01*
X582381Y146063D01*
X582243Y147107D01*
X581841Y148080D01*
X581199Y148916D01*
X580364Y149557D01*
X579391Y149960D01*
X578346Y150098D01*
X577302Y149960D01*
X576329Y149557D01*
X575494Y148916D01*
X574853Y148080D01*
X574697Y147706D01*
X574184Y147774D01*
X574152Y148019D01*
X573853Y148741D01*
X573377Y149361D01*
X572757Y149837D01*
X572035Y150136D01*
X571260Y150238D01*
D02*
G37*
G36*
X20645Y143988D02*
X18216D01*
Y141560D01*
X18492Y141596D01*
X19214Y141895D01*
X19834Y142371D01*
X20310Y142991D01*
X20609Y143713D01*
X20645Y143988D01*
D02*
G37*
G36*
X17217D02*
X14788D01*
X14824Y143713D01*
X15124Y142991D01*
X15599Y142371D01*
X16219Y141895D01*
X16942Y141596D01*
X17217Y141560D01*
Y143988D01*
D02*
G37*
G36*
X512992Y147482D02*
X512217Y147380D01*
X511495Y147081D01*
X510875Y146605D01*
X510399Y145985D01*
X510100Y145263D01*
X509998Y144488D01*
X510100Y143713D01*
X510399Y142991D01*
X510875Y142371D01*
X511495Y141895D01*
X512217Y141596D01*
X512992Y141494D01*
X513767Y141596D01*
X514489Y141895D01*
X515109Y142371D01*
X515585Y142991D01*
X515884Y143713D01*
X515986Y144488D01*
X515884Y145263D01*
X515585Y145985D01*
X515109Y146605D01*
X514489Y147081D01*
X513767Y147380D01*
X512992Y147482D01*
D02*
G37*
G36*
X529634Y143093D02*
Y139870D01*
X532856D01*
X532793Y140351D01*
X532415Y141264D01*
X531813Y142049D01*
X531028Y142651D01*
X530114Y143029D01*
X529634Y143093D01*
D02*
G37*
G36*
X528634Y143093D02*
X528153Y143029D01*
X527240Y142651D01*
X526455Y142049D01*
X525853Y141264D01*
X525475Y140351D01*
X525411Y139870D01*
X528634D01*
Y143093D01*
D02*
G37*
G36*
X453925Y140391D02*
Y137705D01*
X456612D01*
X456567Y138047D01*
X456242Y138831D01*
X455725Y139504D01*
X455051Y140021D01*
X454267Y140346D01*
X453925Y140391D01*
D02*
G37*
G36*
X452925D02*
X452584Y140346D01*
X451799Y140021D01*
X451125Y139504D01*
X450609Y138831D01*
X450284Y138047D01*
X450239Y137705D01*
X452925D01*
Y140391D01*
D02*
G37*
G36*
X422665D02*
Y137705D01*
X425352D01*
X425307Y138047D01*
X424982Y138831D01*
X424465Y139504D01*
X423792Y140021D01*
X423007Y140346D01*
X422665Y140391D01*
D02*
G37*
G36*
X421665D02*
X421324Y140346D01*
X420539Y140021D01*
X419866Y139504D01*
X419349Y138831D01*
X419024Y138047D01*
X418979Y137705D01*
X421665D01*
Y140391D01*
D02*
G37*
G36*
X528634Y138870D02*
X525411D01*
X525475Y138390D01*
X525853Y137476D01*
X526455Y136691D01*
X527240Y136089D01*
X528153Y135711D01*
X528634Y135648D01*
Y138870D01*
D02*
G37*
G36*
X532856D02*
X529634D01*
Y135648D01*
X530114Y135711D01*
X531028Y136089D01*
X531813Y136691D01*
X532415Y137476D01*
X532793Y138390D01*
X532856Y138870D01*
D02*
G37*
G36*
X367205Y140851D02*
X366363Y140740D01*
X365579Y140415D01*
X364905Y139898D01*
X364388Y139225D01*
X364063Y138440D01*
X363952Y137598D01*
X364063Y136757D01*
X364388Y135972D01*
X364905Y135299D01*
X365579Y134782D01*
X366363Y134457D01*
X367205Y134346D01*
X368046Y134457D01*
X368831Y134782D01*
X369504Y135299D01*
X370021Y135972D01*
X370346Y136757D01*
X370457Y137598D01*
X370346Y138440D01*
X370021Y139225D01*
X369504Y139898D01*
X368831Y140415D01*
X368046Y140740D01*
X367205Y140851D01*
D02*
G37*
G36*
X335945D02*
X335103Y140740D01*
X334319Y140415D01*
X333645Y139898D01*
X333128Y139225D01*
X332804Y138440D01*
X332693Y137598D01*
X332804Y136757D01*
X333128Y135972D01*
X333645Y135299D01*
X334319Y134782D01*
X335103Y134457D01*
X335945Y134346D01*
X336787Y134457D01*
X337571Y134782D01*
X338245Y135299D01*
X338761Y135972D01*
X339086Y136757D01*
X339197Y137598D01*
X339086Y138440D01*
X338761Y139225D01*
X338245Y139898D01*
X337571Y140415D01*
X336787Y140740D01*
X335945Y140851D01*
D02*
G37*
G36*
X456612Y136705D02*
X453925D01*
Y134018D01*
X454267Y134063D01*
X455051Y134388D01*
X455725Y134905D01*
X456242Y135579D01*
X456567Y136363D01*
X456612Y136705D01*
D02*
G37*
G36*
X452925D02*
X450239D01*
X450284Y136363D01*
X450609Y135579D01*
X451125Y134905D01*
X451799Y134388D01*
X452584Y134063D01*
X452925Y134018D01*
Y136705D01*
D02*
G37*
G36*
X425352D02*
X422665D01*
Y134018D01*
X423007Y134063D01*
X423792Y134388D01*
X424465Y134905D01*
X424982Y135579D01*
X425307Y136363D01*
X425352Y136705D01*
D02*
G37*
G36*
X421665D02*
X418979D01*
X419024Y136363D01*
X419349Y135579D01*
X419866Y134905D01*
X420539Y134388D01*
X421324Y134063D01*
X421665Y134018D01*
Y136705D01*
D02*
G37*
G36*
X475591Y139608D02*
X474816Y139506D01*
X474093Y139207D01*
X473473Y138731D01*
X472998Y138111D01*
X472698Y137389D01*
X472596Y136614D01*
X472698Y135839D01*
X472998Y135117D01*
X473473Y134497D01*
X474093Y134021D01*
X474816Y133722D01*
X475591Y133620D01*
X476366Y133722D01*
X477088Y134021D01*
X477708Y134497D01*
X478184Y135117D01*
X478483Y135839D01*
X478585Y136614D01*
X478483Y137389D01*
X478184Y138111D01*
X477708Y138731D01*
X477088Y139207D01*
X476366Y139506D01*
X475591Y139608D01*
D02*
G37*
G36*
X181102Y135671D02*
X180327Y135569D01*
X179605Y135270D01*
X178985Y134794D01*
X178509Y134174D01*
X178210Y133452D01*
X178108Y132677D01*
X178210Y131902D01*
X178509Y131180D01*
X178985Y130560D01*
X179605Y130084D01*
X180327Y129785D01*
X181102Y129683D01*
X181877Y129785D01*
X182599Y130084D01*
X183220Y130560D01*
X183695Y131180D01*
X183994Y131902D01*
X184097Y132677D01*
X183994Y133452D01*
X183695Y134174D01*
X183220Y134794D01*
X182599Y135270D01*
X181877Y135569D01*
X181102Y135671D01*
D02*
G37*
G36*
X529134Y133316D02*
X528153Y133187D01*
X527240Y132808D01*
X526455Y132206D01*
X525853Y131422D01*
X525475Y130508D01*
X525346Y129528D01*
X525475Y128547D01*
X525853Y127633D01*
X526455Y126849D01*
X527240Y126247D01*
X528153Y125868D01*
X529134Y125739D01*
X530114Y125868D01*
X531028Y126247D01*
X531813Y126849D01*
X532415Y127633D01*
X532793Y128547D01*
X532922Y129528D01*
X532793Y130508D01*
X532415Y131422D01*
X531813Y132206D01*
X531028Y132808D01*
X530114Y133187D01*
X529134Y133316D01*
D02*
G37*
G36*
X578740Y132775D02*
X577696Y132637D01*
X576723Y132234D01*
X575887Y131593D01*
X575246Y130757D01*
X574843Y129784D01*
X574706Y128740D01*
X574843Y127696D01*
X575246Y126723D01*
X575887Y125887D01*
X576723Y125246D01*
X577696Y124843D01*
X578740Y124706D01*
X579784Y124843D01*
X580757Y125246D01*
X581593Y125887D01*
X582234Y126723D01*
X582637Y127696D01*
X582775Y128740D01*
X582637Y129784D01*
X582234Y130757D01*
X581593Y131593D01*
X580757Y132234D01*
X579784Y132637D01*
X578740Y132775D01*
D02*
G37*
G36*
X367205Y130851D02*
X366363Y130740D01*
X365579Y130415D01*
X364905Y129898D01*
X364388Y129225D01*
X364063Y128440D01*
X363952Y127598D01*
X364063Y126757D01*
X364388Y125972D01*
X364905Y125299D01*
X365579Y124782D01*
X366363Y124457D01*
X367205Y124346D01*
X368046Y124457D01*
X368831Y124782D01*
X369504Y125299D01*
X370021Y125972D01*
X370346Y126757D01*
X370457Y127598D01*
X370346Y128440D01*
X370021Y129225D01*
X369504Y129898D01*
X368831Y130415D01*
X368046Y130740D01*
X367205Y130851D01*
D02*
G37*
G36*
X335945D02*
X335103Y130740D01*
X334319Y130415D01*
X333645Y129898D01*
X333128Y129225D01*
X332804Y128440D01*
X332693Y127598D01*
X332804Y126757D01*
X333128Y125972D01*
X333645Y125299D01*
X334319Y124782D01*
X335103Y124457D01*
X335945Y124346D01*
X336787Y124457D01*
X337571Y124782D01*
X338245Y125299D01*
X338761Y125972D01*
X339086Y126757D01*
X339197Y127598D01*
X339086Y128440D01*
X338761Y129225D01*
X338245Y129898D01*
X337571Y130415D01*
X336787Y130740D01*
X335945Y130851D01*
D02*
G37*
G36*
X453425Y130457D02*
X452584Y130346D01*
X451799Y130021D01*
X451125Y129504D01*
X450609Y128831D01*
X450284Y128047D01*
X450173Y127205D01*
X450284Y126363D01*
X450609Y125579D01*
X451125Y124905D01*
X451799Y124388D01*
X452584Y124063D01*
X453425Y123952D01*
X454267Y124063D01*
X455051Y124388D01*
X455725Y124905D01*
X456242Y125579D01*
X456567Y126363D01*
X456677Y127205D01*
X456567Y128047D01*
X456242Y128831D01*
X455725Y129504D01*
X455051Y130021D01*
X454267Y130346D01*
X453425Y130457D01*
D02*
G37*
G36*
X422165D02*
X421324Y130346D01*
X420539Y130021D01*
X419866Y129504D01*
X419349Y128831D01*
X419024Y128047D01*
X418913Y127205D01*
X419024Y126363D01*
X419349Y125579D01*
X419866Y124905D01*
X420539Y124388D01*
X421324Y124063D01*
X422165Y123952D01*
X423007Y124063D01*
X423792Y124388D01*
X424465Y124905D01*
X424982Y125579D01*
X425307Y126363D01*
X425418Y127205D01*
X425307Y128047D01*
X424982Y128831D01*
X424465Y129504D01*
X423792Y130021D01*
X423007Y130346D01*
X422165Y130457D01*
D02*
G37*
G36*
X221654Y128585D02*
X220879Y128483D01*
X220157Y128183D01*
X219536Y127708D01*
X219061Y127088D01*
X218761Y126365D01*
X218659Y125591D01*
X218761Y124816D01*
X219061Y124093D01*
X219536Y123473D01*
X220157Y122998D01*
X220879Y122698D01*
X221654Y122596D01*
X222428Y122698D01*
X223151Y122998D01*
X223771Y123473D01*
X224247Y124093D01*
X224546Y124816D01*
X224648Y125591D01*
X224546Y126365D01*
X224247Y127088D01*
X223771Y127708D01*
X223151Y128183D01*
X222428Y128483D01*
X221654Y128585D01*
D02*
G37*
G36*
X38500Y156421D02*
X37211Y156251D01*
X36010Y155753D01*
X34979Y154962D01*
X34187Y153931D01*
X33690Y152730D01*
X33520Y151441D01*
X33690Y150152D01*
X34187Y148951D01*
X34979Y147920D01*
X36010Y147128D01*
X37017Y146712D01*
Y146170D01*
X36010Y145753D01*
X34979Y144962D01*
X34187Y143931D01*
X33690Y142730D01*
X33520Y141441D01*
X33690Y140152D01*
X34187Y138951D01*
X34979Y137920D01*
X36010Y137128D01*
X37017Y136712D01*
Y136170D01*
X36010Y135753D01*
X34979Y134962D01*
X34187Y133931D01*
X33690Y132730D01*
X33520Y131441D01*
X33690Y130152D01*
X34187Y128951D01*
X34979Y127920D01*
X36010Y127129D01*
X36615Y126878D01*
X36516Y126378D01*
X33563D01*
Y116504D01*
X43437D01*
Y126378D01*
X40484D01*
X40385Y126878D01*
X40990Y127129D01*
X42021Y127920D01*
X42812Y128951D01*
X43310Y130152D01*
X43480Y131441D01*
X43310Y132730D01*
X42812Y133931D01*
X42021Y134962D01*
X40990Y135753D01*
X39983Y136170D01*
Y136712D01*
X40990Y137128D01*
X42021Y137920D01*
X42812Y138951D01*
X43310Y140152D01*
X43480Y141441D01*
X43310Y142730D01*
X42812Y143931D01*
X42021Y144962D01*
X40990Y145753D01*
X39983Y146170D01*
Y146712D01*
X40990Y147128D01*
X42021Y147920D01*
X42812Y148951D01*
X43310Y150152D01*
X43480Y151441D01*
X43310Y152730D01*
X42812Y153931D01*
X42021Y154962D01*
X40990Y155753D01*
X39789Y156251D01*
X38500Y156421D01*
D02*
G37*
G36*
X149909Y117635D02*
Y114949D01*
X152596D01*
X152551Y115291D01*
X152226Y116075D01*
X151709Y116748D01*
X151036Y117265D01*
X150251Y117590D01*
X149909Y117635D01*
D02*
G37*
G36*
X148909D02*
X148568Y117590D01*
X147783Y117265D01*
X147110Y116748D01*
X146593Y116075D01*
X146268Y115291D01*
X146223Y114949D01*
X148909D01*
Y117635D01*
D02*
G37*
G36*
X212634Y117673D02*
X209909D01*
Y114949D01*
X212634D01*
Y117673D01*
D02*
G37*
G36*
X199909Y117635D02*
Y114949D01*
X202596D01*
X202551Y115291D01*
X202226Y116075D01*
X201709Y116748D01*
X201036Y117265D01*
X200251Y117590D01*
X199909Y117635D01*
D02*
G37*
G36*
X198909D02*
X198568Y117590D01*
X197783Y117265D01*
X197110Y116748D01*
X196593Y116075D01*
X196268Y115291D01*
X196223Y114949D01*
X198909D01*
Y117635D01*
D02*
G37*
G36*
X208909Y117673D02*
X206185D01*
Y114949D01*
X208909D01*
Y117673D01*
D02*
G37*
G36*
X367205Y120851D02*
X366363Y120740D01*
X365579Y120415D01*
X364905Y119898D01*
X364388Y119225D01*
X364063Y118440D01*
X363952Y117598D01*
X364063Y116757D01*
X364388Y115972D01*
X364905Y115299D01*
X365579Y114782D01*
X366363Y114457D01*
X367205Y114346D01*
X368046Y114457D01*
X368831Y114782D01*
X369504Y115299D01*
X370021Y115972D01*
X370346Y116757D01*
X370457Y117598D01*
X370346Y118440D01*
X370021Y119225D01*
X369504Y119898D01*
X368831Y120415D01*
X368046Y120740D01*
X367205Y120851D01*
D02*
G37*
G36*
X335945D02*
X335103Y120740D01*
X334319Y120415D01*
X333645Y119898D01*
X333128Y119225D01*
X332804Y118440D01*
X332693Y117598D01*
X332804Y116757D01*
X333128Y115972D01*
X333645Y115299D01*
X334319Y114782D01*
X335103Y114457D01*
X335945Y114346D01*
X336787Y114457D01*
X337571Y114782D01*
X338245Y115299D01*
X338761Y115972D01*
X339086Y116757D01*
X339197Y117598D01*
X339086Y118440D01*
X338761Y119225D01*
X338245Y119898D01*
X337571Y120415D01*
X336787Y120740D01*
X335945Y120851D01*
D02*
G37*
G36*
X453425Y120457D02*
X452584Y120346D01*
X451799Y120021D01*
X451125Y119504D01*
X450609Y118831D01*
X450284Y118046D01*
X450173Y117205D01*
X450284Y116363D01*
X450609Y115579D01*
X451125Y114905D01*
X451799Y114388D01*
X452584Y114063D01*
X453425Y113953D01*
X454267Y114063D01*
X455051Y114388D01*
X455725Y114905D01*
X456242Y115579D01*
X456567Y116363D01*
X456677Y117205D01*
X456567Y118046D01*
X456242Y118831D01*
X455725Y119504D01*
X455051Y120021D01*
X454267Y120346D01*
X453425Y120457D01*
D02*
G37*
G36*
X422165D02*
X421324Y120346D01*
X420539Y120021D01*
X419866Y119504D01*
X419349Y118831D01*
X419024Y118046D01*
X418913Y117205D01*
X419024Y116363D01*
X419349Y115579D01*
X419866Y114905D01*
X420539Y114388D01*
X421324Y114063D01*
X422165Y113953D01*
X423007Y114063D01*
X423792Y114388D01*
X424465Y114905D01*
X424982Y115579D01*
X425307Y116363D01*
X425418Y117205D01*
X425307Y118046D01*
X424982Y118831D01*
X424465Y119504D01*
X423792Y120021D01*
X423007Y120346D01*
X422165Y120457D01*
D02*
G37*
G36*
X198909Y113949D02*
X196223D01*
X196268Y113607D01*
X196593Y112823D01*
X197110Y112149D01*
X197783Y111632D01*
X198568Y111307D01*
X198909Y111262D01*
Y113949D01*
D02*
G37*
G36*
X152596Y113949D02*
X149909D01*
Y111262D01*
X150251Y111307D01*
X151036Y111632D01*
X151709Y112149D01*
X152226Y112823D01*
X152551Y113607D01*
X152596Y113949D01*
D02*
G37*
G36*
X148909D02*
X146223D01*
X146268Y113607D01*
X146593Y112823D01*
X147110Y112149D01*
X147783Y111632D01*
X148568Y111307D01*
X148909Y111262D01*
Y113949D01*
D02*
G37*
G36*
X202596Y113949D02*
X199909D01*
Y111262D01*
X200251Y111307D01*
X201036Y111632D01*
X201709Y112149D01*
X202226Y112823D01*
X202551Y113607D01*
X202596Y113949D01*
D02*
G37*
G36*
X212634D02*
X209909D01*
Y111224D01*
X212634D01*
Y113949D01*
D02*
G37*
G36*
X208909D02*
X206185D01*
Y111224D01*
X208909D01*
Y113949D01*
D02*
G37*
G36*
X189409Y117701D02*
X188568Y117590D01*
X187783Y117265D01*
X187110Y116748D01*
X186593Y116075D01*
X186268Y115291D01*
X186157Y114449D01*
X186268Y113607D01*
X186593Y112823D01*
X187110Y112149D01*
X187783Y111632D01*
X188568Y111307D01*
X189409Y111197D01*
X190251Y111307D01*
X191036Y111632D01*
X191709Y112149D01*
X192226Y112823D01*
X192551Y113607D01*
X192662Y114449D01*
X192551Y115291D01*
X192226Y116075D01*
X191709Y116748D01*
X191036Y117265D01*
X190251Y117590D01*
X189409Y117701D01*
D02*
G37*
G36*
X179409D02*
X178568Y117590D01*
X177783Y117265D01*
X177110Y116748D01*
X176593Y116075D01*
X176268Y115291D01*
X176157Y114449D01*
X176268Y113607D01*
X176593Y112823D01*
X177110Y112149D01*
X177783Y111632D01*
X178568Y111307D01*
X179409Y111197D01*
X180251Y111307D01*
X181036Y111632D01*
X181709Y112149D01*
X182226Y112823D01*
X182551Y113607D01*
X182662Y114449D01*
X182551Y115291D01*
X182226Y116075D01*
X181709Y116748D01*
X181036Y117265D01*
X180251Y117590D01*
X179409Y117701D01*
D02*
G37*
G36*
X169409D02*
X168568Y117590D01*
X167783Y117265D01*
X167110Y116748D01*
X166593Y116075D01*
X166268Y115291D01*
X166157Y114449D01*
X166268Y113607D01*
X166593Y112823D01*
X167110Y112149D01*
X167783Y111632D01*
X168568Y111307D01*
X169409Y111197D01*
X170251Y111307D01*
X171036Y111632D01*
X171709Y112149D01*
X172226Y112823D01*
X172551Y113607D01*
X172662Y114449D01*
X172551Y115291D01*
X172226Y116075D01*
X171709Y116748D01*
X171036Y117265D01*
X170251Y117590D01*
X169409Y117701D01*
D02*
G37*
G36*
X159409D02*
X158568Y117590D01*
X157783Y117265D01*
X157110Y116748D01*
X156593Y116075D01*
X156268Y115291D01*
X156157Y114449D01*
X156268Y113607D01*
X156593Y112823D01*
X157110Y112149D01*
X157783Y111632D01*
X158568Y111307D01*
X159409Y111197D01*
X160251Y111307D01*
X161036Y111632D01*
X161709Y112149D01*
X162226Y112823D01*
X162551Y113607D01*
X162662Y114449D01*
X162551Y115291D01*
X162226Y116075D01*
X161709Y116748D01*
X161036Y117265D01*
X160251Y117590D01*
X159409Y117701D01*
D02*
G37*
G36*
X139409D02*
X138568Y117590D01*
X137783Y117265D01*
X137110Y116748D01*
X136593Y116075D01*
X136268Y115291D01*
X136157Y114449D01*
X136268Y113607D01*
X136593Y112823D01*
X137110Y112149D01*
X137783Y111632D01*
X138568Y111307D01*
X139409Y111197D01*
X140251Y111307D01*
X141036Y111632D01*
X141709Y112149D01*
X142226Y112823D01*
X142551Y113607D01*
X142662Y114449D01*
X142551Y115291D01*
X142226Y116075D01*
X141709Y116748D01*
X141036Y117265D01*
X140251Y117590D01*
X139409Y117701D01*
D02*
G37*
G36*
X27665Y110409D02*
Y107980D01*
X30094D01*
X30057Y108255D01*
X29758Y108977D01*
X29283Y109598D01*
X28662Y110073D01*
X27940Y110372D01*
X27665Y110409D01*
D02*
G37*
G36*
X26665D02*
X26390Y110372D01*
X25668Y110073D01*
X25048Y109598D01*
X24572Y108977D01*
X24273Y108255D01*
X24237Y107980D01*
X26665D01*
Y110409D01*
D02*
G37*
G36*
X18216Y108046D02*
Y105618D01*
X20645D01*
X20609Y105893D01*
X20310Y106615D01*
X19834Y107235D01*
X19214Y107711D01*
X18492Y108010D01*
X18216Y108046D01*
D02*
G37*
G36*
X17217D02*
X16942Y108010D01*
X16219Y107711D01*
X15599Y107235D01*
X15124Y106615D01*
X14824Y105893D01*
X14788Y105618D01*
X17217D01*
Y108046D01*
D02*
G37*
G36*
X30094Y106980D02*
X27665D01*
Y104552D01*
X27940Y104588D01*
X28662Y104887D01*
X29283Y105363D01*
X29758Y105983D01*
X30057Y106705D01*
X30094Y106980D01*
D02*
G37*
G36*
X26665D02*
X24237D01*
X24273Y106705D01*
X24572Y105983D01*
X25048Y105363D01*
X25668Y104887D01*
X26390Y104588D01*
X26665Y104552D01*
Y106980D01*
D02*
G37*
G36*
X367205Y110851D02*
X366363Y110740D01*
X365579Y110415D01*
X364905Y109898D01*
X364388Y109224D01*
X364063Y108440D01*
X363952Y107598D01*
X364063Y106757D01*
X364388Y105972D01*
X364905Y105299D01*
X365579Y104782D01*
X366363Y104457D01*
X367205Y104346D01*
X368046Y104457D01*
X368831Y104782D01*
X369504Y105299D01*
X370021Y105972D01*
X370346Y106757D01*
X370457Y107598D01*
X370346Y108440D01*
X370021Y109224D01*
X369504Y109898D01*
X368831Y110415D01*
X368046Y110740D01*
X367205Y110851D01*
D02*
G37*
G36*
X335945D02*
X335103Y110740D01*
X334319Y110415D01*
X333645Y109898D01*
X333128Y109224D01*
X332804Y108440D01*
X332693Y107598D01*
X332804Y106757D01*
X333128Y105972D01*
X333645Y105299D01*
X334319Y104782D01*
X335103Y104457D01*
X335945Y104346D01*
X336787Y104457D01*
X337571Y104782D01*
X338245Y105299D01*
X338761Y105972D01*
X339086Y106757D01*
X339197Y107598D01*
X339086Y108440D01*
X338761Y109224D01*
X338245Y109898D01*
X337571Y110415D01*
X336787Y110740D01*
X335945Y110851D01*
D02*
G37*
G36*
X453425Y110457D02*
X452584Y110346D01*
X451799Y110021D01*
X451125Y109504D01*
X450609Y108831D01*
X450284Y108046D01*
X450173Y107205D01*
X450284Y106363D01*
X450609Y105579D01*
X451125Y104905D01*
X451799Y104388D01*
X452584Y104063D01*
X453425Y103953D01*
X454267Y104063D01*
X455051Y104388D01*
X455725Y104905D01*
X456242Y105579D01*
X456567Y106363D01*
X456677Y107205D01*
X456567Y108046D01*
X456242Y108831D01*
X455725Y109504D01*
X455051Y110021D01*
X454267Y110346D01*
X453425Y110457D01*
D02*
G37*
G36*
X422165D02*
X421324Y110346D01*
X420539Y110021D01*
X419866Y109504D01*
X419349Y108831D01*
X419024Y108046D01*
X418913Y107205D01*
X419024Y106363D01*
X419349Y105579D01*
X419866Y104905D01*
X420539Y104388D01*
X421324Y104063D01*
X422165Y103953D01*
X423007Y104063D01*
X423792Y104388D01*
X424465Y104905D01*
X424982Y105579D01*
X425307Y106363D01*
X425418Y107205D01*
X425307Y108046D01*
X424982Y108831D01*
X424465Y109504D01*
X423792Y110021D01*
X423007Y110346D01*
X422165Y110457D01*
D02*
G37*
G36*
X20645Y104618D02*
X18216D01*
Y102190D01*
X18492Y102226D01*
X19214Y102525D01*
X19834Y103001D01*
X20310Y103621D01*
X20609Y104343D01*
X20645Y104618D01*
D02*
G37*
G36*
X17217D02*
X14788D01*
X14824Y104343D01*
X15124Y103621D01*
X15599Y103001D01*
X16219Y102525D01*
X16942Y102226D01*
X17217Y102190D01*
Y104618D01*
D02*
G37*
G36*
X175197Y102994D02*
X174422Y102892D01*
X173700Y102593D01*
X173080Y102117D01*
X172604Y101497D01*
X172305Y100775D01*
X172203Y100000D01*
X172305Y99225D01*
X172604Y98503D01*
X173080Y97883D01*
X173700Y97407D01*
X174422Y97108D01*
X175197Y97006D01*
X175972Y97108D01*
X176694Y97407D01*
X177314Y97883D01*
X177790Y98503D01*
X178089Y99225D01*
X178191Y100000D01*
X178089Y100775D01*
X177790Y101497D01*
X177314Y102117D01*
X176694Y102593D01*
X175972Y102892D01*
X175197Y102994D01*
D02*
G37*
G36*
X577559Y101026D02*
X576784Y100924D01*
X576062Y100625D01*
X575442Y100149D01*
X574966Y99529D01*
X574667Y98806D01*
X574565Y98032D01*
X574667Y97257D01*
X574966Y96534D01*
X575442Y95914D01*
X576062Y95438D01*
X576784Y95139D01*
X577559Y95037D01*
X578334Y95139D01*
X579056Y95438D01*
X579676Y95914D01*
X580152Y96534D01*
X580451Y97257D01*
X580553Y98032D01*
X580451Y98806D01*
X580152Y99529D01*
X579676Y100149D01*
X579056Y100625D01*
X578334Y100924D01*
X577559Y101026D01*
D02*
G37*
G36*
X367205Y100851D02*
X366363Y100740D01*
X365579Y100415D01*
X364905Y99898D01*
X364388Y99225D01*
X364063Y98440D01*
X363952Y97598D01*
X364063Y96757D01*
X364388Y95972D01*
X364905Y95299D01*
X365579Y94782D01*
X366363Y94457D01*
X367205Y94346D01*
X368046Y94457D01*
X368831Y94782D01*
X369504Y95299D01*
X370021Y95972D01*
X370346Y96757D01*
X370457Y97598D01*
X370346Y98440D01*
X370021Y99225D01*
X369504Y99898D01*
X368831Y100415D01*
X368046Y100740D01*
X367205Y100851D01*
D02*
G37*
G36*
X335945D02*
X335103Y100740D01*
X334319Y100415D01*
X333645Y99898D01*
X333128Y99225D01*
X332804Y98440D01*
X332693Y97598D01*
X332804Y96757D01*
X333128Y95972D01*
X333645Y95299D01*
X334319Y94782D01*
X335103Y94457D01*
X335945Y94346D01*
X336787Y94457D01*
X337571Y94782D01*
X338245Y95299D01*
X338761Y95972D01*
X339086Y96757D01*
X339197Y97598D01*
X339086Y98440D01*
X338761Y99225D01*
X338245Y99898D01*
X337571Y100415D01*
X336787Y100740D01*
X335945Y100851D01*
D02*
G37*
G36*
X453425Y100457D02*
X452584Y100346D01*
X451799Y100021D01*
X451125Y99504D01*
X450609Y98831D01*
X450284Y98046D01*
X450173Y97205D01*
X450284Y96363D01*
X450609Y95579D01*
X451125Y94905D01*
X451799Y94388D01*
X452584Y94063D01*
X453425Y93953D01*
X454267Y94063D01*
X455051Y94388D01*
X455725Y94905D01*
X456242Y95579D01*
X456567Y96363D01*
X456677Y97205D01*
X456567Y98046D01*
X456242Y98831D01*
X455725Y99504D01*
X455051Y100021D01*
X454267Y100346D01*
X453425Y100457D01*
D02*
G37*
G36*
X422165D02*
X421324Y100346D01*
X420539Y100021D01*
X419866Y99504D01*
X419349Y98831D01*
X419024Y98046D01*
X418913Y97205D01*
X419024Y96363D01*
X419349Y95579D01*
X419866Y94905D01*
X420539Y94388D01*
X421324Y94063D01*
X422165Y93953D01*
X423007Y94063D01*
X423792Y94388D01*
X424465Y94905D01*
X424982Y95579D01*
X425307Y96363D01*
X425418Y97205D01*
X425307Y98046D01*
X424982Y98831D01*
X424465Y99504D01*
X423792Y100021D01*
X423007Y100346D01*
X422165Y100457D01*
D02*
G37*
G36*
X38575Y115787D02*
X37286Y115617D01*
X36085Y115120D01*
X35054Y114328D01*
X34262Y113297D01*
X33765Y112096D01*
X33595Y110807D01*
X33765Y109518D01*
X34262Y108317D01*
X35054Y107286D01*
X36085Y106495D01*
X37092Y106078D01*
Y105536D01*
X36085Y105120D01*
X35054Y104328D01*
X34262Y103297D01*
X33765Y102096D01*
X33595Y100807D01*
X33765Y99518D01*
X34262Y98317D01*
X35054Y97286D01*
X36085Y96495D01*
X37092Y96078D01*
Y95537D01*
X36085Y95120D01*
X35054Y94328D01*
X34314Y93365D01*
X34085Y93232D01*
X33676Y93187D01*
X33058Y93443D01*
X32283Y93545D01*
X31508Y93443D01*
X30786Y93144D01*
X30166Y92668D01*
X29691Y92048D01*
X29391Y91326D01*
X29289Y90551D01*
X29391Y89776D01*
X29691Y89054D01*
X30166Y88434D01*
X30786Y87958D01*
X31508Y87659D01*
X32283Y87557D01*
X33058Y87659D01*
X33781Y87958D01*
X33863Y88022D01*
X34562Y87927D01*
X35054Y87286D01*
X36085Y86495D01*
X36690Y86244D01*
X36590Y85744D01*
X33638D01*
Y75870D01*
X43512D01*
Y85744D01*
X40559D01*
X40460Y86244D01*
X41065Y86495D01*
X42096Y87286D01*
X42887Y88317D01*
X43385Y89518D01*
X43554Y90807D01*
X43385Y92096D01*
X42887Y93297D01*
X42096Y94328D01*
X41065Y95120D01*
X40058Y95537D01*
Y96078D01*
X41065Y96495D01*
X42096Y97286D01*
X42887Y98317D01*
X43385Y99518D01*
X43554Y100807D01*
X43385Y102096D01*
X42887Y103297D01*
X42096Y104328D01*
X41065Y105120D01*
X40058Y105536D01*
Y106078D01*
X41065Y106495D01*
X42096Y107286D01*
X42887Y108317D01*
X43385Y109518D01*
X43554Y110807D01*
X43385Y112096D01*
X42887Y113297D01*
X42096Y114328D01*
X41065Y115120D01*
X39864Y115617D01*
X38575Y115787D01*
D02*
G37*
G36*
X367705Y90785D02*
Y88098D01*
X370391D01*
X370346Y88440D01*
X370021Y89224D01*
X369504Y89898D01*
X368831Y90415D01*
X368046Y90740D01*
X367705Y90785D01*
D02*
G37*
G36*
X366705D02*
X366363Y90740D01*
X365579Y90415D01*
X364905Y89898D01*
X364388Y89224D01*
X364063Y88440D01*
X364018Y88098D01*
X366705D01*
Y90785D01*
D02*
G37*
G36*
X422665Y90391D02*
Y87705D01*
X425352D01*
X425307Y88046D01*
X424982Y88831D01*
X424465Y89504D01*
X423792Y90021D01*
X423007Y90346D01*
X422665Y90391D01*
D02*
G37*
G36*
X421665D02*
X421324Y90346D01*
X420539Y90021D01*
X419866Y89504D01*
X419349Y88831D01*
X419024Y88046D01*
X418979Y87705D01*
X421665D01*
Y90391D01*
D02*
G37*
G36*
X370391Y87098D02*
X367705D01*
Y84412D01*
X368046Y84457D01*
X368831Y84782D01*
X369504Y85299D01*
X370021Y85972D01*
X370346Y86757D01*
X370391Y87098D01*
D02*
G37*
G36*
X366705D02*
X364018D01*
X364063Y86757D01*
X364388Y85972D01*
X364905Y85299D01*
X365579Y84782D01*
X366363Y84457D01*
X366705Y84412D01*
Y87098D01*
D02*
G37*
G36*
X577953Y94350D02*
X576664Y94180D01*
X575463Y93683D01*
X574432Y92891D01*
X573640Y91860D01*
X573143Y90659D01*
X572973Y89370D01*
X573143Y88081D01*
X573640Y86880D01*
X574432Y85849D01*
X575463Y85058D01*
X576664Y84560D01*
X577953Y84390D01*
X579242Y84560D01*
X580443Y85058D01*
X581474Y85849D01*
X582265Y86880D01*
X582763Y88081D01*
X582932Y89370D01*
X582763Y90659D01*
X582265Y91860D01*
X581474Y92891D01*
X580443Y93683D01*
X579242Y94180D01*
X577953Y94350D01*
D02*
G37*
G36*
X335945Y90851D02*
X335103Y90740D01*
X334319Y90415D01*
X333645Y89898D01*
X333128Y89224D01*
X332804Y88440D01*
X332693Y87598D01*
X332804Y86757D01*
X333128Y85972D01*
X333645Y85299D01*
X334319Y84782D01*
X335103Y84457D01*
X335945Y84346D01*
X336787Y84457D01*
X337571Y84782D01*
X338245Y85299D01*
X338761Y85972D01*
X339086Y86757D01*
X339197Y87598D01*
X339086Y88440D01*
X338761Y89224D01*
X338245Y89898D01*
X337571Y90415D01*
X336787Y90740D01*
X335945Y90851D01*
D02*
G37*
G36*
X425352Y86705D02*
X422665D01*
Y84018D01*
X423007Y84063D01*
X423792Y84388D01*
X424465Y84905D01*
X424982Y85579D01*
X425307Y86363D01*
X425352Y86705D01*
D02*
G37*
G36*
X421665D02*
X418979D01*
X419024Y86363D01*
X419349Y85579D01*
X419866Y84905D01*
X420539Y84388D01*
X421324Y84063D01*
X421665Y84018D01*
Y86705D01*
D02*
G37*
G36*
X389370Y90002D02*
X388595Y89900D01*
X387873Y89601D01*
X387253Y89125D01*
X386777Y88505D01*
X386478Y87783D01*
X386376Y87008D01*
X386478Y86233D01*
X386777Y85511D01*
X387253Y84891D01*
X387873Y84415D01*
X388595Y84116D01*
X389370Y84014D01*
X390145Y84116D01*
X390867Y84415D01*
X391487Y84891D01*
X391963Y85511D01*
X392262Y86233D01*
X392364Y87008D01*
X392262Y87783D01*
X391963Y88505D01*
X391487Y89125D01*
X390867Y89601D01*
X390145Y89900D01*
X389370Y90002D01*
D02*
G37*
G36*
X453425Y90457D02*
X452584Y90346D01*
X451799Y90021D01*
X451125Y89504D01*
X450609Y88831D01*
X450284Y88046D01*
X450173Y87205D01*
X450284Y86363D01*
X450609Y85579D01*
X451125Y84905D01*
X451799Y84388D01*
X452584Y84063D01*
X453425Y83952D01*
X454267Y84063D01*
X455051Y84388D01*
X455725Y84905D01*
X456242Y85579D01*
X456567Y86363D01*
X456677Y87205D01*
X456567Y88046D01*
X456242Y88831D01*
X455725Y89504D01*
X455051Y90021D01*
X454267Y90346D01*
X453425Y90457D01*
D02*
G37*
G36*
X139909Y86375D02*
Y83689D01*
X142596D01*
X142551Y84031D01*
X142226Y84815D01*
X141709Y85489D01*
X141036Y86006D01*
X140251Y86330D01*
X139909Y86375D01*
D02*
G37*
G36*
X138909D02*
X138568Y86330D01*
X137783Y86006D01*
X137110Y85489D01*
X136593Y84815D01*
X136268Y84031D01*
X136223Y83689D01*
X138909D01*
Y86375D01*
D02*
G37*
G36*
X199909D02*
Y83689D01*
X202596D01*
X202551Y84031D01*
X202226Y84815D01*
X201709Y85489D01*
X201036Y86006D01*
X200251Y86330D01*
X199909Y86375D01*
D02*
G37*
G36*
X198909D02*
X198568Y86330D01*
X197783Y86006D01*
X197110Y85489D01*
X196593Y84815D01*
X196268Y84031D01*
X196223Y83689D01*
X198909D01*
Y86375D01*
D02*
G37*
G36*
Y82689D02*
X196223D01*
X196268Y82347D01*
X196593Y81563D01*
X197110Y80889D01*
X197783Y80373D01*
X198568Y80048D01*
X198909Y80003D01*
Y82689D01*
D02*
G37*
G36*
X142596Y82689D02*
X139909D01*
Y80003D01*
X140251Y80048D01*
X141036Y80373D01*
X141709Y80889D01*
X142226Y81563D01*
X142551Y82347D01*
X142596Y82689D01*
D02*
G37*
G36*
X138909D02*
X136223D01*
X136268Y82347D01*
X136593Y81563D01*
X137110Y80889D01*
X137783Y80373D01*
X138568Y80048D01*
X138909Y80003D01*
Y82689D01*
D02*
G37*
G36*
X202596Y82689D02*
X199909D01*
Y80003D01*
X200251Y80048D01*
X201036Y80373D01*
X201709Y80889D01*
X202226Y81563D01*
X202551Y82347D01*
X202596Y82689D01*
D02*
G37*
G36*
X209409Y86441D02*
X208568Y86330D01*
X207783Y86006D01*
X207110Y85489D01*
X206593Y84815D01*
X206268Y84031D01*
X206157Y83189D01*
X206268Y82347D01*
X206593Y81563D01*
X207110Y80889D01*
X207783Y80373D01*
X208568Y80048D01*
X209409Y79937D01*
X210251Y80048D01*
X211036Y80373D01*
X211709Y80889D01*
X212226Y81563D01*
X212551Y82347D01*
X212662Y83189D01*
X212551Y84031D01*
X212226Y84815D01*
X211709Y85489D01*
X211036Y86006D01*
X210251Y86330D01*
X209409Y86441D01*
D02*
G37*
G36*
X189409D02*
X188568Y86330D01*
X187783Y86006D01*
X187110Y85489D01*
X186593Y84815D01*
X186268Y84031D01*
X186157Y83189D01*
X186268Y82347D01*
X186593Y81563D01*
X187110Y80889D01*
X187783Y80373D01*
X188568Y80048D01*
X189409Y79937D01*
X190251Y80048D01*
X191036Y80373D01*
X191709Y80889D01*
X192226Y81563D01*
X192551Y82347D01*
X192662Y83189D01*
X192551Y84031D01*
X192226Y84815D01*
X191709Y85489D01*
X191036Y86006D01*
X190251Y86330D01*
X189409Y86441D01*
D02*
G37*
G36*
X179409D02*
X178568Y86330D01*
X177783Y86006D01*
X177110Y85489D01*
X176593Y84815D01*
X176268Y84031D01*
X176157Y83189D01*
X176268Y82347D01*
X176593Y81563D01*
X177110Y80889D01*
X177783Y80373D01*
X178568Y80048D01*
X179409Y79937D01*
X180251Y80048D01*
X181036Y80373D01*
X181709Y80889D01*
X182226Y81563D01*
X182551Y82347D01*
X182662Y83189D01*
X182551Y84031D01*
X182226Y84815D01*
X181709Y85489D01*
X181036Y86006D01*
X180251Y86330D01*
X179409Y86441D01*
D02*
G37*
G36*
X169409D02*
X168568Y86330D01*
X167783Y86006D01*
X167110Y85489D01*
X166593Y84815D01*
X166268Y84031D01*
X166157Y83189D01*
X166268Y82347D01*
X166593Y81563D01*
X167110Y80889D01*
X167783Y80373D01*
X168568Y80048D01*
X169409Y79937D01*
X170251Y80048D01*
X171036Y80373D01*
X171709Y80889D01*
X172226Y81563D01*
X172551Y82347D01*
X172662Y83189D01*
X172551Y84031D01*
X172226Y84815D01*
X171709Y85489D01*
X171036Y86006D01*
X170251Y86330D01*
X169409Y86441D01*
D02*
G37*
G36*
X159409D02*
X158568Y86330D01*
X157783Y86006D01*
X157110Y85489D01*
X156593Y84815D01*
X156268Y84031D01*
X156157Y83189D01*
X156268Y82347D01*
X156593Y81563D01*
X157110Y80889D01*
X157783Y80373D01*
X158568Y80048D01*
X159409Y79937D01*
X160251Y80048D01*
X161036Y80373D01*
X161709Y80889D01*
X162226Y81563D01*
X162551Y82347D01*
X162662Y83189D01*
X162551Y84031D01*
X162226Y84815D01*
X161709Y85489D01*
X161036Y86006D01*
X160251Y86330D01*
X159409Y86441D01*
D02*
G37*
G36*
X149409D02*
X148568Y86330D01*
X147783Y86006D01*
X147110Y85489D01*
X146593Y84815D01*
X146268Y84031D01*
X146157Y83189D01*
X146268Y82347D01*
X146593Y81563D01*
X147110Y80889D01*
X147783Y80373D01*
X148568Y80048D01*
X149409Y79937D01*
X150251Y80048D01*
X151036Y80373D01*
X151709Y80889D01*
X152226Y81563D01*
X152551Y82347D01*
X152662Y83189D01*
X152551Y84031D01*
X152226Y84815D01*
X151709Y85489D01*
X151036Y86006D01*
X150251Y86330D01*
X149409Y86441D01*
D02*
G37*
G36*
X370429Y80823D02*
X367705D01*
Y78098D01*
X370429D01*
Y80823D01*
D02*
G37*
G36*
X366705D02*
X363980D01*
Y78098D01*
X366705D01*
Y80823D01*
D02*
G37*
G36*
X453925Y80391D02*
Y77705D01*
X456612D01*
X456567Y78047D01*
X456242Y78831D01*
X455725Y79504D01*
X455051Y80021D01*
X454267Y80346D01*
X453925Y80391D01*
D02*
G37*
G36*
X452925D02*
X452584Y80346D01*
X451799Y80021D01*
X451125Y79504D01*
X450609Y78831D01*
X450284Y78047D01*
X450239Y77705D01*
X452925D01*
Y80391D01*
D02*
G37*
G36*
X370429Y77098D02*
X367705D01*
Y74374D01*
X370429D01*
Y77098D01*
D02*
G37*
G36*
X366705D02*
X363980D01*
Y74374D01*
X366705D01*
Y77098D01*
D02*
G37*
G36*
X335945Y80851D02*
X335103Y80740D01*
X334319Y80415D01*
X333645Y79898D01*
X333128Y79224D01*
X332804Y78440D01*
X332693Y77598D01*
X332804Y76757D01*
X333128Y75972D01*
X333645Y75299D01*
X334319Y74782D01*
X335103Y74457D01*
X335945Y74346D01*
X336787Y74457D01*
X337571Y74782D01*
X338245Y75299D01*
X338761Y75972D01*
X339086Y76757D01*
X339197Y77598D01*
X339086Y78440D01*
X338761Y79224D01*
X338245Y79898D01*
X337571Y80415D01*
X336787Y80740D01*
X335945Y80851D01*
D02*
G37*
G36*
X312992Y80159D02*
X312217Y80057D01*
X311495Y79758D01*
X310875Y79282D01*
X310399Y78662D01*
X310100Y77940D01*
X309998Y77165D01*
X310100Y76390D01*
X310399Y75668D01*
X310875Y75048D01*
X311495Y74572D01*
X312217Y74273D01*
X312992Y74171D01*
X313767Y74273D01*
X314489Y74572D01*
X315109Y75048D01*
X315585Y75668D01*
X315884Y76390D01*
X315986Y77165D01*
X315884Y77940D01*
X315585Y78662D01*
X315109Y79282D01*
X314489Y79758D01*
X313767Y80057D01*
X312992Y80159D01*
D02*
G37*
G36*
X456612Y76705D02*
X453925D01*
Y74018D01*
X454267Y74063D01*
X455051Y74388D01*
X455725Y74905D01*
X456242Y75579D01*
X456567Y76363D01*
X456612Y76705D01*
D02*
G37*
G36*
X452925D02*
X450239D01*
X450284Y76363D01*
X450609Y75579D01*
X451125Y74905D01*
X451799Y74388D01*
X452584Y74063D01*
X452925Y74018D01*
Y76705D01*
D02*
G37*
G36*
X422165Y80457D02*
X421324Y80346D01*
X420539Y80021D01*
X419866Y79504D01*
X419349Y78831D01*
X419024Y78047D01*
X418913Y77205D01*
X419024Y76363D01*
X419349Y75579D01*
X419866Y74905D01*
X420539Y74388D01*
X421324Y74063D01*
X422165Y73953D01*
X423007Y74063D01*
X423792Y74388D01*
X424465Y74905D01*
X424982Y75579D01*
X425307Y76363D01*
X425418Y77205D01*
X425307Y78047D01*
X424982Y78831D01*
X424465Y79504D01*
X423792Y80021D01*
X423007Y80346D01*
X422165Y80457D01*
D02*
G37*
G36*
X178347Y78191D02*
X177571Y78089D01*
X176849Y77790D01*
X176229Y77314D01*
X175753Y76694D01*
X175454Y75972D01*
X175352Y75197D01*
X175454Y74422D01*
X175753Y73700D01*
X176229Y73080D01*
X176849Y72604D01*
X177571Y72305D01*
X178347Y72203D01*
X179121Y72305D01*
X179843Y72604D01*
X180464Y73080D01*
X180939Y73700D01*
X181239Y74422D01*
X181341Y75197D01*
X181239Y75972D01*
X180939Y76694D01*
X180464Y77314D01*
X179843Y77790D01*
X179121Y78089D01*
X178347Y78191D01*
D02*
G37*
G36*
X224016Y76616D02*
X223241Y76514D01*
X222519Y76215D01*
X221899Y75739D01*
X221423Y75119D01*
X221124Y74397D01*
X221022Y73622D01*
X221124Y72847D01*
X221423Y72125D01*
X221899Y71505D01*
X222519Y71029D01*
X223241Y70730D01*
X224016Y70628D01*
X224791Y70730D01*
X225513Y71029D01*
X226133Y71505D01*
X226609Y72125D01*
X226908Y72847D01*
X227010Y73622D01*
X226908Y74397D01*
X226609Y75119D01*
X226133Y75739D01*
X225513Y76215D01*
X224791Y76514D01*
X224016Y76616D01*
D02*
G37*
G36*
X26878Y69464D02*
Y67035D01*
X29306D01*
X29270Y67310D01*
X28971Y68032D01*
X28495Y68653D01*
X27875Y69128D01*
X27153Y69428D01*
X26878Y69464D01*
D02*
G37*
G36*
X25878D02*
X25603Y69428D01*
X24881Y69128D01*
X24261Y68653D01*
X23785Y68032D01*
X23486Y67310D01*
X23450Y67035D01*
X25878D01*
Y69464D01*
D02*
G37*
G36*
X17823Y67495D02*
Y65067D01*
X20251D01*
X20215Y65342D01*
X19916Y66064D01*
X19440Y66684D01*
X18820Y67160D01*
X18098Y67459D01*
X17823Y67495D01*
D02*
G37*
G36*
X16823D02*
X16548Y67459D01*
X15826Y67160D01*
X15206Y66684D01*
X14730Y66064D01*
X14431Y65342D01*
X14394Y65067D01*
X16823D01*
Y67495D01*
D02*
G37*
G36*
X577953Y74665D02*
X576664Y74495D01*
X575463Y73997D01*
X574432Y73206D01*
X573640Y72175D01*
X573143Y70974D01*
X572973Y69685D01*
X573143Y68396D01*
X573640Y67195D01*
X574432Y66164D01*
X575463Y65373D01*
X576664Y64875D01*
X577953Y64705D01*
X579242Y64875D01*
X580443Y65373D01*
X581474Y66164D01*
X582265Y67195D01*
X582763Y68396D01*
X582932Y69685D01*
X582763Y70974D01*
X582265Y72175D01*
X581474Y73206D01*
X580443Y73997D01*
X579242Y74495D01*
X577953Y74665D01*
D02*
G37*
G36*
X29306Y66035D02*
X26878D01*
Y63607D01*
X27153Y63643D01*
X27875Y63942D01*
X28495Y64418D01*
X28971Y65038D01*
X29270Y65760D01*
X29306Y66035D01*
D02*
G37*
G36*
X25878D02*
X23450D01*
X23486Y65760D01*
X23785Y65038D01*
X24261Y64418D01*
X24881Y63942D01*
X25603Y63643D01*
X25878Y63607D01*
Y66035D01*
D02*
G37*
G36*
X20251Y64067D02*
X17823D01*
Y61639D01*
X18098Y61675D01*
X18820Y61974D01*
X19440Y62450D01*
X19916Y63070D01*
X20215Y63792D01*
X20251Y64067D01*
D02*
G37*
G36*
X16823D02*
X14394D01*
X14431Y63792D01*
X14730Y63070D01*
X15206Y62450D01*
X15826Y61974D01*
X16548Y61675D01*
X16823Y61639D01*
Y64067D01*
D02*
G37*
G36*
X446520Y60921D02*
X445745Y60818D01*
X445023Y60519D01*
X444403Y60044D01*
X443927Y59423D01*
X443628Y58701D01*
X443526Y57926D01*
X443628Y57151D01*
X443927Y56429D01*
X444403Y55809D01*
X445023Y55333D01*
X445745Y55034D01*
X446520Y54932D01*
X447295Y55034D01*
X448017Y55333D01*
X448637Y55809D01*
X449113Y56429D01*
X449412Y57151D01*
X449514Y57926D01*
X449412Y58701D01*
X449113Y59423D01*
X448637Y60044D01*
X448017Y60519D01*
X447295Y60818D01*
X446520Y60921D01*
D02*
G37*
G36*
X146315Y60868D02*
X145540Y60766D01*
X144818Y60467D01*
X144198Y59991D01*
X143722Y59371D01*
X143423Y58649D01*
X143321Y57874D01*
X143423Y57099D01*
X143722Y56377D01*
X144198Y55757D01*
X144818Y55281D01*
X145540Y54982D01*
X146315Y54880D01*
X147090Y54982D01*
X147812Y55281D01*
X148432Y55757D01*
X148908Y56377D01*
X149207Y57099D01*
X149309Y57874D01*
X149207Y58649D01*
X148908Y59371D01*
X148432Y59991D01*
X147812Y60467D01*
X147090Y60766D01*
X146315Y60868D01*
D02*
G37*
G36*
X38575Y74940D02*
X37286Y74771D01*
X36085Y74273D01*
X35054Y73482D01*
X34262Y72450D01*
X33765Y71250D01*
X33595Y69961D01*
X33765Y68672D01*
X34262Y67471D01*
X35054Y66439D01*
X36085Y65648D01*
X37092Y65231D01*
Y64690D01*
X36085Y64273D01*
X35054Y63482D01*
X34262Y62450D01*
X33765Y61250D01*
X33595Y59961D01*
X33765Y58672D01*
X34262Y57471D01*
X35054Y56440D01*
X36085Y55648D01*
X37092Y55231D01*
Y54690D01*
X36085Y54273D01*
X35054Y53482D01*
X34394Y52622D01*
X34174Y52593D01*
X33452Y52892D01*
X32677Y52994D01*
X31902Y52892D01*
X31180Y52593D01*
X30560Y52117D01*
X30084Y51497D01*
X29785Y50775D01*
X29683Y50000D01*
X29785Y49225D01*
X30084Y48503D01*
X30560Y47883D01*
X31180Y47407D01*
X31902Y47108D01*
X32677Y47006D01*
X33452Y47108D01*
X34174Y47407D01*
X34565Y47076D01*
X35054Y46439D01*
X36085Y45648D01*
X36690Y45398D01*
X36590Y44898D01*
X33638D01*
Y35024D01*
X43512D01*
Y44898D01*
X40559D01*
X40460Y45398D01*
X41065Y45648D01*
X42096Y46439D01*
X42887Y47471D01*
X43385Y48672D01*
X43554Y49961D01*
X43385Y51249D01*
X42887Y52450D01*
X42096Y53482D01*
X41065Y54273D01*
X40058Y54690D01*
Y55231D01*
X41065Y55648D01*
X42096Y56440D01*
X42887Y57471D01*
X43385Y58672D01*
X43554Y59961D01*
X43385Y61250D01*
X42887Y62450D01*
X42096Y63482D01*
X41065Y64273D01*
X40058Y64690D01*
Y65231D01*
X41065Y65648D01*
X42096Y66439D01*
X42887Y67471D01*
X43385Y68672D01*
X43554Y69961D01*
X43385Y71250D01*
X42887Y72450D01*
X42096Y73482D01*
X41065Y74273D01*
X39864Y74771D01*
X38575Y74940D01*
D02*
G37*
G36*
X244094Y47482D02*
X243320Y47380D01*
X242597Y47081D01*
X241977Y46605D01*
X241501Y45985D01*
X241202Y45263D01*
X241100Y44488D01*
X241202Y43713D01*
X241501Y42991D01*
X241476Y42796D01*
X240573Y42104D01*
X239782Y41072D01*
X239365Y40066D01*
X238824D01*
X238407Y41072D01*
X237616Y42104D01*
X236584Y42895D01*
X235383Y43393D01*
X234594Y43497D01*
Y38583D01*
Y33669D01*
X235383Y33773D01*
X236584Y34270D01*
X237616Y35062D01*
X238407Y36093D01*
X238824Y37099D01*
X239365D01*
X239782Y36093D01*
X240573Y35062D01*
X241605Y34270D01*
X242806Y33773D01*
X244094Y33603D01*
X245383Y33773D01*
X246584Y34270D01*
X247616Y35062D01*
X248407Y36093D01*
X248657Y36698D01*
X249158Y36598D01*
Y33646D01*
X259032D01*
Y43520D01*
X249158D01*
Y40567D01*
X248657Y40468D01*
X248407Y41072D01*
X247616Y42104D01*
X246713Y42796D01*
X246688Y42991D01*
X246987Y43713D01*
X247089Y44488D01*
X246987Y45263D01*
X246688Y45985D01*
X246212Y46605D01*
X245592Y47081D01*
X244869Y47380D01*
X244094Y47482D01*
D02*
G37*
G36*
X203150Y46695D02*
X202375Y46593D01*
X201653Y46294D01*
X201032Y45818D01*
X200557Y45198D01*
X200257Y44476D01*
X200155Y43701D01*
X200257Y42926D01*
X200402Y42577D01*
X199786Y42104D01*
X198995Y41072D01*
X198578Y40066D01*
X198037D01*
X197620Y41072D01*
X196828Y42104D01*
X195797Y42895D01*
X194596Y43393D01*
X193807Y43497D01*
Y38583D01*
Y33669D01*
X194596Y33773D01*
X195797Y34270D01*
X196828Y35062D01*
X197620Y36093D01*
X198037Y37099D01*
X198578D01*
X198995Y36093D01*
X199786Y35062D01*
X200817Y34270D01*
X202018Y33773D01*
X203307Y33603D01*
X204596Y33773D01*
X205797Y34270D01*
X206828Y35062D01*
X207620Y36093D01*
X207870Y36698D01*
X208370Y36598D01*
Y33646D01*
X218244D01*
Y43520D01*
X208370D01*
Y40567D01*
X207870Y40468D01*
X207620Y41072D01*
X206828Y42104D01*
X205973Y42760D01*
X206042Y42926D01*
X206144Y43701D01*
X206042Y44476D01*
X205743Y45198D01*
X205267Y45818D01*
X204647Y46294D01*
X203924Y46593D01*
X203150Y46695D01*
D02*
G37*
G36*
X162598D02*
X161823Y46593D01*
X161101Y46294D01*
X160481Y45818D01*
X160005Y45198D01*
X159706Y44476D01*
X159604Y43701D01*
X159706Y42926D01*
X159813Y42668D01*
X159077Y42104D01*
X158286Y41072D01*
X157869Y40066D01*
X157328D01*
X156911Y41072D01*
X156120Y42104D01*
X155088Y42895D01*
X153887Y43393D01*
X153098Y43497D01*
Y38583D01*
Y33669D01*
X153887Y33773D01*
X155088Y34270D01*
X156120Y35062D01*
X156911Y36093D01*
X157328Y37099D01*
X157869D01*
X158286Y36093D01*
X159077Y35062D01*
X160109Y34270D01*
X161310Y33773D01*
X162598Y33603D01*
X163887Y33773D01*
X165088Y34270D01*
X166120Y35062D01*
X166911Y36093D01*
X167161Y36698D01*
X167661Y36598D01*
Y33646D01*
X177535D01*
Y43520D01*
X167661D01*
Y40567D01*
X167161Y40468D01*
X166911Y41072D01*
X166120Y42104D01*
X165384Y42668D01*
X165490Y42926D01*
X165593Y43701D01*
X165490Y44476D01*
X165191Y45198D01*
X164716Y45818D01*
X164095Y46294D01*
X163373Y46593D01*
X162598Y46695D01*
D02*
G37*
G36*
X401181Y47876D02*
X400406Y47774D01*
X399684Y47475D01*
X399064Y46999D01*
X398588Y46379D01*
X398289Y45657D01*
X398187Y44882D01*
X398289Y44107D01*
X398585Y43392D01*
X398608Y43330D01*
X398466Y42722D01*
X397660Y42104D01*
X396869Y41072D01*
X396452Y40066D01*
X395911D01*
X395494Y41072D01*
X394702Y42104D01*
X393671Y42895D01*
X392470Y43393D01*
X391681Y43497D01*
Y38583D01*
Y33669D01*
X392470Y33773D01*
X393671Y34270D01*
X394702Y35062D01*
X395494Y36093D01*
X395911Y37099D01*
X396452D01*
X396869Y36093D01*
X397660Y35062D01*
X398691Y34270D01*
X399892Y33773D01*
X401181Y33603D01*
X402470Y33773D01*
X403671Y34270D01*
X404702Y35062D01*
X405494Y36093D01*
X405744Y36698D01*
X406244Y36598D01*
Y33646D01*
X416118D01*
Y43520D01*
X406244D01*
Y40567D01*
X405744Y40468D01*
X405494Y41072D01*
X404702Y42104D01*
X403896Y42722D01*
X403754Y43330D01*
X403777Y43392D01*
X404073Y44107D01*
X404175Y44882D01*
X404073Y45657D01*
X403774Y46379D01*
X403298Y46999D01*
X402678Y47475D01*
X401956Y47774D01*
X401181Y47876D01*
D02*
G37*
G36*
X360236Y48663D02*
X359461Y48561D01*
X358739Y48262D01*
X358119Y47787D01*
X357643Y47166D01*
X357344Y46444D01*
X357242Y45669D01*
X357344Y44894D01*
X357643Y44172D01*
X358119Y43552D01*
X358286Y43424D01*
X358221Y42928D01*
X358140Y42895D01*
X357109Y42104D01*
X356317Y41072D01*
X355901Y40066D01*
X355359D01*
X354942Y41072D01*
X354151Y42104D01*
X353120Y42895D01*
X351919Y43393D01*
X351130Y43497D01*
Y38583D01*
Y33669D01*
X351919Y33773D01*
X353120Y34270D01*
X354151Y35062D01*
X354942Y36093D01*
X355359Y37099D01*
X355901D01*
X356317Y36093D01*
X357109Y35062D01*
X358140Y34270D01*
X359341Y33773D01*
X360630Y33603D01*
X361919Y33773D01*
X363120Y34270D01*
X364151Y35062D01*
X364942Y36093D01*
X365193Y36698D01*
X365693Y36598D01*
Y33646D01*
X375567D01*
Y43520D01*
X365693D01*
Y40567D01*
X365193Y40468D01*
X364942Y41072D01*
X364151Y42104D01*
X363120Y42895D01*
X362549Y43132D01*
X362471Y43705D01*
X362829Y44172D01*
X363128Y44894D01*
X363230Y45669D01*
X363128Y46444D01*
X362829Y47166D01*
X362353Y47787D01*
X361733Y48262D01*
X361011Y48561D01*
X360236Y48663D01*
D02*
G37*
G36*
X123013Y46517D02*
X122238Y46415D01*
X121516Y46116D01*
X120896Y45640D01*
X120420Y45020D01*
X120121Y44298D01*
X120019Y43523D01*
X120065Y43171D01*
X119400Y42895D01*
X118369Y42104D01*
X117577Y41072D01*
X117160Y40066D01*
X116619D01*
X116202Y41072D01*
X115411Y42104D01*
X114380Y42895D01*
X113179Y43393D01*
X112390Y43497D01*
Y38583D01*
Y33669D01*
X113179Y33773D01*
X114380Y34270D01*
X115411Y35062D01*
X116202Y36093D01*
X116619Y37099D01*
X117160D01*
X117577Y36093D01*
X118369Y35062D01*
X119400Y34270D01*
X120601Y33773D01*
X121890Y33603D01*
X123179Y33773D01*
X124380Y34270D01*
X125411Y35062D01*
X126202Y36093D01*
X126453Y36698D01*
X126953Y36598D01*
Y33646D01*
X136827D01*
Y43520D01*
X126953D01*
Y40567D01*
X126453Y40468D01*
X126202Y41072D01*
X125538Y41938D01*
X125606Y42026D01*
X125905Y42748D01*
X126007Y43523D01*
X125905Y44298D01*
X125606Y45020D01*
X125130Y45640D01*
X124510Y46116D01*
X123788Y46415D01*
X123013Y46517D01*
D02*
G37*
G36*
X320472Y48663D02*
X319697Y48561D01*
X318975Y48262D01*
X318355Y47787D01*
X317880Y47166D01*
X317580Y46444D01*
X317478Y45669D01*
X317580Y44894D01*
X317880Y44172D01*
X318238Y43705D01*
X318160Y43132D01*
X317589Y42895D01*
X316558Y42104D01*
X315766Y41072D01*
X315349Y40066D01*
X314808D01*
X314391Y41072D01*
X313600Y42104D01*
X312568Y42895D01*
X311368Y43393D01*
X310579Y43497D01*
Y38583D01*
Y33669D01*
X311368Y33773D01*
X312568Y34270D01*
X313600Y35062D01*
X314391Y36093D01*
X314808Y37099D01*
X315349D01*
X315766Y36093D01*
X316558Y35062D01*
X317589Y34270D01*
X318790Y33773D01*
X320079Y33603D01*
X321368Y33773D01*
X322568Y34270D01*
X323600Y35062D01*
X324391Y36093D01*
X324642Y36698D01*
X325142Y36598D01*
Y33646D01*
X335016D01*
Y43520D01*
X325142D01*
Y40567D01*
X324642Y40468D01*
X324391Y41072D01*
X323600Y42104D01*
X322568Y42895D01*
X322488Y42928D01*
X322423Y43424D01*
X322590Y43552D01*
X323065Y44172D01*
X323364Y44894D01*
X323467Y45669D01*
X323364Y46444D01*
X323065Y47166D01*
X322590Y47787D01*
X321970Y48262D01*
X321247Y48561D01*
X320472Y48663D01*
D02*
G37*
G36*
X441732Y47089D02*
X440957Y46987D01*
X440235Y46687D01*
X439615Y46212D01*
X439139Y45592D01*
X438840Y44869D01*
X438738Y44094D01*
X438840Y43319D01*
X439135Y42608D01*
X438349Y42005D01*
X437558Y40974D01*
X437141Y39968D01*
X436599D01*
X436182Y40974D01*
X435391Y42005D01*
X434360Y42797D01*
X433159Y43294D01*
X432370Y43398D01*
Y38484D01*
Y33571D01*
X433159Y33674D01*
X434360Y34172D01*
X435391Y34963D01*
X436182Y35994D01*
X436599Y37001D01*
X437141D01*
X437558Y35994D01*
X438349Y34963D01*
X439380Y34172D01*
X440581Y33674D01*
X441870Y33505D01*
X443159Y33674D01*
X444360Y34172D01*
X445391Y34963D01*
X446182Y35994D01*
X446433Y36599D01*
X446933Y36500D01*
Y33547D01*
X456807D01*
Y36547D01*
X457307Y36647D01*
X457577Y35994D01*
X458369Y34963D01*
X459400Y34172D01*
X460601Y33674D01*
X461890Y33505D01*
X463179Y33674D01*
X464380Y34172D01*
X465411Y34963D01*
X466202Y35994D01*
X466619Y37001D01*
X467160D01*
X467577Y35994D01*
X468369Y34963D01*
X469400Y34172D01*
X470601Y33674D01*
X471390Y33571D01*
Y38484D01*
Y43398D01*
X470601Y43294D01*
X469400Y42797D01*
X468369Y42005D01*
X467577Y40974D01*
X467160Y39968D01*
X466619D01*
X466202Y40974D01*
X465411Y42005D01*
X464380Y42797D01*
X463179Y43294D01*
X461890Y43464D01*
X460601Y43294D01*
X459400Y42797D01*
X458369Y42005D01*
X457577Y40974D01*
X457307Y40322D01*
X456807Y40421D01*
Y43421D01*
X446933D01*
Y40469D01*
X446433Y40369D01*
X446182Y40974D01*
X445391Y42005D01*
X444396Y42769D01*
X444624Y43319D01*
X444726Y44094D01*
X444624Y44869D01*
X444325Y45592D01*
X443849Y46212D01*
X443229Y46687D01*
X442507Y46987D01*
X441732Y47089D01*
D02*
G37*
G36*
X481890D02*
X481115Y46987D01*
X480393Y46687D01*
X479773Y46212D01*
X479297Y45592D01*
X478998Y44869D01*
X478896Y44094D01*
X478998Y43319D01*
X479259Y42689D01*
X478369Y42005D01*
X477577Y40974D01*
X477160Y39968D01*
X476619D01*
X476202Y40974D01*
X475411Y42005D01*
X474380Y42797D01*
X473179Y43294D01*
X472390Y43398D01*
Y38484D01*
Y33571D01*
X473179Y33674D01*
X474380Y34172D01*
X475411Y34963D01*
X476202Y35994D01*
X476619Y37001D01*
X477160D01*
X477577Y35994D01*
X478369Y34963D01*
X479400Y34172D01*
X480601Y33674D01*
X481890Y33505D01*
X483179Y33674D01*
X484380Y34172D01*
X485411Y34963D01*
X486202Y35994D01*
X486453Y36599D01*
X486953Y36500D01*
Y33547D01*
X496827D01*
Y43421D01*
X486953D01*
Y40469D01*
X486453Y40369D01*
X486202Y40974D01*
X485411Y42005D01*
X484520Y42689D01*
X484782Y43319D01*
X484884Y44094D01*
X484782Y44869D01*
X484483Y45592D01*
X484007Y46212D01*
X483387Y46687D01*
X482665Y46987D01*
X481890Y47089D01*
D02*
G37*
G36*
X224095Y43562D02*
X222806Y43393D01*
X221605Y42895D01*
X220573Y42104D01*
X219782Y41072D01*
X219285Y39871D01*
X219115Y38583D01*
X219285Y37294D01*
X219782Y36093D01*
X220573Y35062D01*
X221605Y34270D01*
X222806Y33773D01*
X224095Y33603D01*
X225383Y33773D01*
X226584Y34270D01*
X227616Y35062D01*
X228407Y36093D01*
X228824Y37099D01*
X229365D01*
X229782Y36093D01*
X230573Y35062D01*
X231605Y34270D01*
X232806Y33773D01*
X233594Y33669D01*
Y38583D01*
Y43497D01*
X232806Y43393D01*
X231605Y42895D01*
X230573Y42104D01*
X229782Y41072D01*
X229365Y40066D01*
X228824D01*
X228407Y41072D01*
X227616Y42104D01*
X226584Y42895D01*
X225383Y43393D01*
X224095Y43562D01*
D02*
G37*
G36*
X183307D02*
X182018Y43393D01*
X180817Y42895D01*
X179786Y42104D01*
X178995Y41072D01*
X178497Y39871D01*
X178328Y38583D01*
X178497Y37294D01*
X178995Y36093D01*
X179786Y35062D01*
X180817Y34270D01*
X182018Y33773D01*
X183307Y33603D01*
X184596Y33773D01*
X185797Y34270D01*
X186828Y35062D01*
X187620Y36093D01*
X188037Y37099D01*
X188578D01*
X188995Y36093D01*
X189786Y35062D01*
X190817Y34270D01*
X192018Y33773D01*
X192807Y33669D01*
Y38583D01*
Y43497D01*
X192018Y43393D01*
X190817Y42895D01*
X189786Y42104D01*
X188995Y41072D01*
X188578Y40066D01*
X188037D01*
X187620Y41072D01*
X186828Y42104D01*
X185797Y42895D01*
X184596Y43393D01*
X183307Y43562D01*
D02*
G37*
G36*
X142598D02*
X141310Y43393D01*
X140109Y42895D01*
X139077Y42104D01*
X138286Y41072D01*
X137788Y39871D01*
X137619Y38583D01*
X137788Y37294D01*
X138286Y36093D01*
X139077Y35062D01*
X140109Y34270D01*
X141310Y33773D01*
X142598Y33603D01*
X143887Y33773D01*
X145088Y34270D01*
X146120Y35062D01*
X146911Y36093D01*
X147328Y37099D01*
X147869D01*
X148286Y36093D01*
X149077Y35062D01*
X150109Y34270D01*
X151310Y33773D01*
X152098Y33669D01*
Y38583D01*
Y43497D01*
X151310Y43393D01*
X150109Y42895D01*
X149077Y42104D01*
X148286Y41072D01*
X147869Y40066D01*
X147328D01*
X146911Y41072D01*
X146120Y42104D01*
X145088Y42895D01*
X143887Y43393D01*
X142598Y43562D01*
D02*
G37*
G36*
X300079D02*
X298790Y43393D01*
X297589Y42895D01*
X296558Y42104D01*
X295766Y41072D01*
X295269Y39871D01*
X295099Y38583D01*
X295269Y37294D01*
X295766Y36093D01*
X296558Y35062D01*
X297589Y34270D01*
X298790Y33773D01*
X300079Y33603D01*
X301368Y33773D01*
X302569Y34270D01*
X303600Y35062D01*
X304391Y36093D01*
X304808Y37099D01*
X305349D01*
X305766Y36093D01*
X306558Y35062D01*
X307589Y34270D01*
X308790Y33773D01*
X309579Y33669D01*
Y38583D01*
Y43497D01*
X308790Y43393D01*
X307589Y42895D01*
X306558Y42104D01*
X305766Y41072D01*
X305349Y40066D01*
X304808D01*
X304391Y41072D01*
X303600Y42104D01*
X302569Y42895D01*
X301368Y43393D01*
X300079Y43562D01*
D02*
G37*
G36*
X101890D02*
X100601Y43393D01*
X99400Y42895D01*
X98369Y42104D01*
X97577Y41072D01*
X97080Y39871D01*
X96910Y38583D01*
X97080Y37294D01*
X97577Y36093D01*
X98369Y35062D01*
X99400Y34270D01*
X100601Y33773D01*
X101890Y33603D01*
X103179Y33773D01*
X104380Y34270D01*
X105411Y35062D01*
X106202Y36093D01*
X106619Y37099D01*
X107160D01*
X107577Y36093D01*
X108369Y35062D01*
X109400Y34270D01*
X110601Y33773D01*
X111390Y33669D01*
Y38583D01*
Y43497D01*
X110601Y43393D01*
X109400Y42895D01*
X108369Y42104D01*
X107577Y41072D01*
X107160Y40066D01*
X106619D01*
X106202Y41072D01*
X105411Y42104D01*
X104380Y42895D01*
X103179Y43393D01*
X101890Y43562D01*
D02*
G37*
G36*
X340630D02*
X339341Y43393D01*
X338140Y42895D01*
X337109Y42104D01*
X336317Y41072D01*
X335820Y39871D01*
X335650Y38583D01*
X335820Y37294D01*
X336317Y36093D01*
X337109Y35062D01*
X338140Y34270D01*
X339341Y33773D01*
X340630Y33603D01*
X341919Y33773D01*
X343120Y34270D01*
X344151Y35062D01*
X344942Y36093D01*
X345359Y37099D01*
X345901D01*
X346318Y36093D01*
X347109Y35062D01*
X348140Y34270D01*
X349341Y33773D01*
X350130Y33669D01*
Y38583D01*
Y43497D01*
X349341Y43393D01*
X348140Y42895D01*
X347109Y42104D01*
X346318Y41072D01*
X345901Y40066D01*
X345359D01*
X344942Y41072D01*
X344151Y42104D01*
X343120Y42895D01*
X341919Y43393D01*
X340630Y43562D01*
D02*
G37*
G36*
X381181D02*
X379892Y43393D01*
X378691Y42895D01*
X377660Y42104D01*
X376869Y41072D01*
X376371Y39871D01*
X376202Y38583D01*
X376371Y37294D01*
X376869Y36093D01*
X377660Y35062D01*
X378691Y34270D01*
X379892Y33773D01*
X381181Y33603D01*
X382470Y33773D01*
X383671Y34270D01*
X384702Y35062D01*
X385494Y36093D01*
X385911Y37099D01*
X386452D01*
X386869Y36093D01*
X387660Y35062D01*
X388691Y34270D01*
X389892Y33773D01*
X390681Y33669D01*
Y38583D01*
Y43497D01*
X389892Y43393D01*
X388691Y42895D01*
X387660Y42104D01*
X386869Y41072D01*
X386452Y40066D01*
X385911D01*
X385494Y41072D01*
X384702Y42104D01*
X383671Y42895D01*
X382470Y43393D01*
X381181Y43562D01*
D02*
G37*
G36*
X421870Y43464D02*
X420581Y43294D01*
X419380Y42797D01*
X418349Y42005D01*
X417558Y40974D01*
X417060Y39773D01*
X416890Y38484D01*
X417060Y37195D01*
X417558Y35994D01*
X418349Y34963D01*
X419380Y34172D01*
X420581Y33674D01*
X421870Y33505D01*
X423159Y33674D01*
X424360Y34172D01*
X425391Y34963D01*
X426183Y35994D01*
X426600Y37001D01*
X427141D01*
X427558Y35994D01*
X428349Y34963D01*
X429380Y34172D01*
X430581Y33674D01*
X431370Y33571D01*
Y38484D01*
Y43398D01*
X430581Y43294D01*
X429380Y42797D01*
X428349Y42005D01*
X427558Y40974D01*
X427141Y39968D01*
X426600D01*
X426183Y40974D01*
X425391Y42005D01*
X424360Y42797D01*
X423159Y43294D01*
X421870Y43464D01*
D02*
G37*
%LPD*%
D13*
X310047Y245087D02*
Y245278D01*
X309842Y244882D02*
X310047Y245087D01*
X496457Y244488D02*
X497039D01*
X497316Y244765D01*
D66*
X335825Y314961D02*
X340157Y310629D01*
X295276Y314961D02*
X335825D01*
X422047Y302362D02*
X454331D01*
X409055Y315354D02*
X422047Y302362D01*
X305906Y321654D02*
X346457D01*
X304331Y320079D02*
X305906Y321654D01*
X411024D02*
X418110Y314567D01*
X346457Y321654D02*
X411024D01*
X420929Y311748D02*
X453543D01*
X418110Y314567D02*
X420929Y311748D01*
X504787D02*
X562205Y254331D01*
X453543Y311748D02*
X504787D01*
D68*
X471890Y38484D02*
D03*
X431870D02*
D03*
X391181Y38583D02*
D03*
X350630D02*
D03*
X310079D02*
D03*
X111890D02*
D03*
X152598D02*
D03*
X193307D02*
D03*
X234095D02*
D03*
D70*
X529134Y139370D02*
D03*
D76*
X209409Y114449D02*
D03*
D77*
X199409D02*
D03*
X149409D02*
D03*
X139409Y83189D02*
D03*
X199409D02*
D03*
X422165Y137205D02*
D03*
Y87205D02*
D03*
X453425Y77205D02*
D03*
Y137205D02*
D03*
X367205Y87598D02*
D03*
D80*
X422165Y147205D02*
D03*
X367205Y77598D02*
D03*
D84*
X194095Y318898D02*
D03*
X87008Y471260D02*
D03*
X17323Y64567D02*
D03*
X26378Y66535D02*
D03*
X17717Y105118D02*
D03*
X27165Y107480D02*
D03*
X17717Y144488D02*
D03*
X25984Y147244D02*
D03*
X28346Y187795D02*
D03*
X18504Y187008D02*
D03*
X85433Y479921D02*
D03*
X122835Y481496D02*
D03*
X124016Y472835D02*
D03*
X248819Y470866D02*
D03*
X247638Y483071D02*
D03*
X211024Y472047D02*
D03*
X203839Y482776D02*
D03*
X169685Y472047D02*
D03*
X167323Y483071D02*
D03*
X538189Y187795D02*
D03*
X515993Y201820D02*
D03*
X592520Y234646D02*
D03*
X203543Y227559D02*
D03*
X462247Y245317D02*
D03*
X257343Y228603D02*
D03*
X266756Y246063D02*
D03*
X310047Y245278D02*
D03*
X196457Y246063D02*
D03*
X202362Y170079D02*
D03*
X453937Y228740D02*
D03*
X486221Y229528D02*
D03*
X497316Y244765D02*
D03*
X507480Y200394D02*
D03*
X172850Y180709D02*
D03*
X173228Y186614D02*
D03*
X206693Y183071D02*
D03*
X245669Y180709D02*
D03*
X279506Y182655D02*
D03*
X285827Y170472D02*
D03*
X288189Y246063D02*
D03*
X407874Y363779D02*
D03*
X403543Y376772D02*
D03*
X374016D02*
D03*
X377953Y385433D02*
D03*
X269685Y367323D02*
D03*
X265354Y379134D02*
D03*
X231890Y377165D02*
D03*
X232283Y387402D02*
D03*
X198031Y324803D02*
D03*
X231496Y314961D02*
D03*
X340157Y310629D02*
D03*
X295276Y314961D02*
D03*
X409055Y315354D02*
D03*
X454331Y302362D02*
D03*
X346457Y321654D02*
D03*
X304331Y320079D02*
D03*
X418110Y314567D02*
D03*
X453543Y311748D02*
D03*
X562205Y254331D02*
D03*
M02*
