M48
;Layer_Color=9474304
;FILE_FORMAT=2:5
INCH,LZ
;TYPE=PLATED
T1F00S00C0.01968
T2F00S00C0.02362
T3F00S00C0.02800
T4F00S00C0.02874
T5F00S00C0.03307
T6F00S00C0.03504
T7F00S00C0.03543
T8F00S00C0.03937
T9F00S00C0.04016
T10F00S00C0.04724
T11F00S00C0.06181
T12F00S00C0.06693
T13F00S00C0.12795
;TYPE=NON_PLATED
T14F00S00C0.03937
T15F00S00C0.05000
T16F00S00C0.16700
%
T01
X0017323Y0064567
X0026378Y0066535
X0032677Y005
X0032283Y0090551
X0027165Y010748
X0017717Y0105118
Y0144488
X0025984Y0147244
X0123013Y0043523
X0146315Y0057874
X0162598Y0043701
X020315
X0244094Y0044488
X0224016Y0073622
X0178347Y0075197
X0175197Y01
X0181102Y0132677
X0221654Y0125591
X0255118Y0153543
X0372835Y0147638
X038937Y0087008
X0401181Y0044882
X0441732Y0044094
X044652Y0057926
X0360236Y0045669
X0320472
X0312992Y0077165
X048189Y0044094
X0475591Y0136614
X0474016Y0151969
X0512992Y0144488
X0558268Y014685
X057126Y0147244
X0577559Y0098032
X0573622Y0216929
X059252Y0234646
X0594488Y0244094
X0562205Y0254331
X0497316Y0244765
X0486221Y0229528
X049252Y0209842
X050748Y0200394
X0515993Y020182
X0531453Y0194311
X0538189Y0187795
X0530953Y0181311
X0508661Y0163779
X049685Y0170866
X0478346Y0175591
X0470866Y0168504
X0484953Y0188811
X0478517Y0305483
X0454331Y0302362
X0453543Y0311748
X0457086Y0282283
X0434Y02875
X04345Y0297
X0413779Y028307
X0403543Y0286221
X0419Y02715
X0388976Y0249606
X0362874Y025374
X03545Y02755
X03525Y0285
X0340157Y0310629
X0324Y0305
X0325813Y0296391
X031811Y0266142
X032441Y0170079
X0427638Y0211107
X0462205Y0210236
X0453937Y022874
X0462247Y0245317
X0393Y03075
X0296457Y0301181
X0296Y0285
X0298Y0276
X0288189Y0246063
X0266756
X027Y0254547
X0266047Y0262453
X0248819Y0252791
X024261Y025783
X0238342Y0260312
X0214173Y0259055
X0196457Y0246063
X0180812Y0245382
X0160128Y0246203
X0177764Y0211107
X0177953Y0201969
X0173228Y0186614
X017285Y0180709
X0164173Y0175591
X017285Y01655
X0202362Y0170079
X0214567Y017126
X0206693Y0183071
X0215748Y0199213
X0196514Y0210961
X0203543Y0227559
X0237606Y0211107
X0248425Y0200394
X0245669Y0180709
X0245Y01655
X0232283Y0173594
X0279506Y0182655
X0285827Y0170472
X0288402Y021063
X0265953Y0211107
X0257343Y0228603
X0310047Y0245278
X0310236Y0206693
X0255Y03075
X0241732Y0306299
X0192Y03
X0136912Y0245374
X0133669Y0211107
X0152567
X004685Y0172047
X0028346Y0187795
X0018504Y0187008
X0194095Y0318898
X0198031Y0324803
X0218504
X0231496Y0314961
X02305Y0362
X023189Y0377165
X0232283Y0387402
X0252362Y0385827
X0265354Y0379134
X0269685Y0367323
X0281496Y0379921
X0283858Y0323622
X0284252Y0314961
X0295276
X0304331Y0320079
X0307Y0414
X0306Y04225
X03Y0453
X02785Y04675
X0359Y04685
X03675Y0468
X04055Y04585
X0447Y0468
X041063Y0387008
X0395669Y0385827
X0403543Y0376772
X0407874Y0363779
X0408661Y0326772
X0409055Y0315354
X041811Y0314567
X0398031Y0316717
X0365Y0315
X0363851Y0329881
X0346457Y0321654
X0345276Y0341339
X03695Y0359
X0374016Y0376772
X0377953Y0385433
X0375984Y040315
X0484Y04375
X04775Y0445
X05Y04635
X0574Y0433
X05635Y03955
X0575Y03525
X0477262Y0319818
X05435Y04745
X03215Y04845
X0247638Y0483071
X0248819Y0470866
X0211024Y0472047
X0203839Y0482776
X0167323Y0483071
X0169685Y0472047
X0124016Y0472835
X0122835Y0481496
X0085433Y0479921
X0087008Y047126
T02
X0573551Y0224449
Y0234449
Y0244449
Y0254449
T03
X0467323Y0184252
X0463453Y0194811
X04605Y04745
T04
X0139409Y0083189
X0149409
Y0114449
X0139409
X0159409
X0169409
X0179409
X0189409
X0199409
X0209409
Y0083189
X0199409
X0189409
X0179409
X0169409
X0159409
X0335945Y0087598
Y0097598
Y0107598
Y0117598
Y0127598
Y0137598
Y0147598
X0367205
Y0137598
Y0127598
Y0117598
Y0107598
Y0097598
Y0087598
Y0077598
X0335945
X0422165Y0077205
Y0087205
Y0097205
Y0107205
Y0117205
Y0127205
Y0137205
Y0147205
X0453425
Y0137205
Y0127205
Y0117205
Y0107205
Y0097205
Y0087205
Y0077205
T05
X0337804Y0228193
X0109063
T06
X0308906Y04645
X0316937
X0324969
X0333
X0396984Y0464492
X0405016
X0413047
X0421079
X0570992Y0403547
Y0395516
Y0387484
Y0379453
X0578Y0383469
Y03915
Y0399532
Y0407563
X0516079Y0470992
X0508047
X0500016
X0491984
X0496Y0478
X0504032
X0512063
X0487968
X0417063Y04715
X0409031
X0401
X0392969
X0328984Y0471508
X0320953
X0312921
X030489
T07
X0529134Y0129528
Y013937
Y0149213
T08
X0239606Y015315
X0249606
X0471654Y0283465
X0481653
X0397795Y0286221
X0387795
X0365Y0295
X0355
X031811Y0169685
X030811
X0215512Y019252
X0205512
X0207087Y0259055
X0197087
X0197874Y0280315
X0207874
X0241339Y028937
Y029937
X0282126Y0301181
X0292126
X0154488Y0186221
X0144488
X0114173Y018937
X0104173
X0082284Y0188583
X0072284
X0242362Y0405118
X0252362
X027126Y0386221
X028126
X0329528Y0341339
X0339528
X0359291Y0403543
X0369291
X0417717Y0387402
Y0377402
T09
X0008575Y0039961
X0008555Y005
Y0059941
X0008575Y0069961
Y0080807
X0008555Y0090847
Y0100787
X0008575Y0110807
X00085Y0121441
X000848Y013148
Y0141421
X00085Y0151441
X00385
Y0141441
Y0131441
Y0121441
X0038575Y0110807
Y0100807
Y0090807
Y0080807
Y0069961
Y0059961
Y0049961
Y0039961
X010189Y0038583
X011189
X012189
X013189
X0142598
X0152598
X0152618Y0008563
X0142598Y0008583
X013189
X012185Y0008563
X0111909
X010189Y0008583
X0162559Y0008563
X0172598Y0008583
X0183307
X0193327Y0008563
X0203268
X0213307Y0008583
X0224095
X0234114Y0008563
X0244055
X0254095Y0008583
Y0038583
X0244094
X0234095
X0224095
X0213307
X0203307
X0193307
X0183307
X0172598
X0162598
X0300079
X0310079
X0310098Y0008563
X0300079Y0008583
X0320039Y0008563
X0330079Y0008583
X034063
X035065Y0008563
X0360591
X037063Y0008583
X0381181
X0391201Y0008563
X0401142
X0411181Y0008583
X042187Y0008484
X043189Y0008465
X0441831
X045187Y0008484
X046189
Y0038484
X045187
X044187
X043187
X042187
X0411181Y0038583
X0401181
X0391181
X0381181
X037063
X036063
X035063
X034063
X0330079
X0320079
X047189Y0038484
X048189
X049189
Y0008484
X048185Y0008465
X047191
X003852Y0161902
Y0171902
Y0181902
Y0191902
X000852
X00085Y0181882
Y0171941
X000852Y0161902
X006202Y046148
X007202
X008202
X009202
X010252
X011252
X012252
X013252
X01425Y04615
X01525
X01625
X01725
X018302Y046148
X019302
X020302
X021302
X0223461
X0233461
X0243461
X0253461
Y049148
X0243441Y04915
X02335
X0223461Y049148
X021302
X0203Y04915
X0193059
X018302Y049148
X01725Y04915
X016248Y049152
X0152539
X01425Y04915
X013252Y049148
X01225Y04915
X0112559
X010252Y049148
X009202
X0082Y04915
X0072059
X006202Y049148
T10
X0577953Y0069685
Y008937
T11
X0035433Y0298425
X009685
X0093071Y0348661
X0139764Y0348425
X0140551Y0394882
X0091339
X0036614
X0036063Y0347008
X0286976Y0468004
X0350992
X0375055Y0467996
X0439071
X0574496Y0425476
Y0361461
X0534071Y0474496
X0470055
T12
X0025433Y0288425
X0045433
Y0308425
X0025433
X008685
Y0288425
X010685
Y0308425
X0103071Y0338661
X0083071
Y0358661
X0103071
X0129764Y0358425
Y0338425
X0149764
Y0358425
X0150551Y0384882
X0130551
Y0404882
X0150551
X0101339
Y0384882
X0081339
Y0404882
X0046614
Y0384882
X0026614
Y0404882
X0026063Y0357008
Y0337008
X0046063
Y0357008
T13
X0588Y0368468
Y0418469
X0527063Y0488
X0477063
X0432063Y04815
X0382063
X0343984Y0481508
X0293984
T14
X057874Y012874
X0578346Y0146063
T15
X0502835Y0234098
X0399685Y0228193
X0328552Y0234098
X0118315Y0228193
T16
X0018087Y00174
X0580587
X0583087Y04824
X0018087
M30
