G04*
G04 #@! TF.GenerationSoftware,Altium Limited,Altium Designer,20.1.8 (145)*
G04*
G04 Layer_Color=65535*
%FSLAX25Y25*%
%MOIN*%
G70*
G04*
G04 #@! TF.SameCoordinates,44B5AA11-E380-4430-9A95-22E2941CD606*
G04*
G04*
G04 #@! TF.FilePolarity,Positive*
G04*
G01*
G75*
%ADD10C,0.02126*%
%ADD11C,0.00787*%
%ADD12C,0.01732*%
%ADD13C,0.01968*%
%ADD14C,0.01787*%
%ADD15C,0.00984*%
%ADD16C,0.01000*%
%ADD17C,0.02000*%
%ADD18C,0.00394*%
%ADD19R,0.02362X0.06299*%
G36*
X418341Y447465D02*
Y446665D01*
Y445865D01*
Y445065D01*
X415941D01*
Y444265D01*
X415141D01*
Y443465D01*
Y442665D01*
Y441865D01*
Y441065D01*
X414341D01*
Y440265D01*
Y439465D01*
Y438665D01*
Y437865D01*
X413541D01*
Y437065D01*
Y436265D01*
Y435465D01*
Y434665D01*
X412741D01*
Y433865D01*
Y433065D01*
Y432265D01*
X411941D01*
Y431465D01*
Y430665D01*
Y429865D01*
X407141D01*
Y430665D01*
Y431465D01*
Y432265D01*
Y433065D01*
X406341D01*
Y433865D01*
Y434665D01*
Y435465D01*
Y436265D01*
X405541D01*
Y437065D01*
Y437865D01*
Y438665D01*
Y439465D01*
X403941D01*
Y438665D01*
Y437865D01*
Y437065D01*
X403141D01*
Y436265D01*
Y435465D01*
Y434665D01*
Y433865D01*
X402341D01*
Y433065D01*
Y432265D01*
Y431465D01*
Y430665D01*
X401541D01*
Y429865D01*
X397541D01*
Y430665D01*
Y431465D01*
X396741D01*
Y432265D01*
Y433065D01*
Y433865D01*
Y434665D01*
X395941D01*
Y435465D01*
Y436265D01*
Y437065D01*
Y437865D01*
X395141D01*
Y438665D01*
Y439465D01*
Y440265D01*
Y441065D01*
X394341D01*
Y441865D01*
Y442665D01*
Y443465D01*
Y444265D01*
X393541D01*
Y445065D01*
X391141D01*
Y445865D01*
Y446665D01*
Y447465D01*
Y448265D01*
X400741D01*
Y447465D01*
Y446665D01*
Y445865D01*
Y445065D01*
X398341D01*
Y444265D01*
Y443465D01*
Y442665D01*
Y441865D01*
X399141D01*
Y441065D01*
Y440265D01*
Y439465D01*
Y438665D01*
X399941D01*
Y437865D01*
Y437065D01*
Y436265D01*
Y435465D01*
X401541D01*
Y436265D01*
Y437065D01*
Y437865D01*
X402341D01*
Y438665D01*
Y439465D01*
Y440265D01*
Y441065D01*
X403141D01*
Y441865D01*
Y442665D01*
Y443465D01*
X403941D01*
Y444265D01*
Y445065D01*
Y445865D01*
Y446665D01*
X404741D01*
Y447465D01*
Y448265D01*
X407141D01*
Y447465D01*
Y446665D01*
X407941D01*
Y445865D01*
Y445065D01*
Y444265D01*
Y443465D01*
X408741D01*
Y442665D01*
Y441865D01*
Y441065D01*
Y440265D01*
X409541D01*
Y439465D01*
Y438665D01*
Y437865D01*
Y437065D01*
X410341D01*
Y436265D01*
Y435465D01*
X411941D01*
Y436265D01*
Y437065D01*
Y437865D01*
Y438665D01*
Y439465D01*
X412741D01*
Y440265D01*
Y441065D01*
Y441865D01*
X413541D01*
Y442665D01*
Y443465D01*
Y444265D01*
Y445065D01*
X411141D01*
Y445865D01*
X411941D01*
Y446665D01*
Y447465D01*
Y448265D01*
X418341D01*
Y447465D01*
D02*
G37*
D10*
X47378Y161016D02*
G03*
X47378Y161016I-1181J0D01*
G01*
X493957Y46161D02*
G03*
X493957Y46161I-1181J0D01*
G01*
X453937D02*
G03*
X453937Y46161I-1181J0D01*
G01*
X413248Y46260D02*
G03*
X413248Y46260I-1181J0D01*
G01*
X372697D02*
G03*
X372697Y46260I-1181J0D01*
G01*
X332146D02*
G03*
X332146Y46260I-1181J0D01*
G01*
X133957D02*
G03*
X133957Y46260I-1181J0D01*
G01*
X174665D02*
G03*
X174665Y46260I-1181J0D01*
G01*
X215374D02*
G03*
X215374Y46260I-1181J0D01*
G01*
X256161D02*
G03*
X256161Y46260I-1181J0D01*
G01*
X223756Y453803D02*
G03*
X223756Y453803I-1181J0D01*
G01*
X102815D02*
G03*
X102815Y453803I-1181J0D01*
G01*
X142795Y453823D02*
G03*
X142795Y453823I-1181J0D01*
G01*
X62315Y453803D02*
G03*
X62315Y453803I-1181J0D01*
G01*
X183315D02*
G03*
X183315Y453803I-1181J0D01*
G01*
X47433Y79921D02*
G03*
X47433Y79921I-1181J0D01*
G01*
X47358Y120555D02*
G03*
X47358Y120555I-1181J0D01*
G01*
X47433Y39075D02*
G03*
X47433Y39075I-1181J0D01*
G01*
D11*
X15114Y156902D02*
G03*
X20114Y156902I2500J155512D01*
G01*
X387817Y376500D02*
G03*
X390317Y376500I1250J0D01*
G01*
X190317Y183000D02*
G03*
X192817Y183000I1250J0D01*
G01*
X264317D02*
G03*
X266817Y183000I1250J0D01*
G01*
X249317Y379500D02*
G03*
X251817Y379500I1250J0D01*
G01*
X211183Y317500D02*
G03*
X213683Y317500I1250J0D01*
G01*
X433413Y312500D02*
G03*
X438413Y312500I2500J0D01*
G01*
X319413Y320000D02*
G03*
X324413Y320000I2500J0D01*
G01*
X496890Y15079D02*
G03*
X496890Y20079I-155512J2500D01*
G01*
X456870Y15079D02*
G03*
X456870Y20079I-155512J2500D01*
G01*
X416181Y15177D02*
G03*
X416181Y20177I-155512J2500D01*
G01*
X375630Y15177D02*
G03*
X375630Y20177I-155512J2500D01*
G01*
X335079Y15177D02*
G03*
X335079Y20177I-155512J2500D01*
G01*
X136890Y15177D02*
G03*
X136890Y20177I-155512J2500D01*
G01*
X177598Y15177D02*
G03*
X177598Y20177I-155512J2500D01*
G01*
X218307Y15177D02*
G03*
X218307Y20177I-155512J2500D01*
G01*
X259095Y15177D02*
G03*
X259095Y20177I-155512J2500D01*
G01*
X218461Y484886D02*
G03*
X218461Y479886I155512J-2500D01*
G01*
X97520Y484886D02*
G03*
X97520Y479886I155512J-2500D01*
G01*
X137500Y484905D02*
G03*
X137500Y479906I155512J-2500D01*
G01*
X57020Y484886D02*
G03*
X57020Y479886I155512J-2500D01*
G01*
X178020Y484886D02*
G03*
X178020Y479886I155512J-2500D01*
G01*
X15169Y75807D02*
G03*
X20169Y75807I2500J155512D01*
G01*
X15094Y116441D02*
G03*
X20095Y116441I2500J155512D01*
G01*
X15169Y34961D02*
G03*
X20169Y34961I2500J155512D01*
G01*
X429Y196902D02*
X49347D01*
X429Y190105D02*
Y196902D01*
X49347Y156902D02*
Y170839D01*
Y182965D02*
Y196902D01*
X429Y177098D02*
Y186355D01*
Y171587D02*
Y177098D01*
Y156902D02*
Y171587D01*
Y186355D02*
Y190105D01*
X49347Y170839D02*
Y182965D01*
X429Y156902D02*
X27791D01*
X26020D02*
X49347D01*
X20114Y152945D02*
Y156902D01*
X20114Y148811D02*
Y152945D01*
X15587Y148811D02*
X20114D01*
X15587D02*
Y150779D01*
X15685Y150878D01*
X18244D01*
X18146Y150976D02*
X18244Y150878D01*
X18146Y150976D02*
Y156685D01*
X412716Y372402D02*
Y392402D01*
X422717D01*
Y374402D02*
Y392402D01*
X420716Y372402D02*
X422717Y374402D01*
X412716Y372402D02*
X420716D01*
X382795Y291220D02*
X402795D01*
Y281221D02*
Y291220D01*
X384795Y281221D02*
X402795D01*
X382795Y283221D02*
X384795Y281221D01*
X382795Y283221D02*
Y291220D01*
X139488Y191220D02*
X159488D01*
Y181220D02*
Y191220D01*
X141488Y181220D02*
X159488D01*
X139488Y183221D02*
X141488Y181220D01*
X139488Y183221D02*
Y191220D01*
X200512Y197520D02*
X220512D01*
Y187520D02*
Y197520D01*
X202512Y187520D02*
X220512D01*
X200512Y189520D02*
X202512Y187520D01*
X200512Y189520D02*
Y197520D01*
X541638Y182264D02*
Y195081D01*
Y182264D02*
X571559D01*
Y202736D01*
X541638D02*
X571559D01*
X541638Y195081D02*
Y202736D01*
X192874Y285315D02*
X212874D01*
Y275315D02*
Y285315D01*
X194874Y275315D02*
X212874D01*
X192874Y277315D02*
X194874Y275315D01*
X192874Y277315D02*
Y285315D01*
X323228Y74803D02*
Y80315D01*
X140551Y67323D02*
X146063D01*
X215748Y71653D02*
Y77165D01*
X381331Y356500D02*
Y376500D01*
Y356500D02*
X396803D01*
Y376500D01*
X390317D02*
X396803D01*
X381331D02*
X387817D01*
X242520Y383858D02*
Y389370D01*
X175591Y192126D02*
X181102D01*
X183831Y163000D02*
Y183000D01*
Y163000D02*
X199303D01*
Y183000D01*
X192817D02*
X199303D01*
X183831D02*
X190317D01*
X257831D02*
X264317D01*
X266817D02*
X273303D01*
Y163000D02*
Y183000D01*
X257831Y163000D02*
X273303D01*
X257831D02*
Y183000D01*
X234606Y158150D02*
X254606D01*
Y148150D02*
Y158150D01*
X236606Y148150D02*
X254606D01*
X234606Y150150D02*
X236606Y148150D01*
X234606Y150150D02*
Y158150D01*
X242831Y379500D02*
X249317D01*
X251817D02*
X258303D01*
Y359500D02*
Y379500D01*
X242831Y359500D02*
X258303D01*
X242831D02*
Y379500D01*
X204697Y317500D02*
X211183D01*
X213683D02*
X220169D01*
Y297500D02*
Y317500D01*
X204697Y297500D02*
X220169D01*
X204697D02*
Y317500D01*
X425913Y272500D02*
Y312500D01*
Y272500D02*
X445913D01*
Y312500D01*
X438413D02*
X445913D01*
X425913D02*
X433413D01*
X311913Y280000D02*
Y320000D01*
Y280000D02*
X331913D01*
Y320000D01*
X324413D02*
X331913D01*
X311913D02*
X319413D01*
X557283Y99213D02*
X598622D01*
X557283Y59842D02*
Y99213D01*
X598622Y59842D02*
Y99213D01*
X557283Y59842D02*
X598622D01*
X497106Y18110D02*
X502815D01*
Y18110D02*
X502913Y18209D01*
Y15650D02*
Y18209D01*
Y15650D02*
X503012Y15551D01*
X504980D01*
Y20079D01*
X500846D02*
X504980D01*
X496890Y20079D02*
X500846D01*
X496890Y25984D02*
Y49311D01*
Y394D02*
Y27756D01*
X470827Y49311D02*
X482953D01*
X463686Y394D02*
X467436D01*
X482205D02*
X496890D01*
X476693D02*
X482205D01*
X467436D02*
X476693D01*
X456890Y49311D02*
X470827D01*
X482953D02*
X496890D01*
X456890Y394D02*
X463686D01*
X456890D02*
Y49311D01*
X416870Y394D02*
Y49311D01*
Y394D02*
X423666D01*
X442933Y49311D02*
X456870D01*
X416870D02*
X430807D01*
X427416Y394D02*
X436673D01*
X442185D01*
X456870D01*
X423666D02*
X427416D01*
X430807Y49311D02*
X442933D01*
X456870Y394D02*
Y27756D01*
Y25984D02*
Y49311D01*
Y20079D02*
X460827D01*
Y20079D02*
X464961D01*
Y15551D02*
Y20079D01*
X462992Y15551D02*
X464961D01*
X462894Y15650D02*
X462992Y15551D01*
X462894Y15650D02*
Y18209D01*
X462795Y18110D02*
X462894Y18209D01*
X457087Y18110D02*
X462795D01*
X416398Y18209D02*
X422106D01*
Y18209D02*
X422205Y18307D01*
Y15748D02*
Y18307D01*
Y15748D02*
X422303Y15650D01*
X424272D01*
Y20177D01*
X420138D02*
X424272D01*
X416181Y20177D02*
X420138D01*
X416181Y26083D02*
Y49409D01*
Y492D02*
Y27854D01*
X390118Y49409D02*
X402244D01*
X382977Y492D02*
X386727D01*
X401496D02*
X416181D01*
X395984D02*
X401496D01*
X386727D02*
X395984D01*
X376181Y49409D02*
X390118D01*
X402244D02*
X416181D01*
X376181Y492D02*
X382977D01*
X376181D02*
Y49409D01*
X335630Y492D02*
Y49409D01*
Y492D02*
X342426D01*
X361693Y49409D02*
X375630D01*
X335630D02*
X349567D01*
X346176Y492D02*
X355433D01*
X360945D01*
X375630D01*
X342426D02*
X346176D01*
X349567Y49409D02*
X361693D01*
X375630Y492D02*
Y27854D01*
Y26083D02*
Y49409D01*
Y20177D02*
X379587D01*
Y20177D02*
X383720D01*
Y15650D02*
Y20177D01*
X381752Y15650D02*
X383720D01*
X381653Y15748D02*
X381752Y15650D01*
X381653Y15748D02*
Y18307D01*
X381555Y18209D02*
X381653Y18307D01*
X375847Y18209D02*
X381555D01*
X335295D02*
X341004D01*
Y18209D02*
X341102Y18307D01*
Y15748D02*
Y18307D01*
Y15748D02*
X341201Y15650D01*
X343169D01*
Y20177D01*
X339035D02*
X343169D01*
X335079Y20177D02*
X339035D01*
X335079Y26083D02*
Y49409D01*
Y492D02*
Y27854D01*
X309016Y49409D02*
X321142D01*
X301875Y492D02*
X305625D01*
X320394D02*
X335079D01*
X314882D02*
X320394D01*
X305625D02*
X314882D01*
X295079Y49409D02*
X309016D01*
X321142D02*
X335079D01*
X295079Y492D02*
X301875D01*
X295079D02*
Y49409D01*
X96890Y492D02*
Y49409D01*
Y492D02*
X103686D01*
X122953Y49409D02*
X136890D01*
X96890D02*
X110827D01*
X107436Y492D02*
X116693D01*
X122205D01*
X136890D01*
X103686D02*
X107436D01*
X110827Y49409D02*
X122953D01*
X136890Y492D02*
Y27854D01*
Y26083D02*
Y49409D01*
Y20177D02*
X140847D01*
Y20177D02*
X144980D01*
Y15650D02*
Y20177D01*
X143012Y15650D02*
X144980D01*
X142913Y15748D02*
X143012Y15650D01*
X142913Y15748D02*
Y18307D01*
X142815Y18209D02*
X142913Y18307D01*
X137106Y18209D02*
X142815D01*
X177815D02*
X183524D01*
Y18209D02*
X183622Y18307D01*
Y15748D02*
Y18307D01*
Y15748D02*
X183721Y15650D01*
X185689D01*
Y20177D01*
X181555D02*
X185689D01*
X177598Y20177D02*
X181555D01*
X177598Y26083D02*
Y49409D01*
Y492D02*
Y27854D01*
X151535Y49409D02*
X163661D01*
X144395Y492D02*
X148145D01*
X162913D02*
X177598D01*
X157402D02*
X162913D01*
X148145D02*
X157402D01*
X137598Y49409D02*
X151535D01*
X163661D02*
X177598D01*
X137598Y492D02*
X144395D01*
X137598D02*
Y49409D01*
X178307Y492D02*
Y49409D01*
Y492D02*
X185103D01*
X204370Y49409D02*
X218307D01*
X178307D02*
X192244D01*
X188853Y492D02*
X198110D01*
X203622D01*
X218307D01*
X185103D02*
X188853D01*
X192244Y49409D02*
X204370D01*
X218307Y492D02*
Y27854D01*
Y26083D02*
Y49409D01*
Y20177D02*
X222264D01*
Y20177D02*
X226398D01*
Y15650D02*
Y20177D01*
X224429Y15650D02*
X226398D01*
X224331Y15748D02*
X224429Y15650D01*
X224331Y15748D02*
Y18307D01*
X224232Y18209D02*
X224331Y18307D01*
X218524Y18209D02*
X224232D01*
X259311D02*
X265020D01*
Y18209D02*
X265118Y18307D01*
Y15748D02*
Y18307D01*
Y15748D02*
X265217Y15650D01*
X267185D01*
Y20177D01*
X263051D02*
X267185D01*
X259095Y20177D02*
X263051D01*
X259095Y26083D02*
Y49409D01*
Y492D02*
Y27854D01*
X233032Y49409D02*
X245158D01*
X225891Y492D02*
X229641D01*
X244409D02*
X259095D01*
X238898D02*
X244409D01*
X229641D02*
X238898D01*
X219094Y49409D02*
X233032D01*
X245158D02*
X259095D01*
X219094Y492D02*
X225891D01*
X219094D02*
Y49409D01*
X258461Y450654D02*
Y499571D01*
X251664D02*
X258461D01*
X218461Y450654D02*
X232398D01*
X244524D02*
X258461D01*
X238657Y499571D02*
X247914D01*
X233146D02*
X238657D01*
X218461D02*
X233146D01*
X247914D02*
X251664D01*
X232398Y450654D02*
X244524D01*
X218461Y472209D02*
Y499571D01*
Y450654D02*
Y473980D01*
X214504Y479886D02*
X218461D01*
X210370Y479886D02*
X214504D01*
X210370D02*
Y484413D01*
X212339D01*
X212437Y484315D01*
Y481756D02*
Y484315D01*
Y481756D02*
X212535Y481854D01*
Y481854D02*
X218244D01*
X91594D02*
X97303D01*
X91496Y481756D02*
X91594Y481854D01*
X91496Y481756D02*
Y484315D01*
X91398Y484413D02*
X91496Y484315D01*
X89429Y484413D02*
X91398D01*
X89429Y479886D02*
Y484413D01*
Y479886D02*
X93563D01*
Y479886D02*
X97520D01*
Y450654D02*
Y473980D01*
Y472209D02*
Y499571D01*
X111457Y450654D02*
X123583D01*
X126973Y499571D02*
X130723D01*
X97520D02*
X112205D01*
X117717D01*
X126973D01*
X123583Y450654D02*
X137520D01*
X97520D02*
X111457D01*
X130723Y499571D02*
X137520D01*
Y450654D02*
Y499571D01*
X177500Y450673D02*
Y499590D01*
X170704D02*
X177500D01*
X137500Y450673D02*
X151437D01*
X163563D02*
X177500D01*
X157697Y499590D02*
X166954D01*
X152185D02*
X157697D01*
X137500D02*
X152185D01*
X166954D02*
X170704D01*
X151437Y450673D02*
X163563D01*
X137500Y472228D02*
Y499590D01*
Y450673D02*
Y474000D01*
X133543Y479906D02*
X137500D01*
X129409Y479906D02*
X133543D01*
X129409D02*
Y484433D01*
X131378D01*
X131476Y484335D01*
Y481776D02*
Y484335D01*
Y481776D02*
X131575Y481874D01*
Y481874D02*
X137284D01*
X51095Y481854D02*
X56803D01*
X50996Y481756D02*
X51095Y481854D01*
X50996Y481756D02*
Y484315D01*
X50898Y484413D02*
X50996Y484315D01*
X48929Y484413D02*
X50898D01*
X48929Y479886D02*
Y484413D01*
Y479886D02*
X53063D01*
Y479886D02*
X57020D01*
Y450654D02*
Y473980D01*
Y472209D02*
Y499571D01*
X70957Y450654D02*
X83083D01*
X86473Y499571D02*
X90223D01*
X57020D02*
X71705D01*
X77217D01*
X86473D01*
X83083Y450654D02*
X97020D01*
X57020D02*
X70957D01*
X90223Y499571D02*
X97020D01*
Y450654D02*
Y499571D01*
X218020Y450654D02*
Y499571D01*
X211223D02*
X218020D01*
X178020Y450654D02*
X191957D01*
X204083D02*
X218020D01*
X198217Y499571D02*
X207473D01*
X192705D02*
X198217D01*
X178020D02*
X192705D01*
X207473D02*
X211223D01*
X191957Y450654D02*
X204083D01*
X178020Y472209D02*
Y499571D01*
Y450654D02*
Y473980D01*
X174063Y479886D02*
X178020D01*
X169929Y479886D02*
X174063D01*
X169929D02*
Y484413D01*
X171898D01*
X171996Y484315D01*
Y481756D02*
Y484315D01*
Y481756D02*
X172095Y481854D01*
Y481854D02*
X177803D01*
X484Y115807D02*
X49402D01*
X484Y109011D02*
Y115807D01*
X49402Y75807D02*
Y89744D01*
Y101870D02*
Y115807D01*
X484Y96004D02*
Y105261D01*
Y90492D02*
Y96004D01*
Y75807D02*
Y90492D01*
Y105261D02*
Y109011D01*
X49402Y89744D02*
Y101870D01*
X484Y75807D02*
X27847D01*
X26075D02*
X49402D01*
X20169Y71850D02*
Y75807D01*
X20169Y67716D02*
Y71850D01*
X15642Y67716D02*
X20169D01*
X15642D02*
Y69685D01*
X15740Y69784D01*
X18299D01*
X18201Y69882D02*
X18299Y69784D01*
X18201Y69882D02*
Y75591D01*
X18126Y110516D02*
Y116224D01*
X18126Y110516D02*
X18224Y110417D01*
X15665D02*
X18224D01*
X15567Y110319D02*
X15665Y110417D01*
X15567Y108350D02*
Y110319D01*
Y108350D02*
X20095D01*
Y112484D01*
X20095D02*
Y116441D01*
X26000D02*
X49327D01*
X410D02*
X27772D01*
X49327Y130378D02*
Y142504D01*
X410Y145895D02*
Y149645D01*
Y116441D02*
Y131126D01*
Y136638D01*
Y145895D01*
X49327Y142504D02*
Y156441D01*
Y116441D02*
Y130378D01*
X410Y149645D02*
Y156441D01*
X49327D01*
X484Y74961D02*
X49402D01*
X484Y68164D02*
Y74961D01*
X49402Y34961D02*
Y48898D01*
Y61024D02*
Y74961D01*
X484Y55158D02*
Y64414D01*
Y49646D02*
Y55158D01*
Y34961D02*
Y49646D01*
Y64414D02*
Y68164D01*
X49402Y48898D02*
Y61024D01*
X484Y34961D02*
X27847D01*
X26075D02*
X49402D01*
X20169Y31004D02*
Y34961D01*
X20169Y26870D02*
Y31004D01*
X15642Y26870D02*
X20169D01*
X15642D02*
Y28839D01*
X15740Y28937D01*
X18299D01*
X18201Y29035D02*
X18299Y28937D01*
X18201Y29035D02*
Y34744D01*
X469941Y293457D02*
Y296016D01*
Y293457D02*
X478750D01*
X469941Y296016D02*
Y300543D01*
X482539D01*
Y293457D02*
Y300543D01*
X478750Y293457D02*
X482539D01*
X466653Y288465D02*
X486654D01*
Y278465D02*
Y288465D01*
X468653Y278465D02*
X486654D01*
X466653Y280465D02*
X468653Y278465D01*
X466653Y280465D02*
Y288465D01*
X356000Y312244D02*
Y317756D01*
X352201Y301457D02*
Y304016D01*
Y301457D02*
X361010D01*
X352201Y304016D02*
Y308543D01*
X364799D01*
Y301457D02*
Y308543D01*
X361010Y301457D02*
X364799D01*
X350000Y300000D02*
X370000D01*
Y290000D02*
Y300000D01*
X352000Y290000D02*
X370000D01*
X350000Y292000D02*
X352000Y290000D01*
X350000Y292000D02*
Y300000D01*
X192087Y264055D02*
X212087D01*
Y254055D02*
Y264055D01*
X194087Y254055D02*
X212087D01*
X192087Y256055D02*
X194087Y254055D01*
X192087Y256055D02*
Y264055D01*
X236339Y284370D02*
Y304370D01*
X246339D01*
Y286370D02*
Y304370D01*
X244339Y284370D02*
X246339Y286370D01*
X236339Y284370D02*
X244339D01*
X277126Y306181D02*
X297126D01*
Y296181D02*
Y306181D01*
X279126Y296181D02*
X297126D01*
X277126Y298181D02*
X279126Y296181D01*
X277126Y298181D02*
Y306181D01*
X289512Y312744D02*
Y318256D01*
X465748Y133858D02*
Y139370D01*
X581890Y229528D02*
X587402D01*
X521453Y192055D02*
Y197567D01*
X520453Y178555D02*
Y184067D01*
X472953Y181055D02*
Y186567D01*
X478346Y162598D02*
X492126D01*
Y168898D01*
X478346D02*
X492126D01*
X478346Y163386D02*
Y166535D01*
Y168898D01*
Y162598D02*
Y163386D01*
X507874Y164764D02*
Y167323D01*
X499065D02*
X507874D01*
Y160236D02*
Y164764D01*
X495276Y160236D02*
X507874D01*
X495276D02*
Y167323D01*
X499065D01*
X555118Y118898D02*
X559842Y114173D01*
X555118Y118898D02*
Y160630D01*
X559842Y114173D02*
X570079D01*
X585039D02*
X599213D01*
X570079D02*
X585039D01*
X599213D02*
Y160630D01*
X555118D02*
X599213D01*
X386614Y383465D02*
Y388976D01*
X213169Y85827D02*
Y116673D01*
X135650Y85827D02*
Y111811D01*
X354291Y400543D02*
Y408543D01*
Y400543D02*
X356291Y398543D01*
X374291D01*
Y408543D01*
X354291D02*
X374291D01*
X468000Y313244D02*
Y318756D01*
X473453Y192555D02*
Y198067D01*
X237362Y402118D02*
Y410118D01*
Y402118D02*
X239362Y400118D01*
X257362D01*
Y410118D01*
X237362D02*
X257362D01*
X403012Y311744D02*
Y317256D01*
X324528Y338339D02*
Y346339D01*
Y338339D02*
X326528Y336339D01*
X344528D01*
Y346339D01*
X324528D02*
X344528D01*
X266260Y383221D02*
Y391220D01*
Y383221D02*
X268260Y381221D01*
X286260D01*
Y391220D01*
X266260D02*
X286260D01*
X575126Y216614D02*
X575520D01*
X579457Y220551D01*
X572823Y262677D02*
X576617D01*
X579457D01*
X557803D02*
X564437D01*
X557803Y216614D02*
X575520D01*
X557803D02*
Y262677D01*
X564437D02*
X572823D01*
X579457Y220551D02*
Y262677D01*
X582283Y249213D02*
X587795D01*
X419941Y150965D02*
X450787D01*
X424803Y73445D02*
X450787D01*
X99173Y186370D02*
Y194370D01*
Y186370D02*
X101173Y184370D01*
X119173D01*
Y194370D01*
X99173D02*
X119173D01*
X67283Y185583D02*
Y193583D01*
Y185583D02*
X69283Y183583D01*
X87283D01*
Y193583D01*
X67283D02*
X87283D01*
X309596Y339370D02*
X313386D01*
Y346457D01*
X300787D02*
X313386D01*
X300787Y341929D02*
Y346457D01*
Y339370D02*
X309596D01*
X300787D02*
Y341929D01*
X338583Y73839D02*
X369429D01*
X338583Y151358D02*
X364567D01*
X465354Y149213D02*
Y154724D01*
X208268Y322441D02*
Y327953D01*
X303110Y166685D02*
Y174685D01*
Y166685D02*
X305110Y164685D01*
X323110D01*
Y174685D01*
X303110D02*
X323110D01*
X378740Y84252D02*
Y89764D01*
X246063Y191339D02*
X251575D01*
X453543Y441732D02*
Y446455D01*
X455905D01*
X456692Y445668D01*
Y444094D01*
X455905Y443307D01*
X453543D01*
X455118D02*
X456692Y441732D01*
X459053Y444881D02*
X460628D01*
X461415Y444094D01*
Y441732D01*
X459053D01*
X458266Y442519D01*
X459053Y443307D01*
X461415D01*
X462989Y446455D02*
Y441732D01*
Y444094D01*
X463776Y444881D01*
X465350D01*
X466138Y444094D01*
Y441732D01*
X467712Y444881D02*
Y442519D01*
X468499Y441732D01*
X470860D01*
Y444881D01*
X472435Y441732D02*
X474009D01*
X473222D01*
Y446455D01*
X472435D01*
X481094Y441732D02*
Y446455D01*
X482668Y444881D01*
X484242Y446455D01*
Y441732D01*
X486603Y444881D02*
X488178D01*
X488965Y444094D01*
Y441732D01*
X486603D01*
X485816Y442519D01*
X486603Y443307D01*
X488965D01*
X490539Y441732D02*
X492113D01*
X491326D01*
Y446455D01*
X490539D01*
X494475Y441732D02*
X496049D01*
X495262D01*
Y446455D01*
X494475D01*
X498411Y441732D02*
X499985D01*
X499198D01*
Y444881D01*
X498411D01*
X502346Y441732D02*
Y446455D01*
Y443307D02*
X504708Y444881D01*
X502346Y443307D02*
X504708Y441732D01*
X421557Y430113D02*
Y434836D01*
X423131Y433262D01*
X424706Y434836D01*
Y430113D01*
X426280Y434836D02*
Y431688D01*
X427854Y430113D01*
X429428Y431688D01*
Y434836D01*
X431003Y430113D02*
Y433262D01*
X432577Y434836D01*
X434151Y433262D01*
Y430113D01*
Y432475D01*
X431003D01*
X438874Y434049D02*
X438087Y434836D01*
X436513D01*
X435726Y434049D01*
Y430900D01*
X436513Y430113D01*
X438087D01*
X438874Y430900D01*
X448320Y434049D02*
X447533Y434836D01*
X445959D01*
X445171Y434049D01*
Y430900D01*
X445959Y430113D01*
X447533D01*
X448320Y430900D01*
X450681Y430113D02*
X452256D01*
X453043Y430900D01*
Y432475D01*
X452256Y433262D01*
X450681D01*
X449894Y432475D01*
Y430900D01*
X450681Y430113D01*
X454617D02*
Y433262D01*
X455404D01*
X456191Y432475D01*
Y430113D01*
Y432475D01*
X456979Y433262D01*
X457766Y432475D01*
Y430113D01*
X459340D02*
Y433262D01*
X460127D01*
X460914Y432475D01*
Y430113D01*
Y432475D01*
X461701Y433262D01*
X462489Y432475D01*
Y430113D01*
X464063Y433262D02*
Y430900D01*
X464850Y430113D01*
X467211D01*
Y433262D01*
X468786Y430113D02*
Y433262D01*
X471147D01*
X471934Y432475D01*
Y430113D01*
X473509D02*
X475083D01*
X474296D01*
Y433262D01*
X473509D01*
X480593D02*
X478231D01*
X477444Y432475D01*
Y430900D01*
X478231Y430113D01*
X480593D01*
X482954Y433262D02*
X484529D01*
X485316Y432475D01*
Y430113D01*
X482954D01*
X482167Y430900D01*
X482954Y431688D01*
X485316D01*
X487677Y434049D02*
Y433262D01*
X486890D01*
X488464D01*
X487677D01*
Y430900D01*
X488464Y430113D01*
X490826D02*
X492400D01*
X491613D01*
Y433262D01*
X490826D01*
X495549Y430113D02*
X497123D01*
X497910Y430900D01*
Y432475D01*
X497123Y433262D01*
X495549D01*
X494762Y432475D01*
Y430900D01*
X495549Y430113D01*
X499484D02*
Y433262D01*
X501846D01*
X502633Y432475D01*
Y430113D01*
X508930Y434836D02*
Y430113D01*
X511292D01*
X512079Y430900D01*
Y431688D01*
X511292Y432475D01*
X508930D01*
X511292D01*
X512079Y433262D01*
Y434049D01*
X511292Y434836D01*
X508930D01*
X514440Y430113D02*
X516015D01*
X516802Y430900D01*
Y432475D01*
X516015Y433262D01*
X514440D01*
X513653Y432475D01*
Y430900D01*
X514440Y430113D01*
X519163Y433262D02*
X520737D01*
X521525Y432475D01*
Y430113D01*
X519163D01*
X518376Y430900D01*
X519163Y431688D01*
X521525D01*
X523099Y433262D02*
Y430113D01*
Y431688D01*
X523886Y432475D01*
X524673Y433262D01*
X525460D01*
X530970Y434836D02*
Y430113D01*
X528609D01*
X527822Y430900D01*
Y432475D01*
X528609Y433262D01*
X530970D01*
X537267Y434836D02*
Y431688D01*
X538842Y430113D01*
X540416Y431688D01*
Y434836D01*
X541990Y430113D02*
X543565D01*
X542777D01*
Y434836D01*
X541990Y434049D01*
X545926Y430113D02*
Y430900D01*
X546713D01*
Y430113D01*
X545926D01*
X549862Y434049D02*
X550649Y434836D01*
X552223D01*
X553011Y434049D01*
Y430900D01*
X552223Y430113D01*
X550649D01*
X549862Y430900D01*
Y434049D01*
D12*
X385130Y373803D02*
G03*
X385130Y373803I-787J0D01*
G01*
X187630Y180303D02*
G03*
X187630Y180303I-787J0D01*
G01*
X261630D02*
G03*
X261630Y180303I-787J0D01*
G01*
X246630Y376803D02*
G03*
X246630Y376803I-787J0D01*
G01*
X208496Y314803D02*
G03*
X208496Y314803I-787J0D01*
G01*
D13*
X430937Y308878D02*
G03*
X430937Y308878I-1028J0D01*
G01*
X316937Y316378D02*
G03*
X316937Y316378I-1028J0D01*
G01*
D14*
X563580Y64862D02*
G03*
X563580Y64862I-1670J0D01*
G01*
D15*
X492173Y194311D02*
G03*
X492173Y194311I-492J0D01*
G01*
D16*
X387795Y450787D02*
X559449D01*
Y425591D02*
Y450787D01*
X387795Y425591D02*
X559449D01*
X387795Y425591D02*
X387795Y425591D01*
X387795Y425591D02*
Y450787D01*
X439423Y425644D02*
X494662D01*
X54481Y173499D02*
Y177497D01*
Y175498D01*
X60479D01*
X56481Y179497D02*
X60479Y183495D01*
X58480Y181496D01*
X56481Y183495D01*
X60479Y179497D01*
X54481Y189494D02*
X55481Y187494D01*
X57480Y185495D01*
X59480D01*
X60479Y186495D01*
Y188494D01*
X59480Y189494D01*
X58480D01*
X57480Y188494D01*
Y185495D01*
X363506Y495912D02*
Y490914D01*
X364505Y489914D01*
X366505D01*
X367504Y490914D01*
Y495912D01*
X372503Y489914D02*
Y495912D01*
X369504Y492913D01*
X373502D01*
X273348Y493156D02*
Y488158D01*
X274348Y487158D01*
X276347D01*
X277347Y488158D01*
Y493156D01*
X283345D02*
X281346Y492157D01*
X279346Y490158D01*
Y488158D01*
X280346Y487158D01*
X282345D01*
X283345Y488158D01*
Y489158D01*
X282345Y490158D01*
X279346D01*
X553150Y131890D02*
X551182D01*
X552166D01*
Y125986D01*
X553150Y126970D01*
X569924Y169535D02*
Y164536D01*
X570924Y163536D01*
X572924D01*
X573923Y164536D01*
Y169535D01*
X579921Y168535D02*
X578922Y169535D01*
X576922D01*
X575923Y168535D01*
Y167535D01*
X576922Y166535D01*
X578922D01*
X579921Y165536D01*
Y164536D01*
X578922Y163536D01*
X576922D01*
X575923Y164536D01*
X581921Y169535D02*
Y163536D01*
X584920D01*
X585919Y164536D01*
Y165536D01*
X584920Y166535D01*
X581921D01*
X584920D01*
X585919Y167535D01*
Y168535D01*
X584920Y169535D01*
X581921D01*
X587919Y163536D02*
X589918D01*
X588918D01*
Y169535D01*
X587919Y168535D01*
X454844Y490401D02*
Y485402D01*
X455844Y484403D01*
X457843D01*
X458843Y485402D01*
Y490401D01*
X464841D02*
X460842D01*
Y487402D01*
X462842Y488401D01*
X463841D01*
X464841Y487402D01*
Y485402D01*
X463841Y484403D01*
X461842D01*
X460842Y485402D01*
X558451Y272047D02*
Y267049D01*
X559451Y266049D01*
X561450D01*
X562450Y267049D01*
Y272047D01*
X564449Y271047D02*
X565449Y272047D01*
X567448D01*
X568448Y271047D01*
Y270047D01*
X567448Y269048D01*
X566449D01*
X567448D01*
X568448Y268048D01*
Y267049D01*
X567448Y266049D01*
X565449D01*
X564449Y267049D01*
X576498Y448668D02*
Y443670D01*
X577497Y442670D01*
X579497D01*
X580496Y443670D01*
Y448668D01*
X586494Y442670D02*
X582496D01*
X586494Y446669D01*
Y447669D01*
X585495Y448668D01*
X583495D01*
X582496Y447669D01*
X481609Y207109D02*
Y202111D01*
X482609Y201111D01*
X484609D01*
X485608Y202111D01*
Y207109D01*
X487607Y201111D02*
X489607D01*
X488607D01*
Y207109D01*
X487607Y206109D01*
X56450Y47514D02*
Y51513D01*
Y49514D01*
X62448D01*
X58449Y53513D02*
X62448Y57511D01*
X60448Y55512D01*
X58449Y57511D01*
X62448Y53513D01*
X61448Y59510D02*
X62448Y60510D01*
Y62510D01*
X61448Y63509D01*
X57450D01*
X56450Y62510D01*
Y60510D01*
X57450Y59510D01*
X58449D01*
X59449Y60510D01*
Y63509D01*
X54875Y132948D02*
Y136946D01*
Y134947D01*
X60873D01*
X56874Y138945D02*
X60873Y142944D01*
X58874Y140945D01*
X56874Y142944D01*
X60873Y138945D01*
X55875Y144944D02*
X54875Y145943D01*
Y147943D01*
X55875Y148942D01*
X56874D01*
X57874Y147943D01*
X58874Y148942D01*
X59873D01*
X60873Y147943D01*
Y145943D01*
X59873Y144944D01*
X58874D01*
X57874Y145943D01*
X56874Y144944D01*
X55875D01*
X57874Y145943D02*
Y147943D01*
X56844Y90428D02*
Y94427D01*
Y92427D01*
X62841D01*
X58843Y96426D02*
X62841Y100425D01*
X60842Y98425D01*
X58843Y100425D01*
X62841Y96426D01*
X56844Y102424D02*
Y106423D01*
X57843D01*
X61842Y102424D01*
X62841D01*
X187672Y448668D02*
X191671D01*
X189671D01*
Y442670D01*
X193670Y446669D02*
X197669Y442670D01*
X195669Y444670D01*
X197669Y446669D01*
X193670Y442670D01*
X203667Y448668D02*
X199668D01*
Y445669D01*
X201667Y446669D01*
X202667D01*
X203667Y445669D01*
Y443670D01*
X202667Y442670D01*
X200668D01*
X199668Y443670D01*
X67593Y447881D02*
X71592D01*
X69592D01*
Y441883D01*
X73591Y445882D02*
X77590Y441883D01*
X75590Y443882D01*
X77590Y445882D01*
X73591Y441883D01*
X82588D02*
Y447881D01*
X79589Y444882D01*
X83588D01*
X147514Y449062D02*
X151513D01*
X149514D01*
Y443064D01*
X153513Y447063D02*
X157511Y443064D01*
X155512Y445063D01*
X157511Y447063D01*
X153513Y443064D01*
X159511Y448062D02*
X160510Y449062D01*
X162510D01*
X163509Y448062D01*
Y447063D01*
X162510Y446063D01*
X161510D01*
X162510D01*
X163509Y445063D01*
Y444064D01*
X162510Y443064D01*
X160510D01*
X159511Y444064D01*
X110113Y447881D02*
X114111D01*
X112112D01*
Y441883D01*
X116111Y445882D02*
X120110Y441883D01*
X118110Y443882D01*
X120110Y445882D01*
X116111Y441883D01*
X126108D02*
X122109D01*
X126108Y445882D01*
Y446881D01*
X125108Y447881D01*
X123109D01*
X122109Y446881D01*
X231585Y448668D02*
X235584D01*
X233584D01*
Y442670D01*
X237583Y446669D02*
X241582Y442670D01*
X239582Y444670D01*
X241582Y446669D01*
X237583Y442670D01*
X243581D02*
X245580D01*
X244581D01*
Y448668D01*
X243581Y447669D01*
X299927Y334698D02*
X303925D01*
X301926D01*
Y328700D01*
X305925D02*
Y334698D01*
X308924D01*
X309924Y333698D01*
Y331699D01*
X308924Y330699D01*
X305925D01*
X307924D02*
X309924Y328700D01*
X314922D02*
Y334698D01*
X311923Y331699D01*
X315922D01*
X414000Y327198D02*
X417999D01*
X415999D01*
Y321200D01*
X419998D02*
Y327198D01*
X422997D01*
X423997Y326198D01*
Y324199D01*
X422997Y323199D01*
X419998D01*
X421997D02*
X423997Y321200D01*
X429995D02*
X425996D01*
X429995Y325199D01*
Y326198D01*
X428995Y327198D01*
X426996D01*
X425996Y326198D01*
X99800Y203798D02*
Y197800D01*
X102799D01*
X103799Y198800D01*
Y202798D01*
X102799Y203798D01*
X99800D01*
X105798Y197800D02*
Y201799D01*
X107797Y203798D01*
X109797Y201799D01*
Y197800D01*
Y200799D01*
X105798D01*
X115795Y202798D02*
X114795Y203798D01*
X112796D01*
X111796Y202798D01*
Y198800D01*
X112796Y197800D01*
X114795D01*
X115795Y198800D01*
X117794Y203798D02*
Y197800D01*
X120793D01*
X121793Y198800D01*
Y199799D01*
X120793Y200799D01*
X117794D01*
X120793D01*
X121793Y201799D01*
Y202798D01*
X120793Y203798D01*
X117794D01*
X67900Y202998D02*
Y197000D01*
X70899D01*
X71899Y198000D01*
Y201998D01*
X70899Y202998D01*
X67900D01*
X73898Y197000D02*
Y200999D01*
X75897Y202998D01*
X77897Y200999D01*
Y197000D01*
Y199999D01*
X73898D01*
X83895Y201998D02*
X82895Y202998D01*
X80896D01*
X79896Y201998D01*
Y198000D01*
X80896Y197000D01*
X82895D01*
X83895Y198000D01*
X85894Y197000D02*
Y200999D01*
X87893Y202998D01*
X89893Y200999D01*
Y197000D01*
Y199999D01*
X85894D01*
X307699Y183098D02*
X306699Y184098D01*
X304700D01*
X303700Y183098D01*
Y182099D01*
X304700Y181099D01*
X306699D01*
X307699Y180099D01*
Y179100D01*
X306699Y178100D01*
X304700D01*
X303700Y179100D01*
X309698Y184098D02*
X313697D01*
X311697D01*
Y178100D01*
X319695Y184098D02*
X315696D01*
Y178100D01*
X319695D01*
X315696Y181099D02*
X317695D01*
X321694Y178100D02*
Y182099D01*
X323693Y184098D01*
X325693Y182099D01*
Y178100D01*
Y181099D01*
X321694D01*
X240246Y144519D02*
X239247Y145519D01*
X237247D01*
X236248Y144519D01*
Y140520D01*
X237247Y139521D01*
X239247D01*
X240246Y140520D01*
X242246Y145519D02*
Y139521D01*
X246244D01*
X248244Y145519D02*
Y139521D01*
Y141520D01*
X252242Y145519D01*
X249243Y142520D01*
X252242Y139521D01*
X254242D02*
Y143519D01*
X256241Y145519D01*
X258241Y143519D01*
Y139521D01*
Y142520D01*
X254242D01*
X205813Y207118D02*
X204813Y208117D01*
X202814D01*
X201814Y207118D01*
Y206118D01*
X202814Y205118D01*
X204813D01*
X205813Y204118D01*
Y203119D01*
X204813Y202119D01*
X202814D01*
X201814Y203119D01*
X210811Y208117D02*
X208812D01*
X207812Y207118D01*
Y203119D01*
X208812Y202119D01*
X210811D01*
X211811Y203119D01*
Y207118D01*
X210811Y208117D01*
X213810Y202119D02*
Y208117D01*
X215810Y206118D01*
X217809Y208117D01*
Y202119D01*
X219808Y208117D02*
X221808D01*
X220808D01*
Y202119D01*
X219808D01*
X221808D01*
X143502Y199243D02*
X142502Y200243D01*
X140503D01*
X139503Y199243D01*
Y198244D01*
X140503Y197244D01*
X142502D01*
X143502Y196244D01*
Y195245D01*
X142502Y194245D01*
X140503D01*
X139503Y195245D01*
X145501Y200243D02*
X147501D01*
X146501D01*
Y194245D01*
X145501D01*
X147501D01*
X150500D02*
Y200243D01*
X152499Y198244D01*
X154499Y200243D01*
Y194245D01*
X159497Y200243D02*
X157498D01*
X156498Y199243D01*
Y195245D01*
X157498Y194245D01*
X159497D01*
X160497Y195245D01*
Y199243D01*
X159497Y200243D01*
X182369Y272290D02*
Y267292D01*
X183368Y266292D01*
X185368D01*
X186367Y267292D01*
Y272290D01*
X188367Y266292D02*
Y270291D01*
X190366Y272290D01*
X192365Y270291D01*
Y266292D01*
Y269291D01*
X188367D01*
X194365Y266292D02*
Y272290D01*
X197364D01*
X198363Y271291D01*
Y269291D01*
X197364Y268292D01*
X194365D01*
X196364D02*
X198363Y266292D01*
X200363Y272290D02*
X204362D01*
X202362D01*
Y266292D01*
X206361D02*
Y272290D01*
X209360D01*
X210360Y271291D01*
Y269291D01*
X209360Y268292D01*
X206361D01*
X208360D02*
X210360Y266292D01*
X212359Y272290D02*
X216358Y266292D01*
Y272290D02*
X212359Y266292D01*
X218357D02*
Y270291D01*
X220356Y272290D01*
X222356Y270291D01*
Y266292D01*
Y269291D01*
X218357D01*
X182369Y293550D02*
Y288552D01*
X183368Y287552D01*
X185368D01*
X186367Y288552D01*
Y293550D01*
X188367Y287552D02*
Y291551D01*
X190366Y293550D01*
X192365Y291551D01*
Y287552D01*
Y290551D01*
X188367D01*
X194365Y287552D02*
Y293550D01*
X197364D01*
X198363Y292550D01*
Y290551D01*
X197364Y289551D01*
X194365D01*
X196364D02*
X198363Y287552D01*
X200363Y293550D02*
X204362D01*
X202362D01*
Y287552D01*
X206361Y293550D02*
X210360D01*
X208360D01*
Y287552D01*
X212359Y293550D02*
X216358Y287552D01*
Y293550D02*
X212359Y287552D01*
X218357D02*
Y291551D01*
X220356Y293550D01*
X222356Y291551D01*
Y287552D01*
Y290551D01*
X218357D01*
X357932Y285282D02*
Y284283D01*
X356932D01*
X358932D01*
X357932D01*
Y281284D01*
X358932Y280284D01*
X361931Y278285D02*
Y284283D01*
X364930D01*
X365930Y283283D01*
Y281284D01*
X364930Y280284D01*
X361931D01*
X367929D02*
X369928D01*
X368929D01*
Y286282D01*
X367929Y285282D01*
X372927D02*
X373927Y286282D01*
X375926D01*
X376926Y285282D01*
Y281284D01*
X375926Y280284D01*
X373927D01*
X372927Y281284D01*
Y285282D01*
X263232Y291763D02*
X262232Y292763D01*
X260233D01*
X259233Y291763D01*
Y290763D01*
X260233Y289764D01*
X262232D01*
X263232Y288764D01*
Y287764D01*
X262232Y286765D01*
X260233D01*
X259233Y287764D01*
X265231Y292763D02*
Y286765D01*
Y289764D01*
X269230D01*
Y292763D01*
Y286765D01*
X271229Y292763D02*
X275228D01*
X273228D01*
Y286765D01*
X277227Y292763D02*
X281226Y286765D01*
Y292763D02*
X277227Y286765D01*
X283225Y292763D02*
Y286765D01*
X286224D01*
X287224Y287764D01*
Y288764D01*
X286224Y289764D01*
X283225D01*
X286224D01*
X287224Y290763D01*
Y291763D01*
X286224Y292763D01*
X283225D01*
X266900Y400598D02*
X270899D01*
X268899D01*
Y394600D01*
X272898Y400598D02*
X276897Y394600D01*
Y400598D02*
X272898Y394600D01*
X278896Y400598D02*
Y394600D01*
X281895D01*
X282895Y395600D01*
Y396599D01*
X281895Y397599D01*
X278896D01*
X281895D01*
X282895Y398599D01*
Y399598D01*
X281895Y400598D01*
X278896D01*
X432708Y392280D02*
X433708Y393280D01*
Y395279D01*
X432708Y396279D01*
X431708D01*
X430709Y395279D01*
Y393280D01*
X429709Y392280D01*
X428709D01*
X427710Y393280D01*
Y395279D01*
X428709Y396279D01*
X433708Y390281D02*
X427710D01*
X430709D01*
Y386282D01*
X433708D01*
X427710D01*
Y384283D02*
X433708D01*
Y381284D01*
X432708Y380284D01*
X430709D01*
X429709Y381284D01*
Y384283D01*
Y382283D02*
X427710Y380284D01*
X433708Y378285D02*
X427710Y374286D01*
X433708D02*
X427710Y378285D01*
X433708Y372287D02*
X427710D01*
Y369288D01*
X428709Y368288D01*
X429709D01*
X430709Y369288D01*
Y372287D01*
Y369288D01*
X431708Y368288D01*
X432708D01*
X433708Y369288D01*
Y372287D01*
X325100Y349700D02*
Y355698D01*
X328099D01*
X329099Y354698D01*
Y352699D01*
X328099Y351699D01*
X325100D01*
X327099D02*
X329099Y349700D01*
X331098Y355698D02*
X335097Y349700D01*
Y355698D02*
X331098Y349700D01*
X337096Y355698D02*
Y349700D01*
X340095D01*
X341095Y350700D01*
Y351699D01*
X340095Y352699D01*
X337096D01*
X340095D01*
X341095Y353699D01*
Y354698D01*
X340095Y355698D01*
X337096D01*
X473289Y274373D02*
Y273373D01*
X472290D01*
X474289D01*
X473289D01*
Y270374D01*
X474289Y269375D01*
X477288Y267375D02*
Y273373D01*
X480287D01*
X481287Y272374D01*
Y270374D01*
X480287Y269375D01*
X477288D01*
X487285Y275373D02*
X483286D01*
Y272374D01*
X485286Y273373D01*
X486285D01*
X487285Y272374D01*
Y270374D01*
X486285Y269375D01*
X484286D01*
X483286Y270374D01*
X382917Y299243D02*
X381917Y300243D01*
X379918D01*
X378918Y299243D01*
Y298244D01*
X379918Y297244D01*
X381917D01*
X382917Y296244D01*
Y295245D01*
X381917Y294245D01*
X379918D01*
X378918Y295245D01*
X384916Y300243D02*
Y294245D01*
Y297244D01*
X388915D01*
Y300243D01*
Y294245D01*
X390914Y300243D02*
X394913D01*
X392913D01*
Y294245D01*
X396912Y300243D02*
X400911Y294245D01*
Y300243D02*
X396912Y294245D01*
X402910D02*
Y298244D01*
X404910Y300243D01*
X406909Y298244D01*
Y294245D01*
Y297244D01*
X402910D01*
X238000Y419498D02*
X241999D01*
X239999D01*
Y413500D01*
X243998Y419498D02*
X247997Y413500D01*
Y419498D02*
X243998Y413500D01*
X249996D02*
Y417499D01*
X251995Y419498D01*
X253995Y417499D01*
Y413500D01*
Y416499D01*
X249996D01*
X358899Y416898D02*
X357899Y417898D01*
X355900D01*
X354900Y416898D01*
Y415899D01*
X355900Y414899D01*
X357899D01*
X358899Y413899D01*
Y412900D01*
X357899Y411900D01*
X355900D01*
X354900Y412900D01*
X360898Y417898D02*
Y411900D01*
Y414899D01*
X364897D01*
Y417898D01*
Y411900D01*
X366896D02*
Y417898D01*
X369895D01*
X370895Y416898D01*
Y414899D01*
X369895Y413899D01*
X366896D01*
X368896D02*
X370895Y411900D01*
X372894Y417898D02*
X376893Y411900D01*
Y417898D02*
X372894Y411900D01*
X378892D02*
Y415899D01*
X380892Y417898D01*
X382891Y415899D01*
Y411900D01*
Y414899D01*
X378892D01*
X245519Y313656D02*
X239521D01*
Y316655D01*
X240520Y317655D01*
X242520D01*
X243519Y316655D01*
Y313656D01*
Y315655D02*
X245519Y317655D01*
X239521Y319654D02*
X245519Y323653D01*
X239521D02*
X245519Y319654D01*
Y325652D02*
X241520D01*
X239521Y327652D01*
X241520Y329651D01*
X245519D01*
X242520D01*
Y325652D01*
X539459Y141095D02*
X542458D01*
X543458Y142095D01*
X542458Y143095D01*
X540459D01*
X539459Y144095D01*
X540459Y145094D01*
X543458D01*
X545457D02*
Y142095D01*
X546457Y141095D01*
X547456Y142095D01*
X548456Y141095D01*
X549456Y142095D01*
Y145094D01*
X551455Y141095D02*
X553454D01*
X552455D01*
Y147093D01*
X551455Y146094D01*
X78400Y373398D02*
Y368400D01*
X79400Y367400D01*
X81399D01*
X82399Y368400D01*
Y373398D01*
X84398Y367400D02*
Y371399D01*
X86397Y373398D01*
X88397Y371399D01*
Y367400D01*
Y370399D01*
X84398D01*
X90396Y367400D02*
Y373398D01*
X93395D01*
X94395Y372398D01*
Y370399D01*
X93395Y369399D01*
X90396D01*
X92396D02*
X94395Y367400D01*
X96394Y373398D02*
X100393D01*
X98393D01*
Y367400D01*
X102392D02*
Y373398D01*
X105391D01*
X106391Y372398D01*
Y370399D01*
X105391Y369399D01*
X102392D01*
X104392D02*
X106391Y367400D01*
X108390Y373398D02*
X112389Y367400D01*
Y373398D02*
X108390Y367400D01*
X114388D02*
Y371399D01*
X116388Y373398D01*
X118387Y371399D01*
Y367400D01*
Y370399D01*
X114388D01*
X125794Y419548D02*
Y414549D01*
X126793Y413550D01*
X128793D01*
X129792Y414549D01*
Y419548D01*
X131792Y413550D02*
Y417548D01*
X133791Y419548D01*
X135791Y417548D01*
Y413550D01*
Y416549D01*
X131792D01*
X137790Y413550D02*
Y419548D01*
X140789D01*
X141788Y418548D01*
Y416549D01*
X140789Y415549D01*
X137790D01*
X139789D02*
X141788Y413550D01*
X143788Y419548D02*
X147787D01*
X145787D01*
Y413550D01*
X149786Y419548D02*
X153785D01*
X151785D01*
Y413550D01*
X155784Y419548D02*
X159783Y413550D01*
Y419548D02*
X155784Y413550D01*
X161782D02*
Y417548D01*
X163781Y419548D01*
X165781Y417548D01*
Y413550D01*
Y416549D01*
X161782D01*
X25299Y370698D02*
X24299Y371698D01*
X22300D01*
X21300Y370698D01*
Y369699D01*
X22300Y368699D01*
X24299D01*
X25299Y367699D01*
Y366700D01*
X24299Y365700D01*
X22300D01*
X21300Y366700D01*
X27298Y365700D02*
Y371698D01*
X30297D01*
X31297Y370698D01*
Y368699D01*
X30297Y367699D01*
X27298D01*
X33296Y371698D02*
X35296D01*
X34296D01*
Y365700D01*
X33296D01*
X35296D01*
X42293Y370698D02*
X41293Y371698D01*
X39294D01*
X38295Y370698D01*
Y369699D01*
X39294Y368699D01*
X41293D01*
X42293Y367699D01*
Y366700D01*
X41293Y365700D01*
X39294D01*
X38295Y366700D01*
X44293Y371698D02*
X48291D01*
X46292D01*
Y365700D01*
X54289Y371698D02*
X50291D01*
Y365700D01*
X54289D01*
X50291Y368699D02*
X52290D01*
X56289Y365700D02*
Y369699D01*
X58288Y371698D01*
X60287Y369699D01*
Y365700D01*
Y368699D01*
X56289D01*
X80599Y418598D02*
X79599Y419598D01*
X77600D01*
X76600Y418598D01*
Y417599D01*
X77600Y416599D01*
X79599D01*
X80599Y415599D01*
Y414600D01*
X79599Y413600D01*
X77600D01*
X76600Y414600D01*
X82598Y413600D02*
Y419598D01*
X85597D01*
X86597Y418598D01*
Y416599D01*
X85597Y415599D01*
X82598D01*
X88596Y419598D02*
X90596D01*
X89596D01*
Y413600D01*
X88596D01*
X90596D01*
X97593Y418598D02*
X96593Y419598D01*
X94594D01*
X93594Y418598D01*
Y414600D01*
X94594Y413600D01*
X96593D01*
X97593Y414600D01*
X99593Y419598D02*
Y413600D01*
Y415599D01*
X103591Y419598D01*
X100592Y416599D01*
X103591Y413600D01*
X105591Y419598D02*
Y413600D01*
X109589D01*
X111589D02*
Y417599D01*
X113588Y419598D01*
X115587Y417599D01*
Y413600D01*
Y416599D01*
X111589D01*
X86099Y322098D02*
X85099Y323098D01*
X83100D01*
X82100Y322098D01*
Y321099D01*
X83100Y320099D01*
X85099D01*
X86099Y319099D01*
Y318100D01*
X85099Y317100D01*
X83100D01*
X82100Y318100D01*
X88098Y317100D02*
Y323098D01*
X91097D01*
X92097Y322098D01*
Y320099D01*
X91097Y319099D01*
X88098D01*
X94096Y323098D02*
X96096D01*
X95096D01*
Y317100D01*
X94096D01*
X96096D01*
X103093Y322098D02*
X102094Y323098D01*
X100094D01*
X99094Y322098D01*
Y321099D01*
X100094Y320099D01*
X102094D01*
X103093Y319099D01*
Y318100D01*
X102094Y317100D01*
X100094D01*
X99094Y318100D01*
X108092Y323098D02*
X106092D01*
X105093Y322098D01*
Y318100D01*
X106092Y317100D01*
X108092D01*
X109091Y318100D01*
Y322098D01*
X108092Y323098D01*
X111091Y317100D02*
Y323098D01*
X113090Y321099D01*
X115089Y323098D01*
Y317100D01*
X117089Y323098D02*
X119088D01*
X118088D01*
Y317100D01*
X117089D01*
X119088D01*
X122087D02*
Y321099D01*
X124086Y323098D01*
X126086Y321099D01*
Y317100D01*
Y320099D01*
X122087D01*
X24699Y322098D02*
X23699Y323098D01*
X21700D01*
X20700Y322098D01*
Y321099D01*
X21700Y320099D01*
X23699D01*
X24699Y319099D01*
Y318100D01*
X23699Y317100D01*
X21700D01*
X20700Y318100D01*
X26698Y317100D02*
Y323098D01*
X29697D01*
X30697Y322098D01*
Y320099D01*
X29697Y319099D01*
X26698D01*
X32696Y323098D02*
X34696D01*
X33696D01*
Y317100D01*
X32696D01*
X34696D01*
X41693Y322098D02*
X40694Y323098D01*
X38694D01*
X37694Y322098D01*
Y321099D01*
X38694Y320099D01*
X40694D01*
X41693Y319099D01*
Y318100D01*
X40694Y317100D01*
X38694D01*
X37694Y318100D01*
X43693Y323098D02*
X45692D01*
X44692D01*
Y317100D01*
X43693D01*
X45692D01*
X48691D02*
Y323098D01*
X50690Y321099D01*
X52690Y323098D01*
Y317100D01*
X57688Y323098D02*
X55689D01*
X54689Y322098D01*
Y318100D01*
X55689Y317100D01*
X57688D01*
X58688Y318100D01*
Y322098D01*
X57688Y323098D01*
X60687Y317100D02*
Y321099D01*
X62686Y323098D01*
X64686Y321099D01*
Y317100D01*
Y320099D01*
X60687D01*
X125000Y373098D02*
Y368100D01*
X126000Y367100D01*
X127999D01*
X128999Y368100D01*
Y373098D01*
X130998Y367100D02*
Y371099D01*
X132997Y373098D01*
X134997Y371099D01*
Y367100D01*
Y370099D01*
X130998D01*
X136996Y367100D02*
Y373098D01*
X139995D01*
X140995Y372098D01*
Y370099D01*
X139995Y369099D01*
X136996D01*
X138996D02*
X140995Y367100D01*
X142994Y373098D02*
X146993D01*
X144993D01*
Y367100D01*
X148992D02*
Y373098D01*
X151991D01*
X152991Y372098D01*
Y370099D01*
X151991Y369099D01*
X148992D01*
X150992D02*
X152991Y367100D01*
X154990Y373098D02*
X158989Y367100D01*
Y373098D02*
X154990Y367100D01*
X160988D02*
Y371099D01*
X162988Y373098D01*
X164987Y371099D01*
Y367100D01*
Y370099D01*
X160988D01*
X21900Y419598D02*
Y414600D01*
X22900Y413600D01*
X24899D01*
X25899Y414600D01*
Y419598D01*
X27898Y413600D02*
Y417599D01*
X29897Y419598D01*
X31897Y417599D01*
Y413600D01*
Y416599D01*
X27898D01*
X33896Y413600D02*
Y419598D01*
X36895D01*
X37895Y418598D01*
Y416599D01*
X36895Y415599D01*
X33896D01*
X35895D02*
X37895Y413600D01*
X39894Y419598D02*
X43893D01*
X41894D01*
Y413600D01*
X45892Y419598D02*
X49891D01*
X47892D01*
Y413600D01*
X51890Y419598D02*
X55889Y413600D01*
Y419598D02*
X51890Y413600D01*
X57888D02*
Y417599D01*
X59888Y419598D01*
X61887Y417599D01*
Y413600D01*
Y416599D01*
X57888D01*
X219706Y52832D02*
Y58830D01*
X222705D01*
X223704Y57831D01*
Y55831D01*
X222705Y54832D01*
X219706D01*
X221705D02*
X223704Y52832D01*
X225704Y56831D02*
X229702Y52832D01*
X227703Y54832D01*
X229702Y56831D01*
X225704Y52832D01*
X231702Y53832D02*
X232701Y52832D01*
X234701D01*
X235700Y53832D01*
Y57831D01*
X234701Y58830D01*
X232701D01*
X231702Y57831D01*
Y56831D01*
X232701Y55831D01*
X235700D01*
X178913Y52798D02*
Y58797D01*
X181912D01*
X182912Y57797D01*
Y55797D01*
X181912Y54798D01*
X178913D01*
X180913D02*
X182912Y52798D01*
X184911Y56797D02*
X188910Y52798D01*
X186911Y54798D01*
X188910Y56797D01*
X184911Y52798D01*
X190910Y57797D02*
X191909Y58797D01*
X193909D01*
X194908Y57797D01*
Y56797D01*
X193909Y55797D01*
X194908Y54798D01*
Y53798D01*
X193909Y52798D01*
X191909D01*
X190910Y53798D01*
Y54798D01*
X191909Y55797D01*
X190910Y56797D01*
Y57797D01*
X191909Y55797D02*
X193909D01*
X151845Y51725D02*
Y57723D01*
X154844D01*
X155844Y56724D01*
Y54724D01*
X154844Y53725D01*
X151845D01*
X153844D02*
X155844Y51725D01*
X157843Y55724D02*
X161842Y51725D01*
X159843Y53725D01*
X161842Y55724D01*
X157843Y51725D01*
X163841Y57723D02*
X167840D01*
Y56724D01*
X163841Y52725D01*
Y51725D01*
X97461Y52816D02*
Y58814D01*
X100460D01*
X101459Y57814D01*
Y55815D01*
X100460Y54815D01*
X97461D01*
X99460D02*
X101459Y52816D01*
X103459Y56814D02*
X107457Y52816D01*
X105458Y54815D01*
X107457Y56814D01*
X103459Y52816D01*
X113455Y58814D02*
X111456Y57814D01*
X109457Y55815D01*
Y53815D01*
X110456Y52816D01*
X112456D01*
X113455Y53815D01*
Y54815D01*
X112456Y55815D01*
X109457D01*
X295657Y52778D02*
Y58776D01*
X298656D01*
X299655Y57776D01*
Y55777D01*
X298656Y54777D01*
X295657D01*
X297656D02*
X299655Y52778D01*
X301655Y56777D02*
X305654Y52778D01*
X303654Y54777D01*
X305654Y56777D01*
X301655Y52778D01*
X311651Y58776D02*
X307653D01*
Y55777D01*
X309652Y56777D01*
X310652D01*
X311651Y55777D01*
Y53778D01*
X310652Y52778D01*
X308652D01*
X307653Y53778D01*
X336230Y52783D02*
Y58781D01*
X339229D01*
X340229Y57781D01*
Y55782D01*
X339229Y54782D01*
X336230D01*
X338229D02*
X340229Y52783D01*
X342228Y56781D02*
X346227Y52783D01*
X344227Y54782D01*
X346227Y56781D01*
X342228Y52783D01*
X351225D02*
Y58781D01*
X348226Y55782D01*
X352225D01*
X376792Y52837D02*
Y58835D01*
X379791D01*
X380791Y57835D01*
Y55836D01*
X379791Y54836D01*
X376792D01*
X378791D02*
X380791Y52837D01*
X382790Y56836D02*
X386789Y52837D01*
X384789Y54836D01*
X386789Y56836D01*
X382790Y52837D01*
X388788Y57835D02*
X389788Y58835D01*
X391787D01*
X392787Y57835D01*
Y56836D01*
X391787Y55836D01*
X390788D01*
X391787D01*
X392787Y54836D01*
Y53837D01*
X391787Y52837D01*
X389788D01*
X388788Y53837D01*
X417461Y52667D02*
Y58665D01*
X420460D01*
X421459Y57665D01*
Y55666D01*
X420460Y54666D01*
X417461D01*
X419460D02*
X421459Y52667D01*
X423459Y56666D02*
X427457Y52667D01*
X425458Y54666D01*
X427457Y56666D01*
X423459Y52667D01*
X433456D02*
X429457D01*
X433456Y56666D01*
Y57665D01*
X432456Y58665D01*
X430456D01*
X429457Y57665D01*
X457528Y52706D02*
Y58704D01*
X460527D01*
X461526Y57705D01*
Y55705D01*
X460527Y54706D01*
X457528D01*
X459527D02*
X461526Y52706D01*
X463526Y56705D02*
X467524Y52706D01*
X465525Y54706D01*
X467524Y56705D01*
X463526Y52706D01*
X469524D02*
X471523D01*
X470523D01*
Y58704D01*
X469524Y57705D01*
X368624Y309599D02*
Y315598D01*
X371623D01*
X372622Y314598D01*
Y312598D01*
X371623Y311599D01*
X368624D01*
X370623D02*
X372622Y309599D01*
X374622Y310599D02*
X375621Y309599D01*
X377621D01*
X378620Y310599D01*
Y314598D01*
X377621Y315598D01*
X375621D01*
X374622Y314598D01*
Y313598D01*
X375621Y312598D01*
X378620D01*
X301437Y350663D02*
Y356662D01*
X304436D01*
X305435Y355662D01*
Y353662D01*
X304436Y352663D01*
X301437D01*
X303436D02*
X305435Y350663D01*
X307435Y355662D02*
X308434Y356662D01*
X310434D01*
X311433Y355662D01*
Y354662D01*
X310434Y353662D01*
X311433Y352663D01*
Y351663D01*
X310434Y350663D01*
X308434D01*
X307435Y351663D01*
Y352663D01*
X308434Y353662D01*
X307435Y354662D01*
Y355662D01*
X308434Y353662D02*
X310434D01*
X487521Y293064D02*
Y299062D01*
X490520D01*
X491520Y298062D01*
Y296063D01*
X490520Y295063D01*
X487521D01*
X489521D02*
X491520Y293064D01*
X493519Y298062D02*
X494519Y299062D01*
X496518D01*
X497518Y298062D01*
Y297063D01*
X496518Y296063D01*
X495519D01*
X496518D01*
X497518Y295063D01*
Y294064D01*
X496518Y293064D01*
X494519D01*
X493519Y294064D01*
X513112Y163930D02*
Y169928D01*
X516111D01*
X517111Y168929D01*
Y166929D01*
X516111Y165929D01*
X513112D01*
X515111D02*
X517111Y163930D01*
X523109D02*
X519110D01*
X523109Y167929D01*
Y168929D01*
X522109Y169928D01*
X520110D01*
X519110Y168929D01*
X543850Y212148D02*
Y206150D01*
X547849D01*
X549848D02*
X551847D01*
X550848D01*
Y212148D01*
X549848Y211148D01*
X93789Y253484D02*
X91790D01*
X92790D01*
Y248485D01*
X91790Y247486D01*
X90790D01*
X89790Y248485D01*
X95789Y247486D02*
X97788D01*
X96788D01*
Y253484D01*
X95789Y252484D01*
X135600Y127398D02*
X137599D01*
X136600D01*
Y121400D01*
X135600D01*
X137599D01*
X144597Y126398D02*
X143597Y127398D01*
X141598D01*
X140598Y126398D01*
Y122400D01*
X141598Y121400D01*
X143597D01*
X144597Y122400D01*
X146596Y126398D02*
X147596Y127398D01*
X149595D01*
X150595Y126398D01*
Y125399D01*
X149595Y124399D01*
X148596D01*
X149595D01*
X150595Y123399D01*
Y122400D01*
X149595Y121400D01*
X147596D01*
X146596Y122400D01*
X333026Y161418D02*
X335025D01*
X334026D01*
Y155420D01*
X333026D01*
X335025D01*
X342023Y160418D02*
X341023Y161418D01*
X339024D01*
X338024Y160418D01*
Y156419D01*
X339024Y155420D01*
X341023D01*
X342023Y156419D01*
X348021Y155420D02*
X344022D01*
X348021Y159418D01*
Y160418D01*
X347022Y161418D01*
X345022D01*
X344022Y160418D01*
X419245Y161053D02*
X421245D01*
X420245D01*
Y155055D01*
X419245D01*
X421245D01*
X428242Y160053D02*
X427243Y161053D01*
X425243D01*
X424244Y160053D01*
Y156054D01*
X425243Y155055D01*
X427243D01*
X428242Y156054D01*
X430242Y155055D02*
X432241D01*
X431241D01*
Y161053D01*
X430242Y160053D01*
X270743Y194731D02*
Y188733D01*
X273742D01*
X274742Y189733D01*
Y193732D01*
X273742Y194731D01*
X270743D01*
X276741Y192732D02*
Y188733D01*
Y190733D01*
X277741Y191732D01*
X278740Y192732D01*
X279740D01*
X286738Y194731D02*
X282739D01*
Y191732D01*
X284738Y192732D01*
X285738D01*
X286738Y191732D01*
Y189733D01*
X285738Y188733D01*
X283738D01*
X282739Y189733D01*
X183341Y159692D02*
Y153694D01*
X186340D01*
X187340Y154694D01*
Y158692D01*
X186340Y159692D01*
X183341D01*
X189339Y157693D02*
Y153694D01*
Y155693D01*
X190339Y156693D01*
X191339Y157693D01*
X192338D01*
X198336Y153694D02*
Y159692D01*
X195337Y156693D01*
X199336D01*
X181766Y334495D02*
Y328497D01*
X184765D01*
X185765Y329497D01*
Y333495D01*
X184765Y334495D01*
X181766D01*
X187764Y332496D02*
Y328497D01*
Y330496D01*
X188764Y331496D01*
X189764Y332496D01*
X190763D01*
X193763Y333495D02*
X194762Y334495D01*
X196762D01*
X197761Y333495D01*
Y332496D01*
X196762Y331496D01*
X195762D01*
X196762D01*
X197761Y330496D01*
Y329497D01*
X196762Y328497D01*
X194762D01*
X193763Y329497D01*
X382160Y352605D02*
Y346607D01*
X385159D01*
X386159Y347607D01*
Y351606D01*
X385159Y352605D01*
X382160D01*
X388158Y350606D02*
Y346607D01*
Y348607D01*
X389158Y349606D01*
X390158Y350606D01*
X391157D01*
X398155Y346607D02*
X394156D01*
X398155Y350606D01*
Y351606D01*
X397155Y352605D01*
X395156D01*
X394156Y351606D01*
X214262Y393944D02*
Y387946D01*
X217261D01*
X218261Y388946D01*
Y392944D01*
X217261Y393944D01*
X214262D01*
X220260Y391945D02*
Y387946D01*
Y389945D01*
X221260Y390945D01*
X222259Y391945D01*
X223259D01*
X226258Y387946D02*
X228258D01*
X227258D01*
Y393944D01*
X226258Y392944D01*
X464505Y175834D02*
Y169836D01*
X467504D01*
X468504Y170835D01*
Y174834D01*
X467504Y175834D01*
X464505D01*
X470503Y169836D02*
X472503D01*
X471503D01*
Y175834D01*
X470503Y174834D01*
X561868Y107609D02*
X560868Y108609D01*
X558869D01*
X557869Y107609D01*
Y103611D01*
X558869Y102611D01*
X560868D01*
X561868Y103611D01*
X566866Y108609D02*
X564867D01*
X563867Y107609D01*
Y103611D01*
X564867Y102611D01*
X566866D01*
X567866Y103611D01*
Y107609D01*
X566866Y108609D01*
X569865Y102611D02*
Y108609D01*
X573864Y102611D01*
Y108609D01*
X575864Y102611D02*
X577863D01*
X576863D01*
Y108609D01*
X575864Y107609D01*
X249530Y207548D02*
X248531Y208548D01*
X246531D01*
X245532Y207548D01*
Y203549D01*
X246531Y202550D01*
X248531D01*
X249530Y203549D01*
X254529Y202550D02*
Y208548D01*
X251530Y205549D01*
X255528D01*
X261526Y208548D02*
X259527Y207548D01*
X257528Y205549D01*
Y203549D01*
X258527Y202550D01*
X260527D01*
X261526Y203549D01*
Y204549D01*
X260527Y205549D01*
X257528D01*
X161749Y209873D02*
X160750Y210873D01*
X158750D01*
X157751Y209873D01*
Y205875D01*
X158750Y204875D01*
X160750D01*
X161749Y205875D01*
X166748Y204875D02*
Y210873D01*
X163749Y207874D01*
X167747D01*
X173746Y210873D02*
X169747D01*
Y207874D01*
X171746Y208874D01*
X172746D01*
X173746Y207874D01*
Y205875D01*
X172746Y204875D01*
X170746D01*
X169747Y205875D01*
X375536Y99311D02*
X374537Y100311D01*
X372537D01*
X371538Y99311D01*
Y95312D01*
X372537Y94313D01*
X374537D01*
X375536Y95312D01*
X380535Y94313D02*
Y100311D01*
X377536Y97312D01*
X381535D01*
X383534Y99311D02*
X384534Y100311D01*
X386533D01*
X387533Y99311D01*
Y98311D01*
X386533Y97312D01*
X385533D01*
X386533D01*
X387533Y96312D01*
Y95312D01*
X386533Y94313D01*
X384534D01*
X383534Y95312D01*
X315293Y89007D02*
X314293Y90007D01*
X312294D01*
X311294Y89007D01*
Y85009D01*
X312294Y84009D01*
X314293D01*
X315293Y85009D01*
X317292Y89007D02*
X318292Y90007D01*
X320291D01*
X321291Y89007D01*
Y88008D01*
X320291Y87008D01*
X319291D01*
X320291D01*
X321291Y86008D01*
Y85009D01*
X320291Y84009D01*
X318292D01*
X317292Y85009D01*
X323290Y89007D02*
X324290Y90007D01*
X326289D01*
X327289Y89007D01*
Y88008D01*
X326289Y87008D01*
X327289Y86008D01*
Y85009D01*
X326289Y84009D01*
X324290D01*
X323290Y85009D01*
Y86008D01*
X324290Y87008D01*
X323290Y88008D01*
Y89007D01*
X324290Y87008D02*
X326289D01*
X205016Y337445D02*
X204017Y338445D01*
X202017D01*
X201018Y337445D01*
Y333447D01*
X202017Y332447D01*
X204017D01*
X205016Y333447D01*
X207016Y337445D02*
X208015Y338445D01*
X210015D01*
X211015Y337445D01*
Y336446D01*
X210015Y335446D01*
X209015D01*
X210015D01*
X211015Y334446D01*
Y333447D01*
X210015Y332447D01*
X208015D01*
X207016Y333447D01*
X213014Y338445D02*
X217013D01*
Y337445D01*
X213014Y333447D01*
Y332447D01*
X484009Y146881D02*
X483009Y147881D01*
X481010D01*
X480010Y146881D01*
Y142883D01*
X481010Y141883D01*
X483009D01*
X484009Y142883D01*
X486008Y146881D02*
X487008Y147881D01*
X489007D01*
X490007Y146881D01*
Y145882D01*
X489007Y144882D01*
X488007D01*
X489007D01*
X490007Y143882D01*
Y142883D01*
X489007Y141883D01*
X487008D01*
X486008Y142883D01*
X492006Y141883D02*
X494006D01*
X493006D01*
Y147881D01*
X492006Y146881D01*
X462192Y164246D02*
X461192Y165246D01*
X459193D01*
X458193Y164246D01*
Y160248D01*
X459193Y159248D01*
X461192D01*
X462192Y160248D01*
X464191Y164246D02*
X465191Y165246D01*
X467190D01*
X468190Y164246D01*
Y163247D01*
X467190Y162247D01*
X466190D01*
X467190D01*
X468190Y161247D01*
Y160248D01*
X467190Y159248D01*
X465191D01*
X464191Y160248D01*
X470189Y164246D02*
X471189Y165246D01*
X473188D01*
X474188Y164246D01*
Y160248D01*
X473188Y159248D01*
X471189D01*
X470189Y160248D01*
Y164246D01*
X375923Y340582D02*
X374923Y341582D01*
X372923D01*
X371924Y340582D01*
Y336583D01*
X372923Y335584D01*
X374923D01*
X375923Y336583D01*
X381921Y335584D02*
X377922D01*
X381921Y339582D01*
Y340582D01*
X380921Y341582D01*
X378922D01*
X377922Y340582D01*
X383920Y336583D02*
X384920Y335584D01*
X386919D01*
X387919Y336583D01*
Y340582D01*
X386919Y341582D01*
X384920D01*
X383920Y340582D01*
Y339582D01*
X384920Y338583D01*
X387919D01*
X283403Y335858D02*
X282403Y336857D01*
X280404D01*
X279404Y335858D01*
Y331859D01*
X280404Y330859D01*
X282403D01*
X283403Y331859D01*
X289401Y330859D02*
X285402D01*
X289401Y334858D01*
Y335858D01*
X288401Y336857D01*
X286402D01*
X285402Y335858D01*
X291400D02*
X292400Y336857D01*
X294399D01*
X295399Y335858D01*
Y334858D01*
X294399Y333858D01*
X295399Y332859D01*
Y331859D01*
X294399Y330859D01*
X292400D01*
X291400Y331859D01*
Y332859D01*
X292400Y333858D01*
X291400Y334858D01*
Y335858D01*
X292400Y333858D02*
X294399D01*
X383399Y398498D02*
X382399Y399498D01*
X380400D01*
X379400Y398498D01*
Y394500D01*
X380400Y393500D01*
X382399D01*
X383399Y394500D01*
X389397Y393500D02*
X385398D01*
X389397Y397499D01*
Y398498D01*
X388397Y399498D01*
X386398D01*
X385398Y398498D01*
X395395Y393500D02*
X391396D01*
X395395Y397499D01*
Y398498D01*
X394395Y399498D01*
X392396D01*
X391396Y398498D01*
X239521Y398062D02*
X238521Y399062D01*
X236522D01*
X235522Y398062D01*
Y394064D01*
X236522Y393064D01*
X238521D01*
X239521Y394064D01*
X245519Y393064D02*
X241520D01*
X245519Y397063D01*
Y398062D01*
X244519Y399062D01*
X242520D01*
X241520Y398062D01*
X247518Y393064D02*
X249517D01*
X248518D01*
Y399062D01*
X247518Y398062D01*
X229466Y85070D02*
X228466Y86070D01*
X226467D01*
X225467Y85070D01*
Y81072D01*
X226467Y80072D01*
X228466D01*
X229466Y81072D01*
X235464Y80072D02*
X231465D01*
X235464Y84071D01*
Y85070D01*
X234464Y86070D01*
X232465D01*
X231465Y85070D01*
X237463D02*
X238463Y86070D01*
X240462D01*
X241462Y85070D01*
Y81072D01*
X240462Y80072D01*
X238463D01*
X237463Y81072D01*
Y85070D01*
X153588Y70503D02*
X152588Y71503D01*
X150589D01*
X149589Y70503D01*
Y66505D01*
X150589Y65505D01*
X152588D01*
X153588Y66505D01*
X155587Y65505D02*
X157586D01*
X156587D01*
Y71503D01*
X155587Y70503D01*
X160585Y66505D02*
X161585Y65505D01*
X163584D01*
X164584Y66505D01*
Y70503D01*
X163584Y71503D01*
X161585D01*
X160585Y70503D01*
Y69504D01*
X161585Y68504D01*
X164584D01*
X585725Y265447D02*
X584725Y266447D01*
X582726D01*
X581726Y265447D01*
Y261449D01*
X582726Y260449D01*
X584725D01*
X585725Y261449D01*
X587724Y260449D02*
X589723D01*
X588724D01*
Y266447D01*
X587724Y265447D01*
X592722D02*
X593722Y266447D01*
X595721D01*
X596721Y265447D01*
Y264447D01*
X595721Y263448D01*
X596721Y262448D01*
Y261449D01*
X595721Y260449D01*
X593722D01*
X592722Y261449D01*
Y262448D01*
X593722Y263448D01*
X592722Y264447D01*
Y265447D01*
X593722Y263448D02*
X595721D01*
X544533Y248062D02*
X543533Y249062D01*
X541534D01*
X540534Y248062D01*
Y244064D01*
X541534Y243064D01*
X543533D01*
X544533Y244064D01*
X546532Y243064D02*
X548531D01*
X547532D01*
Y249062D01*
X546532Y248062D01*
X551530Y249062D02*
X555529D01*
Y248062D01*
X551530Y244064D01*
Y243064D01*
X399799Y326798D02*
X398799Y327798D01*
X396800D01*
X395800Y326798D01*
Y322800D01*
X396800Y321800D01*
X398799D01*
X399799Y322800D01*
X401798D02*
X402798Y321800D01*
X404797D01*
X405797Y322800D01*
Y326798D01*
X404797Y327798D01*
X402798D01*
X401798Y326798D01*
Y325799D01*
X402798Y324799D01*
X405797D01*
X453331Y199243D02*
X452331Y200243D01*
X450332D01*
X449332Y199243D01*
Y195245D01*
X450332Y194245D01*
X452331D01*
X453331Y195245D01*
X455330Y199243D02*
X456330Y200243D01*
X458329D01*
X459329Y199243D01*
Y198244D01*
X458329Y197244D01*
X459329Y196244D01*
Y195245D01*
X458329Y194245D01*
X456330D01*
X455330Y195245D01*
Y196244D01*
X456330Y197244D01*
X455330Y198244D01*
Y199243D01*
X456330Y197244D02*
X458329D01*
X552544Y179558D02*
X551544Y180558D01*
X549545D01*
X548545Y179558D01*
Y175560D01*
X549545Y174560D01*
X551544D01*
X552544Y175560D01*
X558542Y180558D02*
X554543D01*
Y177559D01*
X556542Y178559D01*
X557542D01*
X558542Y177559D01*
Y175560D01*
X557542Y174560D01*
X555543D01*
X554543Y175560D01*
X470252Y207609D02*
X469252Y208609D01*
X467252D01*
X466253Y207609D01*
Y203611D01*
X467252Y202611D01*
X469252D01*
X470252Y203611D01*
X475250Y202611D02*
Y208609D01*
X472251Y205610D01*
X476250D01*
X464799Y328298D02*
X463799Y329298D01*
X461800D01*
X460800Y328298D01*
Y324300D01*
X461800Y323300D01*
X463799D01*
X464799Y324300D01*
X466798Y328298D02*
X467798Y329298D01*
X469797D01*
X470797Y328298D01*
Y327299D01*
X469797Y326299D01*
X468797D01*
X469797D01*
X470797Y325299D01*
Y324300D01*
X469797Y323300D01*
X467798D01*
X466798Y324300D01*
X525378Y209480D02*
X524379Y210479D01*
X522379D01*
X521380Y209480D01*
Y205481D01*
X522379Y204481D01*
X524379D01*
X525378Y205481D01*
X531376Y204481D02*
X527378D01*
X531376Y208480D01*
Y209480D01*
X530377Y210479D01*
X528377D01*
X527378Y209480D01*
D17*
X521386Y116543D02*
X537634D01*
X521386D02*
Y162213D01*
X537634Y116543D02*
Y162213D01*
X521386D02*
X537634D01*
X489882Y176469D02*
X502480D01*
X489882Y196153D02*
X502480D01*
Y176469D02*
Y196153D01*
X489882Y176469D02*
Y196153D01*
X501121Y212913D02*
X509059D01*
Y240472D01*
X506060Y243472D02*
X509059Y240472D01*
X501221Y243472D02*
X506060D01*
X393460Y212913D02*
X401260D01*
X393460D02*
Y243472D01*
X401260D01*
X326976Y212913D02*
X357119D01*
Y238972D01*
X352619Y243472D02*
X357119Y238972D01*
X326976Y243472D02*
X352619D01*
X212729Y212913D02*
X221538D01*
X212729Y243472D02*
X221538D01*
X89749Y212913D02*
X119889D01*
X89749D02*
Y243472D01*
X119889D01*
D18*
X533465Y112598D02*
Y110302D01*
X533924Y109843D01*
X534842D01*
X535301Y110302D01*
Y112598D01*
X538056Y112138D02*
X537597Y112598D01*
X536679D01*
X536220Y112138D01*
Y111679D01*
X536679Y111220D01*
X537597D01*
X538056Y110761D01*
Y110302D01*
X537597Y109843D01*
X536679D01*
X536220Y110302D01*
X538975Y112598D02*
Y109843D01*
X540352D01*
X540811Y110302D01*
Y110761D01*
X540352Y111220D01*
X538975D01*
X540352D01*
X540811Y111679D01*
Y112138D01*
X540352Y112598D01*
X538975D01*
X534252Y164961D02*
Y167716D01*
X535630D01*
X536089Y167256D01*
Y166338D01*
X535630Y165879D01*
X534252D01*
X538844Y167256D02*
X538384Y167716D01*
X537466D01*
X537007Y167256D01*
Y166797D01*
X537466Y166338D01*
X538384D01*
X538844Y165879D01*
Y165420D01*
X538384Y164961D01*
X537466D01*
X537007Y165420D01*
D19*
X490945Y165748D02*
D03*
M02*
