G04*
G04 #@! TF.GenerationSoftware,Altium Limited,Altium Designer,20.1.8 (145)*
G04*
G04 Layer_Color=128*
%FSLAX25Y25*%
%MOIN*%
G70*
G04*
G04 #@! TF.SameCoordinates,44B5AA11-E380-4430-9A95-22E2941CD606*
G04*
G04*
G04 #@! TF.FilePolarity,Positive*
G04*
G01*
G75*
%ADD21R,0.04016X0.07165*%
%ADD22R,0.07165X0.04016*%
%ADD25O,0.09252X0.02559*%
%ADD26R,0.09252X0.02559*%
%ADD27R,0.02756X0.05118*%
%ADD86R,0.05118X0.02756*%
D21*
X283976Y323500D02*
D03*
X295000D02*
D03*
X397476Y307500D02*
D03*
X408500D02*
D03*
X473012Y307000D02*
D03*
X461988D02*
D03*
X320866Y26772D02*
D03*
X309842D02*
D03*
X360236Y27953D02*
D03*
X349213D02*
D03*
X401575D02*
D03*
X390551D02*
D03*
X442913Y27559D02*
D03*
X431890D02*
D03*
X483071Y26772D02*
D03*
X472047D02*
D03*
X121653Y22441D02*
D03*
X110630D02*
D03*
X163779Y22047D02*
D03*
X152756D02*
D03*
X204724D02*
D03*
X193701D02*
D03*
X244882Y24803D02*
D03*
X233858D02*
D03*
X70472Y471260D02*
D03*
X81496D02*
D03*
X108268Y473228D02*
D03*
X119291D02*
D03*
X153150Y472835D02*
D03*
X164173D02*
D03*
X194095Y472047D02*
D03*
X205118D02*
D03*
X233071Y470866D02*
D03*
X244094D02*
D03*
X351988Y325000D02*
D03*
X363012D02*
D03*
D22*
X28346Y171653D02*
D03*
Y182677D02*
D03*
X26378Y130315D02*
D03*
Y141339D02*
D03*
X25984Y90551D02*
D03*
Y101575D02*
D03*
X25197Y49606D02*
D03*
Y60630D02*
D03*
X512992Y138976D02*
D03*
Y127953D02*
D03*
X496453Y177299D02*
D03*
Y188323D02*
D03*
X196850Y221654D02*
D03*
Y232677D02*
D03*
X462598Y222835D02*
D03*
Y233858D02*
D03*
X492520Y220472D02*
D03*
Y231496D02*
D03*
X310236Y233071D02*
D03*
Y222047D02*
D03*
X265748Y233071D02*
D03*
Y222047D02*
D03*
X288189Y233071D02*
D03*
Y222047D02*
D03*
D25*
X454000Y297500D02*
D03*
Y287500D02*
D03*
Y277500D02*
D03*
X418173Y307500D02*
D03*
Y297500D02*
D03*
Y287500D02*
D03*
Y277500D02*
D03*
X340327Y305000D02*
D03*
Y295000D02*
D03*
Y285000D02*
D03*
X304500Y315000D02*
D03*
Y305000D02*
D03*
Y295000D02*
D03*
Y285000D02*
D03*
D26*
X454000Y307500D02*
D03*
X340327Y315000D02*
D03*
D27*
X71850Y480709D02*
D03*
X79331D02*
D03*
X109646Y482283D02*
D03*
X117126D02*
D03*
X154921Y482677D02*
D03*
X162402D02*
D03*
X191831Y482382D02*
D03*
X199311D02*
D03*
X234449Y482283D02*
D03*
X241929D02*
D03*
D86*
X17717Y139173D02*
D03*
Y131693D02*
D03*
X467323Y292323D02*
D03*
Y299803D02*
D03*
X18898Y174606D02*
D03*
Y182087D02*
D03*
X18110Y92913D02*
D03*
Y100394D02*
D03*
X17323Y51378D02*
D03*
Y58858D02*
D03*
M02*
