G04*
G04 #@! TF.GenerationSoftware,Altium Limited,Altium Designer,20.1.8 (145)*
G04*
G04 Layer_Color=16711935*
%FSLAX25Y25*%
%MOIN*%
G70*
G04*
G04 #@! TF.SameCoordinates,44B5AA11-E380-4430-9A95-22E2941CD606*
G04*
G04*
G04 #@! TF.FilePolarity,Positive*
G04*
G01*
G75*
%ADD17C,0.02000*%
%ADD18C,0.00394*%
D17*
X488307Y176469D02*
X504055D01*
X488307Y196153D02*
X504055D01*
Y176469D02*
Y196153D01*
X488307Y176469D02*
Y196153D01*
D18*
X493819Y192610D02*
G03*
X493819Y192610I-1969J0D01*
G01*
X329528Y74410D02*
Y80709D01*
X316929D02*
X329528D01*
X316929Y74410D02*
Y80709D01*
Y74410D02*
X329528D01*
X140157Y73622D02*
X146457D01*
X140157Y61024D02*
Y73622D01*
Y61024D02*
X146457D01*
Y73622D01*
X209449Y71260D02*
Y77559D01*
Y71260D02*
X222047D01*
Y77559D01*
X209449D02*
X222047D01*
X295787Y320350D02*
Y326650D01*
X283189Y320350D02*
X295787D01*
X283189D02*
Y326650D01*
X295787D01*
X409287Y304350D02*
Y310650D01*
X396689Y304350D02*
X409287D01*
X396689D02*
Y310650D01*
X409287D01*
X461201Y303850D02*
Y310150D01*
X473799D01*
Y303850D02*
Y310150D01*
X461201Y303850D02*
X473799D01*
X236221Y383465D02*
Y389764D01*
Y383465D02*
X248819D01*
Y389764D01*
X236221D02*
X248819D01*
X175197Y185827D02*
X181496D01*
Y198425D01*
X175197D02*
X181496D01*
X175197Y185827D02*
Y198425D01*
X309055Y23622D02*
Y29921D01*
X321654D01*
Y23622D02*
Y29921D01*
X309055Y23622D02*
X321654D01*
X348425Y24803D02*
Y31102D01*
X361024D01*
Y24803D02*
Y31102D01*
X348425Y24803D02*
X361024D01*
X389764D02*
Y31102D01*
X402362D01*
Y24803D02*
Y31102D01*
X389764Y24803D02*
X402362D01*
X431102Y24409D02*
Y30709D01*
X443701D01*
Y24409D02*
Y30709D01*
X431102Y24409D02*
X443701D01*
X471260Y23622D02*
Y29921D01*
X483858D01*
Y23622D02*
Y29921D01*
X471260Y23622D02*
X483858D01*
X349701Y311850D02*
Y318150D01*
Y311850D02*
X362299D01*
Y318150D01*
X349701D02*
X362299D01*
X295811Y312350D02*
Y318650D01*
X283213D02*
X295811D01*
X283213Y312350D02*
Y318650D01*
Y312350D02*
X295811D01*
X25197Y183465D02*
X31496D01*
Y170866D02*
Y183465D01*
X25197Y170866D02*
X31496D01*
X25197D02*
Y183465D01*
X23228Y142126D02*
X29528D01*
Y129528D02*
Y142126D01*
X23228Y129528D02*
X29528D01*
X23228D02*
Y142126D01*
X22835Y102362D02*
X29134D01*
Y89764D02*
Y102362D01*
X22835Y89764D02*
X29134D01*
X22835D02*
Y102362D01*
X22047Y61417D02*
X28346D01*
Y48819D02*
Y61417D01*
X22047Y48819D02*
X28346D01*
X22047D02*
Y61417D01*
X109843Y19291D02*
Y25591D01*
X122441D01*
Y19291D02*
Y25591D01*
X109843Y19291D02*
X122441D01*
X151969Y18898D02*
Y25197D01*
X164567D01*
Y18898D02*
Y25197D01*
X151969Y18898D02*
X164567D01*
X192913D02*
Y25197D01*
X205512D01*
Y18898D02*
Y25197D01*
X192913Y18898D02*
X205512D01*
X233071Y21654D02*
Y27953D01*
X245669D01*
Y21654D02*
Y27953D01*
X233071Y21654D02*
X245669D01*
X459449Y133465D02*
Y139764D01*
Y133465D02*
X472047D01*
Y139764D01*
X459449D02*
X472047D01*
X509842Y127165D02*
X516142D01*
X509842D02*
Y139764D01*
X516142D01*
Y127165D02*
Y139764D01*
X581496Y235827D02*
X587795D01*
X581496Y223228D02*
Y235827D01*
Y223228D02*
X587795D01*
Y235827D01*
X493303Y189110D02*
X499602D01*
Y176512D02*
Y189110D01*
X493303Y176512D02*
X499602D01*
X493303D02*
Y189110D01*
X515154Y191661D02*
Y197961D01*
Y191661D02*
X527752D01*
Y197961D01*
X515154D02*
X527752D01*
X514153Y178161D02*
Y184461D01*
Y178161D02*
X526752D01*
Y184461D01*
X514153D02*
X526752D01*
X479252Y180661D02*
Y186961D01*
X466653D02*
X479252D01*
X466653Y180661D02*
Y186961D01*
Y180661D02*
X479252D01*
X193701Y233465D02*
X200000D01*
Y220866D02*
Y233465D01*
X193701Y220866D02*
X200000D01*
X193701D02*
Y233465D01*
X459449Y234646D02*
X465748D01*
Y222047D02*
Y234646D01*
X459449Y222047D02*
X465748D01*
X459449D02*
Y234646D01*
X489370Y232283D02*
X495669D01*
Y219685D02*
Y232283D01*
X489370Y219685D02*
X495669D01*
X489370D02*
Y232283D01*
X82284Y468110D02*
Y474409D01*
X69685Y468110D02*
X82284D01*
X69685D02*
Y474409D01*
X82284D01*
X120079Y470079D02*
Y476378D01*
X107480Y470079D02*
X120079D01*
X107480D02*
Y476378D01*
X120079D01*
X164961Y469685D02*
Y475984D01*
X152362Y469685D02*
X164961D01*
X152362D02*
Y475984D01*
X164961D01*
X205906Y468898D02*
Y475197D01*
X193307Y468898D02*
X205906D01*
X193307D02*
Y475197D01*
X205906D01*
X244882Y467717D02*
Y474016D01*
X232283Y467717D02*
X244882D01*
X232283D02*
Y474016D01*
X244882D01*
X307087Y221260D02*
Y233858D01*
Y221260D02*
X313386D01*
Y233858D01*
X307087D02*
X313386D01*
X262598Y221260D02*
Y233858D01*
Y221260D02*
X268898D01*
Y233858D01*
X262598D02*
X268898D01*
X285039Y221260D02*
Y233858D01*
Y221260D02*
X291339D01*
Y233858D01*
X285039D02*
X291339D01*
X380315Y389370D02*
X392913D01*
Y383071D02*
Y389370D01*
X380315Y383071D02*
X392913D01*
X380315D02*
Y389370D01*
X213169Y85827D02*
Y111811D01*
X135650Y85827D02*
X213169D01*
X135650D02*
Y111811D01*
X213169D01*
X208169D02*
X213169Y106811D01*
X351201Y321850D02*
X363799D01*
Y328150D01*
X351201D02*
X363799D01*
X351201Y321850D02*
Y328150D01*
X461701Y319150D02*
X474299D01*
Y312850D02*
Y319150D01*
X461701Y312850D02*
X474299D01*
X461701D02*
Y319150D01*
X467154Y192161D02*
X479752D01*
X467154D02*
Y198461D01*
X479752D01*
Y192161D02*
Y198461D01*
X396713Y311350D02*
X409311D01*
X396713D02*
Y317650D01*
X409311D01*
Y311350D02*
Y317650D01*
X588189Y242913D02*
Y255512D01*
X581890Y242913D02*
X588189D01*
X581890D02*
Y255512D01*
X588189D01*
X424803Y150965D02*
X450787D01*
Y73445D02*
Y150965D01*
X424803Y73445D02*
X450787D01*
X424803D02*
Y150965D01*
Y145965D02*
X429803Y150965D01*
X338583Y73839D02*
X364567D01*
X338583D02*
Y151358D01*
X364567D01*
Y73839D02*
Y151358D01*
X359567Y73839D02*
X364567Y78839D01*
X459055Y155118D02*
X471654D01*
Y148819D02*
Y155118D01*
X459055Y148819D02*
X471654D01*
X459055D02*
Y155118D01*
X201969Y328346D02*
X214567D01*
Y322047D02*
Y328346D01*
X201969Y322047D02*
X214567D01*
X201969D02*
Y328346D01*
X372441Y90158D02*
X385039D01*
Y83858D02*
Y90158D01*
X372441Y83858D02*
X385039D01*
X372441D02*
Y90158D01*
X245669Y185039D02*
Y197638D01*
X251969D01*
Y185039D02*
Y197638D01*
X245669Y185039D02*
X251969D01*
M02*
