G04*
G04 #@! TF.GenerationSoftware,Altium Limited,Altium Designer,20.1.8 (145)*
G04*
G04 Layer_Color=32896*
%FSLAX25Y25*%
%MOIN*%
G70*
G04*
G04 #@! TF.SameCoordinates,44B5AA11-E380-4430-9A95-22E2941CD606*
G04*
G04*
G04 #@! TF.FilePolarity,Positive*
G04*
G01*
G75*
%ADD11C,0.00787*%
%ADD13C,0.01968*%
%ADD16C,0.01000*%
D11*
X433587Y312500D02*
G03*
X438587Y312500I2500J0D01*
G01*
X319913Y320000D02*
G03*
X324913Y320000I2500J0D01*
G01*
X21260Y129134D02*
Y132923D01*
X14173Y129134D02*
X21260D01*
X14173D02*
Y141732D01*
X18701D01*
X21260Y132923D02*
Y141732D01*
X18701D02*
X21260D01*
X289488Y320744D02*
Y326256D01*
X402988Y304744D02*
Y310256D01*
X438587Y312500D02*
X446087D01*
X426087D02*
X433587D01*
X426087Y272500D02*
Y312500D01*
Y272500D02*
X446087D01*
Y312500D01*
X468307Y302362D02*
X470866D01*
Y293553D02*
Y302362D01*
X463779D02*
X468307D01*
X463779Y289764D02*
Y302362D01*
Y289764D02*
X470866D01*
Y293553D01*
X467500Y304244D02*
Y309756D01*
X315354Y24016D02*
Y29528D01*
X354724Y25197D02*
Y30709D01*
X396063Y25197D02*
Y30709D01*
X437402Y24803D02*
Y30315D01*
X477559Y24016D02*
Y29528D01*
X324913Y320000D02*
X332413D01*
X312413D02*
X319913D01*
X312413Y280000D02*
Y320000D01*
Y280000D02*
X332413D01*
Y320000D01*
X81890Y477165D02*
Y479724D01*
X73081Y477165D02*
X81890D01*
Y479724D02*
Y484252D01*
X69291D02*
X81890D01*
X69291Y477165D02*
Y484252D01*
Y477165D02*
X73081D01*
X119685Y478740D02*
Y481299D01*
X110876Y478740D02*
X119685D01*
Y481299D02*
Y485827D01*
X107087D02*
X119685D01*
X107087Y478740D02*
Y485827D01*
Y478740D02*
X110876D01*
X164961Y479134D02*
Y481693D01*
X156152Y479134D02*
X164961D01*
Y481693D02*
Y486221D01*
X152362D02*
X164961D01*
X152362Y479134D02*
Y486221D01*
Y479134D02*
X156152D01*
X201870Y478839D02*
Y481398D01*
X193061Y478839D02*
X201870D01*
Y481398D02*
Y485925D01*
X189272D02*
X201870D01*
X189272Y478839D02*
Y485925D01*
Y478839D02*
X193061D01*
X244488Y478740D02*
Y481299D01*
X235679Y478740D02*
X244488D01*
Y481299D02*
Y485827D01*
X231890D02*
X244488D01*
X231890Y478740D02*
Y485827D01*
Y478740D02*
X235679D01*
X19882Y184646D02*
X22441D01*
Y175837D02*
Y184646D01*
X15354D02*
X19882D01*
X15354Y172047D02*
Y184646D01*
Y172047D02*
X22441D01*
Y175837D01*
X25591Y177165D02*
X31102D01*
X23622Y135827D02*
X29134D01*
X19094Y102953D02*
X21654D01*
Y94144D02*
Y102953D01*
X14567D02*
X19094D01*
X14567Y90354D02*
Y102953D01*
Y90354D02*
X21654D01*
Y94144D01*
X23228Y96063D02*
X28740D01*
X18307Y61417D02*
X20866D01*
Y52608D02*
Y61417D01*
X13780D02*
X18307D01*
X13780Y48819D02*
Y61417D01*
Y48819D02*
X20866D01*
Y52608D01*
X22441Y55118D02*
X27953D01*
X116142Y19685D02*
Y25197D01*
X158268Y19291D02*
Y24803D01*
X199213Y19291D02*
Y24803D01*
X239370Y22047D02*
Y27559D01*
X510236Y133465D02*
X515748D01*
X493697Y182811D02*
X499209D01*
X194095Y227165D02*
X199606D01*
X459842Y228346D02*
X465354D01*
X489764Y225984D02*
X495276D01*
X75984Y468504D02*
Y474016D01*
X113779Y470472D02*
Y475984D01*
X158661Y470079D02*
Y475591D01*
X199606Y469291D02*
Y474803D01*
X238583Y468110D02*
Y473622D01*
X307480Y227559D02*
X312992D01*
X262992D02*
X268504D01*
X285433Y227559D02*
X290945D01*
X357500Y322244D02*
Y327756D01*
D13*
X443118Y308878D02*
G03*
X443118Y308878I-1028J0D01*
G01*
X329445Y316378D02*
G03*
X329445Y316378I-1028J0D01*
G01*
D16*
X66553Y136371D02*
Y142369D01*
X63554D01*
X62554Y141369D01*
Y139370D01*
X63554Y138370D01*
X66553D01*
X64553D02*
X62554Y136371D01*
X60555D02*
X58555D01*
X59555D01*
Y142369D01*
X60555Y141369D01*
X55556D02*
X54557Y142369D01*
X52557D01*
X51557Y141369D01*
Y140370D01*
X52557Y139370D01*
X53557D01*
X52557D01*
X51557Y138370D01*
Y137371D01*
X52557Y136371D01*
X54557D01*
X55556Y137371D01*
X316500Y334698D02*
X312501D01*
X314501D01*
Y328700D01*
X310502D02*
Y334698D01*
X307503D01*
X306503Y333698D01*
Y331699D01*
X307503Y330699D01*
X310502D01*
X308503D02*
X306503Y328700D01*
X304504Y333698D02*
X303504Y334698D01*
X301505D01*
X300505Y333698D01*
Y332699D01*
X301505Y331699D01*
X302504D01*
X301505D01*
X300505Y330699D01*
Y329700D01*
X301505Y328700D01*
X303504D01*
X304504Y329700D01*
X435738Y327015D02*
X431739D01*
X433739D01*
Y321017D01*
X429740D02*
Y327015D01*
X426741D01*
X425741Y326015D01*
Y324016D01*
X426741Y323016D01*
X429740D01*
X427740D02*
X425741Y321017D01*
X423742D02*
X421742D01*
X422742D01*
Y327015D01*
X423742Y326015D01*
X70096Y54088D02*
Y60086D01*
X67097D01*
X66097Y59086D01*
Y57087D01*
X67097Y56087D01*
X70096D01*
X68097D02*
X66097Y54088D01*
X64098D02*
X62099D01*
X63098D01*
Y60086D01*
X64098Y59086D01*
X56100Y54088D02*
Y60086D01*
X59100Y57087D01*
X55101D01*
X67734Y95820D02*
Y101818D01*
X64735D01*
X63735Y100818D01*
Y98819D01*
X64735Y97819D01*
X67734D01*
X65734D02*
X63735Y95820D01*
X61736D02*
X59736D01*
X60736D01*
Y101818D01*
X61736Y100818D01*
X52739Y95820D02*
X56737D01*
X52739Y99819D01*
Y100818D01*
X53738Y101818D01*
X55738D01*
X56737Y100818D01*
X62403Y178103D02*
Y184101D01*
X59404D01*
X58405Y183102D01*
Y181102D01*
X59404Y180103D01*
X62403D01*
X60404D02*
X58405Y178103D01*
X56405D02*
X54406D01*
X55406D01*
Y184101D01*
X56405Y183102D01*
X51407Y178103D02*
X49408D01*
X50407D01*
Y184101D01*
X51407Y183102D01*
X185352Y478202D02*
Y484200D01*
X182353D01*
X181353Y483200D01*
Y481201D01*
X182353Y480201D01*
X185352D01*
X183352D02*
X181353Y478202D01*
X179354D02*
X177355D01*
X178354D01*
Y484200D01*
X179354Y483200D01*
X174355D02*
X173356Y484200D01*
X171356D01*
X170357Y483200D01*
Y479201D01*
X171356Y478202D01*
X173356D01*
X174355Y479201D01*
Y483200D01*
X65628Y476529D02*
Y482527D01*
X62629D01*
X61630Y481527D01*
Y479528D01*
X62629Y478528D01*
X65628D01*
X63629D02*
X61630Y476529D01*
X59630Y482527D02*
X55632D01*
Y481527D01*
X59630Y477528D01*
Y476529D01*
X145943Y478103D02*
Y484101D01*
X142944D01*
X141945Y483102D01*
Y481102D01*
X142944Y480103D01*
X145943D01*
X143944D02*
X141945Y478103D01*
X135947Y484101D02*
X137946Y483102D01*
X139945Y481102D01*
Y479103D01*
X138945Y478103D01*
X136946D01*
X135947Y479103D01*
Y480103D01*
X136946Y481102D01*
X139945D01*
X103030Y478891D02*
Y484889D01*
X100031D01*
X99031Y483889D01*
Y481890D01*
X100031Y480890D01*
X103030D01*
X101031D02*
X99031Y478891D01*
X93033Y484889D02*
X97032D01*
Y481890D01*
X95033Y482889D01*
X94033D01*
X93033Y481890D01*
Y479890D01*
X94033Y478891D01*
X96032D01*
X97032Y479890D01*
X263660Y469048D02*
Y475046D01*
X260661D01*
X259661Y474047D01*
Y472047D01*
X260661Y471048D01*
X263660D01*
X261660D02*
X259661Y469048D01*
X254663D02*
Y475046D01*
X257662Y472047D01*
X253663D01*
X490613Y314324D02*
Y320322D01*
X487614D01*
X486614Y319322D01*
Y317323D01*
X487614Y316323D01*
X490613D01*
X488614D02*
X486614Y314324D01*
X484615D02*
X482616D01*
X483615D01*
Y320322D01*
X484615Y319322D01*
X520716Y243338D02*
X521715Y244338D01*
X523715D01*
X524714Y243338D01*
Y239339D01*
X523715Y238340D01*
X521715D01*
X520716Y239339D01*
X514717Y244338D02*
X518716D01*
Y241339D01*
X516717Y242338D01*
X515717D01*
X514717Y241339D01*
Y239339D01*
X515717Y238340D01*
X517717D01*
X518716Y239339D01*
X512718Y238340D02*
X510719D01*
X511719D01*
Y244338D01*
X512718Y243338D01*
X64629Y71684D02*
X65628Y72684D01*
X67628D01*
X68627Y71684D01*
Y67686D01*
X67628Y66686D01*
X65628D01*
X64629Y67686D01*
X58631Y72684D02*
X62629D01*
Y69685D01*
X60630Y70685D01*
X59630D01*
X58631Y69685D01*
Y67686D01*
X59630Y66686D01*
X61630D01*
X62629Y67686D01*
X56631Y71684D02*
X55632Y72684D01*
X53632D01*
X52632Y71684D01*
Y67686D01*
X53632Y66686D01*
X55632D01*
X56631Y67686D01*
Y71684D01*
X63054Y152787D02*
X64053Y153786D01*
X66053D01*
X67053Y152787D01*
Y148788D01*
X66053Y147788D01*
X64053D01*
X63054Y148788D01*
X58055Y147788D02*
Y153786D01*
X61054Y150787D01*
X57056D01*
X55056Y148788D02*
X54057Y147788D01*
X52057D01*
X51058Y148788D01*
Y152787D01*
X52057Y153786D01*
X54057D01*
X55056Y152787D01*
Y151787D01*
X54057Y150787D01*
X51058D01*
X273290Y29165D02*
X274290Y30164D01*
X276289D01*
X277289Y29165D01*
Y25166D01*
X276289Y24166D01*
X274290D01*
X273290Y25166D01*
X268292Y24166D02*
Y30164D01*
X271291Y27165D01*
X267292D01*
X265293Y29165D02*
X264293Y30164D01*
X262294D01*
X261294Y29165D01*
Y28165D01*
X262294Y27165D01*
X261294Y26166D01*
Y25166D01*
X262294Y24166D01*
X264293D01*
X265293Y25166D01*
Y26166D01*
X264293Y27165D01*
X265293Y28165D01*
Y29165D01*
X264293Y27165D02*
X262294D01*
X296908Y243755D02*
X297908Y244755D01*
X299907D01*
X300907Y243755D01*
Y239756D01*
X299907Y238757D01*
X297908D01*
X296908Y239756D01*
X291910Y238757D02*
Y244755D01*
X294909Y241756D01*
X290910D01*
X288911Y244755D02*
X284912D01*
Y243755D01*
X288911Y239756D01*
Y238757D01*
X208723Y55936D02*
X209723Y56936D01*
X211722D01*
X212722Y55936D01*
Y51938D01*
X211722Y50938D01*
X209723D01*
X208723Y51938D01*
X203725Y50938D02*
Y56936D01*
X206724Y53937D01*
X202725D01*
X197727Y50938D02*
Y56936D01*
X200726Y53937D01*
X196727D01*
X63054Y113023D02*
X64053Y114023D01*
X66053D01*
X67053Y113023D01*
Y109024D01*
X66053Y108025D01*
X64053D01*
X63054Y109024D01*
X58055Y108025D02*
Y114023D01*
X61054Y111024D01*
X57056D01*
X51058Y108025D02*
X55056D01*
X51058Y112023D01*
Y113023D01*
X52057Y114023D01*
X54057D01*
X55056Y113023D01*
X60479Y193338D02*
X61479Y194338D01*
X63478D01*
X64478Y193338D01*
Y189339D01*
X63478Y188340D01*
X61479D01*
X60479Y189339D01*
X55481Y188340D02*
Y194338D01*
X58480Y191339D01*
X54481D01*
X52482Y188340D02*
X50483D01*
X51482D01*
Y194338D01*
X52482Y193338D01*
X166597Y56330D02*
X167597Y57330D01*
X169596D01*
X170596Y56330D01*
Y52331D01*
X169596Y51332D01*
X167597D01*
X166597Y52331D01*
X161599Y51332D02*
Y57330D01*
X164598Y54331D01*
X160599D01*
X158600Y56330D02*
X157600Y57330D01*
X155601D01*
X154601Y56330D01*
Y52331D01*
X155601Y51332D01*
X157600D01*
X158600Y52331D01*
Y56330D01*
X211479Y250818D02*
X212479Y251818D01*
X214478D01*
X215478Y250818D01*
Y246819D01*
X214478Y245820D01*
X212479D01*
X211479Y246819D01*
X209480Y250818D02*
X208480Y251818D01*
X206481D01*
X205481Y250818D01*
Y249819D01*
X206481Y248819D01*
X207480D01*
X206481D01*
X205481Y247819D01*
Y246819D01*
X206481Y245820D01*
X208480D01*
X209480Y246819D01*
X203482D02*
X202482Y245820D01*
X200483D01*
X199483Y246819D01*
Y250818D01*
X200483Y251818D01*
X202482D01*
X203482Y250818D01*
Y249819D01*
X202482Y248819D01*
X199483D01*
X91794Y29558D02*
X92794Y30558D01*
X94793D01*
X95793Y29558D01*
Y25560D01*
X94793Y24560D01*
X92794D01*
X91794Y25560D01*
X89795Y29558D02*
X88795Y30558D01*
X86796D01*
X85796Y29558D01*
Y28559D01*
X86796Y27559D01*
X87795D01*
X86796D01*
X85796Y26559D01*
Y25560D01*
X86796Y24560D01*
X88795D01*
X89795Y25560D01*
X79798Y30558D02*
X81797Y29558D01*
X83797Y27559D01*
Y25560D01*
X82797Y24560D01*
X80797D01*
X79798Y25560D01*
Y26559D01*
X80797Y27559D01*
X83797D01*
X318989Y243761D02*
X319988Y244760D01*
X321988D01*
X322987Y243761D01*
Y239762D01*
X321988Y238762D01*
X319988D01*
X318989Y239762D01*
X316989Y243761D02*
X315990Y244760D01*
X313990D01*
X312991Y243761D01*
Y242761D01*
X313990Y241761D01*
X314990D01*
X313990D01*
X312991Y240762D01*
Y239762D01*
X313990Y238762D01*
X315990D01*
X316989Y239762D01*
X306993Y244760D02*
X310991D01*
Y241761D01*
X308992Y242761D01*
X307992D01*
X306993Y241761D01*
Y239762D01*
X307992Y238762D01*
X309992D01*
X310991Y239762D01*
X289826Y19322D02*
X290825Y20322D01*
X292825D01*
X293824Y19322D01*
Y15324D01*
X292825Y14324D01*
X290825D01*
X289826Y15324D01*
X287826Y19322D02*
X286826Y20322D01*
X284827D01*
X283827Y19322D01*
Y18323D01*
X284827Y17323D01*
X285827D01*
X284827D01*
X283827Y16323D01*
Y15324D01*
X284827Y14324D01*
X286826D01*
X287826Y15324D01*
X278829Y14324D02*
Y20322D01*
X281828Y17323D01*
X277829D01*
X274457Y243765D02*
X275457Y244765D01*
X277456D01*
X278456Y243765D01*
Y239767D01*
X277456Y238767D01*
X275457D01*
X274457Y239767D01*
X272458Y243765D02*
X271458Y244765D01*
X269459D01*
X268459Y243765D01*
Y242766D01*
X269459Y241766D01*
X270459D01*
X269459D01*
X268459Y240766D01*
Y239767D01*
X269459Y238767D01*
X271458D01*
X272458Y239767D01*
X266460Y243765D02*
X265460Y244765D01*
X263461D01*
X262461Y243765D01*
Y242766D01*
X263461Y241766D01*
X264460D01*
X263461D01*
X262461Y240766D01*
Y239767D01*
X263461Y238767D01*
X265460D01*
X266460Y239767D01*
X184314Y472865D02*
X185313Y473865D01*
X187313D01*
X188312Y472865D01*
Y468867D01*
X187313Y467867D01*
X185313D01*
X184314Y468867D01*
X182314Y472865D02*
X181315Y473865D01*
X179315D01*
X178316Y472865D01*
Y471866D01*
X179315Y470866D01*
X180315D01*
X179315D01*
X178316Y469867D01*
Y468867D01*
X179315Y467867D01*
X181315D01*
X182314Y468867D01*
X172318Y467867D02*
X176316D01*
X172318Y471866D01*
Y472865D01*
X173317Y473865D01*
X175317D01*
X176316Y472865D01*
X362290Y337298D02*
X363289Y338298D01*
X365288D01*
X366288Y337298D01*
Y333300D01*
X365288Y332300D01*
X363289D01*
X362290Y333300D01*
X356291Y332300D02*
X360290D01*
X356291Y336299D01*
Y337298D01*
X357291Y338298D01*
X359291D01*
X360290Y337298D01*
X354292Y338298D02*
X350293D01*
Y337298D01*
X354292Y333300D01*
Y332300D01*
X474077Y253181D02*
X475077Y254180D01*
X477076D01*
X478076Y253181D01*
Y249182D01*
X477076Y248182D01*
X475077D01*
X474077Y249182D01*
X468079Y248182D02*
X472078D01*
X468079Y252181D01*
Y253181D01*
X469079Y254180D01*
X471078D01*
X472078Y253181D01*
X462081Y254180D02*
X464081Y253181D01*
X466080Y251181D01*
Y249182D01*
X465080Y248182D01*
X463081D01*
X462081Y249182D01*
Y250181D01*
X463081Y251181D01*
X466080D01*
X272109Y334283D02*
X273109Y335282D01*
X275108D01*
X276108Y334283D01*
Y330284D01*
X275108Y329284D01*
X273109D01*
X272109Y330284D01*
X266111Y329284D02*
X270110D01*
X266111Y333283D01*
Y334283D01*
X267111Y335282D01*
X269110D01*
X270110Y334283D01*
X260113Y335282D02*
X264111D01*
Y332283D01*
X262112Y333283D01*
X261112D01*
X260113Y332283D01*
Y330284D01*
X261112Y329284D01*
X263112D01*
X264111Y330284D01*
X52424Y472865D02*
X53424Y473865D01*
X55423D01*
X56423Y472865D01*
Y468867D01*
X55423Y467867D01*
X53424D01*
X52424Y468867D01*
X46426Y467867D02*
X50424D01*
X46426Y471866D01*
Y472865D01*
X47425Y473865D01*
X49425D01*
X50424Y472865D01*
X41427Y467867D02*
Y473865D01*
X44427Y470866D01*
X40428D01*
X144550Y472078D02*
X145550Y473078D01*
X147549D01*
X148549Y472078D01*
Y468079D01*
X147549Y467080D01*
X145550D01*
X144550Y468079D01*
X138552Y467080D02*
X142551D01*
X138552Y471078D01*
Y472078D01*
X139551Y473078D01*
X141551D01*
X142551Y472078D01*
X136553D02*
X135553Y473078D01*
X133553D01*
X132554Y472078D01*
Y471078D01*
X133553Y470079D01*
X134553D01*
X133553D01*
X132554Y469079D01*
Y468079D01*
X133553Y467080D01*
X135553D01*
X136553Y468079D01*
X262554Y483889D02*
X263554Y484889D01*
X265553D01*
X266553Y483889D01*
Y479890D01*
X265553Y478891D01*
X263554D01*
X262554Y479890D01*
X260555Y478891D02*
X258555D01*
X259555D01*
Y484889D01*
X260555Y483889D01*
X251557Y484889D02*
X253557Y483889D01*
X255556Y481890D01*
Y479890D01*
X254557Y478891D01*
X252557D01*
X251557Y479890D01*
Y480890D01*
X252557Y481890D01*
X255556D01*
X506648Y156330D02*
X507648Y157330D01*
X509648D01*
X510647Y156330D01*
Y152331D01*
X509648Y151332D01*
X507648D01*
X506648Y152331D01*
X504649Y151332D02*
X502650D01*
X503649D01*
Y157330D01*
X504649Y156330D01*
X495652Y157330D02*
X499651D01*
Y154331D01*
X497651Y155330D01*
X496652D01*
X495652Y154331D01*
Y152331D01*
X496652Y151332D01*
X498651D01*
X499651Y152331D01*
X360192Y20110D02*
X361191Y21109D01*
X363191D01*
X364191Y20110D01*
Y16111D01*
X363191Y15111D01*
X361191D01*
X360192Y16111D01*
X358192Y15111D02*
X356193D01*
X357193D01*
Y21109D01*
X358192Y20110D01*
X350195Y15111D02*
Y21109D01*
X353194Y18110D01*
X349195D01*
X400743Y19322D02*
X401743Y20322D01*
X403742D01*
X404742Y19322D01*
Y15324D01*
X403742Y14324D01*
X401743D01*
X400743Y15324D01*
X398744Y14324D02*
X396744D01*
X397744D01*
Y20322D01*
X398744Y19322D01*
X393745D02*
X392745Y20322D01*
X390746D01*
X389746Y19322D01*
Y18323D01*
X390746Y17323D01*
X391746D01*
X390746D01*
X389746Y16323D01*
Y15324D01*
X390746Y14324D01*
X392745D01*
X393745Y15324D01*
X442081Y20503D02*
X443081Y21503D01*
X445081D01*
X446080Y20503D01*
Y16505D01*
X445081Y15505D01*
X443081D01*
X442081Y16505D01*
X440082Y15505D02*
X438083D01*
X439082D01*
Y21503D01*
X440082Y20503D01*
X431085Y15505D02*
X435084D01*
X431085Y19504D01*
Y20503D01*
X432085Y21503D01*
X434084D01*
X435084Y20503D01*
X480846Y20110D02*
X481845Y21109D01*
X483845D01*
X484844Y20110D01*
Y16111D01*
X483845Y15111D01*
X481845D01*
X480846Y16111D01*
X478846Y15111D02*
X476847D01*
X477847D01*
Y21109D01*
X478846Y20110D01*
X473848Y15111D02*
X471849D01*
X472848D01*
Y21109D01*
X473848Y20110D01*
X100743Y474047D02*
X101743Y475046D01*
X103742D01*
X104742Y474047D01*
Y470048D01*
X103742Y469048D01*
X101743D01*
X100743Y470048D01*
X98744Y469048D02*
X96744D01*
X97744D01*
Y475046D01*
X98744Y474047D01*
X93745D02*
X92746Y475046D01*
X90746D01*
X89746Y474047D01*
Y470048D01*
X90746Y469048D01*
X92746D01*
X93745Y470048D01*
Y474047D01*
X499425Y205936D02*
X500424Y206936D01*
X502424D01*
X503424Y205936D01*
Y201938D01*
X502424Y200938D01*
X500424D01*
X499425Y201938D01*
X497426Y206936D02*
X493427D01*
Y205936D01*
X497426Y201938D01*
Y200938D01*
X454543Y319716D02*
X455543Y320716D01*
X457542D01*
X458542Y319716D01*
Y315717D01*
X457542Y314718D01*
X455543D01*
X454543Y315717D01*
X448545Y320716D02*
X450544Y319716D01*
X452544Y317717D01*
Y315717D01*
X451544Y314718D01*
X449545D01*
X448545Y315717D01*
Y316717D01*
X449545Y317717D01*
X452544D01*
X406693Y301212D02*
X407693Y302212D01*
X409692D01*
X410692Y301212D01*
Y297213D01*
X409692Y296214D01*
X407693D01*
X406693Y297213D01*
X404694Y296214D02*
X402694D01*
X403694D01*
Y302212D01*
X404694Y301212D01*
M02*
