G04*
G04 #@! TF.GenerationSoftware,Altium Limited,Altium Designer,20.1.8 (145)*
G04*
G04 Layer_Color=32768*
%FSLAX25Y25*%
%MOIN*%
G70*
G04*
G04 #@! TF.SameCoordinates,44B5AA11-E380-4430-9A95-22E2941CD606*
G04*
G04*
G04 #@! TF.FilePolarity,Positive*
G04*
G01*
G75*
%ADD17C,0.02000*%
%ADD88C,0.00197*%
D17*
X496181Y184343D02*
Y188279D01*
X494213Y186311D02*
X498150D01*
X481614Y175484D02*
X510748D01*
X481614Y197138D02*
X510748D01*
Y175484D02*
Y197138D01*
X481614Y175484D02*
Y197138D01*
D88*
X331339Y73386D02*
Y81732D01*
X315118D02*
X331339D01*
X315118Y73386D02*
Y81732D01*
Y73386D02*
X331339D01*
X139134Y75433D02*
X147480D01*
X139134Y59213D02*
Y75433D01*
Y59213D02*
X147480D01*
Y75433D01*
X207638Y70236D02*
Y78583D01*
Y70236D02*
X223858D01*
Y78583D01*
X207638D02*
X223858D01*
X297598Y319327D02*
Y327673D01*
X281378Y319327D02*
X297598D01*
X281378D02*
Y327673D01*
X297598D01*
X411098Y303327D02*
Y311673D01*
X394878Y303327D02*
X411098D01*
X394878D02*
Y311673D01*
X411098D01*
X459390Y302827D02*
Y311173D01*
X475610D01*
Y302827D02*
Y311173D01*
X459390Y302827D02*
X475610D01*
X234409Y382441D02*
Y390787D01*
Y382441D02*
X250630D01*
Y390787D01*
X234409D02*
X250630D01*
X174173Y184016D02*
X182520D01*
Y200236D01*
X174173D02*
X182520D01*
X174173Y184016D02*
Y200236D01*
X307244Y22598D02*
Y30945D01*
X323465D01*
Y22598D02*
Y30945D01*
X307244Y22598D02*
X323465D01*
X346614Y23779D02*
Y32126D01*
X362835D01*
Y23779D02*
Y32126D01*
X346614Y23779D02*
X362835D01*
X387953D02*
Y32126D01*
X404173D01*
Y23779D02*
Y32126D01*
X387953Y23779D02*
X404173D01*
X429291Y23386D02*
Y31732D01*
X445512D01*
Y23386D02*
Y31732D01*
X429291Y23386D02*
X445512D01*
X469449Y22598D02*
Y30945D01*
X485669D01*
Y22598D02*
Y30945D01*
X469449Y22598D02*
X485669D01*
X347890Y310827D02*
Y319173D01*
Y310827D02*
X364110D01*
Y319173D01*
X347890D02*
X364110D01*
X297622Y311327D02*
Y319673D01*
X281402D02*
X297622D01*
X281402Y311327D02*
Y319673D01*
Y311327D02*
X297622D01*
X24173Y185276D02*
X32520D01*
Y169055D02*
Y185276D01*
X24173Y169055D02*
X32520D01*
X24173D02*
Y185276D01*
X22205Y143937D02*
X30551D01*
Y127717D02*
Y143937D01*
X22205Y127717D02*
X30551D01*
X22205D02*
Y143937D01*
X21811Y104173D02*
X30158D01*
Y87953D02*
Y104173D01*
X21811Y87953D02*
X30158D01*
X21811D02*
Y104173D01*
X21024Y63228D02*
X29370D01*
Y47008D02*
Y63228D01*
X21024Y47008D02*
X29370D01*
X21024D02*
Y63228D01*
X108031Y18268D02*
Y26614D01*
X124252D01*
Y18268D02*
Y26614D01*
X108031Y18268D02*
X124252D01*
X150157Y17874D02*
Y26221D01*
X166378D01*
Y17874D02*
Y26221D01*
X150157Y17874D02*
X166378D01*
X191102D02*
Y26221D01*
X207323D01*
Y17874D02*
Y26221D01*
X191102Y17874D02*
X207323D01*
X231260Y20630D02*
Y28976D01*
X247480D01*
Y20630D02*
Y28976D01*
X231260Y20630D02*
X247480D01*
X457638Y132441D02*
Y140787D01*
Y132441D02*
X473858D01*
Y140787D01*
X457638D02*
X473858D01*
X508819Y125354D02*
X517165D01*
X508819D02*
Y141575D01*
X517165D01*
Y125354D02*
Y141575D01*
X580472Y237638D02*
X588819D01*
X580472Y221417D02*
Y237638D01*
Y221417D02*
X588819D01*
Y237638D01*
X492279Y190921D02*
X500626D01*
Y174701D02*
Y190921D01*
X492279Y174701D02*
X500626D01*
X492279D02*
Y190921D01*
X513343Y190638D02*
Y198984D01*
Y190638D02*
X529563D01*
Y198984D01*
X513343D02*
X529563D01*
X512343Y177138D02*
Y185484D01*
Y177138D02*
X528563D01*
Y185484D01*
X512343D02*
X528563D01*
X481063Y179638D02*
Y187984D01*
X464843D02*
X481063D01*
X464843Y179638D02*
Y187984D01*
Y179638D02*
X481063D01*
X192677Y235276D02*
X201024D01*
Y219055D02*
Y235276D01*
X192677Y219055D02*
X201024D01*
X192677D02*
Y235276D01*
X458425Y236457D02*
X466772D01*
Y220236D02*
Y236457D01*
X458425Y220236D02*
X466772D01*
X458425D02*
Y236457D01*
X488346Y234095D02*
X496693D01*
Y217874D02*
Y234095D01*
X488346Y217874D02*
X496693D01*
X488346D02*
Y234095D01*
X84095Y467087D02*
Y475433D01*
X67874Y467087D02*
X84095D01*
X67874D02*
Y475433D01*
X84095D01*
X121890Y469055D02*
Y477402D01*
X105669Y469055D02*
X121890D01*
X105669D02*
Y477402D01*
X121890D01*
X166772Y468661D02*
Y477008D01*
X150551Y468661D02*
X166772D01*
X150551D02*
Y477008D01*
X166772D01*
X207716Y467874D02*
Y476221D01*
X191496Y467874D02*
X207716D01*
X191496D02*
Y476221D01*
X207716D01*
X246693Y466693D02*
Y475039D01*
X230472Y466693D02*
X246693D01*
X230472D02*
Y475039D01*
X246693D01*
X306063Y219449D02*
Y235669D01*
Y219449D02*
X314409D01*
Y235669D01*
X306063D02*
X314409D01*
X261575Y219449D02*
Y235669D01*
Y219449D02*
X269921D01*
Y235669D01*
X261575D02*
X269921D01*
X284016Y219449D02*
Y235669D01*
Y219449D02*
X292362D01*
Y235669D01*
X284016D02*
X292362D01*
X378504Y390394D02*
X394724D01*
Y382047D02*
Y390394D01*
X378504Y382047D02*
X394724D01*
X378504D02*
Y390394D01*
X214154Y79350D02*
Y118287D01*
X134665Y79350D02*
X214154D01*
X134665D02*
Y118287D01*
X214154D01*
X349390Y320827D02*
X365610D01*
Y329173D01*
X349390D02*
X365610D01*
X349390Y320827D02*
Y329173D01*
X459890Y320173D02*
X476110D01*
Y311827D02*
Y320173D01*
X459890Y311827D02*
X476110D01*
X459890D02*
Y320173D01*
X465343Y191138D02*
X481563D01*
X465343D02*
Y199484D01*
X481563D01*
Y191138D02*
Y199484D01*
X394902Y310327D02*
X411122D01*
X394902D02*
Y318673D01*
X411122D01*
Y310327D02*
Y318673D01*
X589213Y241102D02*
Y257323D01*
X580866Y241102D02*
X589213D01*
X580866D02*
Y257323D01*
X589213D01*
X418327Y151949D02*
X457264D01*
Y72461D02*
Y151949D01*
X418327Y72461D02*
X457264D01*
X418327D02*
Y151949D01*
X332106Y72854D02*
X371043D01*
X332106D02*
Y152342D01*
X371043D01*
Y72854D02*
Y152342D01*
X457244Y156142D02*
X473465D01*
Y147795D02*
Y156142D01*
X457244Y147795D02*
X473465D01*
X457244D02*
Y156142D01*
X200157Y329370D02*
X216378D01*
Y321024D02*
Y329370D01*
X200157Y321024D02*
X216378D01*
X200157D02*
Y329370D01*
X370630Y91181D02*
X386850D01*
Y82835D02*
Y91181D01*
X370630Y82835D02*
X386850D01*
X370630D02*
Y91181D01*
X244646Y183228D02*
Y199449D01*
X252992D01*
Y183228D02*
Y199449D01*
X244646Y183228D02*
X252992D01*
M02*
