G04*
G04 #@! TF.GenerationSoftware,Altium Limited,Altium Designer,20.1.8 (145)*
G04*
G04 Layer_Physical_Order=1*
G04 Layer_Color=255*
%FSLAX25Y25*%
%MOIN*%
G70*
G04*
G04 #@! TF.SameCoordinates,44B5AA11-E380-4430-9A95-22E2941CD606*
G04*
G04*
G04 #@! TF.FilePolarity,Positive*
G04*
G01*
G75*
%ADD13C,0.01968*%
%ADD20R,0.07480X0.10984*%
%ADD21R,0.04016X0.07165*%
%ADD22R,0.07165X0.04016*%
%ADD23O,0.07087X0.02362*%
%ADD24R,0.07087X0.02362*%
%ADD25O,0.09252X0.02559*%
%ADD26R,0.09252X0.02559*%
%ADD27R,0.02756X0.05118*%
%ADD28R,0.03150X0.03150*%
%ADD29R,0.09843X0.07874*%
%ADD30R,0.09055X0.01968*%
%ADD31O,0.05709X0.02362*%
%ADD32R,0.01968X0.10724*%
%ADD33R,0.01969X0.10724*%
%ADD66C,0.03937*%
%ADD67C,0.07874*%
%ADD68C,0.07874*%
%ADD69R,0.07874X0.07874*%
%ADD70C,0.05512*%
%ADD71C,0.15748*%
%ADD72C,0.10118*%
%ADD73C,0.06299*%
%ADD74R,0.07874X0.07874*%
%ADD75C,0.06000*%
%ADD76R,0.04449X0.04449*%
%ADD77C,0.04449*%
%ADD78R,0.07874X0.06299*%
%ADD79O,0.07874X0.06299*%
%ADD80R,0.04449X0.04449*%
%ADD81C,0.05307*%
%ADD82C,0.00100*%
%ADD83C,0.10630*%
%ADD84C,0.03937*%
%ADD85C,0.05000*%
D13*
X38500Y121441D02*
X73752Y156693D01*
X103703Y161902D02*
X112301Y170500D01*
X38520Y161902D02*
X103703D01*
X65842Y126079D02*
X90158Y150394D01*
X194965Y156693D02*
X203772Y165500D01*
X192863Y150394D02*
X197982Y155512D01*
X73752Y156693D02*
X194965D01*
X90158Y150394D02*
X192863D01*
X578543Y128937D02*
X578740Y128740D01*
X577969Y129511D02*
X578543Y128937D01*
X574032Y129511D02*
X577969D01*
X572441Y131102D02*
X574032Y129511D01*
X564961Y131102D02*
X572441D01*
X561417Y143701D02*
X564961D01*
X558268Y146850D02*
X561417Y143701D01*
X558268Y146850D02*
Y146850D01*
X571260Y143701D02*
Y147244D01*
X564961Y143701D02*
X571260D01*
X529560Y129528D02*
X531135Y131102D01*
X564961D01*
X529134Y129528D02*
X529560D01*
X112301Y170500D02*
X177000D01*
X70709Y188583D02*
X105681Y223555D01*
X104173Y189370D02*
X116061Y201257D01*
X36063Y347008D02*
X36614Y346457D01*
X60236D01*
X82677Y324016D02*
X115748D01*
X60236Y346457D02*
X82677Y324016D01*
X205345Y250953D02*
X213604Y242694D01*
Y235609D02*
Y242694D01*
X188811Y250953D02*
X205345D01*
X213604Y235609D02*
X218685Y230528D01*
X115748Y324016D02*
X188811Y250953D01*
X218685Y230528D02*
X244180D01*
X250204Y221500D02*
Y224503D01*
X244180Y230528D02*
X250204Y224503D01*
Y221500D02*
X250205Y221500D01*
X240756D02*
Y226406D01*
X219657Y227559D02*
X239603D01*
X218504Y226406D02*
X219657Y227559D01*
X218504Y217323D02*
Y226406D01*
X239603Y227559D02*
X240756Y226406D01*
X101181Y142126D02*
X254398D01*
X277772Y165500D01*
X75197Y116142D02*
X101181Y142126D01*
X176955Y175545D02*
X177000Y175500D01*
X164218Y175545D02*
X176955D01*
X164173Y175591D02*
X164218Y175545D01*
X187311Y175500D02*
X194095Y182283D01*
X177000Y175500D02*
X187311D01*
X194095Y182283D02*
Y192913D01*
X218504Y217323D01*
X237606Y211107D02*
X237606Y211107D01*
X243905Y210909D02*
Y221500D01*
X237606Y211107D02*
Y221500D01*
X213953Y180957D02*
X243905Y210909D01*
X142500Y461500D02*
X158165Y477165D01*
X251335D02*
X291339Y437161D01*
X158165Y477165D02*
X251335D01*
X469828Y286500D02*
X471000D01*
X468517Y287811D02*
X469828Y286500D01*
X527465Y194311D02*
X531453D01*
X515844Y194907D02*
Y201671D01*
X515993Y201820D01*
X283500Y315000D02*
X284000Y315500D01*
X283500Y315000D02*
X284252Y314248D01*
X578543Y128937D02*
Y145866D01*
X578346Y146063D02*
X578543Y145866D01*
X250386Y205248D02*
X274606Y181027D01*
Y179189D02*
Y181027D01*
X250386Y205248D02*
Y215000D01*
X462284Y234886D02*
Y245280D01*
X462247Y245317D02*
X462284Y245280D01*
X265953Y234886D02*
Y244727D01*
X266756Y245530D01*
Y246063D01*
X310047Y234886D02*
Y245278D01*
X284252Y314248D02*
Y314961D01*
X196661Y234886D02*
Y245858D01*
X196457Y246063D02*
X196661Y245858D01*
X206059Y170425D02*
X206134Y170500D01*
X202708Y170425D02*
X206059D01*
X202362Y170079D02*
X202708Y170425D01*
X496929Y234886D02*
Y243846D01*
X497316Y244232D01*
Y244765D01*
X525965Y181311D02*
X530953D01*
X459646Y137205D02*
X460236Y136614D01*
X453425Y137205D02*
X459646D01*
X506910Y193811D02*
X507013D01*
X507195Y193993D01*
Y200108D01*
X507480Y200394D01*
X506910Y188811D02*
Y193811D01*
X515844Y194907D02*
X515941Y194811D01*
X176896Y180604D02*
X177000Y180500D01*
X172955Y180604D02*
X176896D01*
X172850Y180709D02*
X172955Y180604D01*
X173228Y186614D02*
X178347D01*
X206134Y180500D02*
X206231D01*
X206413Y180682D01*
Y182791D01*
X206693Y183071D01*
X248911Y180604D02*
X250896D01*
X245774D02*
X248911D01*
X248819Y180697D02*
X248911Y180604D01*
X250896D02*
X251000Y180500D01*
X245669Y180709D02*
X245774Y180604D01*
X248819Y180697D02*
Y185827D01*
X280002Y180500D02*
X280134D01*
X279820Y180682D02*
X280002Y180500D01*
X279820Y180682D02*
Y182341D01*
X279506Y182655D02*
X279820Y182341D01*
X280134Y170500D02*
X280148Y170486D01*
X285813D01*
X285827Y170472D01*
X288000Y234886D02*
Y245874D01*
X288189Y246063D01*
X295276Y315500D02*
X300153D01*
X324000Y305000D02*
X339827D01*
X473512Y317575D02*
X475378Y319441D01*
X476886D02*
X477262Y319818D01*
X475378Y319441D02*
X476886D01*
X339827Y315000D02*
X350488D01*
X346457Y321654D02*
X346833Y321277D01*
Y320230D02*
Y321277D01*
Y320230D02*
X350488Y316575D01*
X208496Y175500D02*
X212360Y171636D01*
X214190D01*
X214567Y171260D01*
X232283Y173594D02*
X232660Y173971D01*
X236471D01*
X240501Y170500D02*
X251000D01*
X239643Y169642D02*
X240501Y170500D01*
X217559Y155512D02*
X231689Y169642D01*
X239643D01*
X236471Y173971D02*
X238000Y175500D01*
X288402Y210630D02*
Y211163D01*
X288000Y211564D02*
Y221500D01*
Y211564D02*
X288402Y211163D01*
X230500Y362000D02*
X236000D01*
X192000Y300000D02*
X197866D01*
X180913Y233508D02*
Y234886D01*
Y245280D01*
X180812Y245382D02*
X180913Y245280D01*
X196514Y210961D02*
X196661Y211108D01*
Y221500D01*
X248442Y253168D02*
Y257588D01*
Y253168D02*
X248819Y252791D01*
X270000Y254547D02*
Y286910D01*
X342055Y274558D02*
X362874Y253740D01*
X345669Y265354D02*
X379528Y231496D01*
X318898Y265354D02*
X345669D01*
X379528Y163891D02*
Y231496D01*
X473512Y316000D02*
Y317575D01*
X427638Y211107D02*
Y221500D01*
X136819Y234886D02*
Y245281D01*
X136912Y245374D01*
X139969Y211817D02*
Y221500D01*
X129409Y201257D02*
X139969Y211817D01*
X133669Y211107D02*
Y221500D01*
X116061Y201257D02*
X129409D01*
X155717Y234886D02*
Y243889D01*
X157655Y245827D01*
X159751D01*
X160128Y246203D01*
X152567Y211107D02*
Y221500D01*
X152567Y211107D02*
X152567Y211107D01*
X177764D02*
Y221500D01*
X177764Y211107D02*
X177764Y211107D01*
X181095Y231702D02*
Y233327D01*
Y231702D02*
X182257Y230540D01*
X192168D01*
X193512Y231883D02*
Y234886D01*
X192168Y230540D02*
X193512Y231883D01*
X180913Y233508D02*
X181095Y233327D01*
X455256Y287811D02*
X468517D01*
X454945Y287500D02*
X455256Y287811D01*
X412142D02*
X417689D01*
X409826Y285495D02*
X412142Y287811D01*
X409826Y282672D02*
Y285495D01*
X417689Y287811D02*
X418000Y287500D01*
X400978Y273825D02*
X409826Y282672D01*
X413779Y281721D02*
Y283070D01*
Y281721D02*
X418000Y277500D01*
X310236Y206693D02*
Y209842D01*
X310047Y210032D02*
X310236Y209842D01*
X310047Y210032D02*
Y221500D01*
X462284Y210315D02*
Y221500D01*
X462205Y210236D02*
X462284Y210315D01*
X255000Y359055D02*
Y364228D01*
Y307500D02*
Y359055D01*
X310827Y342913D02*
Y344094D01*
X303150Y351772D02*
X310827Y344094D01*
X262283Y351772D02*
X303150D01*
X255000Y359055D02*
X262283Y351772D01*
X300654Y315000D02*
X300673D01*
X303346Y329801D02*
Y342913D01*
X300378Y326833D02*
X303346Y329801D01*
X300378Y315295D02*
Y326833D01*
Y315295D02*
X300673Y315000D01*
X302327D01*
X291339Y369291D02*
Y437161D01*
X265134Y362000D02*
X284047D01*
X291339Y369291D01*
X262803Y234886D02*
Y248803D01*
X265953Y211107D02*
Y221500D01*
X496929Y212497D02*
Y221500D01*
X495586Y211154D02*
X496929Y212497D01*
X494364Y211154D02*
X495586D01*
X493052Y209842D02*
X494364Y211154D01*
X492520Y209842D02*
X493052D01*
X120019Y223555D02*
X122310Y225846D01*
X136638Y223059D02*
X136819Y222878D01*
X135475Y225846D02*
X136638Y224684D01*
X122310Y225846D02*
X135475D01*
X105681Y223555D02*
X120019D01*
X136638Y223059D02*
Y224684D01*
X136819Y221500D02*
Y222878D01*
X206886Y296063D02*
Y303343D01*
Y289327D02*
Y296063D01*
X195504Y305000D02*
X197866D01*
X182500Y318004D02*
X195504Y305000D01*
X179409Y76793D02*
Y83189D01*
X178347Y75730D02*
X179409Y76793D01*
X178347Y75197D02*
Y75730D01*
X172850Y165500D02*
X177000D01*
X280134Y175500D02*
X287910D01*
X277878D02*
X280134D01*
X293307Y170079D02*
Y170103D01*
X287910Y175500D02*
X293307Y170103D01*
Y170079D02*
X307716D01*
X308110Y169685D01*
X245540Y159084D02*
X253965D01*
X261057Y166175D01*
X253491Y175371D02*
X261057Y167806D01*
Y166175D02*
Y167806D01*
X251000Y175500D02*
X251129Y175371D01*
X253491D01*
X239606Y153150D02*
X245540Y159084D01*
X213953Y180957D02*
Y184472D01*
X205913Y192512D02*
X213953Y184472D01*
X208496Y175500D02*
X213953Y180957D01*
X238420Y265979D02*
X240051D01*
X242987Y255211D02*
X244087Y254112D01*
X242987Y255211D02*
Y257453D01*
X242610Y257830D02*
X242987Y257453D01*
X226362Y253921D02*
X238420Y265979D01*
X240051D02*
X248442Y257588D01*
X206886Y303343D02*
X256500Y253728D01*
Y242844D02*
Y253728D01*
X237966Y259935D02*
X238342Y260312D01*
X237966Y256966D02*
Y259935D01*
X202221Y253921D02*
X226362D01*
X237500Y256500D02*
X237966Y256966D01*
X197087Y259055D02*
X202221Y253921D01*
X200228Y310000D02*
X206886Y303343D01*
X197874Y280315D02*
X206886Y289327D01*
X288307Y295000D02*
X304000D01*
X282126Y301181D02*
X288307Y295000D01*
X269291Y386614D02*
X270120Y385786D01*
X270661Y375165D02*
Y383296D01*
X270120Y383837D02*
X270661Y383296D01*
X270120Y383837D02*
Y385786D01*
X267496Y372000D02*
X270661Y375165D01*
X265134Y372000D02*
X267496D01*
X409315Y369000D02*
X417717Y377402D01*
X403634Y369000D02*
X409315D01*
X388930Y404413D02*
X426689D01*
X430500Y307193D02*
Y400602D01*
X426689Y404413D02*
X430500Y400602D01*
X325813Y296391D02*
X326190Y296014D01*
X327396D02*
X327802Y295608D01*
X315973Y307437D02*
Y359955D01*
X326416Y296994D02*
X328410Y295000D01*
X315973Y307437D02*
X326416Y296994D01*
X326190Y296014D02*
X327396D01*
X298532Y377396D02*
Y429914D01*
Y377396D02*
X315973Y359955D01*
X298532Y429914D02*
X315973Y447356D01*
X388976Y261823D02*
X400978Y273825D01*
X387795Y286221D02*
X388583D01*
X400978Y273825D01*
X226633Y370079D02*
X230559D01*
X222579Y415889D02*
X223461Y416771D01*
X235871Y367129D02*
X236000Y367000D01*
X233531Y372000D02*
X236000D01*
X222579Y374133D02*
Y415889D01*
X225547Y388303D02*
X242362Y405118D01*
X222579Y374133D02*
X226633Y370079D01*
X230559D02*
X233509Y367129D01*
X225547Y375363D02*
Y388303D01*
X227863Y373047D02*
X232484D01*
X223461Y416771D02*
Y461480D01*
X233509Y367129D02*
X235871D01*
X225547Y375363D02*
X227863Y373047D01*
X232484D02*
X233531Y372000D01*
X359291Y403543D02*
X366520Y396315D01*
Y382003D02*
Y396315D01*
X241339Y289370D02*
X265671Y265038D01*
Y262829D02*
Y265038D01*
Y262829D02*
X266047Y262453D01*
X467441Y194811D02*
X467941Y195311D01*
X463453Y194811D02*
X467441D01*
X277696Y175682D02*
X277878Y175500D01*
X277696Y175682D02*
Y176099D01*
X274606Y179189D02*
X277696Y176099D01*
X247055Y207291D02*
Y221500D01*
X227447Y186053D02*
X238000Y175500D01*
X227447Y186053D02*
Y187683D01*
X247055Y207291D01*
X350488Y315000D02*
Y316575D01*
X453816Y307500D02*
X453827D01*
X453543Y307773D02*
X453816Y307500D01*
X453543Y307773D02*
Y311748D01*
X479787Y408287D02*
X572956D01*
X437500Y366000D02*
X479787Y408287D01*
X437500Y297500D02*
Y366000D01*
X481158Y313713D02*
Y318748D01*
X562413Y400003D01*
X566489D01*
X474565Y301678D02*
X475862Y300381D01*
X459902Y292457D02*
X474700D01*
X474565Y301678D02*
Y307120D01*
X475862Y293619D02*
Y300381D01*
X474565Y307120D02*
X481158Y313713D01*
X437500Y297500D02*
X453827D01*
X366520Y372378D02*
Y382003D01*
X388930Y404413D01*
X369898Y369000D02*
X374500D01*
X366520Y372378D02*
X369898Y369000D01*
X370700Y364000D02*
X374500D01*
X312200Y422500D02*
X370700Y364000D01*
X306000Y422500D02*
X312200D01*
X251047Y305863D02*
Y359315D01*
X238491Y371871D02*
X251047Y359315D01*
X236129Y371871D02*
X238491D01*
X393771Y359000D02*
X403634D01*
X389818Y355047D02*
X393771Y359000D01*
X365953Y355047D02*
X389818D01*
X209409Y83189D02*
X209823Y82776D01*
Y74823D02*
Y82776D01*
Y74823D02*
X210236Y74410D01*
X328780Y77598D02*
X335945D01*
X328740Y77559D02*
X328780Y77598D01*
X453425Y147205D02*
X453900Y147679D01*
X455553D01*
X457244Y149370D01*
X458819D01*
X459842Y150394D01*
Y151969D01*
X314802Y295000D02*
X335244Y274558D01*
X304000Y295000D02*
X314802D01*
X335244Y274558D02*
X342055D01*
X388976Y249606D02*
Y261823D01*
X318110Y266142D02*
X318898Y265354D01*
X420422Y122996D02*
X433587D01*
X442004Y131413D02*
X455168D01*
X457634Y128948D01*
X379528Y163891D02*
X420422Y122996D01*
X449217Y101413D02*
X453425Y97205D01*
X449217Y108948D02*
X452473Y112205D01*
X454377D01*
X457634Y115461D02*
Y128948D01*
X454377Y112205D02*
X457634Y115461D01*
X433587Y122996D02*
X442004Y131413D01*
X449217Y101413D02*
Y108948D01*
X259472Y232064D02*
Y235039D01*
X266424Y260445D02*
Y262076D01*
Y260445D02*
X266435Y260435D01*
X259653Y253654D02*
X266435Y260435D01*
X373446Y164743D02*
X422441Y115748D01*
X251047Y305863D02*
X270000Y286910D01*
X266047Y262453D02*
X266424Y262076D01*
X319759Y230540D02*
X373446Y176852D01*
X422165Y117205D02*
X422441Y116929D01*
X373446Y164743D02*
Y176852D01*
X422441Y115748D02*
Y116929D01*
X260997Y230540D02*
X319759D01*
X259653Y234886D02*
Y253654D01*
X259472Y232064D02*
X260997Y230540D01*
X253354Y234886D02*
Y248220D01*
X248819Y252756D02*
X253354Y248220D01*
X256500Y242844D02*
X256504Y242840D01*
Y234886D02*
Y242840D01*
X262803Y248803D02*
X268547Y254547D01*
X238000Y175500D02*
X251000D01*
X197982Y155512D02*
X217559D01*
X277772Y165500D02*
X280134D01*
X203772D02*
X206134D01*
Y175500D02*
X208496D01*
X38575Y39961D02*
X75197Y76583D01*
Y116142D01*
X38575Y80807D02*
X65842Y108075D01*
Y126079D01*
X377213Y289866D02*
X386000Y298653D01*
X324134Y289866D02*
X377213D01*
X309000Y305000D02*
X324134Y289866D01*
X386000Y298653D02*
Y318092D01*
X315973Y447356D02*
Y456500D01*
Y457432D01*
X386000Y318092D02*
X412953Y345045D01*
Y365637D01*
X403709Y368925D02*
X409665D01*
X403634Y369000D02*
X403709Y368925D01*
X409665D02*
X412953Y365637D01*
X418000Y297500D02*
X421187D01*
X421459Y297773D01*
Y298152D01*
X430500Y307193D01*
X307000Y414000D02*
X365953Y355047D01*
X369500Y359000D02*
X374500D01*
X182500Y460961D02*
X183020Y461480D01*
X152500Y462000D02*
X152520Y461980D01*
X245000Y165500D02*
X251000D01*
X236000Y372000D02*
X236129Y371871D01*
X262772Y372000D02*
X265134D01*
X255000Y364228D02*
X262772Y372000D01*
X197866Y310000D02*
X200228D01*
X244087Y240000D02*
Y254112D01*
X298000Y276000D02*
Y281410D01*
X299953Y283363D01*
Y284139D01*
X383953Y460953D02*
X394500Y471500D01*
X392969D02*
X394500D01*
X309630Y476248D02*
X332787D01*
X316905Y456500D02*
X388992D01*
X304890Y471508D02*
X309630Y476248D01*
X348083Y460953D02*
X383953D01*
X388992Y456500D02*
X396984Y464492D01*
X332787Y476248D02*
X348083Y460953D01*
X300000Y466618D02*
X304890Y471508D01*
X300000Y453000D02*
Y466618D01*
X315973Y457432D02*
X316905Y456500D01*
X328410Y295000D02*
X339827D01*
X308906Y464500D02*
X315973Y457432D01*
X339827Y305000D02*
X354760D01*
X364957Y295043D02*
X365000Y295000D01*
X364957Y295043D02*
Y301102D01*
X362240Y303819D02*
X364957Y301102D01*
X362240Y303819D02*
Y305000D01*
X339827Y295000D02*
X355000D01*
X237500Y256500D02*
X240756Y253244D01*
Y234886D02*
Y253244D01*
X268547Y254547D02*
X270000D01*
X300813Y285000D02*
X304000D01*
X299953Y284139D02*
X300813Y285000D01*
X300153Y315500D02*
X300654Y315000D01*
X484000Y463008D02*
X491984Y470992D01*
X484000Y437500D02*
Y463008D01*
X477500Y445000D02*
Y467531D01*
X487968Y478000D01*
X453827Y287500D02*
X454945D01*
X459902Y292457D01*
X570033Y403547D02*
X570992D01*
X566489Y400003D02*
X570033Y403547D01*
X474700Y292457D02*
X475862Y293619D01*
X434500Y297000D02*
X435033D01*
X435533Y297500D01*
X437500D01*
X577322Y408241D02*
X578000Y407563D01*
X573002Y408241D02*
X577322D01*
X572956Y408287D02*
X573002Y408241D01*
X434000Y287500D02*
X453827D01*
Y297500D02*
X472106D01*
X472500Y297000D02*
Y297106D01*
X472106Y297500D02*
X472500Y297106D01*
X480374Y287126D02*
X481000Y286500D01*
X480374Y287126D02*
Y296606D01*
X479980Y297000D02*
X480374Y296606D01*
X419000Y271500D02*
X444480D01*
X450480Y277500D02*
X453827D01*
X444480Y271500D02*
X450480Y277500D01*
X453827Y307500D02*
X457173D01*
X461465Y311791D01*
Y314976D01*
X462488Y316000D01*
X414653Y307500D02*
X418000D01*
X410252Y311902D02*
X414653Y307500D01*
X409547Y311902D02*
X410252D01*
X478465Y183811D02*
X485453D01*
X479988Y193811D02*
X485453D01*
X478965Y194835D02*
X479988Y193811D01*
X478965Y194835D02*
Y195311D01*
X506910Y178811D02*
X513917D01*
X514941Y179835D01*
Y181311D01*
X506910Y183811D02*
X513917D01*
X514941Y182787D01*
Y181311D02*
Y182787D01*
X526965Y194811D02*
X527465Y194311D01*
D20*
X546951Y192500D02*
D03*
X566049D02*
D03*
D21*
X317717Y77559D02*
D03*
X328740D02*
D03*
X221260Y74410D02*
D03*
X210236D02*
D03*
X248031Y386614D02*
D03*
X237008D02*
D03*
X361512Y315000D02*
D03*
X350488D02*
D03*
X284000Y315500D02*
D03*
X295024D02*
D03*
X471260Y136614D02*
D03*
X460236D02*
D03*
X526965Y194811D02*
D03*
X515941D02*
D03*
X525965Y181311D02*
D03*
X514941D02*
D03*
X467441Y183811D02*
D03*
X478465D02*
D03*
X381102Y386221D02*
D03*
X392126D02*
D03*
X462488Y316000D02*
D03*
X473512D02*
D03*
X478965Y195311D02*
D03*
X467941D02*
D03*
X408524Y314500D02*
D03*
X397500D02*
D03*
X459842Y151969D02*
D03*
X470866D02*
D03*
X202756Y325197D02*
D03*
X213779D02*
D03*
X373228Y87008D02*
D03*
X384252D02*
D03*
D22*
X143307Y61811D02*
D03*
Y72835D02*
D03*
X178347Y197638D02*
D03*
Y186614D02*
D03*
X584646Y224016D02*
D03*
Y235039D02*
D03*
X585039Y254724D02*
D03*
Y243701D02*
D03*
X248819Y185827D02*
D03*
Y196850D02*
D03*
D23*
X403634Y359000D02*
D03*
Y364000D02*
D03*
Y369000D02*
D03*
Y374000D02*
D03*
X374500Y359000D02*
D03*
Y364000D02*
D03*
Y369000D02*
D03*
X206134Y165500D02*
D03*
Y170500D02*
D03*
Y175500D02*
D03*
Y180500D02*
D03*
X177000Y165500D02*
D03*
Y170500D02*
D03*
Y175500D02*
D03*
X251000D02*
D03*
Y170500D02*
D03*
Y165500D02*
D03*
X280134Y180500D02*
D03*
Y175500D02*
D03*
Y170500D02*
D03*
Y165500D02*
D03*
X236000Y372000D02*
D03*
Y367000D02*
D03*
Y362000D02*
D03*
X265134Y377000D02*
D03*
Y372000D02*
D03*
Y367000D02*
D03*
Y362000D02*
D03*
X197866Y310000D02*
D03*
Y305000D02*
D03*
Y300000D02*
D03*
X227000Y315000D02*
D03*
Y310000D02*
D03*
Y305000D02*
D03*
Y300000D02*
D03*
D24*
X374500Y374000D02*
D03*
X177000Y180500D02*
D03*
X251000D02*
D03*
X236000Y377000D02*
D03*
X197866Y315000D02*
D03*
D25*
X453827Y277500D02*
D03*
Y287500D02*
D03*
Y297500D02*
D03*
Y307500D02*
D03*
X418000Y277500D02*
D03*
Y287500D02*
D03*
Y297500D02*
D03*
X339827Y285000D02*
D03*
Y295000D02*
D03*
Y305000D02*
D03*
Y315000D02*
D03*
X304000Y285000D02*
D03*
Y295000D02*
D03*
Y305000D02*
D03*
D26*
X418000Y307500D02*
D03*
X304000Y315000D02*
D03*
D27*
X479980Y297000D02*
D03*
X472500D02*
D03*
X362240Y305000D02*
D03*
X354760D02*
D03*
X497835Y163779D02*
D03*
X505315D02*
D03*
X303346Y342913D02*
D03*
X310827D02*
D03*
D28*
X481004Y165748D02*
D03*
X487500D02*
D03*
D29*
X590551Y154724D02*
D03*
X565354D02*
D03*
Y120079D02*
D03*
X590551D02*
D03*
D30*
X564961Y131102D02*
D03*
Y134252D02*
D03*
Y137402D02*
D03*
Y140551D02*
D03*
Y143701D02*
D03*
D31*
X506910Y178811D02*
D03*
Y183811D02*
D03*
Y188811D02*
D03*
Y193811D02*
D03*
X485453Y178811D02*
D03*
Y183811D02*
D03*
Y188811D02*
D03*
Y193811D02*
D03*
D32*
X496929Y237886D02*
D03*
Y218500D02*
D03*
X493780Y237886D02*
D03*
Y218500D02*
D03*
X490630Y237886D02*
D03*
Y218500D02*
D03*
X487480Y237886D02*
D03*
Y218500D02*
D03*
X484331Y237886D02*
D03*
Y218500D02*
D03*
X481181Y237886D02*
D03*
Y218500D02*
D03*
X478031Y237886D02*
D03*
Y218500D02*
D03*
X474882Y237886D02*
D03*
Y218500D02*
D03*
X471732Y237886D02*
D03*
Y218500D02*
D03*
X468583Y237886D02*
D03*
Y218500D02*
D03*
X465433D02*
D03*
X462284Y237886D02*
D03*
Y218500D02*
D03*
X459134Y237886D02*
D03*
Y218500D02*
D03*
X455984Y237886D02*
D03*
Y218500D02*
D03*
X452835Y237886D02*
D03*
Y218500D02*
D03*
X449685Y237886D02*
D03*
Y218500D02*
D03*
X446535Y237886D02*
D03*
Y218500D02*
D03*
X443386Y237886D02*
D03*
Y218500D02*
D03*
X440236Y237886D02*
D03*
Y218500D02*
D03*
X437087Y237886D02*
D03*
Y218500D02*
D03*
X433937Y237886D02*
D03*
Y218500D02*
D03*
X430787Y237886D02*
D03*
Y218500D02*
D03*
X427638Y237886D02*
D03*
Y218500D02*
D03*
X424488Y237886D02*
D03*
Y218500D02*
D03*
X421339Y237886D02*
D03*
Y218500D02*
D03*
X418189Y237886D02*
D03*
Y218500D02*
D03*
X415039Y237886D02*
D03*
Y218500D02*
D03*
X411890Y237886D02*
D03*
Y218500D02*
D03*
X408740Y237886D02*
D03*
Y218500D02*
D03*
X405590Y237886D02*
D03*
X405590Y218500D02*
D03*
X322646Y237886D02*
D03*
Y218500D02*
D03*
X319496Y237886D02*
D03*
Y218500D02*
D03*
X316347Y237886D02*
D03*
Y218500D02*
D03*
X313197Y237886D02*
D03*
Y218500D02*
D03*
X310047Y237886D02*
D03*
Y218500D02*
D03*
X306898Y237886D02*
D03*
Y218500D02*
D03*
X303748Y237886D02*
D03*
Y218500D02*
D03*
X300598Y237886D02*
D03*
Y218500D02*
D03*
X297449Y237886D02*
D03*
Y218500D02*
D03*
X294299Y237886D02*
D03*
Y218500D02*
D03*
X291150Y237886D02*
D03*
Y218500D02*
D03*
X288000Y237886D02*
D03*
Y218500D02*
D03*
X284850Y237886D02*
D03*
Y218500D02*
D03*
X281701Y237886D02*
D03*
Y218500D02*
D03*
X278551Y237886D02*
D03*
Y218500D02*
D03*
X275402Y237886D02*
D03*
Y218500D02*
D03*
X272252Y237886D02*
D03*
Y218500D02*
D03*
X269102Y237886D02*
D03*
Y218500D02*
D03*
X265953Y237886D02*
D03*
X262803D02*
D03*
Y218500D02*
D03*
X259653Y237886D02*
D03*
Y218500D02*
D03*
X256504Y237886D02*
D03*
Y218500D02*
D03*
X253354Y237886D02*
D03*
Y218500D02*
D03*
X250205Y237886D02*
D03*
X247055D02*
D03*
Y218500D02*
D03*
X243905Y237886D02*
D03*
Y218500D02*
D03*
X240756Y237886D02*
D03*
Y218500D02*
D03*
X237606Y237886D02*
D03*
Y218500D02*
D03*
X234457Y237886D02*
D03*
Y218500D02*
D03*
X231307Y237886D02*
D03*
Y218500D02*
D03*
X228157Y237886D02*
D03*
Y218500D02*
D03*
X225008Y237886D02*
D03*
Y218500D02*
D03*
X209260Y237886D02*
D03*
Y218500D02*
D03*
X206110Y237886D02*
D03*
Y218500D02*
D03*
X202961Y237886D02*
D03*
Y218500D02*
D03*
X199811Y237886D02*
D03*
Y218500D02*
D03*
X196661Y237886D02*
D03*
Y218500D02*
D03*
X193512Y237886D02*
D03*
Y218500D02*
D03*
X190362Y237886D02*
D03*
Y218500D02*
D03*
X187213Y237886D02*
D03*
Y218500D02*
D03*
X184063Y237886D02*
D03*
Y218500D02*
D03*
X180913Y237886D02*
D03*
Y218500D02*
D03*
X177764Y237886D02*
D03*
Y218500D02*
D03*
X174614Y237886D02*
D03*
Y218500D02*
D03*
X171465Y237886D02*
D03*
Y218500D02*
D03*
X168315Y237886D02*
D03*
Y218500D02*
D03*
X165165Y237886D02*
D03*
Y218500D02*
D03*
X162016Y237886D02*
D03*
Y218500D02*
D03*
X158866Y237886D02*
D03*
Y218500D02*
D03*
X155717Y237886D02*
D03*
Y218500D02*
D03*
X152567Y237886D02*
D03*
Y218500D02*
D03*
X149417Y237886D02*
D03*
Y218500D02*
D03*
X146268Y237886D02*
D03*
Y218500D02*
D03*
X143118Y237886D02*
D03*
Y218500D02*
D03*
X139969Y237886D02*
D03*
X139969Y218500D02*
D03*
X136819Y237886D02*
D03*
Y218500D02*
D03*
X133669Y237886D02*
D03*
X133669Y218500D02*
D03*
X130520Y237886D02*
D03*
Y218500D02*
D03*
X127370Y237886D02*
D03*
Y218500D02*
D03*
X124221Y237886D02*
D03*
Y218500D02*
D03*
D33*
X465433Y237886D02*
D03*
X265953Y218500D02*
D03*
X250205D02*
D03*
D66*
X104770Y376598D02*
X123447Y395276D01*
X140157D02*
X140551Y394882D01*
X123447Y395276D02*
X140157D01*
X140551Y394882D02*
X140945Y395276D01*
X160686D01*
X162992Y392969D01*
Y315197D02*
Y392969D01*
X77908Y376598D02*
X104770D01*
X36614Y394882D02*
X59624D01*
X77908Y376598D01*
X162992Y315197D02*
X197874Y280315D01*
X194095Y318150D02*
X197244Y315000D01*
X194095Y318150D02*
Y318898D01*
X62811Y178134D02*
X136402D01*
X35433Y205512D02*
Y298425D01*
Y205512D02*
X62811Y178134D01*
X136402D02*
X144488Y186221D01*
X93071Y348661D02*
X93189Y348543D01*
X139646D01*
X139764Y348425D01*
X169409Y120984D02*
X181102Y132677D01*
X169409Y114449D02*
Y120984D01*
X186039Y117819D02*
Y134722D01*
X143464Y137614D02*
X183147D01*
X125591Y119741D02*
X143464Y137614D01*
X186039Y117819D02*
X189409Y114449D01*
X183147Y137614D02*
X186039Y134722D01*
X145836Y186221D02*
X156466Y175591D01*
X144488Y186221D02*
X145836D01*
X156466Y175591D02*
X164173D01*
X470866Y168504D02*
X473622Y165748D01*
X481004D01*
X487500D02*
X487992D01*
X489370Y164370D01*
X497244D01*
X497835Y163779D01*
Y163779D02*
Y163779D01*
X491890Y28684D02*
Y38484D01*
X419629Y159843D02*
X477165D01*
X491890Y145118D01*
Y38484D02*
Y145118D01*
X397500Y316185D02*
X403543Y310142D01*
X416972Y157186D02*
X419629Y159843D01*
X416972Y132536D02*
Y157186D01*
X523410Y143062D02*
X529134Y148786D01*
X523410Y124228D02*
Y143062D01*
Y124228D02*
X577953Y69685D01*
X585433Y244094D02*
X594488D01*
X585039Y243701D02*
X585433Y244094D01*
X585039Y234646D02*
X592520D01*
X584646Y235039D02*
X585039Y234646D01*
X141732Y72835D02*
X143307D01*
X141693Y72874D02*
X141732Y72835D01*
X141693Y72874D02*
Y74449D01*
X139507Y76634D02*
X141693Y74449D01*
X139507Y76634D02*
Y83091D01*
X139409Y83189D02*
X139507Y83091D01*
X373228Y87008D02*
Y87461D01*
X373189Y87501D02*
X373228Y87461D01*
X367303Y87501D02*
X373189D01*
X367205Y87598D02*
X367303Y87501D01*
X485354Y178811D02*
X485453D01*
X482134Y175591D02*
X485354Y178811D01*
X478346Y175591D02*
X482134D01*
X403543Y286221D02*
Y310142D01*
X573551Y217000D02*
Y224449D01*
Y217000D02*
X573622Y216929D01*
X403634Y364000D02*
X403854Y363779D01*
X407874D01*
X403543Y374091D02*
X403634Y374000D01*
X403543Y374091D02*
Y376772D01*
X373244Y374016D02*
X374484D01*
X373228D02*
X373244D01*
X374016Y374787D01*
Y376772D01*
X374484Y374016D02*
X374500Y374000D01*
X381102Y385472D02*
Y386221D01*
X381063Y385433D02*
X381102Y385472D01*
X377953Y385433D02*
X381063D01*
X265134Y367000D02*
X265457Y367323D01*
X269685D01*
X265134Y377000D02*
X265354Y377221D01*
Y379134D01*
X235835Y377165D02*
X236000Y377000D01*
X231890Y377165D02*
X235835D01*
X237008Y386614D02*
Y387362D01*
X236968Y387402D02*
X237008Y387362D01*
X232283Y387402D02*
X236968D01*
X202756Y324843D02*
Y325197D01*
X202716Y324803D02*
X202756Y324843D01*
X198031Y324803D02*
X202716D01*
X197244Y315000D02*
X197866D01*
X227000D02*
X227039Y314961D01*
X231496D01*
X451870Y38484D02*
Y55620D01*
X446520Y57926D02*
X449564D01*
X451870Y28684D02*
Y38484D01*
X449564Y57926D02*
X451870Y55620D01*
X408524Y314500D02*
Y326634D01*
X361512Y315000D02*
X365000D01*
X408524Y326634D02*
X408661Y326772D01*
X215748Y192756D02*
Y199213D01*
X215512Y192520D02*
X215748Y192756D01*
X565354Y227537D02*
X572266Y234449D01*
X565354Y195617D02*
Y227537D01*
X318504Y170079D02*
X324410D01*
X318110Y169685D02*
X318504Y170079D01*
X177953Y197677D02*
X177992Y197638D01*
X178347D01*
X177953Y197677D02*
Y201969D01*
X259449Y98819D02*
X293307Y132677D01*
Y170079D01*
X249606Y153150D02*
X250000Y153543D01*
X255118D01*
X207087Y259055D02*
X214173D01*
X292126Y301181D02*
X296457D01*
X281260Y386221D02*
X281496Y385984D01*
Y379921D02*
Y385984D01*
X417323Y387008D02*
X417717Y387402D01*
X410630Y387008D02*
X417323D01*
X397795Y286221D02*
X403543D01*
X369291Y403543D02*
X369685Y403150D01*
X375984D01*
X241339Y299370D02*
X241732Y299764D01*
Y306299D01*
X505315Y163779D02*
X508661D01*
X248465Y196850D02*
X248819D01*
X248425Y196890D02*
X248465Y196850D01*
X248425Y196890D02*
Y200394D01*
X213779Y324843D02*
Y325197D01*
Y324843D02*
X213819Y324803D01*
X218504D01*
X573551Y254449D02*
X573787Y254685D01*
X583425D01*
X583465Y254724D01*
X583032Y224055D02*
X583071Y224016D01*
X573945Y224055D02*
X583032D01*
X573551Y224449D02*
X573945Y224055D01*
X577559Y89764D02*
X577953Y89370D01*
X577559Y89764D02*
Y98032D01*
X529134Y148786D02*
Y149213D01*
X572266Y234449D02*
X573551D01*
X573433Y254331D02*
X573551Y254449D01*
X562205Y254331D02*
X573433D01*
X574000Y425973D02*
Y433000D01*
X392126Y385866D02*
Y386221D01*
Y385866D02*
X392165Y385827D01*
X395669D01*
X248031Y385866D02*
Y386614D01*
Y385866D02*
X248071Y385827D01*
X252362D01*
X142598Y38583D02*
Y39054D01*
X138795Y42857D02*
X142598Y39054D01*
X134216Y48328D02*
Y90399D01*
Y48328D02*
X138795Y43749D01*
Y42857D02*
Y43749D01*
X339827Y285000D02*
X352500D01*
X410107Y57802D02*
X431717Y79413D01*
Y105497D02*
X453425Y127205D01*
X431717Y79413D02*
Y105497D01*
X416972Y132536D02*
X422165Y127343D01*
Y127205D02*
Y127343D01*
X433238Y67018D02*
X453425Y87205D01*
X433238Y60640D02*
Y67018D01*
X411181Y38583D02*
X433238Y60640D01*
X370630Y38583D02*
X389850Y57802D01*
X410107D01*
X330079Y38583D02*
Y60473D01*
X367205Y97598D01*
X464399Y26378D02*
X489583D01*
X491890Y28684D01*
X461136Y29640D02*
X464399Y26378D01*
X461136Y37731D02*
X461890Y38484D01*
X461136Y29640D02*
Y37731D01*
X425591Y26378D02*
X449564D01*
X451870Y28684D01*
X421870Y38484D02*
X422623Y37731D01*
Y29345D02*
Y37731D01*
Y29345D02*
X425591Y26378D01*
X383487Y23622D02*
X408875D01*
X411181Y25928D02*
Y38583D01*
X408875Y23622D02*
X411181Y25928D01*
X381181D02*
Y38583D01*
Y25928D02*
X383487Y23622D01*
X369685Y37638D02*
X370630Y38583D01*
X369685Y27953D02*
Y37638D01*
X344488Y25591D02*
X367323D01*
X369685Y27953D01*
X340630Y38583D02*
X341339Y37874D01*
Y28740D02*
Y37874D01*
Y28740D02*
X344488Y25591D01*
X330079Y28898D02*
Y38583D01*
X324016Y22835D02*
X330079Y28898D01*
X305512Y22835D02*
X324016D01*
X300079Y28268D02*
X305512Y22835D01*
X300079Y28268D02*
Y38583D01*
X179409Y83189D02*
X195039Y98819D01*
X259449D01*
X190551Y106693D02*
X218504D01*
X178848Y94990D02*
X190551Y106693D01*
X218504D02*
X221654Y109843D01*
Y125591D01*
X183307Y38583D02*
X183391Y38499D01*
X183307Y37517D02*
Y49291D01*
X149409Y83189D02*
X183307Y49291D01*
X159409Y83189D02*
X171210Y94990D01*
X178848D01*
X179409Y104213D02*
Y114449D01*
X175197Y100000D02*
X179409Y104213D01*
X125591Y62283D02*
Y119741D01*
X101890Y38583D02*
X125591Y62283D01*
X134216Y90399D02*
X158169Y114351D01*
X229134Y28740D02*
X250394D01*
X252990Y31336D01*
Y37478D01*
X254095Y38583D01*
X224095D02*
X224716Y37962D01*
Y33158D02*
Y37962D01*
Y33158D02*
X229134Y28740D01*
X185697Y30315D02*
X209032D01*
X211339Y32621D01*
Y36614D01*
X213307Y38583D01*
X183391Y32621D02*
Y38499D01*
Y32621D02*
X185697Y30315D01*
X149213Y27165D02*
X166535D01*
X171100Y37084D02*
X172598Y38583D01*
X171100Y31730D02*
Y37084D01*
X166535Y27165D02*
X171100Y31730D01*
X142598Y38583D02*
X143220Y37962D01*
Y33158D02*
Y37962D01*
Y33158D02*
X149213Y27165D01*
X101890Y31440D02*
Y38583D01*
X131890Y30796D02*
Y38583D01*
X101890Y31440D02*
X108133Y25197D01*
X126291D01*
X131890Y30796D01*
X159311Y114351D02*
X159409Y114449D01*
X158169Y114351D02*
X159311D01*
X224095Y38583D02*
Y48504D01*
X189409Y83189D02*
X224095Y48504D01*
X182500Y318004D02*
Y460961D01*
X469472Y473912D02*
X470055Y474496D01*
X461375Y473912D02*
X469472D01*
X460788Y474500D02*
X461375Y473912D01*
X460500Y474500D02*
X460788D01*
X286472Y467500D02*
X286976Y468004D01*
X278500Y467500D02*
X286472D01*
X405016Y464492D02*
X405317Y464191D01*
Y458683D02*
Y464191D01*
Y458683D02*
X405500Y458500D01*
X409031Y471074D02*
Y471500D01*
X405317Y467359D02*
X409031Y471074D01*
X439071Y467996D02*
X439075Y468000D01*
X447000D01*
X375051D02*
X375055Y467996D01*
X367500Y468000D02*
X375051D01*
X350992Y468004D02*
X351488Y468500D01*
X359000D01*
X534075Y474500D02*
X543500D01*
X534071Y474496D02*
X534075Y474500D01*
X500000Y463500D02*
Y470976D01*
X500016Y470992D01*
X570976Y395500D02*
X570992Y395516D01*
X563500Y395500D02*
X570976D01*
X577574Y391500D02*
X578000D01*
X573859Y395214D02*
X577574Y391500D01*
X574496Y361461D02*
X575000Y360957D01*
Y352500D02*
Y360957D01*
X574000Y425973D02*
X574496Y425476D01*
X504032Y477574D02*
Y478000D01*
X500317Y473859D02*
X504032Y477574D01*
D67*
X538189Y187795D02*
X540455D01*
X545573Y192913D01*
X546754Y191732D01*
X546951Y191929D01*
Y192500D01*
X32677Y50000D02*
X32717Y49961D01*
X38575D01*
X471260Y136614D02*
X475591D01*
X313386Y77559D02*
X317717D01*
X312992Y77165D02*
X313386Y77559D01*
X221260Y74410D02*
X223228D01*
X224016Y73622D01*
X470866Y151969D02*
X474016D01*
X384252Y87008D02*
X389370D01*
X372795Y147598D02*
X372835Y147638D01*
X367205Y147598D02*
X372795D01*
X121890Y38583D02*
Y42399D01*
X123013Y43523D01*
X146315Y57874D02*
Y58803D01*
X143307Y61811D02*
X146315Y58803D01*
X244094Y38583D02*
Y44488D01*
X203307Y38583D02*
Y43543D01*
X203150Y43701D02*
X203307Y43543D01*
X481890Y38484D02*
Y44094D01*
X441870Y38484D02*
Y43957D01*
X441732Y44094D02*
X441870Y43957D01*
X401181Y38583D02*
Y44882D01*
X360630Y38583D02*
Y45276D01*
X360236Y45669D02*
X360630Y45276D01*
X320079Y38583D02*
Y45276D01*
X320472Y45669D01*
X32539Y90807D02*
X38575D01*
X32283Y90551D02*
X32539Y90807D01*
X38520Y171902D02*
X46705D01*
X46850Y172047D01*
X162598Y38583D02*
Y43701D01*
D68*
X8500Y181882D02*
D03*
Y171941D02*
D03*
X8520Y191902D02*
D03*
Y161902D02*
D03*
X38520Y191902D02*
D03*
Y181902D02*
D03*
Y171902D02*
D03*
X577953Y69685D02*
D03*
Y89370D02*
D03*
X481890Y38484D02*
D03*
X471890D02*
D03*
X461890D02*
D03*
X491890Y8484D02*
D03*
X461890D02*
D03*
X481850Y8465D02*
D03*
X471910D02*
D03*
X431890D02*
D03*
X441831D02*
D03*
X421870Y8484D02*
D03*
X451870D02*
D03*
X421870Y38484D02*
D03*
X431870D02*
D03*
X441870D02*
D03*
X401181Y38583D02*
D03*
X391181D02*
D03*
X381181D02*
D03*
X411181Y8583D02*
D03*
X381181D02*
D03*
X401142Y8563D02*
D03*
X391201D02*
D03*
X350650D02*
D03*
X360591D02*
D03*
X340630Y8583D02*
D03*
X370630D02*
D03*
X340630Y38583D02*
D03*
X350630D02*
D03*
X360630D02*
D03*
X320079D02*
D03*
X310079D02*
D03*
X300079D02*
D03*
X330079Y8583D02*
D03*
X300079D02*
D03*
X320039Y8563D02*
D03*
X310098D02*
D03*
X111909D02*
D03*
X121850D02*
D03*
X101890Y8583D02*
D03*
X131890D02*
D03*
X101890Y38583D02*
D03*
X111890D02*
D03*
X121890D02*
D03*
X162598D02*
D03*
X152598D02*
D03*
X142598D02*
D03*
X172598Y8583D02*
D03*
X142598D02*
D03*
X162559Y8563D02*
D03*
X152618D02*
D03*
X193327D02*
D03*
X203268D02*
D03*
X183307Y8583D02*
D03*
X213307D02*
D03*
X183307Y38583D02*
D03*
X193307D02*
D03*
X203307D02*
D03*
X244094D02*
D03*
X234095D02*
D03*
X224095D02*
D03*
X254095Y8583D02*
D03*
X224095D02*
D03*
X244055Y8563D02*
D03*
X234114D02*
D03*
X243441Y491500D02*
D03*
X233500D02*
D03*
X253461Y491480D02*
D03*
X223461D02*
D03*
X253461Y461480D02*
D03*
X243461D02*
D03*
X233461D02*
D03*
X112520D02*
D03*
X122520D02*
D03*
X132520D02*
D03*
X102520Y491480D02*
D03*
X132520D02*
D03*
X112559Y491500D02*
D03*
X122500D02*
D03*
X162480Y491520D02*
D03*
X152539D02*
D03*
X172500Y491500D02*
D03*
X142500D02*
D03*
X172500Y461500D02*
D03*
X162500D02*
D03*
X152500D02*
D03*
X72020Y461480D02*
D03*
X82020D02*
D03*
X92020D02*
D03*
X62020Y491480D02*
D03*
X92020D02*
D03*
X72059Y491500D02*
D03*
X82000D02*
D03*
X203000D02*
D03*
X193059D02*
D03*
X213020Y491480D02*
D03*
X183020D02*
D03*
X213020Y461480D02*
D03*
X203020D02*
D03*
X193020D02*
D03*
X8555Y100787D02*
D03*
Y90847D02*
D03*
X8575Y110807D02*
D03*
Y80807D02*
D03*
X38575Y110807D02*
D03*
Y100807D02*
D03*
Y90807D02*
D03*
X38500Y131441D02*
D03*
Y141441D02*
D03*
Y151441D02*
D03*
X8500Y121441D02*
D03*
Y151441D02*
D03*
X8480Y131480D02*
D03*
Y141421D02*
D03*
X8555Y59941D02*
D03*
Y50000D02*
D03*
X8575Y69961D02*
D03*
Y39961D02*
D03*
X38575Y69961D02*
D03*
Y59961D02*
D03*
Y49961D02*
D03*
D69*
X38520Y161902D02*
D03*
X38575Y80807D02*
D03*
X38500Y121441D02*
D03*
X38575Y39961D02*
D03*
D70*
X421079Y464492D02*
D03*
X413047D02*
D03*
X405016D02*
D03*
X396984D02*
D03*
X417063Y471500D02*
D03*
X409031D02*
D03*
X401000D02*
D03*
X392969D02*
D03*
X333000Y464500D02*
D03*
X324969D02*
D03*
X316937D02*
D03*
X308906D02*
D03*
X328984Y471508D02*
D03*
X320953D02*
D03*
X312921D02*
D03*
X304890D02*
D03*
X570992Y379453D02*
D03*
Y387484D02*
D03*
Y395516D02*
D03*
Y403547D02*
D03*
X578000Y383469D02*
D03*
Y391500D02*
D03*
Y399532D02*
D03*
Y407563D02*
D03*
X516079Y470992D02*
D03*
X508047D02*
D03*
X500016D02*
D03*
X491984D02*
D03*
X512063Y478000D02*
D03*
X504032D02*
D03*
X496000D02*
D03*
X487968D02*
D03*
X529134Y129528D02*
D03*
Y139370D02*
D03*
Y149213D02*
D03*
D71*
X432063Y481500D02*
D03*
X382063D02*
D03*
X343984Y481508D02*
D03*
X293984D02*
D03*
X588000Y368468D02*
D03*
Y418469D02*
D03*
X527063Y488000D02*
D03*
X477063D02*
D03*
D72*
X439071Y467996D02*
D03*
X375055D02*
D03*
X350992Y468004D02*
D03*
X286976D02*
D03*
X574496Y361461D02*
D03*
Y425476D02*
D03*
X534071Y474496D02*
D03*
X470055D02*
D03*
X93071Y348661D02*
D03*
X140551Y394882D02*
D03*
X139764Y348425D02*
D03*
X36614Y394882D02*
D03*
X96850Y298425D02*
D03*
X35433D02*
D03*
X36063Y347008D02*
D03*
X91339Y394882D02*
D03*
D73*
X417717Y387402D02*
D03*
Y377402D02*
D03*
X397795Y286221D02*
D03*
X387795D02*
D03*
X154488Y186221D02*
D03*
X144488D02*
D03*
X215512Y192520D02*
D03*
X205512D02*
D03*
X207874Y280315D02*
D03*
X197874D02*
D03*
X249606Y153150D02*
D03*
X239606D02*
D03*
X481653Y283465D02*
D03*
X471654D02*
D03*
X365000Y295000D02*
D03*
X355000D02*
D03*
X207087Y259055D02*
D03*
X197087D02*
D03*
X241339Y299370D02*
D03*
Y289370D02*
D03*
X292126Y301181D02*
D03*
X282126D02*
D03*
X359291Y403543D02*
D03*
X369291D02*
D03*
X242362Y405118D02*
D03*
X252362D02*
D03*
X329528Y341339D02*
D03*
X339528D02*
D03*
X271260Y386221D02*
D03*
X281260D02*
D03*
X104173Y189370D02*
D03*
X114173D02*
D03*
X72284Y188583D02*
D03*
X82284D02*
D03*
X308110Y169685D02*
D03*
X318110D02*
D03*
D74*
X491890Y38484D02*
D03*
X451870D02*
D03*
X411181Y38583D02*
D03*
X370630D02*
D03*
X330079D02*
D03*
X131890D02*
D03*
X172598D02*
D03*
X213307D02*
D03*
X254095D02*
D03*
X223461Y461480D02*
D03*
X102520D02*
D03*
X142500Y461500D02*
D03*
X62020Y461480D02*
D03*
X183020D02*
D03*
D75*
X578346Y146063D02*
D03*
X578740Y128740D02*
D03*
X18087Y17400D02*
D03*
Y482400D02*
D03*
X583087D02*
D03*
X580587Y17400D02*
D03*
D76*
X209409Y114449D02*
D03*
D77*
X199409D02*
D03*
X189409D02*
D03*
X179409D02*
D03*
X169409D02*
D03*
X159409D02*
D03*
X149409D02*
D03*
X139409D02*
D03*
Y83189D02*
D03*
X149409D02*
D03*
X159409D02*
D03*
X169409D02*
D03*
X179409D02*
D03*
X189409D02*
D03*
X199409D02*
D03*
X209409D02*
D03*
X422165Y137205D02*
D03*
Y127205D02*
D03*
Y117205D02*
D03*
Y107205D02*
D03*
Y97205D02*
D03*
Y87205D02*
D03*
Y77205D02*
D03*
X453425D02*
D03*
Y87205D02*
D03*
Y97205D02*
D03*
Y107205D02*
D03*
Y117205D02*
D03*
Y127205D02*
D03*
Y137205D02*
D03*
Y147205D02*
D03*
X367205Y87598D02*
D03*
Y97598D02*
D03*
Y107598D02*
D03*
Y117598D02*
D03*
Y127598D02*
D03*
Y137598D02*
D03*
Y147598D02*
D03*
X335945D02*
D03*
Y137598D02*
D03*
Y127598D02*
D03*
Y117598D02*
D03*
Y107598D02*
D03*
Y97598D02*
D03*
Y87598D02*
D03*
Y77598D02*
D03*
D78*
X573551Y224449D02*
D03*
D79*
Y234449D02*
D03*
Y244449D02*
D03*
Y254449D02*
D03*
D80*
X422165Y147205D02*
D03*
X367205Y77598D02*
D03*
D81*
X337804Y228193D02*
D03*
X109063D02*
D03*
D82*
X502835Y234098D02*
D03*
X399685Y228193D02*
D03*
X328552Y234098D02*
D03*
X118315Y228193D02*
D03*
D83*
X83071Y338661D02*
D03*
X103071D02*
D03*
Y358661D02*
D03*
X83071D02*
D03*
X130551Y384882D02*
D03*
X150551D02*
D03*
Y404882D02*
D03*
X130551D02*
D03*
X129764Y338425D02*
D03*
X149764D02*
D03*
Y358425D02*
D03*
X129764D02*
D03*
X26614Y384882D02*
D03*
X46614D02*
D03*
Y404882D02*
D03*
X26614D02*
D03*
X86850Y288425D02*
D03*
X106850D02*
D03*
Y308425D02*
D03*
X86850D02*
D03*
X25433Y288425D02*
D03*
X45433D02*
D03*
Y308425D02*
D03*
X25433D02*
D03*
X26063Y337008D02*
D03*
X46063D02*
D03*
Y357008D02*
D03*
X26063D02*
D03*
X81339Y384882D02*
D03*
X101339D02*
D03*
Y404882D02*
D03*
X81339D02*
D03*
D84*
X558268Y146850D02*
D03*
X571260Y147244D02*
D03*
X194095Y318898D02*
D03*
X181102Y132677D02*
D03*
X237606Y211107D02*
D03*
X87008Y471260D02*
D03*
X17323Y64567D02*
D03*
X26378Y66535D02*
D03*
X17717Y105118D02*
D03*
X27165Y107480D02*
D03*
X17717Y144488D02*
D03*
X25984Y147244D02*
D03*
X28346Y187795D02*
D03*
X18504Y187008D02*
D03*
X85433Y479921D02*
D03*
X122835Y481496D02*
D03*
X124016Y472835D02*
D03*
X248819Y470866D02*
D03*
X247638Y483071D02*
D03*
X211024Y472047D02*
D03*
X203839Y482776D02*
D03*
X169685Y472047D02*
D03*
X167323Y483071D02*
D03*
X538189Y187795D02*
D03*
X531453Y194311D02*
D03*
X515993Y201820D02*
D03*
X496850Y170866D02*
D03*
X512992Y144488D02*
D03*
X594488Y244094D02*
D03*
X592520Y234646D02*
D03*
X203543Y227559D02*
D03*
X462247Y245317D02*
D03*
X257343Y228603D02*
D03*
X266756Y246063D02*
D03*
X310047Y245278D02*
D03*
X283858Y323622D02*
D03*
X284252Y314961D02*
D03*
X478346Y175591D02*
D03*
X196457Y246063D02*
D03*
X202362Y170079D02*
D03*
X453937Y228740D02*
D03*
X486221Y229528D02*
D03*
X497316Y244765D02*
D03*
X573622Y216929D02*
D03*
X530953Y181311D02*
D03*
X507480Y200394D02*
D03*
X172850Y180709D02*
D03*
X173228Y186614D02*
D03*
X206693Y183071D02*
D03*
X245669Y180709D02*
D03*
X279506Y182655D02*
D03*
X285827Y170472D02*
D03*
X288189Y246063D02*
D03*
X407874Y363779D02*
D03*
X403543Y376772D02*
D03*
X374016D02*
D03*
X377953Y385433D02*
D03*
X269685Y367323D02*
D03*
X265354Y379134D02*
D03*
X231890Y377165D02*
D03*
X232283Y387402D02*
D03*
X198031Y324803D02*
D03*
X231496Y314961D02*
D03*
X32677Y50000D02*
D03*
X446520Y57926D02*
D03*
X475591Y136614D02*
D03*
X340157Y310629D02*
D03*
X295276Y314961D02*
D03*
X324000Y305000D02*
D03*
X363851Y329881D02*
D03*
X365000Y315000D02*
D03*
X408661Y326772D02*
D03*
X409055Y315354D02*
D03*
X454331Y302362D02*
D03*
X477262Y319818D02*
D03*
X478517Y305483D02*
D03*
X312992Y77165D02*
D03*
X224016Y73622D02*
D03*
X474016Y151969D02*
D03*
X346457Y321654D02*
D03*
X389370Y87008D02*
D03*
X372835Y147638D02*
D03*
X398031Y316717D02*
D03*
X123013Y43523D02*
D03*
X146315Y57874D02*
D03*
X214567Y171260D02*
D03*
X232283Y173594D02*
D03*
X215748Y199213D02*
D03*
X288402Y210630D02*
D03*
X230500Y362000D02*
D03*
X192000Y300000D02*
D03*
X180812Y245382D02*
D03*
X196514Y210961D02*
D03*
X248819Y252791D02*
D03*
X270000Y254547D02*
D03*
X362874Y253740D02*
D03*
X388976Y249606D02*
D03*
X427638Y211107D02*
D03*
X136912Y245374D02*
D03*
X133669Y211107D02*
D03*
X160128Y246203D02*
D03*
X152567Y211107D02*
D03*
X177764D02*
D03*
X457086Y282283D02*
D03*
X413779Y283070D02*
D03*
X310236Y206693D02*
D03*
X462205Y210236D02*
D03*
X304331Y320079D02*
D03*
X265953Y211107D02*
D03*
X324410Y170079D02*
D03*
X492520Y209842D02*
D03*
X178347Y75197D02*
D03*
X175197Y100000D02*
D03*
X164173Y175591D02*
D03*
X177953Y201969D02*
D03*
X172850Y165500D02*
D03*
X255118Y153543D02*
D03*
X214173Y259055D02*
D03*
X242610Y257830D02*
D03*
X238342Y260312D02*
D03*
X296457Y301181D02*
D03*
X281496Y379921D02*
D03*
X410630Y387008D02*
D03*
X345276Y341339D02*
D03*
X403543Y286221D02*
D03*
X375984Y403150D02*
D03*
X241732Y306299D02*
D03*
X508661Y163779D02*
D03*
X470866Y168504D02*
D03*
X248425Y200394D02*
D03*
X244094Y44488D02*
D03*
X203150Y43701D02*
D03*
X218504Y324803D02*
D03*
X577559Y98032D02*
D03*
X418110Y314567D02*
D03*
X453543Y311748D02*
D03*
X562205Y254331D02*
D03*
X574000Y433000D02*
D03*
X395669Y385827D02*
D03*
X252362D02*
D03*
X481890Y44094D02*
D03*
X441732D02*
D03*
X401181Y44882D02*
D03*
X360236Y45669D02*
D03*
X320472D02*
D03*
X32283Y90551D02*
D03*
X46850Y172047D02*
D03*
X325813Y296391D02*
D03*
X419000Y271500D02*
D03*
X354500Y275500D02*
D03*
X352500Y285000D02*
D03*
X318110Y266142D02*
D03*
X266047Y262453D02*
D03*
X162598Y43701D02*
D03*
X221654Y125591D02*
D03*
X393000Y307500D02*
D03*
X307000Y414000D02*
D03*
X306000Y422500D02*
D03*
X369500Y359000D02*
D03*
X255000Y307500D02*
D03*
X245000Y165500D02*
D03*
X298000Y276000D02*
D03*
X278500Y467500D02*
D03*
X405500Y458500D02*
D03*
X447000Y468000D02*
D03*
X367500D02*
D03*
X359000Y468500D02*
D03*
X321500Y484500D02*
D03*
X300000Y453000D02*
D03*
X296000Y285000D02*
D03*
X484000Y437500D02*
D03*
X477500Y445000D02*
D03*
X543500Y474500D02*
D03*
X500000Y463500D02*
D03*
X563500Y395500D02*
D03*
X575000Y352500D02*
D03*
X434500Y297000D02*
D03*
X434000Y287500D02*
D03*
X484953Y188811D02*
D03*
D85*
X467323Y184252D02*
D03*
X463453Y194811D02*
D03*
X460500Y474500D02*
D03*
M02*
