G04*
G04 #@! TF.GenerationSoftware,Altium Limited,Altium Designer,20.1.8 (145)*
G04*
G04 Layer_Color=8388736*
%FSLAX25Y25*%
%MOIN*%
G70*
G04*
G04 #@! TF.SameCoordinates,44B5AA11-E380-4430-9A95-22E2941CD606*
G04*
G04*
G04 #@! TF.FilePolarity,Negative*
G04*
G01*
G75*
%ADD34R,0.08280X0.11784*%
%ADD35R,0.04816X0.07965*%
%ADD36R,0.07965X0.04816*%
%ADD37O,0.07887X0.03162*%
%ADD38R,0.07887X0.03162*%
%ADD39O,0.10052X0.03359*%
%ADD40R,0.10052X0.03359*%
%ADD41R,0.03556X0.05918*%
%ADD42R,0.03950X0.03950*%
%ADD43R,0.10642X0.08674*%
%ADD44R,0.09855X0.02769*%
%ADD45O,0.06509X0.03162*%
%ADD46R,0.02568X0.11324*%
%ADD47R,0.02569X0.11324*%
%ADD48C,0.08674*%
%ADD49R,0.08674X0.08674*%
%ADD50C,0.06312*%
%ADD51C,0.16548*%
%ADD52C,0.10918*%
%ADD53C,0.07099*%
%ADD54R,0.08674X0.08674*%
%ADD55C,0.06800*%
%ADD56R,0.05249X0.05249*%
%ADD57C,0.05249*%
%ADD58R,0.08674X0.07099*%
%ADD59O,0.08674X0.07099*%
%ADD60R,0.05249X0.05249*%
%ADD61C,0.06107*%
%ADD62C,0.07000*%
%ADD63C,0.11430*%
%ADD64C,0.04737*%
%ADD65C,0.05800*%
D34*
X546951Y192500D02*
D03*
X566049D02*
D03*
D35*
X317717Y77559D02*
D03*
X328740D02*
D03*
X221260Y74410D02*
D03*
X210236D02*
D03*
X248031Y386614D02*
D03*
X237008D02*
D03*
X361512Y315000D02*
D03*
X350488D02*
D03*
X284000Y315500D02*
D03*
X295024D02*
D03*
X471260Y136614D02*
D03*
X460236D02*
D03*
X526965Y194811D02*
D03*
X515941D02*
D03*
X525965Y181311D02*
D03*
X514941D02*
D03*
X467441Y183811D02*
D03*
X478465D02*
D03*
X381102Y386221D02*
D03*
X392126D02*
D03*
X462488Y316000D02*
D03*
X473512D02*
D03*
X478965Y195311D02*
D03*
X467941D02*
D03*
X408524Y314500D02*
D03*
X397500D02*
D03*
X459842Y151969D02*
D03*
X470866D02*
D03*
X202756Y325197D02*
D03*
X213779D02*
D03*
X373228Y87008D02*
D03*
X384252D02*
D03*
D36*
X143307Y61811D02*
D03*
Y72835D02*
D03*
X178347Y197638D02*
D03*
Y186614D02*
D03*
X584646Y224016D02*
D03*
Y235039D02*
D03*
X585039Y254724D02*
D03*
Y243701D02*
D03*
X248819Y185827D02*
D03*
Y196850D02*
D03*
D37*
X403634Y359000D02*
D03*
Y364000D02*
D03*
Y369000D02*
D03*
Y374000D02*
D03*
X374500Y359000D02*
D03*
Y364000D02*
D03*
Y369000D02*
D03*
X206134Y165500D02*
D03*
Y170500D02*
D03*
Y175500D02*
D03*
Y180500D02*
D03*
X177000Y165500D02*
D03*
Y170500D02*
D03*
Y175500D02*
D03*
X251000D02*
D03*
Y170500D02*
D03*
Y165500D02*
D03*
X280134Y180500D02*
D03*
Y175500D02*
D03*
Y170500D02*
D03*
Y165500D02*
D03*
X236000Y372000D02*
D03*
Y367000D02*
D03*
Y362000D02*
D03*
X265134Y377000D02*
D03*
Y372000D02*
D03*
Y367000D02*
D03*
Y362000D02*
D03*
X197866Y310000D02*
D03*
Y305000D02*
D03*
Y300000D02*
D03*
X227000Y315000D02*
D03*
Y310000D02*
D03*
Y305000D02*
D03*
Y300000D02*
D03*
D38*
X374500Y374000D02*
D03*
X177000Y180500D02*
D03*
X251000D02*
D03*
X236000Y377000D02*
D03*
X197866Y315000D02*
D03*
D39*
X453827Y277500D02*
D03*
Y287500D02*
D03*
Y297500D02*
D03*
Y307500D02*
D03*
X418000Y277500D02*
D03*
Y287500D02*
D03*
Y297500D02*
D03*
X339827Y285000D02*
D03*
Y295000D02*
D03*
Y305000D02*
D03*
Y315000D02*
D03*
X304000Y285000D02*
D03*
Y295000D02*
D03*
Y305000D02*
D03*
D40*
X418000Y307500D02*
D03*
X304000Y315000D02*
D03*
D41*
X479980Y297000D02*
D03*
X472500D02*
D03*
X362240Y305000D02*
D03*
X354760D02*
D03*
X497835Y163779D02*
D03*
X505315D02*
D03*
X303346Y342913D02*
D03*
X310827D02*
D03*
D42*
X481004Y165748D02*
D03*
X487500D02*
D03*
D43*
X590551Y154724D02*
D03*
X565354D02*
D03*
Y120079D02*
D03*
X590551D02*
D03*
D44*
X564961Y131102D02*
D03*
Y134252D02*
D03*
Y137402D02*
D03*
Y140551D02*
D03*
Y143701D02*
D03*
D45*
X506910Y178811D02*
D03*
Y183811D02*
D03*
Y188811D02*
D03*
Y193811D02*
D03*
X485453Y178811D02*
D03*
Y183811D02*
D03*
Y188811D02*
D03*
Y193811D02*
D03*
D46*
X496929Y237886D02*
D03*
Y218500D02*
D03*
X493780Y237886D02*
D03*
Y218500D02*
D03*
X490630Y237886D02*
D03*
Y218500D02*
D03*
X487480Y237886D02*
D03*
Y218500D02*
D03*
X484331Y237886D02*
D03*
Y218500D02*
D03*
X481181Y237886D02*
D03*
Y218500D02*
D03*
X478031Y237886D02*
D03*
Y218500D02*
D03*
X474882Y237886D02*
D03*
Y218500D02*
D03*
X471732Y237886D02*
D03*
Y218500D02*
D03*
X468583Y237886D02*
D03*
Y218500D02*
D03*
X465433D02*
D03*
X462284Y237886D02*
D03*
Y218500D02*
D03*
X459134Y237886D02*
D03*
Y218500D02*
D03*
X455984Y237886D02*
D03*
Y218500D02*
D03*
X452835Y237886D02*
D03*
Y218500D02*
D03*
X449685Y237886D02*
D03*
Y218500D02*
D03*
X446535Y237886D02*
D03*
Y218500D02*
D03*
X443386Y237886D02*
D03*
Y218500D02*
D03*
X440236Y237886D02*
D03*
Y218500D02*
D03*
X437087Y237886D02*
D03*
Y218500D02*
D03*
X433937Y237886D02*
D03*
Y218500D02*
D03*
X430787Y237886D02*
D03*
Y218500D02*
D03*
X427638Y237886D02*
D03*
Y218500D02*
D03*
X424488Y237886D02*
D03*
Y218500D02*
D03*
X421339Y237886D02*
D03*
Y218500D02*
D03*
X418189Y237886D02*
D03*
Y218500D02*
D03*
X415039Y237886D02*
D03*
Y218500D02*
D03*
X411890Y237886D02*
D03*
Y218500D02*
D03*
X408740Y237886D02*
D03*
Y218500D02*
D03*
X405590Y237886D02*
D03*
X405590Y218500D02*
D03*
X322646Y237886D02*
D03*
Y218500D02*
D03*
X319496Y237886D02*
D03*
Y218500D02*
D03*
X316347Y237886D02*
D03*
Y218500D02*
D03*
X313197Y237886D02*
D03*
Y218500D02*
D03*
X310047Y237886D02*
D03*
Y218500D02*
D03*
X306898Y237886D02*
D03*
Y218500D02*
D03*
X303748Y237886D02*
D03*
Y218500D02*
D03*
X300598Y237886D02*
D03*
Y218500D02*
D03*
X297449Y237886D02*
D03*
Y218500D02*
D03*
X294299Y237886D02*
D03*
Y218500D02*
D03*
X291150Y237886D02*
D03*
Y218500D02*
D03*
X288000Y237886D02*
D03*
Y218500D02*
D03*
X284850Y237886D02*
D03*
Y218500D02*
D03*
X281701Y237886D02*
D03*
Y218500D02*
D03*
X278551Y237886D02*
D03*
Y218500D02*
D03*
X275402Y237886D02*
D03*
Y218500D02*
D03*
X272252Y237886D02*
D03*
Y218500D02*
D03*
X269102Y237886D02*
D03*
Y218500D02*
D03*
X265953Y237886D02*
D03*
X262803D02*
D03*
Y218500D02*
D03*
X259653Y237886D02*
D03*
Y218500D02*
D03*
X256504Y237886D02*
D03*
Y218500D02*
D03*
X253354Y237886D02*
D03*
Y218500D02*
D03*
X250205Y237886D02*
D03*
X247055D02*
D03*
Y218500D02*
D03*
X243905Y237886D02*
D03*
Y218500D02*
D03*
X240756Y237886D02*
D03*
Y218500D02*
D03*
X237606Y237886D02*
D03*
Y218500D02*
D03*
X234457Y237886D02*
D03*
Y218500D02*
D03*
X231307Y237886D02*
D03*
Y218500D02*
D03*
X228157Y237886D02*
D03*
Y218500D02*
D03*
X225008Y237886D02*
D03*
Y218500D02*
D03*
X209260Y237886D02*
D03*
Y218500D02*
D03*
X206110Y237886D02*
D03*
Y218500D02*
D03*
X202961Y237886D02*
D03*
Y218500D02*
D03*
X199811Y237886D02*
D03*
Y218500D02*
D03*
X196661Y237886D02*
D03*
Y218500D02*
D03*
X193512Y237886D02*
D03*
Y218500D02*
D03*
X190362Y237886D02*
D03*
Y218500D02*
D03*
X187213Y237886D02*
D03*
Y218500D02*
D03*
X184063Y237886D02*
D03*
Y218500D02*
D03*
X180913Y237886D02*
D03*
Y218500D02*
D03*
X177764Y237886D02*
D03*
Y218500D02*
D03*
X174614Y237886D02*
D03*
Y218500D02*
D03*
X171465Y237886D02*
D03*
Y218500D02*
D03*
X168315Y237886D02*
D03*
Y218500D02*
D03*
X165165Y237886D02*
D03*
Y218500D02*
D03*
X162016Y237886D02*
D03*
Y218500D02*
D03*
X158866Y237886D02*
D03*
Y218500D02*
D03*
X155717Y237886D02*
D03*
Y218500D02*
D03*
X152567Y237886D02*
D03*
Y218500D02*
D03*
X149417Y237886D02*
D03*
Y218500D02*
D03*
X146268Y237886D02*
D03*
Y218500D02*
D03*
X143118Y237886D02*
D03*
Y218500D02*
D03*
X139969Y237886D02*
D03*
X139969Y218500D02*
D03*
X136819Y237886D02*
D03*
Y218500D02*
D03*
X133669Y237886D02*
D03*
X133669Y218500D02*
D03*
X130520Y237886D02*
D03*
Y218500D02*
D03*
X127370Y237886D02*
D03*
Y218500D02*
D03*
X124221Y237886D02*
D03*
Y218500D02*
D03*
D47*
X465433Y237886D02*
D03*
X265953Y218500D02*
D03*
X250205D02*
D03*
D48*
X8500Y181882D02*
D03*
Y171941D02*
D03*
X8520Y191902D02*
D03*
Y161902D02*
D03*
X38520Y191902D02*
D03*
Y181902D02*
D03*
Y171902D02*
D03*
X577953Y69685D02*
D03*
Y89370D02*
D03*
X481890Y38484D02*
D03*
X471890D02*
D03*
X461890D02*
D03*
X491890Y8484D02*
D03*
X461890D02*
D03*
X481850Y8465D02*
D03*
X471910D02*
D03*
X431890D02*
D03*
X441831D02*
D03*
X421870Y8484D02*
D03*
X451870D02*
D03*
X421870Y38484D02*
D03*
X431870D02*
D03*
X441870D02*
D03*
X401181Y38583D02*
D03*
X391181D02*
D03*
X381181D02*
D03*
X411181Y8583D02*
D03*
X381181D02*
D03*
X401142Y8563D02*
D03*
X391201D02*
D03*
X350650D02*
D03*
X360591D02*
D03*
X340630Y8583D02*
D03*
X370630D02*
D03*
X340630Y38583D02*
D03*
X350630D02*
D03*
X360630D02*
D03*
X320079D02*
D03*
X310079D02*
D03*
X300079D02*
D03*
X330079Y8583D02*
D03*
X300079D02*
D03*
X320039Y8563D02*
D03*
X310098D02*
D03*
X111909D02*
D03*
X121850D02*
D03*
X101890Y8583D02*
D03*
X131890D02*
D03*
X101890Y38583D02*
D03*
X111890D02*
D03*
X121890D02*
D03*
X162598D02*
D03*
X152598D02*
D03*
X142598D02*
D03*
X172598Y8583D02*
D03*
X142598D02*
D03*
X162559Y8563D02*
D03*
X152618D02*
D03*
X193327D02*
D03*
X203268D02*
D03*
X183307Y8583D02*
D03*
X213307D02*
D03*
X183307Y38583D02*
D03*
X193307D02*
D03*
X203307D02*
D03*
X244094D02*
D03*
X234095D02*
D03*
X224095D02*
D03*
X254095Y8583D02*
D03*
X224095D02*
D03*
X244055Y8563D02*
D03*
X234114D02*
D03*
X243441Y491500D02*
D03*
X233500D02*
D03*
X253461Y491480D02*
D03*
X223461D02*
D03*
X253461Y461480D02*
D03*
X243461D02*
D03*
X233461D02*
D03*
X112520D02*
D03*
X122520D02*
D03*
X132520D02*
D03*
X102520Y491480D02*
D03*
X132520D02*
D03*
X112559Y491500D02*
D03*
X122500D02*
D03*
X162480Y491520D02*
D03*
X152539D02*
D03*
X172500Y491500D02*
D03*
X142500D02*
D03*
X172500Y461500D02*
D03*
X162500D02*
D03*
X152500D02*
D03*
X72020Y461480D02*
D03*
X82020D02*
D03*
X92020D02*
D03*
X62020Y491480D02*
D03*
X92020D02*
D03*
X72059Y491500D02*
D03*
X82000D02*
D03*
X203000D02*
D03*
X193059D02*
D03*
X213020Y491480D02*
D03*
X183020D02*
D03*
X213020Y461480D02*
D03*
X203020D02*
D03*
X193020D02*
D03*
X8555Y100787D02*
D03*
Y90847D02*
D03*
X8575Y110807D02*
D03*
Y80807D02*
D03*
X38575Y110807D02*
D03*
Y100807D02*
D03*
Y90807D02*
D03*
X38500Y131441D02*
D03*
Y141441D02*
D03*
Y151441D02*
D03*
X8500Y121441D02*
D03*
Y151441D02*
D03*
X8480Y131480D02*
D03*
Y141421D02*
D03*
X8555Y59941D02*
D03*
Y50000D02*
D03*
X8575Y69961D02*
D03*
Y39961D02*
D03*
X38575Y69961D02*
D03*
Y59961D02*
D03*
Y49961D02*
D03*
D49*
X38520Y161902D02*
D03*
X38575Y80807D02*
D03*
X38500Y121441D02*
D03*
X38575Y39961D02*
D03*
D50*
X421079Y464492D02*
D03*
X413047D02*
D03*
X405016D02*
D03*
X396984D02*
D03*
X417063Y471500D02*
D03*
X409031D02*
D03*
X401000D02*
D03*
X392969D02*
D03*
X333000Y464500D02*
D03*
X324969D02*
D03*
X316937D02*
D03*
X308906D02*
D03*
X328984Y471508D02*
D03*
X320953D02*
D03*
X312921D02*
D03*
X304890D02*
D03*
X570992Y379453D02*
D03*
Y387484D02*
D03*
Y395516D02*
D03*
Y403547D02*
D03*
X578000Y383469D02*
D03*
Y391500D02*
D03*
Y399532D02*
D03*
Y407563D02*
D03*
X516079Y470992D02*
D03*
X508047D02*
D03*
X500016D02*
D03*
X491984D02*
D03*
X512063Y478000D02*
D03*
X504032D02*
D03*
X496000D02*
D03*
X487968D02*
D03*
X529134Y129528D02*
D03*
Y139370D02*
D03*
Y149213D02*
D03*
D51*
X432063Y481500D02*
D03*
X382063D02*
D03*
X343984Y481508D02*
D03*
X293984D02*
D03*
X588000Y368468D02*
D03*
Y418469D02*
D03*
X527063Y488000D02*
D03*
X477063D02*
D03*
D52*
X439071Y467996D02*
D03*
X375055D02*
D03*
X350992Y468004D02*
D03*
X286976D02*
D03*
X574496Y361461D02*
D03*
Y425476D02*
D03*
X534071Y474496D02*
D03*
X470055D02*
D03*
X93071Y348661D02*
D03*
X140551Y394882D02*
D03*
X139764Y348425D02*
D03*
X36614Y394882D02*
D03*
X96850Y298425D02*
D03*
X35433D02*
D03*
X36063Y347008D02*
D03*
X91339Y394882D02*
D03*
D53*
X417717Y387402D02*
D03*
Y377402D02*
D03*
X397795Y286221D02*
D03*
X387795D02*
D03*
X154488Y186221D02*
D03*
X144488D02*
D03*
X215512Y192520D02*
D03*
X205512D02*
D03*
X207874Y280315D02*
D03*
X197874D02*
D03*
X249606Y153150D02*
D03*
X239606D02*
D03*
X481653Y283465D02*
D03*
X471654D02*
D03*
X365000Y295000D02*
D03*
X355000D02*
D03*
X207087Y259055D02*
D03*
X197087D02*
D03*
X241339Y299370D02*
D03*
Y289370D02*
D03*
X292126Y301181D02*
D03*
X282126D02*
D03*
X359291Y403543D02*
D03*
X369291D02*
D03*
X242362Y405118D02*
D03*
X252362D02*
D03*
X329528Y341339D02*
D03*
X339528D02*
D03*
X271260Y386221D02*
D03*
X281260D02*
D03*
X104173Y189370D02*
D03*
X114173D02*
D03*
X72284Y188583D02*
D03*
X82284D02*
D03*
X308110Y169685D02*
D03*
X318110D02*
D03*
D54*
X491890Y38484D02*
D03*
X451870D02*
D03*
X411181Y38583D02*
D03*
X370630D02*
D03*
X330079D02*
D03*
X131890D02*
D03*
X172598D02*
D03*
X213307D02*
D03*
X254095D02*
D03*
X223461Y461480D02*
D03*
X102520D02*
D03*
X142500Y461500D02*
D03*
X62020Y461480D02*
D03*
X183020D02*
D03*
D55*
X578346Y146063D02*
D03*
X578740Y128740D02*
D03*
X18087Y17400D02*
D03*
Y482400D02*
D03*
X583087D02*
D03*
X580587Y17400D02*
D03*
D56*
X209409Y114449D02*
D03*
D57*
X199409D02*
D03*
X189409D02*
D03*
X179409D02*
D03*
X169409D02*
D03*
X159409D02*
D03*
X149409D02*
D03*
X139409D02*
D03*
Y83189D02*
D03*
X149409D02*
D03*
X159409D02*
D03*
X169409D02*
D03*
X179409D02*
D03*
X189409D02*
D03*
X199409D02*
D03*
X209409D02*
D03*
X422165Y137205D02*
D03*
Y127205D02*
D03*
Y117205D02*
D03*
Y107205D02*
D03*
Y97205D02*
D03*
Y87205D02*
D03*
Y77205D02*
D03*
X453425D02*
D03*
Y87205D02*
D03*
Y97205D02*
D03*
Y107205D02*
D03*
Y117205D02*
D03*
Y127205D02*
D03*
Y137205D02*
D03*
Y147205D02*
D03*
X367205Y87598D02*
D03*
Y97598D02*
D03*
Y107598D02*
D03*
Y117598D02*
D03*
Y127598D02*
D03*
Y137598D02*
D03*
Y147598D02*
D03*
X335945D02*
D03*
Y137598D02*
D03*
Y127598D02*
D03*
Y117598D02*
D03*
Y107598D02*
D03*
Y97598D02*
D03*
Y87598D02*
D03*
Y77598D02*
D03*
D58*
X573551Y224449D02*
D03*
D59*
Y234449D02*
D03*
Y244449D02*
D03*
Y254449D02*
D03*
D60*
X422165Y147205D02*
D03*
X367205Y77598D02*
D03*
D61*
X337804Y228193D02*
D03*
X109063D02*
D03*
D62*
X502835Y234098D02*
D03*
X399685Y228193D02*
D03*
X328552Y234098D02*
D03*
X118315Y228193D02*
D03*
D63*
X83071Y338661D02*
D03*
X103071D02*
D03*
Y358661D02*
D03*
X83071D02*
D03*
X130551Y384882D02*
D03*
X150551D02*
D03*
Y404882D02*
D03*
X130551D02*
D03*
X129764Y338425D02*
D03*
X149764D02*
D03*
Y358425D02*
D03*
X129764D02*
D03*
X26614Y384882D02*
D03*
X46614D02*
D03*
Y404882D02*
D03*
X26614D02*
D03*
X86850Y288425D02*
D03*
X106850D02*
D03*
Y308425D02*
D03*
X86850D02*
D03*
X25433Y288425D02*
D03*
X45433D02*
D03*
Y308425D02*
D03*
X25433D02*
D03*
X26063Y337008D02*
D03*
X46063D02*
D03*
Y357008D02*
D03*
X26063D02*
D03*
X81339Y384882D02*
D03*
X101339D02*
D03*
Y404882D02*
D03*
X81339D02*
D03*
D64*
X558268Y146850D02*
D03*
X571260Y147244D02*
D03*
X194095Y318898D02*
D03*
X181102Y132677D02*
D03*
X237606Y211107D02*
D03*
X87008Y471260D02*
D03*
X17323Y64567D02*
D03*
X26378Y66535D02*
D03*
X17717Y105118D02*
D03*
X27165Y107480D02*
D03*
X17717Y144488D02*
D03*
X25984Y147244D02*
D03*
X28346Y187795D02*
D03*
X18504Y187008D02*
D03*
X85433Y479921D02*
D03*
X122835Y481496D02*
D03*
X124016Y472835D02*
D03*
X248819Y470866D02*
D03*
X247638Y483071D02*
D03*
X211024Y472047D02*
D03*
X203839Y482776D02*
D03*
X169685Y472047D02*
D03*
X167323Y483071D02*
D03*
X538189Y187795D02*
D03*
X531453Y194311D02*
D03*
X515993Y201820D02*
D03*
X496850Y170866D02*
D03*
X512992Y144488D02*
D03*
X594488Y244094D02*
D03*
X592520Y234646D02*
D03*
X203543Y227559D02*
D03*
X462247Y245317D02*
D03*
X257343Y228603D02*
D03*
X266756Y246063D02*
D03*
X310047Y245278D02*
D03*
X283858Y323622D02*
D03*
X284252Y314961D02*
D03*
X478346Y175591D02*
D03*
X196457Y246063D02*
D03*
X202362Y170079D02*
D03*
X453937Y228740D02*
D03*
X486221Y229528D02*
D03*
X497316Y244765D02*
D03*
X573622Y216929D02*
D03*
X530953Y181311D02*
D03*
X507480Y200394D02*
D03*
X172850Y180709D02*
D03*
X173228Y186614D02*
D03*
X206693Y183071D02*
D03*
X245669Y180709D02*
D03*
X279506Y182655D02*
D03*
X285827Y170472D02*
D03*
X288189Y246063D02*
D03*
X407874Y363779D02*
D03*
X403543Y376772D02*
D03*
X374016D02*
D03*
X377953Y385433D02*
D03*
X269685Y367323D02*
D03*
X265354Y379134D02*
D03*
X231890Y377165D02*
D03*
X232283Y387402D02*
D03*
X198031Y324803D02*
D03*
X231496Y314961D02*
D03*
X32677Y50000D02*
D03*
X446520Y57926D02*
D03*
X475591Y136614D02*
D03*
X340157Y310629D02*
D03*
X295276Y314961D02*
D03*
X324000Y305000D02*
D03*
X363851Y329881D02*
D03*
X365000Y315000D02*
D03*
X408661Y326772D02*
D03*
X409055Y315354D02*
D03*
X454331Y302362D02*
D03*
X477262Y319818D02*
D03*
X478517Y305483D02*
D03*
X312992Y77165D02*
D03*
X224016Y73622D02*
D03*
X474016Y151969D02*
D03*
X346457Y321654D02*
D03*
X389370Y87008D02*
D03*
X372835Y147638D02*
D03*
X398031Y316717D02*
D03*
X123013Y43523D02*
D03*
X146315Y57874D02*
D03*
X214567Y171260D02*
D03*
X232283Y173594D02*
D03*
X215748Y199213D02*
D03*
X288402Y210630D02*
D03*
X230500Y362000D02*
D03*
X192000Y300000D02*
D03*
X180812Y245382D02*
D03*
X196514Y210961D02*
D03*
X248819Y252791D02*
D03*
X270000Y254547D02*
D03*
X362874Y253740D02*
D03*
X388976Y249606D02*
D03*
X427638Y211107D02*
D03*
X136912Y245374D02*
D03*
X133669Y211107D02*
D03*
X160128Y246203D02*
D03*
X152567Y211107D02*
D03*
X177764D02*
D03*
X457086Y282283D02*
D03*
X413779Y283070D02*
D03*
X310236Y206693D02*
D03*
X462205Y210236D02*
D03*
X304331Y320079D02*
D03*
X265953Y211107D02*
D03*
X324410Y170079D02*
D03*
X492520Y209842D02*
D03*
X178347Y75197D02*
D03*
X175197Y100000D02*
D03*
X164173Y175591D02*
D03*
X177953Y201969D02*
D03*
X172850Y165500D02*
D03*
X255118Y153543D02*
D03*
X214173Y259055D02*
D03*
X242610Y257830D02*
D03*
X238342Y260312D02*
D03*
X296457Y301181D02*
D03*
X281496Y379921D02*
D03*
X410630Y387008D02*
D03*
X345276Y341339D02*
D03*
X403543Y286221D02*
D03*
X375984Y403150D02*
D03*
X241732Y306299D02*
D03*
X508661Y163779D02*
D03*
X470866Y168504D02*
D03*
X248425Y200394D02*
D03*
X244094Y44488D02*
D03*
X203150Y43701D02*
D03*
X218504Y324803D02*
D03*
X577559Y98032D02*
D03*
X418110Y314567D02*
D03*
X453543Y311748D02*
D03*
X562205Y254331D02*
D03*
X574000Y433000D02*
D03*
X395669Y385827D02*
D03*
X252362D02*
D03*
X481890Y44094D02*
D03*
X441732D02*
D03*
X401181Y44882D02*
D03*
X360236Y45669D02*
D03*
X320472D02*
D03*
X32283Y90551D02*
D03*
X46850Y172047D02*
D03*
X325813Y296391D02*
D03*
X419000Y271500D02*
D03*
X354500Y275500D02*
D03*
X352500Y285000D02*
D03*
X318110Y266142D02*
D03*
X266047Y262453D02*
D03*
X162598Y43701D02*
D03*
X221654Y125591D02*
D03*
X393000Y307500D02*
D03*
X307000Y414000D02*
D03*
X306000Y422500D02*
D03*
X369500Y359000D02*
D03*
X255000Y307500D02*
D03*
X245000Y165500D02*
D03*
X298000Y276000D02*
D03*
X278500Y467500D02*
D03*
X405500Y458500D02*
D03*
X447000Y468000D02*
D03*
X367500D02*
D03*
X359000Y468500D02*
D03*
X321500Y484500D02*
D03*
X300000Y453000D02*
D03*
X296000Y285000D02*
D03*
X484000Y437500D02*
D03*
X477500Y445000D02*
D03*
X543500Y474500D02*
D03*
X500000Y463500D02*
D03*
X563500Y395500D02*
D03*
X575000Y352500D02*
D03*
X434500Y297000D02*
D03*
X434000Y287500D02*
D03*
X484953Y188811D02*
D03*
D65*
X467323Y184252D02*
D03*
X463453Y194811D02*
D03*
X460500Y474500D02*
D03*
M02*
