G04*
G04 #@! TF.GenerationSoftware,Altium Limited,Altium Designer,20.1.8 (145)*
G04*
G04 Layer_Color=16711935*
%FSLAX25Y25*%
%MOIN*%
G70*
G04*
G04 #@! TF.SameCoordinates,44B5AA11-E380-4430-9A95-22E2941CD606*
G04*
G04*
G04 #@! TF.FilePolarity,Negative*
G04*
G01*
G75*
%ADD35R,0.04816X0.07965*%
%ADD36R,0.07965X0.04816*%
%ADD39O,0.10052X0.03359*%
%ADD40R,0.10052X0.03359*%
%ADD41R,0.03556X0.05918*%
%ADD48C,0.08674*%
%ADD49R,0.08674X0.08674*%
%ADD50C,0.06312*%
%ADD51C,0.16548*%
%ADD52C,0.10918*%
%ADD53C,0.07099*%
%ADD54R,0.08674X0.08674*%
%ADD55C,0.06800*%
%ADD56R,0.05249X0.05249*%
%ADD57C,0.05249*%
%ADD58R,0.08674X0.07099*%
%ADD59O,0.08674X0.07099*%
%ADD60R,0.05249X0.05249*%
%ADD61C,0.06107*%
%ADD62C,0.07000*%
%ADD63C,0.11430*%
%ADD64C,0.04737*%
%ADD65C,0.05800*%
%ADD87R,0.05918X0.03556*%
D35*
X283976Y323500D02*
D03*
X295000D02*
D03*
X397476Y307500D02*
D03*
X408500D02*
D03*
X473012Y307000D02*
D03*
X461988D02*
D03*
X320866Y26772D02*
D03*
X309842D02*
D03*
X360236Y27953D02*
D03*
X349213D02*
D03*
X401575D02*
D03*
X390551D02*
D03*
X442913Y27559D02*
D03*
X431890D02*
D03*
X483071Y26772D02*
D03*
X472047D02*
D03*
X121653Y22441D02*
D03*
X110630D02*
D03*
X163779Y22047D02*
D03*
X152756D02*
D03*
X204724D02*
D03*
X193701D02*
D03*
X244882Y24803D02*
D03*
X233858D02*
D03*
X70472Y471260D02*
D03*
X81496D02*
D03*
X108268Y473228D02*
D03*
X119291D02*
D03*
X153150Y472835D02*
D03*
X164173D02*
D03*
X194095Y472047D02*
D03*
X205118D02*
D03*
X233071Y470866D02*
D03*
X244094D02*
D03*
X351988Y325000D02*
D03*
X363012D02*
D03*
D36*
X28346Y171653D02*
D03*
Y182677D02*
D03*
X26378Y130315D02*
D03*
Y141339D02*
D03*
X25984Y90551D02*
D03*
Y101575D02*
D03*
X25197Y49606D02*
D03*
Y60630D02*
D03*
X512992Y138976D02*
D03*
Y127953D02*
D03*
X496453Y177299D02*
D03*
Y188323D02*
D03*
X196850Y221654D02*
D03*
Y232677D02*
D03*
X462598Y222835D02*
D03*
Y233858D02*
D03*
X492520Y220472D02*
D03*
Y231496D02*
D03*
X310236Y233071D02*
D03*
Y222047D02*
D03*
X265748Y233071D02*
D03*
Y222047D02*
D03*
X288189Y233071D02*
D03*
Y222047D02*
D03*
D39*
X454000Y297500D02*
D03*
Y287500D02*
D03*
Y277500D02*
D03*
X418173Y307500D02*
D03*
Y297500D02*
D03*
Y287500D02*
D03*
Y277500D02*
D03*
X340327Y305000D02*
D03*
Y295000D02*
D03*
Y285000D02*
D03*
X304500Y315000D02*
D03*
Y305000D02*
D03*
Y295000D02*
D03*
Y285000D02*
D03*
D40*
X454000Y307500D02*
D03*
X340327Y315000D02*
D03*
D41*
X71850Y480709D02*
D03*
X79331D02*
D03*
X109646Y482283D02*
D03*
X117126D02*
D03*
X154921Y482677D02*
D03*
X162402D02*
D03*
X191831Y482382D02*
D03*
X199311D02*
D03*
X234449Y482283D02*
D03*
X241929D02*
D03*
D48*
X8500Y181882D02*
D03*
Y171941D02*
D03*
X8520Y191902D02*
D03*
Y161902D02*
D03*
X38520Y191902D02*
D03*
Y181902D02*
D03*
Y171902D02*
D03*
X577953Y69685D02*
D03*
Y89370D02*
D03*
X481890Y38484D02*
D03*
X471890D02*
D03*
X461890D02*
D03*
X491890Y8484D02*
D03*
X461890D02*
D03*
X481850Y8465D02*
D03*
X471910D02*
D03*
X431890D02*
D03*
X441831D02*
D03*
X421870Y8484D02*
D03*
X451870D02*
D03*
X421870Y38484D02*
D03*
X431870D02*
D03*
X441870D02*
D03*
X401181Y38583D02*
D03*
X391181D02*
D03*
X381181D02*
D03*
X411181Y8583D02*
D03*
X381181D02*
D03*
X401142Y8563D02*
D03*
X391201D02*
D03*
X350650D02*
D03*
X360591D02*
D03*
X340630Y8583D02*
D03*
X370630D02*
D03*
X340630Y38583D02*
D03*
X350630D02*
D03*
X360630D02*
D03*
X320079D02*
D03*
X310079D02*
D03*
X300079D02*
D03*
X330079Y8583D02*
D03*
X300079D02*
D03*
X320039Y8563D02*
D03*
X310098D02*
D03*
X111909D02*
D03*
X121850D02*
D03*
X101890Y8583D02*
D03*
X131890D02*
D03*
X101890Y38583D02*
D03*
X111890D02*
D03*
X121890D02*
D03*
X162598D02*
D03*
X152598D02*
D03*
X142598D02*
D03*
X172598Y8583D02*
D03*
X142598D02*
D03*
X162559Y8563D02*
D03*
X152618D02*
D03*
X193327D02*
D03*
X203268D02*
D03*
X183307Y8583D02*
D03*
X213307D02*
D03*
X183307Y38583D02*
D03*
X193307D02*
D03*
X203307D02*
D03*
X244094D02*
D03*
X234095D02*
D03*
X224095D02*
D03*
X254095Y8583D02*
D03*
X224095D02*
D03*
X244055Y8563D02*
D03*
X234114D02*
D03*
X243441Y491500D02*
D03*
X233500D02*
D03*
X253461Y491480D02*
D03*
X223461D02*
D03*
X253461Y461480D02*
D03*
X243461D02*
D03*
X233461D02*
D03*
X112520D02*
D03*
X122520D02*
D03*
X132520D02*
D03*
X102520Y491480D02*
D03*
X132520D02*
D03*
X112559Y491500D02*
D03*
X122500D02*
D03*
X162480Y491520D02*
D03*
X152539D02*
D03*
X172500Y491500D02*
D03*
X142500D02*
D03*
X172500Y461500D02*
D03*
X162500D02*
D03*
X152500D02*
D03*
X72020Y461480D02*
D03*
X82020D02*
D03*
X92020D02*
D03*
X62020Y491480D02*
D03*
X92020D02*
D03*
X72059Y491500D02*
D03*
X82000D02*
D03*
X203000D02*
D03*
X193059D02*
D03*
X213020Y491480D02*
D03*
X183020D02*
D03*
X213020Y461480D02*
D03*
X203020D02*
D03*
X193020D02*
D03*
X8555Y100787D02*
D03*
Y90847D02*
D03*
X8575Y110807D02*
D03*
Y80807D02*
D03*
X38575Y110807D02*
D03*
Y100807D02*
D03*
Y90807D02*
D03*
X38500Y131441D02*
D03*
Y141441D02*
D03*
Y151441D02*
D03*
X8500Y121441D02*
D03*
Y151441D02*
D03*
X8480Y131480D02*
D03*
Y141421D02*
D03*
X8555Y59941D02*
D03*
Y50000D02*
D03*
X8575Y69961D02*
D03*
Y39961D02*
D03*
X38575Y69961D02*
D03*
Y59961D02*
D03*
Y49961D02*
D03*
D49*
X38520Y161902D02*
D03*
X38575Y80807D02*
D03*
X38500Y121441D02*
D03*
X38575Y39961D02*
D03*
D50*
X421079Y464492D02*
D03*
X413047D02*
D03*
X405016D02*
D03*
X396984D02*
D03*
X417063Y471500D02*
D03*
X409031D02*
D03*
X401000D02*
D03*
X392969D02*
D03*
X333000Y464500D02*
D03*
X324969D02*
D03*
X316937D02*
D03*
X308906D02*
D03*
X328984Y471508D02*
D03*
X320953D02*
D03*
X312921D02*
D03*
X304890D02*
D03*
X570992Y379453D02*
D03*
Y387484D02*
D03*
Y395516D02*
D03*
Y403547D02*
D03*
X578000Y383469D02*
D03*
Y391500D02*
D03*
Y399532D02*
D03*
Y407563D02*
D03*
X516079Y470992D02*
D03*
X508047D02*
D03*
X500016D02*
D03*
X491984D02*
D03*
X512063Y478000D02*
D03*
X504032D02*
D03*
X496000D02*
D03*
X487968D02*
D03*
X529134Y129528D02*
D03*
Y139370D02*
D03*
Y149213D02*
D03*
D51*
X432063Y481500D02*
D03*
X382063D02*
D03*
X343984Y481508D02*
D03*
X293984D02*
D03*
X588000Y368468D02*
D03*
Y418469D02*
D03*
X527063Y488000D02*
D03*
X477063D02*
D03*
D52*
X439071Y467996D02*
D03*
X375055D02*
D03*
X350992Y468004D02*
D03*
X286976D02*
D03*
X574496Y361461D02*
D03*
Y425476D02*
D03*
X534071Y474496D02*
D03*
X470055D02*
D03*
X93071Y348661D02*
D03*
X140551Y394882D02*
D03*
X139764Y348425D02*
D03*
X36614Y394882D02*
D03*
X96850Y298425D02*
D03*
X35433D02*
D03*
X36063Y347008D02*
D03*
X91339Y394882D02*
D03*
D53*
X417717Y387402D02*
D03*
Y377402D02*
D03*
X397795Y286221D02*
D03*
X387795D02*
D03*
X154488Y186221D02*
D03*
X144488D02*
D03*
X215512Y192520D02*
D03*
X205512D02*
D03*
X207874Y280315D02*
D03*
X197874D02*
D03*
X249606Y153150D02*
D03*
X239606D02*
D03*
X481653Y283465D02*
D03*
X471654D02*
D03*
X365000Y295000D02*
D03*
X355000D02*
D03*
X207087Y259055D02*
D03*
X197087D02*
D03*
X241339Y299370D02*
D03*
Y289370D02*
D03*
X292126Y301181D02*
D03*
X282126D02*
D03*
X359291Y403543D02*
D03*
X369291D02*
D03*
X242362Y405118D02*
D03*
X252362D02*
D03*
X329528Y341339D02*
D03*
X339528D02*
D03*
X271260Y386221D02*
D03*
X281260D02*
D03*
X104173Y189370D02*
D03*
X114173D02*
D03*
X72284Y188583D02*
D03*
X82284D02*
D03*
X308110Y169685D02*
D03*
X318110D02*
D03*
D54*
X491890Y38484D02*
D03*
X451870D02*
D03*
X411181Y38583D02*
D03*
X370630D02*
D03*
X330079D02*
D03*
X131890D02*
D03*
X172598D02*
D03*
X213307D02*
D03*
X254095D02*
D03*
X223461Y461480D02*
D03*
X102520D02*
D03*
X142500Y461500D02*
D03*
X62020Y461480D02*
D03*
X183020D02*
D03*
D55*
X578346Y146063D02*
D03*
X578740Y128740D02*
D03*
X18087Y17400D02*
D03*
Y482400D02*
D03*
X583087D02*
D03*
X580587Y17400D02*
D03*
D56*
X209409Y114449D02*
D03*
D57*
X199409D02*
D03*
X189409D02*
D03*
X179409D02*
D03*
X169409D02*
D03*
X159409D02*
D03*
X149409D02*
D03*
X139409D02*
D03*
Y83189D02*
D03*
X149409D02*
D03*
X159409D02*
D03*
X169409D02*
D03*
X179409D02*
D03*
X189409D02*
D03*
X199409D02*
D03*
X209409D02*
D03*
X422165Y137205D02*
D03*
Y127205D02*
D03*
Y117205D02*
D03*
Y107205D02*
D03*
Y97205D02*
D03*
Y87205D02*
D03*
Y77205D02*
D03*
X453425D02*
D03*
Y87205D02*
D03*
Y97205D02*
D03*
Y107205D02*
D03*
Y117205D02*
D03*
Y127205D02*
D03*
Y137205D02*
D03*
Y147205D02*
D03*
X367205Y87598D02*
D03*
Y97598D02*
D03*
Y107598D02*
D03*
Y117598D02*
D03*
Y127598D02*
D03*
Y137598D02*
D03*
Y147598D02*
D03*
X335945D02*
D03*
Y137598D02*
D03*
Y127598D02*
D03*
Y117598D02*
D03*
Y107598D02*
D03*
Y97598D02*
D03*
Y87598D02*
D03*
Y77598D02*
D03*
D58*
X573551Y224449D02*
D03*
D59*
Y234449D02*
D03*
Y244449D02*
D03*
Y254449D02*
D03*
D60*
X422165Y147205D02*
D03*
X367205Y77598D02*
D03*
D61*
X337804Y228193D02*
D03*
X109063D02*
D03*
D62*
X502835Y234098D02*
D03*
X399685Y228193D02*
D03*
X328552Y234098D02*
D03*
X118315Y228193D02*
D03*
D63*
X83071Y338661D02*
D03*
X103071D02*
D03*
Y358661D02*
D03*
X83071D02*
D03*
X130551Y384882D02*
D03*
X150551D02*
D03*
Y404882D02*
D03*
X130551D02*
D03*
X129764Y338425D02*
D03*
X149764D02*
D03*
Y358425D02*
D03*
X129764D02*
D03*
X26614Y384882D02*
D03*
X46614D02*
D03*
Y404882D02*
D03*
X26614D02*
D03*
X86850Y288425D02*
D03*
X106850D02*
D03*
Y308425D02*
D03*
X86850D02*
D03*
X25433Y288425D02*
D03*
X45433D02*
D03*
Y308425D02*
D03*
X25433D02*
D03*
X26063Y337008D02*
D03*
X46063D02*
D03*
Y357008D02*
D03*
X26063D02*
D03*
X81339Y384882D02*
D03*
X101339D02*
D03*
Y404882D02*
D03*
X81339D02*
D03*
D64*
X558268Y146850D02*
D03*
X571260Y147244D02*
D03*
X194095Y318898D02*
D03*
X181102Y132677D02*
D03*
X237606Y211107D02*
D03*
X87008Y471260D02*
D03*
X17323Y64567D02*
D03*
X26378Y66535D02*
D03*
X17717Y105118D02*
D03*
X27165Y107480D02*
D03*
X17717Y144488D02*
D03*
X25984Y147244D02*
D03*
X28346Y187795D02*
D03*
X18504Y187008D02*
D03*
X85433Y479921D02*
D03*
X122835Y481496D02*
D03*
X124016Y472835D02*
D03*
X248819Y470866D02*
D03*
X247638Y483071D02*
D03*
X211024Y472047D02*
D03*
X203839Y482776D02*
D03*
X169685Y472047D02*
D03*
X167323Y483071D02*
D03*
X538189Y187795D02*
D03*
X531453Y194311D02*
D03*
X515993Y201820D02*
D03*
X496850Y170866D02*
D03*
X512992Y144488D02*
D03*
X594488Y244094D02*
D03*
X592520Y234646D02*
D03*
X203543Y227559D02*
D03*
X462247Y245317D02*
D03*
X257343Y228603D02*
D03*
X266756Y246063D02*
D03*
X310047Y245278D02*
D03*
X283858Y323622D02*
D03*
X284252Y314961D02*
D03*
X478346Y175591D02*
D03*
X196457Y246063D02*
D03*
X202362Y170079D02*
D03*
X453937Y228740D02*
D03*
X486221Y229528D02*
D03*
X497316Y244765D02*
D03*
X573622Y216929D02*
D03*
X530953Y181311D02*
D03*
X507480Y200394D02*
D03*
X172850Y180709D02*
D03*
X173228Y186614D02*
D03*
X206693Y183071D02*
D03*
X245669Y180709D02*
D03*
X279506Y182655D02*
D03*
X285827Y170472D02*
D03*
X288189Y246063D02*
D03*
X407874Y363779D02*
D03*
X403543Y376772D02*
D03*
X374016D02*
D03*
X377953Y385433D02*
D03*
X269685Y367323D02*
D03*
X265354Y379134D02*
D03*
X231890Y377165D02*
D03*
X232283Y387402D02*
D03*
X198031Y324803D02*
D03*
X231496Y314961D02*
D03*
X32677Y50000D02*
D03*
X446520Y57926D02*
D03*
X475591Y136614D02*
D03*
X340157Y310629D02*
D03*
X295276Y314961D02*
D03*
X324000Y305000D02*
D03*
X363851Y329881D02*
D03*
X365000Y315000D02*
D03*
X408661Y326772D02*
D03*
X409055Y315354D02*
D03*
X454331Y302362D02*
D03*
X477262Y319818D02*
D03*
X478517Y305483D02*
D03*
X312992Y77165D02*
D03*
X224016Y73622D02*
D03*
X474016Y151969D02*
D03*
X346457Y321654D02*
D03*
X389370Y87008D02*
D03*
X372835Y147638D02*
D03*
X398031Y316717D02*
D03*
X123013Y43523D02*
D03*
X146315Y57874D02*
D03*
X214567Y171260D02*
D03*
X232283Y173594D02*
D03*
X215748Y199213D02*
D03*
X288402Y210630D02*
D03*
X230500Y362000D02*
D03*
X192000Y300000D02*
D03*
X180812Y245382D02*
D03*
X196514Y210961D02*
D03*
X248819Y252791D02*
D03*
X270000Y254547D02*
D03*
X362874Y253740D02*
D03*
X388976Y249606D02*
D03*
X427638Y211107D02*
D03*
X136912Y245374D02*
D03*
X133669Y211107D02*
D03*
X160128Y246203D02*
D03*
X152567Y211107D02*
D03*
X177764D02*
D03*
X457086Y282283D02*
D03*
X413779Y283070D02*
D03*
X310236Y206693D02*
D03*
X462205Y210236D02*
D03*
X304331Y320079D02*
D03*
X265953Y211107D02*
D03*
X324410Y170079D02*
D03*
X492520Y209842D02*
D03*
X178347Y75197D02*
D03*
X175197Y100000D02*
D03*
X164173Y175591D02*
D03*
X177953Y201969D02*
D03*
X172850Y165500D02*
D03*
X255118Y153543D02*
D03*
X214173Y259055D02*
D03*
X242610Y257830D02*
D03*
X238342Y260312D02*
D03*
X296457Y301181D02*
D03*
X281496Y379921D02*
D03*
X410630Y387008D02*
D03*
X345276Y341339D02*
D03*
X403543Y286221D02*
D03*
X375984Y403150D02*
D03*
X241732Y306299D02*
D03*
X508661Y163779D02*
D03*
X470866Y168504D02*
D03*
X248425Y200394D02*
D03*
X244094Y44488D02*
D03*
X203150Y43701D02*
D03*
X218504Y324803D02*
D03*
X577559Y98032D02*
D03*
X418110Y314567D02*
D03*
X453543Y311748D02*
D03*
X562205Y254331D02*
D03*
X574000Y433000D02*
D03*
X395669Y385827D02*
D03*
X252362D02*
D03*
X481890Y44094D02*
D03*
X441732D02*
D03*
X401181Y44882D02*
D03*
X360236Y45669D02*
D03*
X320472D02*
D03*
X32283Y90551D02*
D03*
X46850Y172047D02*
D03*
X325813Y296391D02*
D03*
X419000Y271500D02*
D03*
X354500Y275500D02*
D03*
X352500Y285000D02*
D03*
X318110Y266142D02*
D03*
X266047Y262453D02*
D03*
X162598Y43701D02*
D03*
X221654Y125591D02*
D03*
X393000Y307500D02*
D03*
X307000Y414000D02*
D03*
X306000Y422500D02*
D03*
X369500Y359000D02*
D03*
X255000Y307500D02*
D03*
X245000Y165500D02*
D03*
X298000Y276000D02*
D03*
X278500Y467500D02*
D03*
X405500Y458500D02*
D03*
X447000Y468000D02*
D03*
X367500D02*
D03*
X359000Y468500D02*
D03*
X321500Y484500D02*
D03*
X300000Y453000D02*
D03*
X296000Y285000D02*
D03*
X484000Y437500D02*
D03*
X477500Y445000D02*
D03*
X543500Y474500D02*
D03*
X500000Y463500D02*
D03*
X563500Y395500D02*
D03*
X575000Y352500D02*
D03*
X434500Y297000D02*
D03*
X434000Y287500D02*
D03*
X484953Y188811D02*
D03*
D65*
X467323Y184252D02*
D03*
X463453Y194811D02*
D03*
X460500Y474500D02*
D03*
D87*
X17717Y139173D02*
D03*
Y131693D02*
D03*
X467323Y292323D02*
D03*
Y299803D02*
D03*
X18898Y174606D02*
D03*
Y182087D02*
D03*
X18110Y92913D02*
D03*
Y100394D02*
D03*
X17323Y51378D02*
D03*
Y58858D02*
D03*
M02*
